# This file uses centimeters as units for non-parametric coordinates.

mtllib 03_PitchPracticeTube.mtl
g default
v 380.422852 1026.802747 289.928332
v 323.607025 1138.310194 289.928332
v 235.114243 1226.802991 289.928332
v 123.606857 1283.618787 289.928332
v 0.000000 1303.196058 289.928332
v -123.606857 1283.618665 289.928332
v -235.114197 1226.802869 289.928332
v -323.606903 1138.310071 289.928332
v -380.422699 1026.802747 289.928332
v -400.000092 903.195936 289.928332
v -380.422699 779.589124 289.928332
v -323.606873 668.081800 289.928332
v -235.114151 579.589124 289.928332
v -123.606827 522.773267 289.928332
v -0.000012 503.195875 289.928332
v 123.606789 522.773328 289.928332
v 235.114105 579.589124 289.928332
v 323.606812 668.081800 289.928332
v 380.422607 779.589124 289.928332
v 400.000000 903.195936 289.928332
v 380.422852 1026.802747 14215.435656
v 323.607025 1138.310194 14215.435656
v 235.114243 1226.802991 14215.435656
v 123.606857 1283.618787 14215.435656
v 0.000000 1303.196058 14215.435656
v -123.606857 1283.618665 14215.435656
v -235.114197 1226.802869 14215.435656
v -323.606903 1138.310071 14215.435656
v -380.422699 1026.802747 14215.435656
v -400.000092 903.195936 14215.435656
v -380.422699 779.589124 14215.435656
v -323.606873 668.081800 14215.435656
v -235.114151 579.589124 14215.435656
v -123.606827 522.773267 14215.435656
v -0.000012 503.195875 14215.435656
v 123.606789 522.773328 14215.435656
v 235.114105 579.589124 14215.435656
v 323.606812 668.081800 14215.435656
v 380.422607 779.589124 14215.435656
v 400.000000 903.195936 14215.435656
v 671.543335 1121.393446 -388.421277
v 571.248901 1318.232435 -388.421277
v 415.036499 1474.444837 -388.421277
v 218.197601 1574.739271 -388.421277
v 0.000035 1609.297987 -388.421277
v -218.197540 1574.739027 -388.421277
v -415.036316 1474.444471 -388.421277
v -571.248413 1318.232191 -388.421277
v -671.542908 1121.393446 -388.421277
v -706.101929 903.195936 -388.421277
v -671.542908 684.998426 -388.421277
v -571.248352 488.159681 -388.421277
v -415.036255 331.947645 -388.421277
v -218.197510 231.652967 -388.421277
v 0.000014 197.093885 -388.421277
v 218.197479 231.653089 -388.421277
v 415.036255 331.947645 -388.421277
v 571.248352 488.159681 -388.421277
v 671.542847 684.998426 -388.421277
v 706.101868 903.195936 -388.421277
v 677.622559 1123.368665 14980.349231
v 576.420166 1321.989698 14980.349231
v 418.793762 1479.616102 14980.349231
v 220.172897 1580.818433 14980.349231
v 0.000036 1615.690137 14980.349231
v -220.172821 1580.818250 14980.349231
v -418.793579 1479.615858 14980.349231
v -576.419861 1321.989393 14980.349231
v -677.622314 1123.368665 14980.349231
v -712.494141 903.195912 14980.349231
v -677.622314 683.023130 14980.349231
v -576.419800 484.402357 14980.349231
v -418.793518 326.776136 14980.349231
v -220.172760 225.573682 14980.349231
v 0.000015 190.701795 14980.349231
v 220.172775 225.573804 14980.349231
v 418.793457 326.776136 14980.349231
v 576.419800 484.402357 14980.349231
v 677.622192 683.023130 14980.349231
v 712.494080 903.195912 14980.349231
vt 0.924093 0.988813
vt 0.924086 0.973135
vt 0.924079 0.957458
vt 0.924072 0.941780
vt 0.924064 0.926102
vt 0.924057 0.910424
vt 0.924050 0.894746
vt 0.924043 0.879069
vt 0.924035 0.863391
vt 0.924028 0.847713
vt 0.924021 0.832035
vt 0.924013 0.816358
vt 0.924006 0.800680
vt 0.923999 0.785003
vt 0.923992 0.769324
vt 0.923984 0.753647
vt 0.923977 0.737969
vt 0.923970 0.722292
vt 0.923963 0.706613
vt 0.923955 0.690936
vt 0.923948 0.675258
vt 0.298304 0.988978
vt 0.298297 0.973300
vt 0.298290 0.957623
vt 0.298283 0.941945
vt 0.298275 0.926266
vt 0.298268 0.910589
vt 0.298261 0.894911
vt 0.298254 0.879234
vt 0.298246 0.863556
vt 0.298239 0.847878
vt 0.298232 0.832200
vt 0.298225 0.816523
vt 0.298217 0.800845
vt 0.298210 0.785167
vt 0.298203 0.769489
vt 0.298195 0.753811
vt 0.298188 0.738134
vt 0.298181 0.722456
vt 0.298174 0.706778
vt 0.298166 0.691100
vt 0.298159 0.675423
vt 0.834967 0.002239
vt 0.884657 0.002239
vt 0.884657 0.051929
vt 0.834967 0.051929
vt 0.834967 0.058024
vt 0.884657 0.058024
vt 0.884657 0.107714
vt 0.834967 0.107714
vt 0.768386 0.099412
vt 0.818076 0.099412
vt 0.818076 0.149102
vt 0.768386 0.149102
vt 0.824170 0.163498
vt 0.824170 0.113808
vt 0.873860 0.113808
vt 0.873860 0.163498
vt 0.768386 0.204887
vt 0.768386 0.155196
vt 0.818076 0.155196
vt 0.818076 0.204887
vt 0.824170 0.219291
vt 0.824170 0.169601
vt 0.873860 0.169601
vt 0.873860 0.219291
vt 0.768386 0.260679
vt 0.768386 0.210989
vt 0.818076 0.210989
vt 0.818076 0.260679
vt 0.824170 0.275075
vt 0.824170 0.225385
vt 0.873860 0.225385
vt 0.873860 0.275075
vt 0.768386 0.316464
vt 0.768386 0.266774
vt 0.818076 0.266774
vt 0.818076 0.316464
vt 0.824170 0.330860
vt 0.824170 0.281170
vt 0.873860 0.281170
vt 0.873860 0.330860
vt 0.768386 0.323054
vt 0.818076 0.323054
vt 0.818076 0.372744
vt 0.768386 0.372744
vt 0.824170 0.387808
vt 0.824170 0.338118
vt 0.873860 0.338118
vt 0.873860 0.387808
vt 0.766587 0.428041
vt 0.766587 0.378351
vt 0.816277 0.378351
vt 0.816277 0.428041
vt 0.831368 0.442437
vt 0.831368 0.392747
vt 0.881058 0.392747
vt 0.881058 0.442437
vt 0.253735 0.473028
vt 0.253735 0.423338
vt 0.303425 0.423338
vt 0.303425 0.473028
vt 0.433684 0.473028
vt 0.433684 0.423338
vt 0.483374 0.423338
vt 0.483374 0.473028
vt 0.489467 0.423834
vt 0.539158 0.423834
vt 0.539158 0.473524
vt 0.489467 0.473524
vt 0.685610 0.474192
vt 0.685610 0.424502
vt 0.735301 0.424502
vt 0.735301 0.474192
vt 0.741394 0.483834
vt 0.741394 0.434144
vt 0.791084 0.434144
vt 0.791084 0.483834
vt 0.797178 0.498230
vt 0.797178 0.448540
vt 0.846868 0.448540
vt 0.846868 0.498230
vt 0.545251 0.424665
vt 0.584305 0.424665
vt 0.584305 0.463719
vt 0.545251 0.463719
vt 0.852962 0.449858
vt 0.892016 0.449858
vt 0.892016 0.488912
vt 0.852962 0.488912
vt 0.545251 0.469652
vt 0.584305 0.469652
vt 0.584305 0.508707
vt 0.545251 0.508707
vt 0.485868 0.480301
vt 0.524923 0.480301
vt 0.524923 0.519355
vt 0.485868 0.519355
vt 0.685610 0.480301
vt 0.724665 0.480301
vt 0.724665 0.519355
vt 0.685610 0.519355
vt 0.253735 0.480301
vt 0.292789 0.480301
vt 0.292789 0.519355
vt 0.253735 0.519355
vt 0.296923 0.518200
vt 0.296923 0.479145
vt 0.335977 0.479145
vt 0.335977 0.518200
vt 0.433684 0.518868
vt 0.433684 0.479813
vt 0.472738 0.479813
vt 0.472738 0.518868
vt 0.730597 0.528510
vt 0.730597 0.489456
vt 0.769651 0.489456
vt 0.769651 0.528510
vt 0.852962 0.494854
vt 0.892016 0.494854
vt 0.892016 0.533908
vt 0.852962 0.533908
vt 0.775584 0.542906
vt 0.775584 0.503851
vt 0.814638 0.503851
vt 0.814638 0.542906
vt 0.530855 0.512543
vt 0.569909 0.512543
vt 0.569909 0.551597
vt 0.530855 0.551597
vt 0.478671 0.562394
vt 0.478671 0.523340
vt 0.517725 0.523340
vt 0.517725 0.562394
vt 0.685610 0.564193
vt 0.685610 0.525139
vt 0.724664 0.525139
vt 0.724665 0.564193
vt 0.253735 0.563038
vt 0.253735 0.523984
vt 0.292789 0.523984
vt 0.292789 0.563038
vt 0.296923 0.563706
vt 0.296923 0.524652
vt 0.335977 0.524652
vt 0.335977 0.563706
vt 0.433684 0.525297
vt 0.472738 0.525297
vt 0.472738 0.564351
vt 0.433684 0.564351
vt 0.730597 0.534294
vt 0.769651 0.534294
vt 0.769651 0.573348
vt 0.730597 0.573348
vt 0.820571 0.537893
vt 0.859625 0.537893
vt 0.859625 0.576947
vt 0.820571 0.576947
vt 0.865558 0.539387
vt 0.904612 0.539387
vt 0.904612 0.578441
vt 0.865558 0.578441
vn -0.950642 -0.308881 -0.029552
vn -0.950629 -0.308877 0.029990
vn -0.808653 -0.587521 0.029990
vn -0.808664 -0.587528 -0.029552
vn -0.587521 -0.808653 0.029990
vn -0.587528 -0.808664 -0.029552
vn -0.308877 -0.950629 0.029990
vn -0.308881 -0.950641 -0.029552
vn 0.000001 -0.999550 0.029990
vn 0.000001 -0.999563 -0.029552
vn 0.308878 -0.950629 0.029990
vn 0.308882 -0.950641 -0.029552
vn 0.587521 -0.808653 0.029990
vn 0.587529 -0.808664 -0.029552
vn 0.808653 -0.587521 0.029990
vn 0.808664 -0.587528 -0.029552
vn 0.950629 -0.308878 0.029990
vn 0.950641 -0.308882 -0.029552
vn 0.999550 -0.000000 0.029990
vn 0.999563 -0.000000 -0.029552
vn 0.950629 0.308878 0.029990
vn 0.950641 0.308882 -0.029552
vn 0.808653 0.587521 0.029990
vn 0.808664 0.587529 -0.029552
vn 0.587521 0.808653 0.029990
vn 0.587529 0.808664 -0.029552
vn 0.308878 0.950629 0.029990
vn 0.308882 0.950641 -0.029552
vn -0.000000 0.999550 0.029990
vn -0.000000 0.999563 -0.029552
vn -0.308878 0.950629 0.029990
vn -0.308882 0.950641 -0.029552
vn -0.587521 0.808653 0.029990
vn -0.587528 0.808664 -0.029552
vn -0.808653 0.587521 0.029990
vn -0.808664 0.587529 -0.029552
vn -0.950629 0.308878 0.029990
vn -0.950641 0.308882 -0.029552
vn -0.999550 0.000001 0.029990
vn -0.999563 0.000001 -0.029552
vn -0.737416 -0.535764 -0.411308
vn -0.866885 -0.281667 -0.411309
vn -0.535764 -0.737416 -0.411308
vn -0.281667 -0.866885 -0.411308
vn 0.000000 -0.911496 -0.411308
vn 0.281668 -0.866885 -0.411308
vn 0.535765 -0.737416 -0.411308
vn 0.737416 -0.535765 -0.411308
vn 0.866884 -0.281669 -0.411308
vn 0.911496 -0.000000 -0.411308
vn 0.866884 0.281669 -0.411308
vn 0.737416 0.535765 -0.411308
vn 0.535765 0.737416 -0.411308
vn 0.281668 0.866884 -0.411308
vn -0.000000 0.911496 -0.411308
vn -0.281668 0.866884 -0.411308
vn -0.535764 0.737416 -0.411308
vn -0.737416 0.535765 -0.411308
vn -0.866884 0.281669 -0.411308
vn -0.911496 0.000001 -0.411308
vn -0.880419 -0.286064 0.378192
vn -0.748929 -0.544128 0.378192
vn -0.544129 -0.748929 0.378192
vn -0.286065 -0.880419 0.378192
vn 0.000001 -0.925727 0.378192
vn 0.286065 -0.880419 0.378192
vn 0.544129 -0.748929 0.378192
vn 0.748929 -0.544129 0.378192
vn 0.880419 -0.286065 0.378192
vn 0.925727 0.000000 0.378192
vn 0.880419 0.286065 0.378192
vn 0.748929 0.544129 0.378192
vn 0.544129 0.748929 0.378192
vn 0.286065 0.880419 0.378192
vn -0.000000 0.925727 0.378192
vn -0.286065 0.880419 0.378192
vn -0.544128 0.748929 0.378192
vn -0.748929 0.544129 0.378192
vn -0.880419 0.286065 0.378192
vn -0.925727 0.000001 0.378192
s 1
g pCylinder2
usemtl initialShadingGroup
f 1/1/1 21/22/2 22/23/3 2/2/4
f 2/2/4 22/23/3 23/24/5 3/3/6
f 3/3/6 23/24/5 24/25/7 4/4/8
f 4/4/8 24/25/7 25/26/9 5/5/10
f 5/5/10 25/26/9 26/27/11 6/6/12
f 6/6/12 26/27/11 27/28/13 7/7/14
f 7/7/14 27/28/13 28/29/15 8/8/16
f 8/8/16 28/29/15 29/30/17 9/9/18
f 9/9/18 29/30/17 30/31/19 10/10/20
f 10/10/20 30/31/19 31/32/21 11/11/22
f 11/11/22 31/32/21 32/33/23 12/12/24
f 12/12/24 32/33/23 33/34/25 13/13/26
f 13/13/26 33/34/25 34/35/27 14/14/28
f 14/14/28 34/35/27 35/36/29 15/15/30
f 15/15/30 35/36/29 36/37/31 16/16/32
f 16/16/32 36/37/31 37/38/33 17/17/34
f 17/17/34 37/38/33 38/39/35 18/18/36
f 18/18/36 38/39/35 39/40/37 19/19/38
f 19/19/38 39/40/37 40/41/39 20/20/40
f 20/20/40 40/41/39 21/42/2 1/21/1
f 1/43/1 2/44/4 42/45/41 41/46/42
f 2/47/4 3/48/6 43/49/43 42/50/41
f 3/51/6 4/52/8 44/53/44 43/54/43
f 4/55/8 5/56/10 45/57/45 44/58/44
f 5/59/10 6/60/12 46/61/46 45/62/45
f 6/63/12 7/64/14 47/65/47 46/66/46
f 7/67/14 8/68/16 48/69/48 47/70/47
f 8/71/16 9/72/18 49/73/49 48/74/48
f 9/75/18 10/76/20 50/77/50 49/78/49
f 10/79/20 11/80/22 51/81/51 50/82/50
f 11/83/22 12/84/24 52/85/52 51/86/51
f 12/87/24 13/88/26 53/89/53 52/90/52
f 13/91/26 14/92/28 54/93/54 53/94/53
f 14/95/28 15/96/30 55/97/55 54/98/54
f 15/99/30 16/100/32 56/101/56 55/102/55
f 16/103/32 17/104/34 57/105/57 56/106/56
f 17/107/34 18/108/36 58/109/58 57/110/57
f 18/111/36 19/112/38 59/113/59 58/114/58
f 19/115/38 20/116/40 60/117/60 59/118/59
f 20/119/40 1/120/1 41/121/42 60/122/60
f 22/123/3 21/124/2 61/125/61 62/126/62
f 23/127/5 22/128/3 62/129/62 63/130/63
f 24/131/7 23/132/5 63/133/63 64/134/64
f 25/135/9 24/136/7 64/137/64 65/138/65
f 26/139/11 25/140/9 65/141/65 66/142/66
f 27/143/13 26/144/11 66/145/66 67/146/67
f 28/147/15 27/148/13 67/149/67 68/150/68
f 29/151/17 28/152/15 68/153/68 69/154/69
f 30/155/19 29/156/17 69/157/69 70/158/70
f 31/159/21 30/160/19 70/161/70 71/162/71
f 32/163/23 31/164/21 71/165/71 72/166/72
f 33/167/25 32/168/23 72/169/72 73/170/73
f 34/171/27 33/172/25 73/173/73 74/174/74
f 35/175/29 34/176/27 74/177/74 75/178/75
f 36/179/31 35/180/29 75/181/75 76/182/76
f 37/183/33 36/184/31 76/185/76 77/186/77
f 38/187/35 37/188/33 77/189/77 78/190/78
f 39/191/37 38/192/35 78/193/78 79/194/79
f 40/195/39 39/196/37 79/197/79 80/198/80
f 21/199/2 40/200/39 80/201/80 61/202/61
g default
v -400.000000 627.264023 2404.680951
v 400.000000 627.264023 2404.680951
v -400.000000 827.264023 2404.680951
v 400.000000 827.264023 2404.680951
v -400.000000 827.264023 2104.680951
v 400.000000 827.264023 2104.680951
v -400.000000 627.264023 2104.680951
v 400.000000 627.264023 2104.680951
vt 0.084066 0.003153
vt 0.166326 0.003153
vt 0.084066 0.085414
vt 0.166326 0.085414
vt 0.084066 0.167674
vt 0.166326 0.167674
vt 0.084066 0.249934
vt 0.166326 0.249934
vt 0.084066 0.332195
vt 0.166326 0.332195
vt 0.248587 0.003153
vt 0.248587 0.085414
vt 0.001806 0.003153
vt 0.001806 0.085414
vn 0.000000 0.000000 1.000000
vn 0.000000 0.000000 1.000000
vn 0.000000 0.000000 1.000000
vn 0.000000 0.000000 1.000000
vn 0.000000 1.000000 0.000000
vn 0.000000 1.000000 0.000000
vn 0.000000 1.000000 0.000000
vn 0.000000 1.000000 0.000000
vn 0.000000 0.000000 -1.000000
vn 0.000000 0.000000 -1.000000
vn 0.000000 0.000000 -1.000000
vn 0.000000 0.000000 -1.000000
vn 0.000000 -1.000000 0.000000
vn 0.000000 -1.000000 0.000000
vn 0.000000 -1.000000 0.000000
vn 0.000000 -1.000000 0.000000
vn 1.000000 0.000000 0.000000
vn 1.000000 0.000000 0.000000
vn 1.000000 0.000000 0.000000
vn 1.000000 0.000000 0.000000
vn -1.000000 0.000000 0.000000
vn -1.000000 0.000000 0.000000
vn -1.000000 0.000000 0.000000
vn -1.000000 0.000000 0.000000
s off
g pCube1
usemtl initialShadingGroup
f 81/203/81 82/204/82 84/206/83 83/205/84
f 83/205/85 84/206/86 86/208/87 85/207/88
f 85/207/89 86/208/90 88/210/91 87/209/92
f 87/209/93 88/210/94 82/212/95 81/211/96
f 82/204/97 88/213/98 86/214/99 84/206/100
f 87/215/101 81/203/102 83/205/103 85/216/104
g default
v -400.000000 951.212275 987.607720
v 400.000000 951.212275 987.607720
v -400.000000 1151.212275 987.607720
v 400.000000 1151.212275 987.607720
v -400.000000 1151.212275 687.607720
v 400.000000 1151.212275 687.607720
v -400.000000 951.212275 687.607720
v 400.000000 951.212275 687.607720
vt 0.335995 0.003153
vt 0.418256 0.003153
vt 0.335995 0.085414
vt 0.418256 0.085414
vt 0.335995 0.167674
vt 0.418256 0.167674
vt 0.335995 0.249934
vt 0.418256 0.249934
vt 0.335995 0.332195
vt 0.418256 0.332195
vt 0.500516 0.003153
vt 0.500516 0.085414
vt 0.253735 0.003153
vt 0.253735 0.085414
vn 0.000000 0.000000 1.000000
vn 0.000000 0.000000 1.000000
vn 0.000000 0.000000 1.000000
vn 0.000000 0.000000 1.000000
vn 0.000000 1.000000 0.000000
vn 0.000000 1.000000 0.000000
vn 0.000000 1.000000 0.000000
vn 0.000000 1.000000 0.000000
vn 0.000000 0.000000 -1.000000
vn 0.000000 0.000000 -1.000000
vn 0.000000 0.000000 -1.000000
vn 0.000000 0.000000 -1.000000
vn 0.000000 -1.000000 0.000000
vn 0.000000 -1.000000 0.000000
vn 0.000000 -1.000000 0.000000
vn 0.000000 -1.000000 0.000000
vn 1.000000 0.000000 0.000000
vn 1.000000 0.000000 0.000000
vn 1.000000 0.000000 0.000000
vn 1.000000 0.000000 0.000000
vn -1.000000 0.000000 0.000000
vn -1.000000 0.000000 0.000000
vn -1.000000 0.000000 0.000000
vn -1.000000 0.000000 0.000000
s off
g pCube2
usemtl initialShadingGroup
f 89/217/105 90/218/106 92/220/107 91/219/108
f 91/219/109 92/220/110 94/222/111 93/221/112
f 93/221/113 94/222/114 96/224/115 95/223/116
f 95/223/117 96/224/118 90/226/119 89/225/120
f 90/218/121 96/227/122 94/228/123 92/220/124
f 95/229/125 89/217/126 91/219/127 93/230/128
g default
v -400.000000 865.484516 4801.745404
v 400.000000 865.484516 4801.745404
v -400.000000 1065.484516 4801.745404
v 400.000000 1065.484516 4801.745404
v -400.000000 1065.484516 4501.745404
v 400.000000 1065.484516 4501.745404
v -400.000000 865.484516 4501.745404
v 400.000000 865.484516 4501.745404
vt 0.589722 0.003153
vt 0.671983 0.003153
vt 0.589722 0.085414
vt 0.671983 0.085414
vt 0.589722 0.167674
vt 0.671983 0.167674
vt 0.589722 0.249934
vt 0.671983 0.249934
vt 0.589722 0.332195
vt 0.671983 0.332195
vt 0.754243 0.003153
vt 0.754243 0.085414
vt 0.507462 0.003153
vt 0.507462 0.085414
vn 0.000000 0.000000 1.000000
vn 0.000000 0.000000 1.000000
vn 0.000000 0.000000 1.000000
vn 0.000000 0.000000 1.000000
vn 0.000000 1.000000 0.000000
vn 0.000000 1.000000 0.000000
vn 0.000000 1.000000 0.000000
vn 0.000000 1.000000 0.000000
vn 0.000000 0.000000 -1.000000
vn 0.000000 0.000000 -1.000000
vn 0.000000 0.000000 -1.000000
vn 0.000000 0.000000 -1.000000
vn 0.000000 -1.000000 0.000000
vn 0.000000 -1.000000 0.000000
vn 0.000000 -1.000000 0.000000
vn 0.000000 -1.000000 0.000000
vn 1.000000 0.000000 0.000000
vn 1.000000 0.000000 0.000000
vn 1.000000 0.000000 0.000000
vn 1.000000 0.000000 0.000000
vn -1.000000 0.000000 0.000000
vn -1.000000 0.000000 0.000000
vn -1.000000 0.000000 0.000000
vn -1.000000 0.000000 0.000000
s off
g pCube3
usemtl initialShadingGroup
f 97/231/129 98/232/130 100/234/131 99/233/132
f 99/233/133 100/234/134 102/236/135 101/235/136
f 101/235/137 102/236/138 104/238/139 103/237/140
f 103/237/141 104/238/142 98/240/143 97/239/144
f 98/232/145 104/241/146 102/242/147 100/234/148
f 103/243/149 97/231/150 99/233/151 101/244/152
g default
v -400.000000 523.659624 8162.915821
v 400.000000 523.659624 8162.915821
v -400.000000 723.659624 8162.915821
v 400.000000 723.659624 8162.915821
v -400.000000 723.659624 7862.915821
v 400.000000 723.659624 7862.915821
v -400.000000 523.659624 7862.915821
v 400.000000 523.659624 7862.915821
vt 0.091264 0.336060
vt 0.173524 0.336060
vt 0.091264 0.418320
vt 0.173524 0.418320
vt 0.091264 0.500581
vt 0.173524 0.500581
vt 0.091264 0.582841
vt 0.173524 0.582841
vt 0.091264 0.665101
vt 0.173524 0.665101
vt 0.255785 0.336060
vt 0.255785 0.418320
vt 0.009004 0.336060
vt 0.009004 0.418320
vn 0.000000 0.000000 1.000000
vn 0.000000 0.000000 1.000000
vn 0.000000 0.000000 1.000000
vn 0.000000 0.000000 1.000000
vn 0.000000 1.000000 0.000000
vn 0.000000 1.000000 0.000000
vn 0.000000 1.000000 0.000000
vn 0.000000 1.000000 0.000000
vn 0.000000 0.000000 -1.000000
vn 0.000000 0.000000 -1.000000
vn 0.000000 0.000000 -1.000000
vn 0.000000 0.000000 -1.000000
vn 0.000000 -1.000000 0.000000
vn 0.000000 -1.000000 0.000000
vn 0.000000 -1.000000 0.000000
vn 0.000000 -1.000000 0.000000
vn 1.000000 0.000000 0.000000
vn 1.000000 0.000000 0.000000
vn 1.000000 0.000000 0.000000
vn 1.000000 0.000000 0.000000
vn -1.000000 0.000000 0.000000
vn -1.000000 0.000000 0.000000
vn -1.000000 0.000000 0.000000
vn -1.000000 0.000000 0.000000
s off
g pCube4
usemtl initialShadingGroup
f 105/245/153 106/246/154 108/248/155 107/247/156
f 107/247/157 108/248/158 110/250/159 109/249/160
f 109/249/161 110/250/162 112/252/163 111/251/164
f 111/251/165 112/252/166 106/254/167 105/253/168
f 106/246/169 112/255/170 110/256/171 108/248/172
f 111/257/173 105/245/174 107/247/175 109/258/176
g default
v -400.000000 1072.675359 8162.915821
v 400.000000 1072.675359 8162.915821
v -400.000000 1272.675359 8162.915821
v 400.000000 1272.675359 8162.915821
v -400.000000 1272.675359 7862.915821
v 400.000000 1272.675359 7862.915821
v -400.000000 1072.675359 7862.915821
v 400.000000 1072.675359 7862.915821
vt 0.343193 0.336060
vt 0.425454 0.336060
vt 0.343193 0.418320
vt 0.425454 0.418320
vt 0.343193 0.500581
vt 0.425454 0.500581
vt 0.343193 0.582841
vt 0.425454 0.582841
vt 0.343193 0.665101
vt 0.425454 0.665101
vt 0.507714 0.336060
vt 0.507714 0.418320
vt 0.260933 0.336060
vt 0.260933 0.418320
vn 0.000000 0.000000 1.000000
vn 0.000000 0.000000 1.000000
vn 0.000000 0.000000 1.000000
vn 0.000000 0.000000 1.000000
vn 0.000000 1.000000 0.000000
vn 0.000000 1.000000 0.000000
vn 0.000000 1.000000 0.000000
vn 0.000000 1.000000 0.000000
vn 0.000000 0.000000 -1.000000
vn 0.000000 0.000000 -1.000000
vn 0.000000 0.000000 -1.000000
vn 0.000000 0.000000 -1.000000
vn 0.000000 -1.000000 0.000000
vn 0.000000 -1.000000 0.000000
vn 0.000000 -1.000000 0.000000
vn 0.000000 -1.000000 0.000000
vn 1.000000 0.000000 0.000000
vn 1.000000 0.000000 0.000000
vn 1.000000 0.000000 0.000000
vn 1.000000 0.000000 0.000000
vn -1.000000 0.000000 0.000000
vn -1.000000 0.000000 0.000000
vn -1.000000 0.000000 0.000000
vn -1.000000 0.000000 0.000000
s off
g pCube5
usemtl initialShadingGroup
f 113/259/177 114/260/178 116/262/179 115/261/180
f 115/261/181 116/262/182 118/264/183 117/263/184
f 117/263/185 118/264/186 120/266/187 119/265/188
f 119/265/189 120/266/190 114/268/191 113/267/192
f 114/260/193 120/269/194 118/270/195 116/262/196
f 119/271/197 113/259/198 115/261/199 117/272/200
g default
v -400.000000 958.949513 11289.219321
v 400.000000 958.949513 11289.219321
v -400.000000 1158.949513 11289.219321
v 400.000000 1158.949513 11289.219321
v -400.000000 1158.949513 10989.219321
v 400.000000 1158.949513 10989.219321
v -400.000000 958.949513 10989.219321
v 400.000000 958.949513 10989.219321
vt 0.596920 0.336060
vt 0.679181 0.336060
vt 0.596920 0.418320
vt 0.679181 0.418320
vt 0.596920 0.500581
vt 0.679181 0.500581
vt 0.596920 0.582841
vt 0.679181 0.582841
vt 0.596920 0.665101
vt 0.679181 0.665101
vt 0.761441 0.336060
vt 0.761441 0.418320
vt 0.514660 0.336060
vt 0.514660 0.418320
vn 0.000000 0.000000 1.000000
vn 0.000000 0.000000 1.000000
vn 0.000000 0.000000 1.000000
vn 0.000000 0.000000 1.000000
vn 0.000000 1.000000 0.000000
vn 0.000000 1.000000 0.000000
vn 0.000000 1.000000 0.000000
vn 0.000000 1.000000 0.000000
vn 0.000000 0.000000 -1.000000
vn 0.000000 0.000000 -1.000000
vn 0.000000 0.000000 -1.000000
vn 0.000000 0.000000 -1.000000
vn 0.000000 -1.000000 0.000000
vn 0.000000 -1.000000 0.000000
vn 0.000000 -1.000000 0.000000
vn 0.000000 -1.000000 0.000000
vn 1.000000 0.000000 0.000000
vn 1.000000 0.000000 0.000000
vn 1.000000 0.000000 0.000000
vn 1.000000 0.000000 0.000000
vn -1.000000 0.000000 0.000000
vn -1.000000 0.000000 0.000000
vn -1.000000 0.000000 0.000000
vn -1.000000 0.000000 0.000000
s off
g pCube6
usemtl initialShadingGroup
f 121/273/201 122/274/202 124/276/203 123/275/204
f 123/275/205 124/276/206 126/278/207 125/277/208
f 125/277/209 126/278/210 128/280/211 127/279/212
f 127/279/213 128/280/214 122/282/215 121/281/216
f 122/274/217 128/283/218 126/284/219 124/276/220
f 127/285/221 121/273/222 123/275/223 125/286/224
g default
v -400.000000 586.683743 13726.339795
v 400.000000 586.683743 13726.339795
v -400.000000 786.683743 13726.339795
v 400.000000 786.683743 13726.339795
v -400.000000 786.683743 13426.339795
v 400.000000 786.683743 13426.339795
v -400.000000 586.683743 13426.339795
v 400.000000 586.683743 13426.339795
vt 0.084066 0.668967
vt 0.166326 0.668967
vt 0.084066 0.751227
vt 0.166326 0.751227
vt 0.084066 0.833487
vt 0.166326 0.833487
vt 0.084066 0.915748
vt 0.166326 0.915748
vt 0.084066 0.998008
vt 0.166326 0.998008
vt 0.248587 0.668967
vt 0.248587 0.751227
vt 0.001806 0.668967
vt 0.001806 0.751227
vn 0.000000 0.000000 1.000000
vn 0.000000 0.000000 1.000000
vn 0.000000 0.000000 1.000000
vn 0.000000 0.000000 1.000000
vn 0.000000 1.000000 0.000000
vn 0.000000 1.000000 0.000000
vn 0.000000 1.000000 0.000000
vn 0.000000 1.000000 0.000000
vn 0.000000 0.000000 -1.000000
vn 0.000000 0.000000 -1.000000
vn 0.000000 0.000000 -1.000000
vn 0.000000 0.000000 -1.000000
vn 0.000000 -1.000000 0.000000
vn 0.000000 -1.000000 0.000000
vn 0.000000 -1.000000 0.000000
vn 0.000000 -1.000000 0.000000
vn 1.000000 0.000000 0.000000
vn 1.000000 0.000000 0.000000
vn 1.000000 0.000000 0.000000
vn 1.000000 0.000000 0.000000
vn -1.000000 0.000000 0.000000
vn -1.000000 0.000000 0.000000
vn -1.000000 0.000000 0.000000
vn -1.000000 0.000000 0.000000
s off
g pCube7
usemtl initialShadingGroup
f 129/287/225 130/288/226 132/290/227 131/289/228
f 131/289/229 132/290/230 134/292/231 133/291/232
f 133/291/233 134/292/234 136/294/235 135/293/236
f 135/293/237 136/294/238 130/296/239 129/295/240
f 130/288/241 136/297/242 134/298/243 132/290/244
f 135/299/245 129/287/246 131/289/247 133/300/248
