# This file uses centimeters as units for non-parametric coordinates.

mtllib 04_YawPractice.mtl
g default
v -132.881129 -170.328522 15575.708586
v 294.554357 -170.328522 15575.708586
v -132.881129 170.328522 15575.708586
v 294.554357 170.328522 15575.708586
v -94.163386 50.000000 15288.082609
v 255.836614 50.000000 15288.082609
v -94.163386 -50.000000 15288.082609
v 255.836614 -50.000000 15288.082609
v 5.255124 50.000000 13842.167570
v 5.657346 50.000000 12258.340422
v -244.083491 50.000000 10938.730070
v -683.661250 50.000000 9831.580656
v -1166.040339 50.000000 8644.438078
v -1512.033504 50.000000 7285.475187
v -1514.787532 50.000000 5849.981047
v -1095.823298 50.000000 4447.524992
v -503.293574 50.000000 3197.411711
v 10.601865 50.000000 2158.045500
v 410.860875 50.000000 1267.914640
v 726.426579 50.000000 441.378508
v 972.780278 50.000000 -363.297274
v 1156.121648 50.000000 -1158.511141
v 1263.394231 50.000000 -1947.302156
v 1256.869329 50.000000 -2723.733797
v 1117.226750 50.000000 -3496.981844
v 875.601201 50.000000 -4304.048250
v 574.748052 50.000000 -5167.155672
v 278.748418 50.000000 -6069.757235
v 58.550534 50.000000 -6986.292391
v -68.689326 50.000000 -7979.222078
v -137.340083 50.000000 -9187.308016
v -166.236720 50.000000 -10628.475985
v -135.938655 50.000000 -12078.583406
v 354.423772 50.000000 13866.276945
v 355.657292 50.000000 12258.520109
v 99.956540 50.000000 10874.413664
v -358.020747 50.000000 9703.289640
v -841.785518 50.000000 8512.684172
v -1172.751765 50.000000 7199.521086
v -1164.788020 50.000000 5850.635344
v -760.983882 50.000000 4549.420500
v -187.230464 50.000000 3347.758390
v 324.344823 50.000000 2313.175383
v 730.056890 50.000000 1411.489836
v 1053.365117 50.000000 566.322844
v 1307.399114 50.000000 -260.680086
v 1497.132756 50.000000 -1079.698641
v 1610.158757 50.000000 -1899.823641
v 1606.862737 50.000000 -2725.880281
v 1461.851628 50.000000 -3558.085360
v 1211.031804 50.000000 -4403.979891
v 905.268254 50.000000 -5282.292391
v 611.324834 50.000000 -6178.811922
v 398.917058 50.000000 -7067.843172
v 278.517522 50.000000 -8023.350985
v 212.103154 50.000000 -9207.042391
v 183.693540 50.000000 -10635.464266
v 213.984380 50.000000 -12071.239656
v 354.423772 -50.000000 13866.276945
v 355.657292 -50.000000 12258.520109
v 99.956540 -50.000000 10874.413664
v -358.020747 -50.000000 9703.289640
v -841.785518 -50.000000 8512.684172
v -1172.751765 -50.000000 7199.521086
v -1164.788020 -50.000000 5850.635344
v -760.983882 -50.000000 4549.420500
v -187.230464 -50.000000 3347.758390
v 324.344823 -50.000000 2313.175383
v 730.056890 -50.000000 1411.489836
v 1053.365117 -50.000000 566.322844
v 1307.399114 -50.000000 -260.680086
v 1497.132756 -50.000000 -1079.698641
v 1610.158757 -50.000000 -1899.823641
v 1606.862737 -50.000000 -2725.880281
v 1461.851628 -50.000000 -3558.085360
v 1211.031804 -50.000000 -4403.979891
v 905.268254 -50.000000 -5282.292391
v 611.324834 -50.000000 -6178.811922
v 398.917058 -50.000000 -7067.843172
v 278.517522 -50.000000 -8023.350985
v 212.103154 -50.000000 -9207.042391
v 183.693540 -50.000000 -10635.464266
v 213.984380 -50.000000 -12071.239656
v 5.255124 -50.000000 13842.167570
v 5.657346 -50.000000 12258.340422
v -244.083491 -50.000000 10938.730070
v -683.661250 -50.000000 9831.580656
v -1166.040339 -50.000000 8644.438078
v -1512.033504 -50.000000 7285.475187
v -1514.787532 -50.000000 5849.981047
v -1095.823298 -50.000000 4447.524992
v -503.293574 -50.000000 3197.411711
v 10.601865 -50.000000 2158.045500
v 410.860875 -50.000000 1267.914640
v 726.426579 -50.000000 441.378508
v 972.780278 -50.000000 -363.297274
v 1156.121648 -50.000000 -1158.511141
v 1263.394231 -50.000000 -1947.302156
v 1256.869329 -50.000000 -2723.733797
v 1117.226750 -50.000000 -3496.981844
v 875.601201 -50.000000 -4304.048250
v 574.748052 -50.000000 -5167.155672
v 278.748418 -50.000000 -6069.757235
v 58.550534 -50.000000 -6986.292391
v -68.689326 -50.000000 -7979.222078
v -137.340083 -50.000000 -9187.308016
v -166.236720 -50.000000 -10628.475985
v -135.938655 -50.000000 -12078.583406
v -169.090358 90.594460 -12213.536531
v 247.136113 90.594460 -12197.436922
v 247.136113 -90.594460 -12197.436922
v -169.090358 -90.594460 -12213.536531
vt 0.089860 0.435733
vt 0.089860 0.468253
vt 0.089860 0.461622
vt 0.089860 0.556447
vt 0.295432 0.402310
vt 0.303421 0.314116
vt 0.435927 0.002391
vt 0.443436 0.038015
vt 0.296300 0.495420
vt 0.288311 0.407226
vt 0.001667 0.525294
vt 0.001667 0.499405
vt 0.001667 0.492774
vt 0.001667 0.404580
vt 0.542908 0.303302
vt 0.558336 0.303302
vt 0.558336 0.595357
vt 0.542908 0.595357
vt 0.575239 0.303302
vt 0.575239 0.595357
vt 0.589328 0.303302
vt 0.589328 0.595357
vt 0.601156 0.303302
vt 0.601156 0.595357
vt 0.613839 0.303302
vt 0.613839 0.595357
vt 0.628352 0.303302
vt 0.628352 0.595357
vt 0.643672 0.303302
vt 0.643672 0.595357
vt 0.658626 0.303302
vt 0.658626 0.595357
vt 0.671951 0.303302
vt 0.671951 0.595357
vt 0.683028 0.303302
vt 0.683028 0.595357
vt 0.692516 0.303302
vt 0.692516 0.595357
vt 0.701327 0.303302
vt 0.542908 0.003790
vt 0.558085 0.003790
vt 0.558085 0.295845
vt 0.542908 0.295845
vt 0.575248 0.003790
vt 0.575248 0.295845
vt 0.590024 0.003790
vt 0.590024 0.295845
vt 0.602527 0.003790
vt 0.602527 0.295845
vt 0.615239 0.003790
vt 0.615239 0.295845
vt 0.629258 0.003790
vt 0.629258 0.295845
vt 0.643657 0.003790
vt 0.643657 0.295845
vt 0.657546 0.003790
vt 0.657546 0.295845
vt 0.670371 0.003790
vt 0.670371 0.295845
vt 0.681413 0.003790
vt 0.681413 0.295845
vt 0.691036 0.003790
vt 0.691036 0.295845
vt 0.700057 0.003790
vt 0.416541 0.038612
vt 0.408969 0.002384
vt 0.443436 0.078296
vt 0.416478 0.078293
vt 0.423660 0.112968
vt 0.397165 0.111350
vt 0.388317 0.142301
vt 0.363243 0.139080
vt 0.350986 0.172121
vt 0.326019 0.168814
vt 0.325417 0.205014
vt 0.299290 0.202854
vt 0.325951 0.238810
vt 0.298993 0.238819
vt 0.356975 0.271418
vt 0.331179 0.273965
vt 0.401095 0.301536
vt 0.376743 0.305296
vt 0.440436 0.327466
vt 0.416262 0.331346
vt 0.471632 0.350064
vt 0.447038 0.353656
vt 0.496483 0.371246
vt 0.471295 0.374370
vt 0.516000 0.391970
vt 0.490222 0.394535
vt 0.530566 0.412494
vt 0.504296 0.414462
vt 0.539222 0.433043
vt 0.512511 0.434226
vt 0.538920 0.453739
vt 0.511963 0.453679
vt 0.527702 0.474586
vt 0.501162 0.473049
vt 0.508333 0.495775
vt 0.482504 0.493265
vt 0.484731 0.517774
vt 0.459281 0.514883
vt 0.462038 0.540230
vt 0.436429 0.537491
vt 0.445626 0.562500
vt 0.419415 0.560450
vt 0.436296 0.586437
vt 0.409556 0.585324
vt 0.431111 0.616091
vt 0.404197 0.615590
vt 0.428838 0.651879
vt 0.401887 0.651697
vt 0.431086 0.687851
vt 0.404134 0.688028
vt 0.112366 0.406969
vt 0.038271 0.410701
vt 0.030153 0.322506
vt 0.118347 0.322506
vt 0.518762 0.339491
vt 0.470087 0.339491
vt 0.450327 0.251297
vt 0.538521 0.251297
vt 0.009785 0.229550
vt 0.083880 0.233283
vt 0.089861 0.317745
vt 0.001667 0.317745
vt 0.538521 0.179092
vt 0.538521 0.227767
vt 0.450327 0.247527
vt 0.450327 0.159332
vt 0.135368 0.998008
vt 0.144574 0.945381
vt 0.177271 0.946248
vt 0.168141 0.997998
vt 0.144498 0.887737
vt 0.177271 0.887733
vt 0.121018 0.839716
vt 0.153228 0.837366
vt 0.079777 0.799433
vt 0.110260 0.794755
vt 0.034523 0.756240
vt 0.064876 0.751436
vt 0.002028 0.706790
vt 0.033791 0.703653
vt 0.001667 0.654545
vt 0.034440 0.654559
vt 0.040797 0.603491
vt 0.072157 0.607190
vt 0.096190 0.557976
vt 0.125796 0.563439
vt 0.144235 0.520134
vt 0.173624 0.525771
vt 0.181650 0.487726
vt 0.211549 0.492942
vt 0.211140 0.457635
vt 0.241763 0.462173
vt 0.234150 0.428342
vt 0.265490 0.432067
vt 0.251261 0.399395
vt 0.283198 0.402254
vt 0.261249 0.370684
vt 0.293722 0.372402
vt 0.260582 0.342425
vt 0.293354 0.342337
vt 0.247451 0.314287
vt 0.279716 0.312053
vt 0.224767 0.284920
vt 0.256169 0.281274
vt 0.196534 0.253515
vt 0.227475 0.249316
vt 0.168753 0.220673
vt 0.199886 0.216695
vt 0.148068 0.187322
vt 0.179933 0.184344
vt 0.136082 0.151187
vt 0.168591 0.149572
vt 0.129567 0.107221
vt 0.162287 0.106493
vt 0.126758 0.054770
vt 0.159524 0.054506
vt 0.129491 0.001992
vt 0.162257 0.002249
vt 0.701327 0.595358
vt 0.709908 0.303302
vt 0.709908 0.595358
vt 0.718389 0.303302
vt 0.718389 0.595358
vt 0.726804 0.303302
vt 0.726804 0.595358
vt 0.735090 0.303302
vt 0.735090 0.595358
vt 0.743346 0.303302
vt 0.743346 0.595358
vt 0.751966 0.303302
vt 0.751966 0.595358
vt 0.761186 0.303302
vt 0.761185 0.595357
vt 0.770827 0.303302
vt 0.770827 0.595357
vt 0.780614 0.303302
vt 0.780614 0.595357
vt 0.791214 0.303302
vt 0.791214 0.595357
vt 0.804109 0.303302
vt 0.804109 0.595357
vt 0.819489 0.303302
vt 0.819489 0.595357
vt 0.834964 0.303302
vt 0.834964 0.595357
vt 0.700057 0.295845
vt 0.708884 0.003790
vt 0.708884 0.295845
vt 0.717626 0.003790
vt 0.717626 0.295845
vt 0.726380 0.003790
vt 0.726380 0.295846
vt 0.735198 0.003790
vt 0.735198 0.295846
vt 0.744082 0.003790
vt 0.744082 0.295845
vt 0.753113 0.003790
vt 0.753113 0.295845
vt 0.762490 0.003790
vt 0.762490 0.295845
vt 0.772062 0.003790
vt 0.772062 0.295845
vt 0.781553 0.003790
vt 0.781553 0.295845
vt 0.791753 0.003790
vt 0.791753 0.295845
vt 0.804389 0.003790
vt 0.804389 0.295845
vt 0.819637 0.003790
vt 0.819637 0.295845
vt 0.834964 0.003790
vt 0.834964 0.295845
vt 0.375638 0.314116
vt 0.383627 0.402310
vt 0.376505 0.407226
vt 0.368516 0.495420
vn 0.000000 -0.922525 0.385939
vn 0.000000 -0.996496 0.083642
vn 0.000000 -0.996957 0.077960
vn 0.000000 -0.922525 0.385939
vn 0.000000 0.996496 0.083642
vn 0.000000 0.922525 0.385939
vn 0.000000 0.922525 0.385939
vn 0.000000 0.996957 0.077960
vn -0.991061 0.000000 0.133408
vn -0.991061 0.000000 0.133408
vn -0.999993 0.000000 0.003642
vn -0.999993 0.000000 0.003642
vn 0.995788 0.000000 0.091681
vn 0.995788 0.000000 0.091681
vn 0.991061 0.000000 0.133408
vn 0.991061 0.000000 0.133408
vn 0.000000 -1.000000 0.000000
vn 0.000000 -1.000000 0.000000
vn 0.000000 -1.000000 0.000000
vn 0.000000 -1.000000 0.000000
vn 0.000000 -1.000000 0.000000
vn 0.000000 -1.000000 0.000000
vn 0.000000 -1.000000 0.000000
vn 0.000000 -1.000000 0.000000
vn 0.000000 -1.000000 0.000000
vn 0.000000 -1.000000 0.000000
vn 0.000000 -1.000000 -0.000000
vn 0.000000 -1.000000 -0.000000
vn 0.000000 -1.000000 0.000000
vn 0.000000 -1.000000 0.000000
vn 0.000000 -1.000000 0.000000
vn 0.000000 -1.000000 0.000000
vn 0.000000 -1.000000 0.000000
vn 0.000000 -1.000000 0.000000
vn 0.000000 -1.000000 0.000000
vn 0.000000 -1.000000 0.000000
vn 0.000000 -1.000000 0.000000
vn 0.000000 -1.000000 0.000000
vn 0.000000 -1.000000 0.000000
vn 0.000000 -1.000000 0.000000
vn 0.000000 -1.000000 0.000000
vn 0.000000 -1.000000 0.000000
vn 0.000000 -1.000000 0.000000
vn 0.000000 -1.000000 0.000000
vn 0.000000 -1.000000 0.000000
vn 0.000000 -1.000000 0.000000
vn 0.000000 -1.000000 -0.000000
vn 0.000000 -1.000000 -0.000000
vn 0.000000 -1.000000 0.000000
vn 0.000000 -1.000000 -0.000000
vn 0.000000 -1.000000 -0.000000
vn 0.000000 -1.000000 0.000000
vn 0.000000 -1.000000 -0.000000
vn 0.000000 -1.000000 -0.000000
vn 0.000000 -1.000000 0.000000
vn 0.000000 -1.000000 0.000000
vn 0.000000 -1.000000 0.000000
vn 0.000000 -1.000000 0.000000
vn 0.000000 -1.000000 0.000000
vn 0.000000 -1.000000 0.000000
vn 0.000000 -1.000000 0.000000
vn 0.000000 -1.000000 0.000000
vn 0.000000 -1.000000 0.000000
vn 0.000000 -1.000000 0.000000
vn 0.000000 -1.000000 0.000000
vn 0.000000 -1.000000 0.000000
vn -0.999458 0.000000 -0.032931
vn -0.999458 0.000000 -0.032931
vn -0.996403 0.000000 0.084747
vn -0.996403 0.000000 0.084747
vn -0.963139 0.000000 0.269005
vn -0.963139 0.000000 0.269005
vn -0.928876 0.000000 0.370390
vn -0.928876 0.000000 0.370390
vn -0.950922 0.000000 0.309432
vn -0.950922 0.000000 0.309432
vn -0.992719 0.000000 0.120453
vn -0.992719 0.000000 0.120453
vn -0.988143 0.000000 -0.153536
vn -0.988143 0.000000 -0.153536
vn -0.931474 0.000000 -0.363809
vn -0.931474 0.000000 -0.363809
vn -0.899642 0.000000 -0.436628
vn -0.899642 0.000000 -0.436628
vn -0.903718 0.000000 -0.428127
vn -0.903718 0.000000 -0.428127
vn -0.922858 0.000000 -0.385140
vn -0.922858 0.000000 -0.385140
vn -0.945246 0.000000 -0.326360
vn -0.945246 0.000000 -0.326360
vn -0.965526 0.000000 -0.260306
vn -0.965526 0.000000 -0.260306
vn -0.983366 0.000000 -0.181634
vn -0.983366 0.000000 -0.181634
vn -0.997786 0.000000 -0.066510
vn -0.997786 0.000000 -0.066510
vn -0.996024 0.000000 0.089080
vn -0.996024 0.000000 0.089080
vn -0.973290 0.000000 0.229580
vn -0.973290 0.000000 0.229580
vn -0.951646 0.000000 0.307196
vn -0.951646 0.000000 0.307196
vn -0.947379 0.000000 0.320115
vn -0.947379 0.000000 0.320115
vn -0.962064 0.000000 0.272825
vn -0.962064 0.000000 0.272825
vn -0.984110 0.000000 0.177562
vn -0.984110 0.000000 0.177562
vn -0.996209 0.000000 0.086998
vn -0.996209 0.000000 0.086998
vn -0.999342 0.000000 0.036278
vn -0.999342 0.000000 0.036278
vn -1.000000 0.000000 -0.000657
vn -1.000000 0.000000 -0.000657
vn -0.999778 0.000000 -0.021093
vn -0.999778 0.000000 -0.021093
vn 0.000000 1.000000 0.000000
vn 0.000000 1.000000 0.000000
vn 0.000000 1.000000 0.000000
vn 0.000000 1.000000 0.000000
vn 0.000000 1.000000 0.000000
vn 0.000000 1.000000 0.000000
vn 0.000000 1.000000 0.000000
vn 0.000000 1.000000 0.000000
vn 0.000000 1.000000 0.000000
vn 0.000000 1.000000 0.000000
vn 0.000000 1.000000 -0.000000
vn 0.000000 1.000000 -0.000000
vn 0.000000 1.000000 0.000000
vn 0.000000 1.000000 -0.000000
vn 0.000000 1.000000 0.000000
vn 0.000000 1.000000 0.000000
vn 0.000000 1.000000 0.000000
vn 0.000000 1.000000 0.000000
vn 0.000000 1.000000 0.000000
vn 0.000000 1.000000 0.000000
vn 0.000000 1.000000 0.000000
vn 0.000000 1.000000 0.000000
vn 0.000000 1.000000 0.000000
vn 0.000000 1.000000 0.000000
vn 0.000000 1.000000 0.000000
vn 0.000000 1.000000 0.000000
vn 0.000000 1.000000 0.000000
vn 0.000000 1.000000 0.000000
vn 0.000000 1.000000 0.000000
vn 0.000000 1.000000 0.000000
vn 0.000000 1.000000 -0.000000
vn 0.000000 1.000000 -0.000000
vn 0.000000 1.000000 -0.000000
vn 0.000000 1.000000 0.000000
vn 0.000000 1.000000 0.000000
vn 0.000000 1.000000 -0.000000
vn 0.000000 1.000000 -0.000000
vn 0.000000 1.000000 -0.000000
vn 0.000000 1.000000 -0.000000
vn 0.000000 1.000000 -0.000000
vn 0.000000 1.000000 0.000000
vn 0.000000 1.000000 0.000000
vn 0.000000 1.000000 -0.000000
vn 0.000000 1.000000 0.000000
vn 0.000000 1.000000 -0.000000
vn 0.000000 1.000000 -0.000000
vn 0.000000 1.000000 0.000000
vn 0.000000 1.000000 0.000000
vn 0.000000 1.000000 0.000000
vn 0.000000 1.000000 0.000000
vn 0.999458 0.000000 0.032929
vn 0.999458 0.000000 0.032929
vn 0.996333 0.000000 -0.085562
vn 0.996333 0.000000 -0.085562
vn 0.961946 0.000000 -0.273240
vn 0.961946 0.000000 -0.273240
vn 0.927884 0.000000 -0.372869
vn 0.927884 0.000000 -0.372869
vn 0.950937 0.000000 -0.309386
vn 0.950937 0.000000 -0.309386
vn 0.992302 0.000000 -0.123839
vn 0.992302 0.000000 -0.123839
vn 0.989416 0.000000 0.145107
vn 0.989416 0.000000 0.145107
vn 0.934372 0.000000 0.356300
vn 0.934372 0.000000 0.356300
vn 0.900373 0.000000 0.435119
vn 0.900373 0.000000 0.435119
vn 0.903705 0.000000 0.428156
vn 0.903705 0.000000 0.428156
vn 0.922973 0.000000 0.384866
vn 0.922973 0.000000 0.384866
vn 0.945474 0.000000 0.325697
vn 0.945474 0.000000 0.325697
vn 0.965774 0.000000 0.259385
vn 0.965774 0.000000 0.259385
vn 0.983583 0.000000 0.180456
vn 0.983583 0.000000 0.180456
vn 0.997935 0.000000 0.064233
vn 0.997935 0.000000 0.064233
vn 0.995581 0.000000 -0.093904
vn 0.995581 0.000000 -0.093904
vn 0.972109 0.000000 -0.234532
vn 0.972109 0.000000 -0.234532
vn 0.951089 0.000000 -0.308917
vn 0.951089 0.000000 -0.308917
vn 0.947342 0.000000 -0.320225
vn 0.947342 0.000000 -0.320225
vn 0.962019 0.000000 -0.272982
vn 0.962019 0.000000 -0.272982
vn 0.983846 0.000000 -0.179016
vn 0.983846 0.000000 -0.179016
vn 0.996063 0.000000 -0.088650
vn 0.996063 0.000000 -0.088650
vn 0.999323 0.000000 -0.036796
vn 0.999323 0.000000 -0.036796
vn 1.000000 0.000000 0.000485
vn 1.000000 0.000000 0.000485
vn 0.999782 0.000000 0.020889
vn 0.999782 0.000000 0.020889
vn 0.009082 -0.954877 -0.296861
vn 0.009082 -0.954877 -0.296861
vn 0.009082 -0.954877 -0.296861
vn 0.009082 -0.954877 -0.296861
vn -0.967183 0.000000 -0.254081
vn -0.967183 0.000000 -0.254081
vn -0.967183 0.000000 -0.254081
vn -0.967183 0.000000 -0.254081
vn 0.009082 0.954877 -0.296861
vn 0.009082 0.954877 -0.296861
vn 0.009082 0.954877 -0.296861
vn 0.009082 0.954877 -0.296861
vn 0.971127 0.000000 -0.238561
vn 0.971127 0.000000 -0.238561
vn 0.971127 0.000000 -0.238561
vn 0.971127 0.000000 -0.238561
s 1
g pCube6
usemtl initialShadingGroup
f 3/5/1 5/6/2 6/237/3 4/238/4
s 2
f 7/9/5 1/10/6 2/239/7 8/240/8
s 3
f 2/2/9 4/4/10 6/11/11 8/12/12
s 4
f 7/1/13 5/3/14 3/13/15 1/14/16
s 1
f 5/131/2 9/132/17 34/133/18 6/134/3
f 9/132/17 10/135/19 35/136/20 34/133/18
f 10/135/19 11/137/21 36/138/22 35/136/20
f 11/137/21 12/139/23 37/140/24 36/138/22
f 12/139/23 13/141/25 38/142/26 37/140/24
f 13/141/25 14/143/27 39/144/28 38/142/26
f 14/143/27 15/145/29 40/146/30 39/144/28
f 15/145/29 16/147/31 41/148/32 40/146/30
f 16/147/31 17/149/33 42/150/34 41/148/32
f 17/149/33 18/151/35 43/152/36 42/150/34
f 18/151/35 19/153/37 44/154/38 43/152/36
f 19/153/37 20/155/39 45/156/40 44/154/38
f 20/155/39 21/157/41 46/158/42 45/156/40
f 21/157/41 22/159/43 47/160/44 46/158/42
f 22/159/43 23/161/45 48/162/46 47/160/44
f 23/161/45 24/163/47 49/164/48 48/162/46
f 24/163/47 25/165/49 50/166/50 49/164/48
f 25/165/49 26/167/51 51/168/52 50/166/50
f 26/167/51 27/169/53 52/170/54 51/168/52
f 27/169/53 28/171/55 53/172/56 52/170/54
f 28/171/55 29/173/57 54/174/58 53/172/56
f 29/173/57 30/175/59 55/176/60 54/174/58
f 30/175/59 31/177/61 56/178/62 55/176/60
f 31/177/61 32/179/63 57/180/64 56/178/62
f 32/179/63 33/181/65 58/182/66 57/180/64
s 3
f 6/40/11 34/41/67 59/42/68 8/43/12
f 34/41/67 35/44/69 60/45/70 59/42/68
f 35/44/69 36/46/71 61/47/72 60/45/70
f 36/46/71 37/48/73 62/49/74 61/47/72
f 37/48/73 38/50/75 63/51/76 62/49/74
f 38/50/75 39/52/77 64/53/78 63/51/76
f 39/52/77 40/54/79 65/55/80 64/53/78
f 40/54/79 41/56/81 66/57/82 65/55/80
f 41/56/81 42/58/83 67/59/84 66/57/82
f 42/58/83 43/60/85 68/61/86 67/59/84
f 43/60/85 44/62/87 69/63/88 68/61/86
f 44/62/87 45/64/89 70/210/90 69/63/88
f 45/64/89 46/211/91 71/212/92 70/210/90
f 46/211/91 47/213/93 72/214/94 71/212/92
f 47/213/93 48/215/95 73/216/96 72/214/94
f 48/215/95 49/217/97 74/218/98 73/216/96
f 49/217/97 50/219/99 75/220/100 74/218/98
f 50/219/99 51/221/101 76/222/102 75/220/100
f 51/221/101 52/223/103 77/224/104 76/222/102
f 52/223/103 53/225/105 78/226/106 77/224/104
f 53/225/105 54/227/107 79/228/108 78/226/106
f 54/227/107 55/229/109 80/230/110 79/228/108
f 55/229/109 56/231/111 81/232/112 80/230/110
f 56/231/111 57/233/113 82/234/114 81/232/112
f 57/233/113 58/235/115 83/236/116 82/234/114
s 2
f 8/7/8 59/8/117 84/65/118 7/66/5
f 59/8/117 60/67/119 85/68/120 84/65/118
f 60/67/119 61/69/121 86/70/122 85/68/120
f 61/69/121 62/71/123 87/72/124 86/70/122
f 62/71/123 63/73/125 88/74/126 87/72/124
f 63/73/125 64/75/127 89/76/128 88/74/126
f 64/75/127 65/77/129 90/78/130 89/76/128
f 65/77/129 66/79/131 91/80/132 90/78/130
f 66/79/131 67/81/133 92/82/134 91/80/132
f 67/81/133 68/83/135 93/84/136 92/82/134
f 68/83/135 69/85/137 94/86/138 93/84/136
f 69/85/137 70/87/139 95/88/140 94/86/138
f 70/87/139 71/89/141 96/90/142 95/88/140
f 71/89/141 72/91/143 97/92/144 96/90/142
f 72/91/143 73/93/145 98/94/146 97/92/144
f 73/93/145 74/95/147 99/96/148 98/94/146
f 74/95/147 75/97/149 100/98/150 99/96/148
f 75/97/149 76/99/151 101/100/152 100/98/150
f 76/99/151 77/101/153 102/102/154 101/100/152
f 77/101/153 78/103/155 103/104/156 102/102/154
f 78/103/155 79/105/157 104/106/158 103/104/156
f 79/105/157 80/107/159 105/108/160 104/106/158
f 80/107/159 81/109/161 106/110/162 105/108/160
f 81/109/161 82/111/163 107/112/164 106/110/162
f 82/111/163 83/113/165 108/114/166 107/112/164
s 4
f 7/15/13 84/16/167 9/17/168 5/18/14
f 84/16/167 85/19/169 10/20/170 9/17/168
f 85/19/169 86/21/171 11/22/172 10/20/170
f 86/21/171 87/23/173 12/24/174 11/22/172
f 87/23/173 88/25/175 13/26/176 12/24/174
f 88/25/175 89/27/177 14/28/178 13/26/176
f 89/27/177 90/29/179 15/30/180 14/28/178
f 90/29/179 91/31/181 16/32/182 15/30/180
f 91/31/181 92/33/183 17/34/184 16/32/182
f 92/33/183 93/35/185 18/36/186 17/34/184
f 93/35/185 94/37/187 19/38/188 18/36/186
f 94/37/187 95/39/189 20/183/190 19/38/188
f 95/39/189 96/184/191 21/185/192 20/183/190
f 96/184/191 97/186/193 22/187/194 21/185/192
f 97/186/193 98/188/195 23/189/196 22/187/194
f 98/188/195 99/190/197 24/191/198 23/189/196
f 99/190/197 100/192/199 25/193/200 24/191/198
f 100/192/199 101/194/201 26/195/202 25/193/200
f 101/194/201 102/196/203 27/197/204 26/195/202
f 102/196/203 103/198/205 28/199/206 27/197/204
f 103/198/205 104/200/207 29/201/208 28/199/206
f 104/200/207 105/202/209 30/203/210 29/201/208
f 105/202/209 106/204/211 31/205/212 30/203/210
f 106/204/211 107/206/213 32/207/214 31/205/212
f 107/206/213 108/208/215 33/209/216 32/207/214
s off
f 58/115/217 33/116/218 109/117/219 110/118/220
f 83/119/221 58/120/222 110/121/223 111/122/224
f 108/123/225 83/124/226 111/125/227 112/126/228
f 33/127/229 108/128/230 112/129/231 109/130/232
