# This file uses centimeters as units for non-parametric coordinates.

g default
v -16659.677734 -1717.204468 -270.933838
v -16659.677734 -1758.398926 -10.843689
v -16689.347656 -1787.312012 -9.752480
v -16689.347656 -1744.365967 -280.906525
v -16659.667969 -1758.391968 331.067993
v -16659.667969 -1717.197510 591.158081
v -16689.339844 -1744.358765 601.130615
v -16689.339844 -1787.305420 329.976807
v -12675.822266 -1701.624023 -267.361237
v -12675.822266 -1742.477051 -9.426780
v -16412.722656 -1757.412109 -10.755865
v -16412.722656 -1716.238647 -270.712341
v -12675.822266 -1742.477051 -9.426780
v -12705.243164 -1771.150635 -8.344596
v -16442.375000 -1786.310181 -9.665213
v -16412.722656 -1757.412109 -10.755865
v -12705.243164 -1771.150635 -8.344596
v -12705.243164 -1728.560303 -277.251251
v -16442.375000 -1743.386230 -280.679932
v -16442.375000 -1786.310181 -9.665213
v -12705.243164 -1728.560303 -277.251251
v -12675.822266 -1701.624023 -267.361237
v -16412.722656 -1716.238647 -270.712341
v -16442.375000 -1743.386230 -280.679932
v -12675.814453 -1742.469971 329.651184
v -12675.814453 -1701.617065 587.585693
v -16420.679688 -1716.262695 590.943726
v -16420.679688 -1757.436890 330.983032
v -12675.814453 -1701.617065 587.585693
v -12705.238281 -1728.553345 597.475586
v -16450.337891 -1743.410645 600.911377
v -16420.679688 -1716.262695 590.943726
v -12705.238281 -1728.553345 597.475586
v -12705.238281 -1771.143921 328.568970
v -16450.337891 -1786.335938 329.892334
v -16450.337891 -1743.410645 600.911377
v -12705.238281 -1771.143921 328.568970
v -12675.814453 -1742.469971 329.651184
v -16420.679688 -1757.436890 330.983032
v -16450.337891 -1786.335938 329.892334
v -16450.337891 -1786.335938 329.892334
v -16420.679688 -1757.436890 330.983032
v -16659.667969 -1758.391968 331.067993
v -16689.339844 -1787.305420 329.976807
v -16478.773438 -4368.980957 971.203857
v -16478.773438 -4397.827148 789.079163
v -16639.386719 -4398.479004 789.135742
v -16639.386719 -4369.618652 971.351257
v -16420.679688 -1716.262695 590.943726
v -16450.337891 -1743.410645 600.911377
v -16689.339844 -1744.358765 601.130615
v -16659.667969 -1717.197510 591.158081
v -16420.679688 -1757.436890 330.983032
v -16420.679688 -1716.262695 590.943726
v -16659.667969 -1717.197510 591.158081
v -16659.667969 -1758.391968 331.067993
v -16412.722656 -1716.238647 -270.712341
v -16412.722656 -1757.412109 -10.755865
v -16659.677734 -1758.398926 -10.843689
v -16659.677734 -1717.204468 -270.933838
v -16442.375000 -1743.386230 -280.679932
v -16412.722656 -1716.238647 -270.712341
v -16659.677734 -1717.204468 -270.933838
v -16689.347656 -1744.365967 -280.906525
v -16472.117188 -4397.809570 -468.835327
v -16472.117188 -4368.964844 -650.957275
v -16638.085938 -4369.624512 -651.109436
v -16638.085938 -4398.482910 -468.893951
v -16412.722656 -1757.412109 -10.755865
v -16442.375000 -1786.310181 -9.665213
v -16689.347656 -1787.312012 -9.752480
v -16659.677734 -1758.398926 -10.843689
v -16450.337891 -1743.410645 600.911377
v -16450.337891 -1786.335938 329.892334
v -16486.193359 -1780.040894 370.567963
v -16486.193359 -1749.993042 560.281250
v -16450.337891 -1786.335938 329.892334
v -16689.339844 -1787.305420 329.976807
v -16653.492188 -1780.719482 370.627075
v -16486.193359 -1780.040894 370.567963
v -16689.339844 -1787.305420 329.976807
v -16689.339844 -1744.358765 601.130615
v -16653.492188 -1750.656860 560.434692
v -16653.492188 -1780.719482 370.627075
v -16689.339844 -1744.358765 601.130615
v -16450.337891 -1743.410645 600.911377
v -16486.193359 -1749.993042 560.281250
v -16653.492188 -1750.656860 560.434692
v -16442.375000 -1786.310181 -9.665213
v -16442.375000 -1743.386230 -280.679932
v -16479.425781 -1749.973755 -240.051270
v -16479.425781 -1780.020142 -50.340969
v -16442.375000 -1743.386230 -280.679932
v -16689.347656 -1744.365967 -280.906525
v -16652.308594 -1750.659424 -240.209854
v -16479.425781 -1749.973755 -240.051270
v -16689.347656 -1744.365967 -280.906525
v -16689.347656 -1787.312012 -9.752480
v -16652.308594 -1780.721558 -50.402073
v -16652.308594 -1750.659424 -240.209854
v -16689.347656 -1787.312012 -9.752480
v -16442.375000 -1786.310181 -9.665213
v -16479.425781 -1780.020142 -50.340969
v -16652.308594 -1780.721558 -50.402073
v -16486.193359 -1749.993042 560.281250
v -16486.193359 -1780.040894 370.567963
v -16519.564453 -1796.875977 412.128723
v -16519.564453 -1778.847046 525.956787
v -16486.193359 -1780.040894 370.567963
v -16653.492188 -1780.719482 370.627075
v -16619.945313 -1797.282959 412.164246
v -16519.564453 -1796.875977 412.128723
v -16653.492188 -1780.719482 370.627075
v -16653.492188 -1750.656860 560.434692
v -16619.945313 -1779.245239 526.048828
v -16619.945313 -1797.282959 412.164246
v -16653.492188 -1750.656860 560.434692
v -16486.193359 -1749.993042 560.281250
v -16519.564453 -1778.847046 525.956787
v -16619.945313 -1779.245239 526.048828
v -16479.425781 -1780.020142 -50.340969
v -16479.425781 -1749.973755 -240.051270
v -16513.914063 -1778.831909 -205.728088
v -16513.914063 -1796.859741 -91.901855
v -16479.425781 -1749.973755 -240.051270
v -16652.308594 -1750.659424 -240.209854
v -16617.644531 -1779.243530 -205.823196
v -16513.914063 -1778.831909 -205.728088
v -16652.308594 -1750.659424 -240.209854
v -16652.308594 -1780.721558 -50.402073
v -16617.644531 -1797.280640 -91.938538
v -16617.644531 -1779.243530 -205.823196
v -16652.308594 -1780.721558 -50.402073
v -16479.425781 -1780.020142 -50.340969
v -16513.914063 -1796.859741 -91.901855
v -16617.644531 -1797.280640 -91.938538
v -16519.564453 -1778.847046 525.956787
v -16519.564453 -1796.875977 412.128723
v -16514.111328 -3122.802002 622.135620
v -16514.111328 -3104.773193 735.963440
v -16519.564453 -1796.875977 412.128723
v -16619.945313 -1797.282959 412.164246
v -16614.492188 -3123.209229 622.170898
v -16514.111328 -3122.802002 622.135620
v -16619.945313 -1797.282959 412.164246
v -16619.945313 -1779.245239 526.048828
v -16614.492188 -3105.171143 736.055603
v -16614.492188 -3123.209229 622.170898
v -16619.945313 -1779.245239 526.048828
v -16519.564453 -1778.847046 525.956787
v -16514.111328 -3104.773193 735.963440
v -16614.492188 -3105.171143 736.055603
v -16513.914063 -1796.859741 -91.901855
v -16513.914063 -1778.831909 -205.728088
v -16508.460938 -3104.759277 -415.728546
v -16508.460938 -3122.786865 -301.902252
v -16513.914063 -1778.831909 -205.728088
v -16617.644531 -1779.243530 -205.823196
v -16612.191406 -3105.170898 -415.823608
v -16508.460938 -3104.759277 -415.728546
v -16617.644531 -1779.243530 -205.823196
v -16617.644531 -1797.280640 -91.938538
v -16612.191406 -3123.208008 -301.938934
v -16612.191406 -3105.170898 -415.823608
v -16617.644531 -1797.280640 -91.938538
v -16513.914063 -1796.859741 -91.901855
v -16508.460938 -3122.786865 -301.902252
v -16612.191406 -3123.208008 -301.938934
v -16514.111328 -3104.773193 735.963440
v -16514.111328 -3122.802002 622.135620
v -16483.027344 -3362.452148 625.087524
v -16483.027344 -3333.606201 807.212158
v -16514.111328 -3122.802002 622.135620
v -16614.492188 -3123.209229 622.170898
v -16643.640625 -3363.103516 625.143921
v -16483.027344 -3362.452148 625.087524
v -16614.492188 -3123.209229 622.170898
v -16614.492188 -3105.171143 736.055603
v -16643.640625 -3334.243164 807.359375
v -16643.640625 -3363.103516 625.143921
v -16614.492188 -3105.171143 736.055603
v -16514.111328 -3104.773193 735.963440
v -16483.027344 -3333.606201 807.212158
v -16643.640625 -3334.243164 807.359375
v -16508.460938 -3122.786865 -301.902252
v -16508.460938 -3104.759277 -415.728546
v -16476.375000 -3333.588379 -486.974487
v -16476.375000 -3362.432861 -304.852509
v -16508.460938 -3104.759277 -415.728546
v -16612.191406 -3105.170898 -415.823608
v -16642.343750 -3334.247070 -487.126678
v -16476.375000 -3333.588379 -486.974487
v -16612.191406 -3105.170898 -415.823608
v -16612.191406 -3123.208008 -301.938934
v -16642.343750 -3363.106201 -304.911133
v -16642.343750 -3334.247070 -487.126678
v -16612.191406 -3123.208008 -301.938934
v -16508.460938 -3122.786865 -301.902252
v -16476.375000 -3362.432861 -304.852509
v -16642.343750 -3363.106201 -304.911133
v -16483.027344 -3333.606201 807.212158
v -16483.027344 -3362.452148 625.087524
v -16478.773438 -4397.827148 789.079163
v -16478.773438 -4368.980957 971.203857
v -16483.027344 -3362.452148 625.087524
v -16643.640625 -3363.103516 625.143921
v -16639.386719 -4398.479004 789.135742
v -16478.773438 -4397.827148 789.079163
v -16643.640625 -3363.103516 625.143921
v -16643.640625 -3334.243164 807.359375
v -16639.386719 -4369.618652 971.351257
v -16639.386719 -4398.479004 789.135742
v -16643.640625 -3334.243164 807.359375
v -16483.027344 -3333.606201 807.212158
v -16478.773438 -4368.980957 971.203857
v -16639.386719 -4369.618652 971.351257
v -16476.375000 -3362.432861 -304.852509
v -16476.375000 -3333.588379 -486.974487
v -16472.117188 -4368.964844 -650.957275
v -16472.117188 -4397.809570 -468.835327
v -16476.375000 -3333.588379 -486.974487
v -16642.343750 -3334.247070 -487.126678
v -16638.085938 -4369.624512 -651.109436
v -16472.117188 -4368.964844 -650.957275
v -16642.343750 -3334.247070 -487.126678
v -16642.343750 -3363.106201 -304.911133
v -16638.085938 -4398.482910 -468.893951
v -16638.085938 -4369.624512 -651.109436
v -16642.343750 -3363.106201 -304.911133
v -16476.375000 -3362.432861 -304.852509
v -16472.117188 -4397.809570 -468.835327
v -16638.085938 -4398.482910 -468.893951
vt 0.447989 0.198260
vt 0.447989 0.253820
vt 0.440839 0.254053
vt 0.440839 0.196130
vt 0.406302 0.196363
vt 0.406302 0.251922
vt 0.399152 0.254053
vt 0.399152 0.196130
vt 0.245367 0.001992
vt 0.300466 0.001992
vt 0.300182 0.902463
vt 0.244651 0.902463
vt 0.027179 0.001992
vt 0.031242 0.009081
vt 0.033391 0.909608
vt 0.029295 0.902462
vt 0.179949 0.001992
vt 0.237391 0.001992
vt 0.238124 0.902518
vt 0.180231 0.902518
vt 0.041861 0.009082
vt 0.045678 0.001992
vt 0.043607 0.902463
vt 0.039760 0.909608
vt 0.117043 0.001992
vt 0.172142 0.001992
vt 0.172859 0.904382
vt 0.117328 0.904382
vt 0.014598 0.001992
vt 0.018415 0.009082
vt 0.020521 0.911528
vt 0.016673 0.904381
vt 0.053075 0.001992
vt 0.110517 0.001992
vt 0.110235 0.904438
vt 0.052341 0.904438
vt 0.003990 0.009082
vt 0.008053 0.001992
vt 0.005933 0.904382
vt 0.001837 0.911528
vt 0.553404 0.203276
vt 0.557499 0.196129
vt 0.557364 0.253717
vt 0.553266 0.260867
vt 0.170124 0.951825
vt 0.170124 0.990729
vt 0.131422 0.990717
vt 0.131422 0.951793
vt 0.543627 0.196129
vt 0.547474 0.203275
vt 0.547608 0.260867
vt 0.543760 0.253717
vt 0.280290 0.906143
vt 0.335821 0.906143
vt 0.335867 0.963732
vt 0.280308 0.963732
vt 0.453694 0.196130
vt 0.509224 0.196130
vt 0.509206 0.255638
vt 0.453646 0.255638
vt 0.573191 0.203274
vt 0.577038 0.196129
vt 0.576901 0.255637
vt 0.573052 0.262786
vt 0.053530 0.908119
vt 0.092435 0.908119
vt 0.092467 0.948112
vt 0.053543 0.948112
vt 0.563157 0.196129
vt 0.567252 0.203274
vt 0.567394 0.262786
vt 0.563297 0.255637
vt 0.393494 0.196130
vt 0.393494 0.254024
vt 0.384854 0.245335
vt 0.384854 0.204809
vt 0.364610 0.196130
vt 0.364592 0.253722
vt 0.355909 0.245084
vt 0.355922 0.204770
vt 0.426543 0.254053
vt 0.426543 0.196130
vt 0.435181 0.204823
vt 0.435181 0.245369
vt 0.341525 0.253722
vt 0.341572 0.196130
vt 0.350251 0.204770
vt 0.350218 0.245084
vt 0.379196 0.196130
vt 0.379196 0.254023
vt 0.370268 0.245344
vt 0.370268 0.204819
vt 0.537921 0.196129
vt 0.537969 0.255641
vt 0.529276 0.246716
vt 0.529242 0.205057
vt 0.411960 0.254053
vt 0.411960 0.196130
vt 0.420885 0.204814
vt 0.420885 0.245359
vt 0.514901 0.255641
vt 0.514882 0.196129
vt 0.523571 0.205057
vt 0.523584 0.246716
vt 0.219311 0.906199
vt 0.215053 0.946725
vt 0.212668 0.937847
vt 0.215223 0.913531
vt 0.194707 0.906199
vt 0.194695 0.946513
vt 0.185822 0.938429
vt 0.185829 0.914241
vt 0.238980 0.946745
vt 0.238980 0.906199
vt 0.247064 0.913544
vt 0.247064 0.937872
vt 0.176113 0.948376
vt 0.176019 0.908063
vt 0.180108 0.916104
vt 0.180164 0.940293
vt 0.202752 0.906199
vt 0.207010 0.946724
vt 0.202920 0.939392
vt 0.200365 0.915077
vt 0.274598 0.906143
vt 0.274632 0.947802
vt 0.267286 0.939450
vt 0.267266 0.914454
vt 0.224969 0.946745
vt 0.224969 0.906199
vt 0.233322 0.915072
vt 0.233322 0.939399
vt 0.252735 0.947802
vt 0.252722 0.906143
vt 0.261600 0.914454
vt 0.261608 0.939450
vt 0.482844 0.192448
vt 0.458529 0.189893
vt 0.503390 0.001992
vt 0.527705 0.004547
vt 0.698393 0.189951
vt 0.674204 0.189893
vt 0.675518 0.001992
vt 0.699707 0.002050
vt 0.452231 0.189893
vt 0.427903 0.192449
vt 0.383043 0.004548
vt 0.407370 0.001992
vt 0.706555 0.002048
vt 0.730744 0.001992
vt 0.732058 0.189893
vt 0.707869 0.189949
vt 0.603190 0.189893
vt 0.578875 0.192448
vt 0.534015 0.004547
vt 0.558330 0.001992
vt 0.666848 0.189952
vt 0.641853 0.189893
vt 0.643167 0.001992
vt 0.668162 0.002050
vt 0.331884 0.192449
vt 0.307557 0.189893
vt 0.352416 0.001992
vt 0.376743 0.004548
vt 0.609502 0.002052
vt 0.634497 0.001992
vt 0.635811 0.189893
vt 0.610816 0.189953
vt 0.081668 0.973669
vt 0.079113 0.997984
vt 0.045152 0.997354
vt 0.049240 0.958449
vt 0.249948 0.958974
vt 0.249891 0.983162
vt 0.215895 0.990186
vt 0.215987 0.951483
vt 0.035833 0.958449
vt 0.038390 0.982777
vt 0.005927 0.998008
vt 0.001837 0.959084
vt 0.176411 0.983735
vt 0.176354 0.959547
vt 0.208783 0.952056
vt 0.208873 0.990759
vt 0.122248 0.951793
vt 0.124803 0.976108
vt 0.092375 0.991327
vt 0.088287 0.952423
vt 0.130646 0.915851
vt 0.130588 0.940846
vt 0.098125 0.948112
vt 0.098218 0.908119
vt 0.047873 0.930441
vt 0.045316 0.954768
vt 0.011320 0.954133
vt 0.015410 0.915209
vt 0.136364 0.940790
vt 0.136304 0.915795
vt 0.170265 0.908063
vt 0.170361 0.948056
vt 0.885316 0.307303
vt 0.846411 0.303215
vt 0.881442 0.156489
vt 0.920347 0.160577
vt 0.666783 0.340452
vt 0.628081 0.340360
vt 0.629106 0.193634
vt 0.667808 0.193726
vt 0.893740 0.148718
vt 0.854816 0.152808
vt 0.819785 0.006082
vt 0.858709 0.001992
vt 0.582696 0.196219
vt 0.621398 0.196129
vt 0.622423 0.342855
vt 0.583721 0.342945
vt 0.840753 0.303215
vt 0.801849 0.307303
vt 0.766820 0.160577
vt 0.805724 0.156489
vt 0.713459 0.340451
vt 0.673466 0.340358
vt 0.674492 0.193632
vt 0.714485 0.193725
vt 0.777831 0.152808
vt 0.738907 0.148718
vt 0.773936 0.001992
vt 0.812860 0.006082
vt 0.720143 0.193726
vt 0.760136 0.193630
vt 0.761162 0.340357
vt 0.721169 0.340452
vn -0.691313 0.713660 0.113031
vn -0.691313 0.713660 0.113031
vn -0.691313 0.713660 0.113031
vn -0.691313 0.713660 0.113031
vn -0.691296 0.713676 -0.113035
vn -0.691296 0.713676 -0.113035
vn -0.691296 0.713676 -0.113035
vn -0.691296 0.713676 -0.113035
vn -0.004003 0.987680 0.156434
vn -0.004003 0.987680 0.156434
vn -0.004003 0.987680 0.156434
vn -0.004003 0.987680 0.156434
vn -0.000508 0.038235 0.999269
vn -0.000508 0.038235 0.999269
vn -0.000508 0.038235 0.999269
vn -0.000508 0.038235 0.999269
vn 0.004062 -0.987680 -0.156432
vn 0.004062 -0.987680 -0.156432
vn 0.004062 -0.987680 -0.156432
vn 0.004062 -0.987680 -0.156432
vn -0.000508 0.345154 -0.938546
vn -0.000508 0.345154 -0.938546
vn -0.000508 0.345154 -0.938546
vn -0.000508 0.345154 -0.938546
vn -0.004003 0.987680 -0.156434
vn -0.004003 0.987680 -0.156434
vn -0.004003 0.987680 -0.156434
vn -0.004003 0.987680 -0.156434
vn -0.000508 0.345151 0.938547
vn -0.000508 0.345151 0.938547
vn -0.000508 0.345151 0.938547
vn -0.000508 0.345151 0.938547
vn 0.004062 -0.987680 0.156433
vn 0.004062 -0.987680 0.156433
vn 0.004062 -0.987680 0.156433
vn 0.004062 -0.987680 0.156433
vn -0.000508 0.038236 -0.999269
vn -0.000508 0.038236 -0.999269
vn -0.000508 0.038236 -0.999269
vn -0.000508 0.038236 -0.999269
vn -0.000508 0.038236 -0.999269
vn -0.000508 0.038235 -0.999269
vn -0.000508 0.038235 -0.999269
vn -0.000508 0.038236 -0.999269
vn 0.004065 -0.987680 0.156434
vn 0.004065 -0.987680 0.156434
vn 0.004065 -0.987680 0.156434
vn 0.004065 -0.987680 0.156434
vn -0.000508 0.345151 0.938547
vn -0.000508 0.345151 0.938547
vn -0.000508 0.345151 0.938547
vn -0.000508 0.345151 0.938547
vn -0.004003 0.987680 -0.156434
vn -0.004002 0.987680 -0.156435
vn -0.004002 0.987680 -0.156435
vn -0.004003 0.987680 -0.156434
vn -0.004003 0.987680 0.156434
vn -0.004003 0.987680 0.156434
vn -0.004003 0.987680 0.156434
vn -0.004003 0.987680 0.156434
vn -0.000508 0.345154 -0.938546
vn -0.000508 0.345156 -0.938545
vn -0.000508 0.345156 -0.938545
vn -0.000508 0.345154 -0.938546
vn 0.004067 -0.987681 -0.156428
vn 0.004067 -0.987681 -0.156428
vn 0.004067 -0.987681 -0.156428
vn 0.004067 -0.987681 -0.156428
vn -0.000508 0.038235 0.999269
vn -0.000508 0.038235 0.999269
vn -0.000508 0.038235 0.999269
vn -0.000508 0.038235 0.999269
vn 0.004062 -0.987680 0.156433
vn 0.004064 -0.987680 0.156433
vn 0.004064 -0.987680 0.156435
vn 0.004062 -0.987680 0.156433
vn 0.004062 -0.987680 0.156433
vn 0.004064 -0.987680 0.156435
vn 0.004061 -0.987680 0.156434
vn 0.004061 -0.987680 0.156434
vn 0.004061 -0.987680 0.156434
vn 0.004061 -0.987680 0.156434
vn 0.004061 -0.987680 0.156432
vn 0.004061 -0.987680 0.156432
vn 0.004061 -0.987680 0.156432
vn 0.004061 -0.987680 0.156432
vn 0.004064 -0.987680 0.156433
vn 0.004062 -0.987680 0.156433
vn 0.004062 -0.987680 -0.156432
vn 0.004064 -0.987681 -0.156430
vn 0.004064 -0.987680 -0.156433
vn 0.004062 -0.987680 -0.156432
vn 0.004062 -0.987680 -0.156432
vn 0.004064 -0.987680 -0.156433
vn 0.004062 -0.987680 -0.156434
vn 0.004062 -0.987680 -0.156435
vn 0.004062 -0.987680 -0.156435
vn 0.004062 -0.987680 -0.156434
vn 0.004062 -0.987681 -0.156431
vn 0.004062 -0.987681 -0.156431
vn 0.004062 -0.987681 -0.156431
vn 0.004062 -0.987681 -0.156431
vn 0.004064 -0.987681 -0.156430
vn 0.004062 -0.987680 -0.156432
vn 0.569645 -0.811772 0.128574
vn 0.569645 -0.811772 0.128574
vn 0.569645 -0.811772 0.128574
vn 0.569645 -0.811771 0.128574
vn 0.003632 -0.927852 -0.372931
vn 0.003632 -0.927852 -0.372931
vn 0.003632 -0.927852 -0.372931
vn 0.003632 -0.927852 -0.372931
vn -0.563068 -0.816236 0.129279
vn -0.563068 -0.816236 0.129279
vn -0.563068 -0.816236 0.129279
vn -0.563068 -0.816236 0.129279
vn 0.003633 -0.767201 0.641397
vn 0.003633 -0.767201 0.641397
vn 0.003633 -0.767201 0.641397
vn 0.003633 -0.767201 0.641397
vn 0.557049 -0.820255 -0.129912
vn 0.557049 -0.820255 -0.129912
vn 0.557049 -0.820255 -0.129912
vn 0.557049 -0.820255 -0.129912
vn 0.003633 -0.767201 -0.641397
vn 0.003633 -0.767201 -0.641397
vn 0.003633 -0.767201 -0.641397
vn 0.003633 -0.767201 -0.641397
vn -0.550422 -0.824608 -0.130600
vn -0.550422 -0.824608 -0.130600
vn -0.550422 -0.824608 -0.130600
vn -0.550422 -0.824608 -0.130600
vn 0.003633 -0.927852 0.372930
vn 0.003633 -0.927852 0.372930
vn 0.003633 -0.927852 0.372930
vn 0.003633 -0.927852 0.372930
vn 0.999992 0.004012 -0.000635
vn 0.999565 0.029140 -0.004616
vn 0.999565 0.029140 -0.004616
vn 0.999992 0.004012 -0.000635
vn 0.000286 -0.156433 -0.987689
vn 0.000169 -0.127770 -0.991804
vn 0.000169 -0.127769 -0.991804
vn 0.000286 -0.156433 -0.987689
vn -0.999992 -0.004012 0.000635
vn -0.999772 0.021113 -0.003344
vn -0.999771 0.021113 -0.003344
vn -0.999992 -0.004012 0.000635
vn 0.000285 0.156436 0.987688
vn 0.000168 0.184969 0.982744
vn 0.000168 0.184968 0.982745
vn 0.000285 0.156436 0.987688
vn 0.999992 0.004012 0.000635
vn 0.999539 0.029974 0.004748
vn 0.999539 0.029974 0.004748
vn 0.999992 0.004012 0.000635
vn 0.000285 0.156431 -0.987689
vn 0.000167 0.185018 -0.982735
vn 0.000167 0.185019 -0.982735
vn 0.000285 0.156431 -0.987689
vn -0.999992 -0.004012 -0.000639
vn -0.999753 0.021950 0.003474
vn -0.999753 0.021950 0.003474
vn -0.999992 -0.004012 -0.000639
vn 0.000285 -0.156429 0.987689
vn 0.000167 -0.127709 0.991812
vn 0.000167 -0.127710 0.991812
vn 0.000285 -0.156429 0.987689
vn 0.999565 0.029140 -0.004616
vn 0.999753 0.021955 -0.003476
vn 0.999753 0.021955 -0.003476
vn 0.999565 0.029140 -0.004616
vn 0.000169 -0.127770 -0.991804
vn 0.000202 -0.135566 -0.990768
vn 0.000202 -0.135567 -0.990768
vn 0.000169 -0.127769 -0.991804
vn -0.999772 0.021113 -0.003344
vn -0.999900 0.013935 -0.002206
vn -0.999900 0.013935 -0.002206
vn -0.999771 0.021113 -0.003344
vn 0.000168 0.184969 0.982744
vn 0.000200 0.177240 0.984168
vn 0.000200 0.177240 0.984168
vn 0.000168 0.184968 0.982745
vn 0.999539 0.029974 0.004748
vn 0.999739 0.022556 0.003573
vn 0.999739 0.022556 0.003573
vn 0.999539 0.029974 0.004748
vn 0.000167 0.185018 -0.982735
vn 0.000199 0.177180 -0.984178
vn 0.000199 0.177180 -0.984178
vn 0.000167 0.185019 -0.982735
vn -0.999753 0.021950 0.003474
vn -0.999892 0.014531 0.002304
vn -0.999892 0.014531 0.002304
vn -0.999753 0.021950 0.003474
vn 0.000167 -0.127709 0.991812
vn 0.000201 -0.135610 0.990762
vn 0.000201 -0.135609 0.990762
vn 0.000167 -0.127710 0.991812
vn 0.999753 0.021955 -0.003476
vn 0.999992 0.004007 -0.000633
vn 0.999992 0.004007 -0.000633
vn 0.999753 0.021955 -0.003476
vn 0.000202 -0.135566 -0.990768
vn 0.000287 -0.156437 -0.987688
vn 0.000287 -0.156437 -0.987688
vn 0.000202 -0.135567 -0.990768
vn -0.999900 0.013935 -0.002206
vn -0.999992 -0.004007 0.000635
vn -0.999992 -0.004007 0.000635
vn -0.999900 0.013935 -0.002206
vn 0.000200 0.177240 0.984168
vn 0.000285 0.156440 0.987687
vn 0.000285 0.156440 0.987687
vn 0.000200 0.177240 0.984168
vn 0.999739 0.022556 0.003573
vn 0.999992 0.004012 0.000636
vn 0.999992 0.004012 0.000636
vn 0.999739 0.022556 0.003573
vn 0.000199 0.177180 -0.984178
vn 0.000284 0.156431 -0.987689
vn 0.000284 0.156431 -0.987689
vn 0.000199 0.177180 -0.984178
vn -0.999892 0.014531 0.002304
vn -0.999992 -0.004012 -0.000632
vn -0.999992 -0.004012 -0.000632
vn -0.999892 0.014531 0.002304
vn 0.000201 -0.135610 0.990762
vn 0.000287 -0.156429 0.987689
vn 0.000287 -0.156429 0.987689
vn 0.000201 -0.135609 0.990762
s off
g Level03_EntranceStands:polySurface162
f 1/1/1 4/4/2 3/3/3 2/2/4
f 5/5/5 8/8/6 7/7/7 6/6/8
f 9/9/9 12/12/10 11/11/11 10/10/12
f 13/13/13 16/16/14 15/15/15 14/14/16
f 17/17/17 20/20/18 19/19/19 18/18/20
f 21/21/21 24/24/22 23/23/23 22/22/24
f 25/25/25 28/28/26 27/27/27 26/26/28
f 29/29/29 32/32/30 31/31/31 30/30/32
f 33/33/33 36/36/34 35/35/35 34/34/36
f 37/37/37 40/40/38 39/39/39 38/38/40
f 41/41/41 44/44/42 43/43/43 42/42/44
f 45/45/45 48/48/46 47/47/47 46/46/48
f 49/49/49 52/52/50 51/51/51 50/50/52
f 53/53/53 56/56/54 55/55/55 54/54/56
f 57/57/57 60/60/58 59/59/59 58/58/60
f 61/61/61 64/64/62 63/63/63 62/62/64
f 65/65/65 68/68/66 67/67/67 66/66/68
f 69/69/69 72/72/70 71/71/71 70/70/72
f 73/73/73 76/76/74 75/75/75 74/74/76
f 77/77/77 80/80/78 79/79/79 78/78/80
f 81/81/81 84/84/82 83/83/83 82/82/84
f 85/85/85 88/88/86 87/87/87 86/86/88
f 89/89/89 92/92/90 91/91/91 90/90/92
f 93/93/93 96/96/94 95/95/95 94/94/96
f 97/97/97 100/100/98 99/99/99 98/98/100
f 101/101/101 104/104/102 103/103/103 102/102/104
f 105/105/105 108/108/106 107/107/107 106/106/108
f 109/109/109 112/112/110 111/111/111 110/110/112
f 113/113/113 116/116/114 115/115/115 114/114/116
f 117/117/117 120/120/118 119/119/119 118/118/120
f 121/121/121 124/124/122 123/123/123 122/122/124
f 125/125/125 128/128/126 127/127/127 126/126/128
f 129/129/129 132/132/130 131/131/131 130/130/132
f 133/133/133 136/136/134 135/135/135 134/134/136
f 137/137/137 140/140/138 139/139/139 138/138/140
f 141/141/141 144/144/142 143/143/143 142/142/144
f 145/145/145 148/148/146 147/147/147 146/146/148
f 149/149/149 152/152/150 151/151/151 150/150/152
f 153/153/153 156/156/154 155/155/155 154/154/156
f 157/157/157 160/160/158 159/159/159 158/158/160
f 161/161/161 164/164/162 163/163/163 162/162/164
f 165/165/165 168/168/166 167/167/167 166/166/168
f 169/169/169 172/172/170 171/171/171 170/170/172
f 173/173/173 176/176/174 175/175/175 174/174/176
f 177/177/177 180/180/178 179/179/179 178/178/180
f 181/181/181 184/184/182 183/183/183 182/182/184
f 185/185/185 188/188/186 187/187/187 186/186/188
f 189/189/189 192/192/190 191/191/191 190/190/192
f 193/193/193 196/196/194 195/195/195 194/194/196
f 197/197/197 200/200/198 199/199/199 198/198/200
f 201/201/201 204/204/202 203/203/203 202/202/204
f 205/205/205 208/208/206 207/207/207 206/206/208
f 209/209/209 212/212/210 211/211/211 210/210/212
f 213/213/213 216/216/214 215/215/215 214/214/216
f 217/217/217 220/220/218 219/219/219 218/218/220
f 221/221/221 224/224/222 223/223/223 222/222/224
f 225/225/225 228/228/226 227/227/227 226/226/228
f 229/229/229 232/232/230 231/231/231 230/230/232
