# This file uses centimeters as units for non-parametric coordinates.

g default
v -20913.417969 2080.987793 -1251.309204
v -20913.417969 2418.917480 -588.083984
v -20913.417969 2329.822021 -559.135071
v -20913.417969 2005.198608 -1196.244995
v -20913.417969 1554.649048 -1777.647705
v -20913.417969 1499.584595 -1701.858521
v -20913.417969 891.423950 -2115.577637
v -20913.417969 862.475098 -2026.482056
v -20913.417969 156.232849 -2232.020508
v -20913.417969 156.232849 -2138.339844
v -20913.417969 -578.957886 -2115.577637
v -20913.417969 -550.008667 -2026.482056
v -20913.417969 -1242.182983 -1777.647461
v -20913.417969 -1187.118530 -1701.857910
v -20913.417969 -1768.521362 -1251.308960
v -20913.417969 -1692.731934 -1196.244507
v -20913.417969 -2106.451172 -588.083679
v -20913.417969 -2017.355225 -559.134705
v -20913.417969 -2222.893799 147.106918
v -20913.417969 -2129.212891 147.106949
v -20913.417969 -2106.451172 882.297546
v -20913.417969 -2017.355225 853.348511
v -20913.417969 -1768.520996 1545.522339
v -20913.417969 -1692.731323 1490.458252
v -20913.417969 -1242.182739 2071.860840
v -20913.417969 -1187.118286 1996.071289
v -20913.417969 -578.957642 2409.790771
v -20913.417969 -550.008423 2320.695068
v -20913.417969 156.232864 2526.233398
v -20913.417969 156.232864 2432.552490
v -20913.417969 891.423340 2409.790527
v -20913.417969 862.474487 2320.694824
v -20913.417969 1554.648438 2071.860596
v -20913.417969 1499.584106 1996.071167
v -20913.417969 2080.986572 1545.522339
v -20913.417969 2005.197144 1490.458130
v -20913.417969 2418.916260 882.297363
v -20913.417969 2329.820557 853.348389
v -20913.417969 2535.359863 147.106918
v -20913.417969 2441.678467 147.106781
v -21393.332031 1913.861084 -423.982147
v -21393.332031 1651.361938 -939.169617
v -21393.324219 1242.509888 -1348.023438
v -21393.316406 727.320740 -1610.525513
v -21393.316406 156.234375 -1700.976074
v -21393.324219 -414.856079 -1610.525513
v -21393.339844 -930.042847 -1348.024536
v -21393.339844 -1338.897339 -939.169678
v -21393.324219 -1601.400269 -423.982147
v -21393.324219 -1691.851685 147.106689
v -21393.332031 -1601.398193 718.196228
v -21393.332031 -1338.896484 1233.382568
v -21393.324219 -930.041321 1642.237793
v -21393.324219 -414.856445 1904.738892
v -21393.332031 156.233398 1995.191040
v -21393.332031 727.321289 1904.736328
v -21393.332031 1242.507446 1642.237305
v -21393.324219 1651.361694 1233.381836
v -21393.316406 1913.863647 718.195801
v -21393.324219 2004.316040 147.106689
v -12356.044922 2604.984863 -633.453308
v -12356.044922 2240.222900 -1349.340088
v -12299.008789 2287.855469 -1383.947021
v -12299.008789 2660.980225 -651.647217
v -12356.044922 1672.092285 -1917.469971
v -12299.008789 1706.699219 -1965.102295
v -12356.044922 956.206421 -2282.230957
v -12299.008789 974.400391 -2338.226318
v -12356.044922 162.641312 -2407.919678
v -12299.008789 162.641312 -2466.796143
v -12356.044922 -630.924316 -2282.230957
v -12299.008789 -649.118286 -2338.226318
v -12356.044922 -1346.809692 -1917.468994
v -12299.008789 -1381.416626 -1965.101318
v -12356.044922 -1914.938599 -1349.339600
v -12299.008789 -1962.570923 -1383.946289
v -12356.044922 -2279.700439 -633.453613
v -12299.008789 -2335.695557 -651.647583
v -12356.044922 -2405.387939 160.111496
v -12299.008789 -2464.265137 160.111450
v -12356.044922 -2279.700439 953.676697
v -12299.008789 -2335.695557 971.870605
v -12356.044922 -1914.938232 1669.562500
v -12299.008789 -1962.570923 1704.169434
v -12356.044922 -1346.809692 2237.691650
v -12299.008789 -1381.416626 2285.324219
v -12356.044922 -630.924133 2602.454590
v -12299.008789 -649.117981 2658.450195
v -12356.044922 162.641281 2728.142578
v -12299.008789 162.641281 2787.019775
v -12356.044922 956.206360 2602.454590
v -12299.008789 974.400269 2658.450195
v -12356.044922 1672.092285 2237.692383
v -12299.008789 1706.699219 2285.324707
v -12356.044922 2240.222168 1669.562134
v -12299.008789 2287.854736 1704.169067
v -12356.044922 2604.984375 953.676392
v -12299.008789 2660.979492 971.870300
v -12356.044922 2730.672363 160.112259
v -12299.008789 2789.549561 160.112289
v -14330.309570 2073.836914 -460.877991
v -14330.303711 1788.408447 -1021.078918
v -14330.310547 1343.826782 -1465.648315
v -14330.311523 783.624390 -1751.080933
v -14330.310547 162.640717 -1849.437378
v -14330.312500 -458.342590 -1751.080933
v -14330.314453 -1018.539246 -1465.645264
v -14330.308594 -1463.118652 -1021.075500
v -14330.314453 -1748.542725 -460.876556
v -14330.314453 -1846.897705 160.112717
v -14330.302734 -1748.560547 781.098633
v -14330.308594 -1463.118652 1341.295288
v -14330.312500 -1018.539246 1785.866333
v -14330.309570 -458.343262 2071.307861
v -14330.305664 162.640411 2169.664551
v -14330.310547 783.624390 2071.305908
v -14330.311523 1343.822632 1785.867188
v -14330.314453 1788.394165 1341.289673
v -14330.317383 2073.826904 781.090454
v -14330.315430 2172.181885 160.110352
vt 0.387500 0.688440
vt 0.375000 0.688440
vt 0.375000 0.688440
vt 0.387500 0.688440
vt 0.400000 0.688440
vt 0.400000 0.688440
vt 0.412500 0.688440
vt 0.412500 0.688440
vt 0.425000 0.688440
vt 0.425000 0.688440
vt 0.437500 0.688440
vt 0.437500 0.688440
vt 0.450000 0.688440
vt 0.450000 0.688440
vt 0.462500 0.688440
vt 0.462500 0.688440
vt 0.475000 0.688440
vt 0.475000 0.688440
vt 0.487500 0.688440
vt 0.487500 0.688440
vt 0.500000 0.688440
vt 0.500000 0.688440
vt 0.512500 0.688440
vt 0.512500 0.688440
vt 0.525000 0.688440
vt 0.525000 0.688440
vt 0.537500 0.688440
vt 0.537500 0.688440
vt 0.550000 0.688440
vt 0.550000 0.688440
vt 0.562500 0.688440
vt 0.562500 0.688440
vt 0.575000 0.688440
vt 0.575000 0.688440
vt 0.587500 0.688440
vt 0.587500 0.688440
vt 0.600000 0.688440
vt 0.600000 0.688440
vt 0.612500 0.688440
vt 0.612500 0.688440
vt 0.625000 0.688440
vt 0.625000 0.688440
vt 0.000000 0.000000
vt 1.000000 0.000000
vt 1.000000 1.000000
vt 0.000000 1.000000
vt 0.000000 0.000000
vt 1.000000 0.000000
vt 1.000000 1.000000
vt 0.000000 1.000000
vt 0.000000 0.000000
vt 1.000000 0.000000
vt 1.000000 1.000000
vt 0.000000 1.000000
vt 0.000000 0.000000
vt 1.000000 0.000000
vt 1.000000 1.000000
vt 0.000000 1.000000
vt 0.000000 0.000000
vt 1.000000 0.000000
vt 1.000000 1.000000
vt 0.000000 1.000000
vt 0.000000 0.000000
vt 1.000000 0.000000
vt 1.000000 1.000000
vt 0.000000 1.000000
vt 0.000000 0.000000
vt 1.000000 0.000000
vt 1.000000 1.000000
vt 0.000000 1.000000
vt 0.000000 0.000000
vt 1.000000 0.000000
vt 1.000000 1.000000
vt 0.000000 1.000000
vt 0.000000 0.000000
vt 1.000000 0.000000
vt 1.000000 1.000000
vt 0.000000 1.000000
vt 0.000000 0.000000
vt 1.000000 0.000000
vt 1.000000 1.000000
vt 0.000000 1.000000
vt 0.000000 0.000000
vt 1.000000 0.000000
vt 1.000000 1.000000
vt 0.000000 1.000000
vt 0.000000 0.000000
vt 1.000000 0.000000
vt 1.000000 1.000000
vt 0.000000 1.000000
vt 0.000000 0.000000
vt 1.000000 0.000000
vt 1.000000 1.000000
vt 0.000000 1.000000
vt 0.000000 0.000000
vt 1.000000 0.000000
vt 1.000000 1.000000
vt 0.000000 1.000000
vt 0.000000 0.000000
vt 1.000000 0.000000
vt 1.000000 1.000000
vt 0.000000 1.000000
vt 0.000000 0.000000
vt 1.000000 0.000000
vt 1.000000 1.000000
vt 0.000000 1.000000
vt 0.000000 0.000000
vt 1.000000 0.000000
vt 1.000000 1.000000
vt 0.000000 1.000000
vt 0.000000 0.000000
vt 1.000000 0.000000
vt 1.000000 1.000000
vt 0.000000 1.000000
vt 0.000000 0.000000
vt 1.000000 0.000000
vt 1.000000 1.000000
vt 0.000000 1.000000
vt 0.000000 0.000000
vt 1.000000 0.000000
vt 1.000000 1.000000
vt 0.000000 1.000000
vt 0.000000 0.000000
vt 1.000000 0.000000
vt 1.000000 0.068945
vt 0.000000 0.068945
vt 0.000000 0.000000
vt 1.000000 0.000000
vt 1.000000 0.068945
vt 0.000000 0.068945
vt 0.000000 0.000000
vt 1.000000 0.000000
vt 1.000000 0.068945
vt 0.000000 0.068945
vt 0.000000 0.000000
vt 1.000000 0.000000
vt 1.000000 0.068945
vt 0.000000 0.068945
vt 0.000000 0.000000
vt 1.000000 0.000000
vt 1.000000 0.068945
vt 0.000000 0.068945
vt 0.000000 0.000000
vt 1.000000 0.000000
vt 1.000000 0.068945
vt 0.000000 0.068945
vt 0.000000 0.000000
vt 1.000000 0.000000
vt 1.000000 0.068945
vt 0.000000 0.068945
vt 0.000000 0.000000
vt 1.000000 0.000000
vt 1.000000 0.068945
vt 0.000000 0.068945
vt 0.000000 0.000000
vt 1.000000 0.000000
vt 1.000000 0.068945
vt 0.000000 0.068945
vt 0.000000 0.000000
vt 1.000000 0.000000
vt 1.000000 0.068945
vt 0.000000 0.068945
vt 0.000000 0.000000
vt 1.000000 0.000000
vt 1.000000 0.068945
vt 0.000000 0.068945
vt 0.000000 0.000000
vt 1.000000 0.000000
vt 1.000000 0.068945
vt 0.000000 0.068945
vt 0.000000 0.000000
vt 1.000000 0.000000
vt 1.000000 0.068945
vt 0.000000 0.068945
vt 0.000000 0.000000
vt 1.000000 0.000000
vt 1.000000 0.068945
vt 0.000000 0.068945
vt 0.000000 0.000000
vt 1.000000 0.000000
vt 1.000000 0.068945
vt 0.000000 0.068945
vt 0.000000 0.000000
vt 1.000000 0.000000
vt 1.000000 0.068945
vt 0.000000 0.068945
vt 0.000000 0.000000
vt 1.000000 0.000000
vt 1.000000 0.068945
vt 0.000000 0.068945
vt 0.000000 0.000000
vt 1.000000 0.000000
vt 1.000000 0.068945
vt 0.000000 0.068945
vt 0.000000 0.000000
vt 1.000000 0.000000
vt 1.000000 0.068945
vt 0.000000 0.068945
vt 0.000000 0.000000
vt 1.000000 0.000000
vt 1.000000 0.068945
vt 0.000000 0.068945
vt 0.000000 0.000000
vt 1.000000 0.000000
vt 1.000000 1.000000
vt 0.000000 1.000000
vt 0.000000 0.000000
vt 1.000000 0.000000
vt 1.000000 1.000000
vt 0.000000 1.000000
vt 0.000000 0.000000
vt 1.000000 0.000000
vt 1.000000 1.000000
vt 0.000000 1.000000
vt 0.000000 0.000000
vt 1.000000 0.000000
vt 1.000000 1.000000
vt 0.000000 1.000000
vt 0.000000 0.000000
vt 1.000000 0.000000
vt 1.000000 1.000000
vt 0.000000 1.000000
vt 0.000000 0.000000
vt 1.000000 0.000000
vt 1.000000 1.000000
vt 0.000000 1.000000
vt 0.000000 0.000000
vt 1.000000 0.000000
vt 1.000000 1.000000
vt 0.000000 1.000000
vt 0.000000 0.000000
vt 1.000000 0.000000
vt 1.000000 1.000000
vt 0.000000 1.000000
vt 0.000000 0.000000
vt 1.000000 0.000000
vt 1.000000 1.000000
vt 0.000000 1.000000
vt 0.000000 0.000000
vt 1.000000 0.000000
vt 1.000000 1.000000
vt 0.000000 1.000000
vt 0.000000 0.000000
vt 1.000000 0.000000
vt 1.000000 1.000000
vt 0.000000 1.000000
vt 0.000000 0.000000
vt 1.000000 0.000000
vt 1.000000 1.000000
vt 0.000000 1.000000
vt 0.000000 0.000000
vt 1.000000 0.000000
vt 1.000000 1.000000
vt 0.000000 1.000000
vt 0.000000 0.000000
vt 1.000000 0.000000
vt 1.000000 1.000000
vt 0.000000 1.000000
vt 0.000000 0.000000
vt 1.000000 0.000000
vt 1.000000 1.000000
vt 0.000000 1.000000
vt 0.000000 0.000000
vt 1.000000 0.000000
vt 1.000000 1.000000
vt 0.000000 1.000000
vt 0.000000 0.000000
vt 1.000000 0.000000
vt 1.000000 1.000000
vt 0.000000 1.000000
vt 0.000000 0.000000
vt 1.000000 0.000000
vt 1.000000 1.000000
vt 0.000000 1.000000
vt 0.000000 0.000000
vt 1.000000 0.000000
vt 1.000000 1.000000
vt 0.000000 1.000000
vt 0.000000 0.000000
vt 1.000000 0.000000
vt 1.000000 1.000000
vt 0.000000 1.000000
vn 1.000000 0.000000 0.000000
vn 1.000000 0.000000 0.000000
vn 0.755763 -0.622795 0.202357
vn 0.755763 -0.529781 0.384909
vn 1.000000 0.000000 0.000000
vn 1.000000 0.000000 0.000000
vn 0.755763 -0.529781 0.384909
vn 0.755766 -0.384904 0.529780
vn 1.000000 0.000000 0.000000
vn 1.000000 0.000000 0.000000
vn 0.755766 -0.384904 0.529780
vn 0.755770 -0.202355 0.622788
vn 1.000000 0.000000 0.000000
vn 1.000000 0.000000 0.000000
vn 0.755770 -0.202355 0.622788
vn 0.755770 -0.000001 0.654838
vn 1.000000 0.000000 0.000000
vn 1.000000 0.000000 0.000000
vn 0.755770 -0.000001 0.654838
vn 0.755764 0.202354 0.622795
vn 1.000000 0.000000 0.000000
vn 1.000000 0.000000 0.000000
vn 0.755764 0.202354 0.622795
vn 0.755758 0.384910 0.529787
vn 1.000000 0.000000 0.000000
vn 1.000000 0.000000 0.000000
vn 0.755758 0.384910 0.529787
vn 0.755758 0.529787 0.384910
vn 1.000000 0.000000 0.000000
vn 1.000000 0.000000 0.000000
vn 0.755758 0.529787 0.384910
vn 0.755762 0.622797 0.202356
vn 1.000000 0.000000 0.000000
vn 1.000000 0.000000 0.000000
vn 0.755762 0.622797 0.202356
vn 0.755763 0.654845 0.000001
vn 1.000000 0.000000 0.000000
vn 1.000000 0.000000 0.000000
vn 0.755763 0.654845 0.000001
vn 0.755762 0.622796 -0.202358
vn 1.000000 0.000000 0.000000
vn 1.000000 0.000000 0.000000
vn 0.755762 0.622796 -0.202358
vn 0.755762 0.529781 -0.384910
vn 1.000000 0.000000 0.000000
vn 1.000000 0.000000 0.000000
vn 0.755762 0.529781 -0.384910
vn 0.755764 0.384907 -0.529780
vn 1.000000 0.000000 0.000000
vn 1.000000 0.000000 0.000000
vn 0.755764 0.384907 -0.529780
vn 0.755764 0.202360 -0.622793
vn 1.000000 0.000000 0.000000
vn 1.000000 0.000000 0.000000
vn 0.755764 0.202360 -0.622793
vn 0.755762 0.000001 -0.654847
vn 1.000000 0.000000 0.000000
vn 1.000000 0.000000 0.000000
vn 0.755762 0.000001 -0.654847
vn 0.755761 -0.202360 -0.622797
vn 1.000000 0.000000 0.000000
vn 1.000000 0.000000 0.000000
vn 0.755761 -0.202360 -0.622797
vn 0.755763 -0.384910 -0.529781
vn 1.000000 0.000000 0.000000
vn 1.000000 0.000000 0.000000
vn 0.755763 -0.384910 -0.529781
vn 0.755766 -0.529779 -0.384904
vn 1.000000 0.000000 0.000000
vn 1.000000 0.000000 0.000000
vn 0.755766 -0.529779 -0.384904
vn 0.755768 -0.622789 -0.202357
vn 1.000000 0.000000 0.000000
vn 1.000000 0.000000 0.000000
vn 0.755768 -0.622789 -0.202357
vn 0.755766 -0.654841 -0.000002
vn 1.000000 0.000000 0.000000
vn 1.000000 0.000000 0.000000
vn 0.755766 -0.654841 -0.000002
vn 0.755763 -0.622795 0.202357
vn 0.755763 -0.529781 0.384909
vn 0.755763 -0.622795 0.202357
vn 0.673585 -0.702929 0.228419
vn 0.673584 -0.597967 0.434419
vn 0.755766 -0.384904 0.529780
vn 0.755763 -0.529781 0.384909
vn 0.673584 -0.597967 0.434419
vn 0.673587 -0.434473 0.597924
vn 0.755770 -0.202355 0.622788
vn 0.755766 -0.384904 0.529780
vn 0.673587 -0.434473 0.597924
vn 0.673591 -0.228417 0.702923
vn 0.755770 -0.000001 0.654838
vn 0.755770 -0.202355 0.622788
vn 0.673591 -0.228417 0.702923
vn 0.673591 0.000023 0.739104
vn 0.755764 0.202354 0.622795
vn 0.755770 -0.000001 0.654838
vn 0.673591 0.000023 0.739104
vn 0.673585 0.228462 0.702914
vn 0.755758 0.384910 0.529787
vn 0.755764 0.202354 0.622795
vn 0.673585 0.228462 0.702914
vn 0.673578 0.434478 0.597931
vn 0.755758 0.529787 0.384910
vn 0.755758 0.384910 0.529787
vn 0.673578 0.434478 0.597931
vn 0.673578 0.597931 0.434479
vn 0.755762 0.622797 0.202356
vn 0.755758 0.529787 0.384910
vn 0.673578 0.597931 0.434479
vn 0.673582 0.702923 0.228442
vn 0.755763 0.654845 0.000001
vn 0.755762 0.622797 0.202356
vn 0.673582 0.702923 0.228442
vn 0.673584 0.739111 -0.000023
vn 0.755762 0.622796 -0.202358
vn 0.755763 0.654845 0.000001
vn 0.673584 0.739111 -0.000023
vn 0.673582 0.702930 -0.228421
vn 0.755762 0.529781 -0.384910
vn 0.755762 0.622796 -0.202358
vn 0.673582 0.702930 -0.228421
vn 0.673583 0.597967 -0.434421
vn 0.755764 0.384907 -0.529780
vn 0.755762 0.529781 -0.384910
vn 0.673583 0.597967 -0.434421
vn 0.673585 0.434456 -0.597939
vn 0.755764 0.202360 -0.622793
vn 0.755764 0.384907 -0.529780
vn 0.673585 0.434456 -0.597939
vn 0.673584 0.228376 -0.702943
vn 0.755762 0.000001 -0.654847
vn 0.755764 0.202360 -0.622793
vn 0.673584 0.228376 -0.702943
vn 0.673582 -0.000024 -0.739112
vn 0.755761 -0.202360 -0.622797
vn 0.755762 0.000001 -0.654847
vn 0.673582 -0.000024 -0.739112
vn 0.673581 -0.228399 -0.702938
vn 0.755763 -0.384910 -0.529781
vn 0.755761 -0.202360 -0.622797
vn 0.673581 -0.228399 -0.702938
vn 0.673583 -0.434420 -0.597967
vn 0.755766 -0.529779 -0.384904
vn 0.755763 -0.384910 -0.529781
vn 0.673583 -0.434420 -0.597967
vn 0.673588 -0.597924 -0.434473
vn 0.755768 -0.622789 -0.202357
vn 0.755766 -0.529779 -0.384904
vn 0.673588 -0.597924 -0.434473
vn 0.673590 -0.702931 -0.228397
vn 0.755766 -0.654841 -0.000002
vn 0.755768 -0.622789 -0.202357
vn 0.673590 -0.702931 -0.228397
vn 0.673588 -0.739107 0.000046
vn 0.755763 -0.622795 0.202357
vn 0.755766 -0.654841 -0.000002
vn 0.673588 -0.739107 0.000046
vn 0.673585 -0.702929 0.228419
vn 0.718247 -0.661735 0.215010
vn 0.718245 -0.562906 0.408975
vn 0.718245 -0.562906 0.408975
vn 0.718247 -0.661735 0.215010
vn 0.718245 -0.562906 0.408975
vn 0.718245 -0.408975 0.562907
vn 0.718244 -0.408975 0.562907
vn 0.718245 -0.562906 0.408975
vn 0.718245 -0.408975 0.562907
vn 0.718244 -0.215011 0.661737
vn 0.718244 -0.215011 0.661737
vn 0.718244 -0.408975 0.562907
vn 0.718244 -0.215011 0.661737
vn 0.718244 0.000000 0.695792
vn 0.718244 0.000000 0.695791
vn 0.718244 -0.215011 0.661737
vn 0.718244 0.000000 0.695792
vn 0.718244 0.215012 0.661737
vn 0.718244 0.215012 0.661737
vn 0.718244 0.000000 0.695791
vn 0.718244 0.215012 0.661737
vn 0.718244 0.408976 0.562907
vn 0.718244 0.408976 0.562907
vn 0.718244 0.215012 0.661737
vn 0.718244 0.408976 0.562907
vn 0.718244 0.562907 0.408976
vn 0.718244 0.562908 0.408976
vn 0.718244 0.408976 0.562907
vn 0.718244 0.562907 0.408976
vn 0.718245 0.661736 0.215011
vn 0.718245 0.661736 0.215011
vn 0.718244 0.562908 0.408976
vn 0.718245 0.661736 0.215011
vn 0.718246 0.695790 0.000000
vn 0.718246 0.695790 0.000000
vn 0.718245 0.661736 0.215011
vn 0.718246 0.695790 0.000000
vn 0.718246 0.661735 -0.215011
vn 0.718246 0.661735 -0.215011
vn 0.718246 0.695790 0.000000
vn 0.718246 0.661735 -0.215011
vn 0.718245 0.562906 -0.408976
vn 0.718245 0.562906 -0.408975
vn 0.718246 0.661735 -0.215011
vn 0.718245 0.562906 -0.408976
vn 0.718245 0.408975 -0.562906
vn 0.718245 0.408975 -0.562906
vn 0.718245 0.562906 -0.408975
vn 0.718245 0.408975 -0.562906
vn 0.718246 0.215011 -0.661735
vn 0.718246 0.215011 -0.661735
vn 0.718245 0.408975 -0.562906
vn 0.718246 0.215011 -0.661735
vn 0.718246 0.000000 -0.695789
vn 0.718246 0.000000 -0.695789
vn 0.718246 0.215011 -0.661735
vn 0.718246 0.000000 -0.695789
vn 0.718245 -0.215011 -0.661735
vn 0.718246 -0.215011 -0.661735
vn 0.718246 0.000000 -0.695789
vn 0.718245 -0.215011 -0.661735
vn 0.718245 -0.408976 -0.562906
vn 0.718245 -0.408976 -0.562906
vn 0.718246 -0.215011 -0.661735
vn 0.718245 -0.408976 -0.562906
vn 0.718244 -0.562907 -0.408976
vn 0.718244 -0.562907 -0.408976
vn 0.718245 -0.408976 -0.562906
vn 0.718244 -0.562907 -0.408976
vn 0.718244 -0.661737 -0.215012
vn 0.718244 -0.661737 -0.215012
vn 0.718244 -0.562907 -0.408976
vn 0.718244 -0.661737 -0.215012
vn 0.718246 -0.695790 0.000000
vn 0.718246 -0.695790 0.000000
vn 0.718244 -0.661737 -0.215012
vn 0.718246 -0.695790 0.000000
vn 0.718247 -0.661735 0.215010
vn 0.718247 -0.661735 0.215010
vn 0.718246 -0.695790 0.000000
vn 0.272198 -0.778469 0.565592
vn 0.272199 -0.915147 0.297343
vn 0.272199 -0.915147 0.297343
vn 0.272198 -0.778469 0.565592
vn 0.272199 -0.565587 0.778472
vn 0.272198 -0.778469 0.565592
vn 0.272198 -0.778469 0.565592
vn 0.272199 -0.565587 0.778472
vn 0.272200 -0.297348 0.915146
vn 0.272199 -0.565587 0.778472
vn 0.272199 -0.565587 0.778472
vn 0.272200 -0.297348 0.915146
vn 0.272200 0.000000 0.962241
vn 0.272200 -0.297348 0.915146
vn 0.272200 -0.297348 0.915146
vn 0.272200 0.000000 0.962241
vn 0.272200 0.297350 0.915145
vn 0.272200 0.000000 0.962241
vn 0.272200 0.000000 0.962241
vn 0.272200 0.297350 0.915145
vn 0.272200 0.565590 0.778470
vn 0.272200 0.297350 0.915145
vn 0.272200 0.297350 0.915145
vn 0.272200 0.565589 0.778470
vn 0.272200 0.778470 0.565590
vn 0.272200 0.565590 0.778470
vn 0.272200 0.565589 0.778470
vn 0.272200 0.778470 0.565590
vn 0.272202 0.915146 0.297345
vn 0.272200 0.778470 0.565590
vn 0.272200 0.778470 0.565590
vn 0.272202 0.915146 0.297345
vn 0.272201 0.962240 0.000005
vn 0.272202 0.915146 0.297345
vn 0.272202 0.915146 0.297345
vn 0.272201 0.962240 0.000006
vn 0.272199 0.915147 -0.297346
vn 0.272201 0.962240 0.000005
vn 0.272201 0.962240 0.000006
vn 0.272199 0.915147 -0.297345
vn 0.272199 0.778467 -0.565594
vn 0.272199 0.915147 -0.297346
vn 0.272199 0.915147 -0.297345
vn 0.272199 0.778467 -0.565594
vn 0.272200 0.565591 -0.778469
vn 0.272199 0.778467 -0.565594
vn 0.272199 0.778467 -0.565594
vn 0.272200 0.565591 -0.778469
vn 0.272200 0.297352 -0.915144
vn 0.272200 0.565591 -0.778469
vn 0.272200 0.565591 -0.778469
vn 0.272200 0.297352 -0.915144
vn 0.272199 -0.000001 -0.962241
vn 0.272200 0.297352 -0.915144
vn 0.272200 0.297352 -0.915144
vn 0.272199 -0.000001 -0.962241
vn 0.272200 -0.297351 -0.915145
vn 0.272199 -0.000001 -0.962241
vn 0.272199 -0.000001 -0.962241
vn 0.272200 -0.297351 -0.915145
vn 0.272201 -0.565592 -0.778468
vn 0.272200 -0.297351 -0.915145
vn 0.272200 -0.297351 -0.915145
vn 0.272202 -0.565593 -0.778467
vn 0.272203 -0.778470 -0.565589
vn 0.272201 -0.565592 -0.778468
vn 0.272202 -0.565593 -0.778467
vn 0.272203 -0.778470 -0.565588
vn 0.272203 -0.915144 -0.297349
vn 0.272203 -0.778470 -0.565589
vn 0.272203 -0.778470 -0.565588
vn 0.272203 -0.915145 -0.297348
vn 0.272202 -0.962240 -0.000003
vn 0.272203 -0.915144 -0.297349
vn 0.272203 -0.915145 -0.297348
vn 0.272202 -0.962240 -0.000004
vn 0.272199 -0.915147 0.297343
vn 0.272202 -0.962240 -0.000003
vn 0.272202 -0.962240 -0.000004
vn 0.272199 -0.915147 0.297343
s off
g Level03_Hololights:polySurface1
f 1/1/1 2/2/2 3/3/3 4/4/4
f 5/5/5 1/1/6 4/4/7 6/6/8
f 7/7/9 5/5/10 6/6/11 8/8/12
f 9/9/13 7/7/14 8/8/15 10/10/16
f 11/11/17 9/9/18 10/10/19 12/12/20
f 13/13/21 11/11/22 12/12/23 14/14/24
f 15/15/25 13/13/26 14/14/27 16/16/28
f 17/17/29 15/15/30 16/16/31 18/18/32
f 19/19/33 17/17/34 18/18/35 20/20/36
f 21/21/37 19/19/38 20/20/39 22/22/40
f 23/23/41 21/21/42 22/22/43 24/24/44
f 25/25/45 23/23/46 24/24/47 26/26/48
f 27/27/49 25/25/50 26/26/51 28/28/52
f 29/29/53 27/27/54 28/28/55 30/30/56
f 31/31/57 29/29/58 30/30/59 32/32/60
f 33/33/61 31/31/62 32/32/63 34/34/64
f 35/35/65 33/33/66 34/34/67 36/36/68
f 37/37/69 35/35/70 36/36/71 38/38/72
f 39/39/73 37/37/74 38/38/75 40/40/76
f 2/41/77 39/39/78 40/40/79 3/42/80
f 4/43/81 3/44/82 41/45/83 42/46/84
f 6/47/85 4/48/86 42/49/87 43/50/88
f 8/51/89 6/52/90 43/53/91 44/54/92
f 10/55/93 8/56/94 44/57/95 45/58/96
f 12/59/97 10/60/98 45/61/99 46/62/100
f 14/63/101 12/64/102 46/65/103 47/66/104
f 16/67/105 14/68/106 47/69/107 48/70/108
f 18/71/109 16/72/110 48/73/111 49/74/112
f 20/75/113 18/76/114 49/77/115 50/78/116
f 22/79/117 20/80/118 50/81/119 51/82/120
f 24/83/121 22/84/122 51/85/123 52/86/124
f 26/87/125 24/88/126 52/89/127 53/90/128
f 28/91/129 26/92/130 53/93/131 54/94/132
f 30/95/133 28/96/134 54/97/135 55/98/136
f 32/99/137 30/100/138 55/101/139 56/102/140
f 34/103/141 32/104/142 56/105/143 57/106/144
f 36/107/145 34/108/146 57/109/147 58/110/148
f 38/111/149 36/112/150 58/113/151 59/114/152
f 40/115/153 38/116/154 59/117/155 60/118/156
f 3/119/157 40/120/158 60/121/159 41/122/160
f 61/123/161 62/124/162 63/125/163 64/126/164
f 62/127/165 65/128/166 66/129/167 63/130/168
f 65/131/169 67/132/170 68/133/171 66/134/172
f 67/135/173 69/136/174 70/137/175 68/138/176
f 69/139/177 71/140/178 72/141/179 70/142/180
f 71/143/181 73/144/182 74/145/183 72/146/184
f 73/147/185 75/148/186 76/149/187 74/150/188
f 75/151/189 77/152/190 78/153/191 76/154/192
f 77/155/193 79/156/194 80/157/195 78/158/196
f 79/159/197 81/160/198 82/161/199 80/162/200
f 81/163/201 83/164/202 84/165/203 82/166/204
f 83/167/205 85/168/206 86/169/207 84/170/208
f 85/171/209 87/172/210 88/173/211 86/174/212
f 87/175/213 89/176/214 90/177/215 88/178/216
f 89/179/217 91/180/218 92/181/219 90/182/220
f 91/183/221 93/184/222 94/185/223 92/186/224
f 93/187/225 95/188/226 96/189/227 94/190/228
f 95/191/229 97/192/230 98/193/231 96/194/232
f 97/195/233 99/196/234 100/197/235 98/198/236
f 99/199/237 61/200/238 64/201/239 100/202/240
f 62/203/241 61/204/242 101/205/243 102/206/244
f 65/207/245 62/208/246 102/209/247 103/210/248
f 67/211/249 65/212/250 103/213/251 104/214/252
f 69/215/253 67/216/254 104/217/255 105/218/256
f 71/219/257 69/220/258 105/221/259 106/222/260
f 73/223/261 71/224/262 106/225/263 107/226/264
f 75/227/265 73/228/266 107/229/267 108/230/268
f 77/231/269 75/232/270 108/233/271 109/234/272
f 79/235/273 77/236/274 109/237/275 110/238/276
f 81/239/277 79/240/278 110/241/279 111/242/280
f 83/243/281 81/244/282 111/245/283 112/246/284
f 85/247/285 83/248/286 112/249/287 113/250/288
f 87/251/289 85/252/290 113/253/291 114/254/292
f 89/255/293 87/256/294 114/257/295 115/258/296
f 91/259/297 89/260/298 115/261/299 116/262/300
f 93/263/301 91/264/302 116/265/303 117/266/304
f 95/267/305 93/268/306 117/269/307 118/270/308
f 97/271/309 95/272/310 118/273/311 119/274/312
f 99/275/313 97/276/314 119/277/315 120/278/316
f 61/279/317 99/280/318 120/281/319 101/282/320
