# This file uses centimeters as units for non-parametric coordinates.

g Level05_Bridge_Hololight:default1
v 6657.878418 -556.927124 -12437.365234
v 7474.195801 -556.927124 -12437.365234
v 7474.195801 -556.927124 -12688.241211
v 6657.878418 -556.927124 -12688.241211
v 6657.878418 -556.927124 -12565.539063
v 7474.195801 -556.927124 -12565.539063
vt 0.774433 0.257781
vt 0.172825 0.259929
vt 0.220870 0.262716
vt 0.729500 0.262136
vt 0.778482 0.618589
vt 0.176876 0.620853
vn 0.000000 1.000000 0.000000
vn 0.000000 1.000000 0.000000
vn 0.000000 1.000000 0.000000
vn 0.000000 1.000000 0.000000
vn 0.000000 1.000000 0.000000
vn 0.000000 1.000000 0.000000
s 1
g Level05_Bridge_Hololight:pCube202 Level05_Bridge_Hololight:water_surface1 Level05_Bridge_Hololight:polySurface1
f 5/5/1 6/6/2 3/3/3 4/4/4
f 1/1/5 2/2/6 6/6/2 5/5/1
