# This file uses centimeters as units for non-parametric coordinates.

mtllib Level05_RightHololights.mtl
g default
v 6245.343262 -43.054424 -12863.143555
v 6245.343262 7.311179 -12855.166016
v 6245.343262 7.311179 -12832.640625
v 6245.343262 -50.015648 -12841.720703
v 6245.343262 -88.489891 -12886.293945
v 6245.343262 -101.730530 -12868.068359
v 6245.343262 -124.547707 -12922.351563
v 6245.343262 -142.772110 -12909.110352
v 6245.343262 -147.698242 -12967.789063
v 6245.343262 -169.122375 -12960.828125
v 6245.343262 -155.675369 -13018.153320
v 6245.343262 -178.201904 -13018.153320
v 6245.343262 -147.698334 -13068.516602
v 6245.343262 -169.122482 -13075.478516
v 6245.343262 -124.547806 -13113.955078
v 6245.343262 -142.772263 -13127.196289
v 6245.343262 -88.489960 -13150.012695
v 6245.343262 -101.730583 -13168.238281
v 6245.343262 -43.054451 -13173.163086
v 6245.343262 -50.015427 -13194.586914
v 6245.343262 7.311174 -13181.140625
v 6245.343262 7.311173 -13203.665039
v 6245.343262 57.676815 -13173.163086
v 6245.343262 64.637802 -13194.586914
v 6245.343262 103.112244 -13150.012695
v 6245.343262 116.352890 -13168.238281
v 6245.343262 139.170044 -13113.955078
v 6245.343262 157.394485 -13127.196289
v 6245.343262 162.320572 -13068.516602
v 6245.343262 183.744751 -13075.478516
v 6245.343262 170.297699 -13018.153320
v 6245.343262 192.824234 -13018.153320
v 6245.343262 162.320572 -12967.789063
v 6245.343262 183.744705 -12960.828125
v 6245.343262 139.170044 -12922.351563
v 6245.343262 157.394455 -12909.110352
v 6245.343262 103.112244 -12886.293945
v 6245.343262 116.352890 -12868.068359
v 6245.343262 57.676800 -12863.143555
v 6245.343262 64.638023 -12841.720703
v 6245.337891 7.305796 -12888.875000
v 6245.337891 -32.636509 -12895.138672
v 6245.357910 -68.679688 -12913.569336
v 6245.357910 -97.277985 -12942.125000
v 6245.357910 -115.635139 -12978.130859
v 6245.357910 -121.975342 -13018.113281
v 6245.337891 -115.643143 -13058.133789
v 6245.357910 -97.266960 -13094.141602
v 6245.357910 -68.686203 -13122.777344
v 6245.337891 -32.663277 -13141.128906
v 6245.337891 7.303371 -13147.431641
v 6245.337891 47.251099 -13141.128906
v 6245.357910 83.315613 -13122.737305
v 6245.357910 111.937088 -13094.102539
v 6245.337891 130.284103 -13058.133789
v 6245.357910 136.599091 -13018.113281
v 6245.357910 130.272690 -12978.172852
v 6245.357910 111.898659 -12942.165039
v 6245.357910 83.291008 -12913.569336
v 6245.337891 47.259621 -12895.138672
v 6240.772949 -36.829239 -12882.302734
v 6240.772949 7.311180 -12875.310547
v 6240.772949 7.311180 -12855.569336
v 6240.772949 -42.930058 -12863.528320
v 6240.772949 -76.648888 -12902.591797
v 6240.772949 -88.252983 -12886.619141
v 6240.772949 -108.249954 -12934.192383
v 6240.772949 -124.221817 -12922.587891
v 6240.772949 -128.539078 -12974.013672
v 6240.772949 -147.315201 -12967.914063
v 6240.772949 -135.530228 -13018.153320
v 6240.772949 -155.272491 -13018.153320
v 6240.772949 -128.539154 -13062.291992
v 6240.772949 -147.315292 -13068.392578
v 6240.772949 -108.250038 -13102.114258
v 6240.772949 -124.221947 -13113.718750
v 6240.772949 -76.648949 -13133.714844
v 6240.772949 -88.253021 -13149.687500
v 6240.772949 -36.829262 -13154.003906
v 6240.772949 -42.929859 -13172.779297
v 6240.772949 7.311175 -13160.996094
v 6240.772949 7.311175 -13180.736328
v 6240.772949 51.451626 -13154.003906
v 6240.772949 57.552235 -13172.779297
v 6240.772949 91.271240 -13133.714844
v 6240.772949 102.875343 -13149.687500
v 6240.772949 122.872299 -13102.114258
v 6240.772949 138.844208 -13113.718750
v 6240.772949 143.161423 -13062.291992
v 6240.772949 161.937576 -13068.392578
v 6240.772949 150.152573 -13018.153320
v 6240.772949 169.894836 -13018.153320
v 6240.772949 143.161423 -12974.013672
v 6240.772949 161.937546 -12967.914063
v 6240.772949 122.872299 -12934.192383
v 6240.772949 138.844177 -12922.587891
v 6240.772949 91.271240 -12902.591797
v 6240.772949 102.875343 -12886.619141
v 6240.772949 51.451611 -12882.302734
v 6240.772949 57.552429 -12863.528320
v 6240.772949 7.309418 -12967.685547
v 6240.772949 -8.283126 -12970.130859
v 6240.780273 -22.353546 -12977.326172
v 6240.780273 -33.517658 -12988.473633
v 6240.780273 -40.683865 -13002.529297
v 6240.780273 -43.158886 -13018.137695
v 6240.772949 -40.686977 -13033.760742
v 6240.780273 -33.513348 -13047.817383
v 6240.780273 -22.356110 -13058.996094
v 6240.772949 -8.293579 -13066.160156
v 6240.772949 7.308472 -13068.621094
v 6240.772949 22.903135 -13066.160156
v 6240.780273 36.981873 -13058.980469
v 6240.780273 48.155025 -13047.801758
v 6240.772949 55.317326 -13033.760742
v 6240.780273 57.782475 -13018.137695
v 6240.780273 55.312805 -13002.545898
v 6240.780273 48.140015 -12988.489258
v 6240.780273 36.972290 -12977.326172
v 6240.772949 22.906462 -12970.130859
vt 0.562500 0.621442
vt 0.550000 0.621442
vt 0.550000 0.621442
vt 0.562500 0.621442
vt 0.575000 0.621442
vt 0.575000 0.621442
vt 0.587500 0.621442
vt 0.587500 0.621442
vt 0.600000 0.621442
vt 0.600000 0.621442
vt 0.612500 0.621442
vt 0.612500 0.621442
vt 0.625000 0.621442
vt 0.625000 0.621442
vt 0.387500 0.621442
vt 0.375000 0.621442
vt 0.375000 0.621442
vt 0.387500 0.621442
vt 0.400000 0.621442
vt 0.400000 0.621442
vt 0.412500 0.621442
vt 0.412500 0.621442
vt 0.425000 0.621442
vt 0.425000 0.621442
vt 0.437500 0.621442
vt 0.437500 0.621442
vt 0.450000 0.621442
vt 0.450000 0.621442
vt 0.462500 0.621442
vt 0.462500 0.621442
vt 0.475000 0.621442
vt 0.475000 0.621442
vt 0.487500 0.621442
vt 0.487500 0.621442
vt 0.500000 0.621442
vt 0.500000 0.621442
vt 0.512500 0.621442
vt 0.512500 0.621442
vt 0.525000 0.621442
vt 0.525000 0.621442
vt 0.537500 0.621442
vt 0.537500 0.621442
vt 0.000000 0.000000
vt 1.000000 0.000000
vt 1.000000 1.000000
vt 0.000000 1.000000
vt 0.000000 0.000000
vt 1.000000 0.000000
vt 1.000000 1.000000
vt 0.000000 1.000000
vt 0.000000 0.000000
vt 1.000000 0.000000
vt 1.000000 1.000000
vt 0.000000 1.000000
vt 0.000000 0.000000
vt 1.000000 0.000000
vt 1.000000 1.000000
vt 0.000000 1.000000
vt 0.000000 0.000000
vt 1.000000 0.000000
vt 1.000000 1.000000
vt 0.000000 1.000000
vt 0.000000 0.000000
vt 1.000000 0.000000
vt 1.000000 1.000000
vt 0.000000 1.000000
vt 0.000000 0.000000
vt 1.000000 0.000000
vt 1.000000 1.000000
vt 0.000000 1.000000
vt 0.000000 0.000000
vt 1.000000 0.000000
vt 1.000000 1.000000
vt 0.000000 1.000000
vt 0.000000 0.000000
vt 1.000000 0.000000
vt 1.000000 1.000000
vt 0.000000 1.000000
vt 0.000000 0.000000
vt 1.000000 0.000000
vt 1.000000 1.000000
vt 0.000000 1.000000
vt 0.000000 0.000000
vt 1.000000 0.000000
vt 1.000000 1.000000
vt 0.000000 1.000000
vt 0.000000 0.000000
vt 1.000000 0.000000
vt 1.000000 1.000000
vt 0.000000 1.000000
vt 0.000000 0.000000
vt 1.000000 0.000000
vt 1.000000 1.000000
vt 0.000000 1.000000
vt 0.000000 0.000000
vt 1.000000 0.000000
vt 1.000000 1.000000
vt 0.000000 1.000000
vt 0.000000 0.000000
vt 1.000000 0.000000
vt 1.000000 1.000000
vt 0.000000 1.000000
vt 0.000000 0.000000
vt 1.000000 0.000000
vt 1.000000 1.000000
vt 0.000000 1.000000
vt 0.000000 0.000000
vt 1.000000 0.000000
vt 1.000000 1.000000
vt 0.000000 1.000000
vt 0.000000 0.000000
vt 1.000000 0.000000
vt 1.000000 1.000000
vt 0.000000 1.000000
vt 0.000000 0.000000
vt 1.000000 0.000000
vt 1.000000 1.000000
vt 0.000000 1.000000
vt 0.000000 0.000000
vt 1.000000 0.000000
vt 1.000000 1.000000
vt 0.000000 1.000000
vt 0.562500 0.621442
vt 0.550000 0.621442
vt 0.550000 0.621442
vt 0.562500 0.621442
vt 0.575000 0.621442
vt 0.575000 0.621442
vt 0.587500 0.621442
vt 0.587500 0.621442
vt 0.600000 0.621442
vt 0.600000 0.621442
vt 0.612500 0.621442
vt 0.612500 0.621442
vt 0.625000 0.621442
vt 0.625000 0.621442
vt 0.387500 0.621442
vt 0.375000 0.621442
vt 0.375000 0.621442
vt 0.387500 0.621442
vt 0.400000 0.621442
vt 0.400000 0.621442
vt 0.412500 0.621442
vt 0.412500 0.621442
vt 0.425000 0.621442
vt 0.425000 0.621442
vt 0.437500 0.621442
vt 0.437500 0.621442
vt 0.450000 0.621442
vt 0.450000 0.621442
vt 0.462500 0.621442
vt 0.462500 0.621442
vt 0.475000 0.621442
vt 0.475000 0.621442
vt 0.487500 0.621442
vt 0.487500 0.621442
vt 0.500000 0.621442
vt 0.500000 0.621442
vt 0.512500 0.621442
vt 0.512500 0.621442
vt 0.525000 0.621442
vt 0.525000 0.621442
vt 0.537500 0.621442
vt 0.537500 0.621442
vt 0.000000 0.000000
vt 1.000000 0.000000
vt 1.000000 1.000000
vt 0.000000 1.000000
vt 0.000000 0.000000
vt 1.000000 0.000000
vt 1.000000 1.000000
vt 0.000000 1.000000
vt 0.000000 0.000000
vt 1.000000 0.000000
vt 1.000000 1.000000
vt 0.000000 1.000000
vt 0.000000 0.000000
vt 1.000000 0.000000
vt 1.000000 1.000000
vt 0.000000 1.000000
vt 0.000000 0.000000
vt 1.000000 0.000000
vt 1.000000 1.000000
vt 0.000000 1.000000
vt 0.000000 0.000000
vt 1.000000 0.000000
vt 1.000000 1.000000
vt 0.000000 1.000000
vt 0.000000 0.000000
vt 1.000000 0.000000
vt 1.000000 1.000000
vt 0.000000 1.000000
vt 0.000000 0.000000
vt 1.000000 0.000000
vt 1.000000 1.000000
vt 0.000000 1.000000
vt 0.000000 0.000000
vt 1.000000 0.000000
vt 1.000000 1.000000
vt 0.000000 1.000000
vt 0.000000 0.000000
vt 1.000000 0.000000
vt 1.000000 1.000000
vt 0.000000 1.000000
vt 0.000000 0.000000
vt 1.000000 0.000000
vt 1.000000 1.000000
vt 0.000000 1.000000
vt 0.000000 0.000000
vt 1.000000 0.000000
vt 1.000000 1.000000
vt 0.000000 1.000000
vt 0.000000 0.000000
vt 1.000000 0.000000
vt 1.000000 1.000000
vt 0.000000 1.000000
vt 0.000000 0.000000
vt 1.000000 0.000000
vt 1.000000 1.000000
vt 0.000000 1.000000
vt 0.000000 0.000000
vt 1.000000 0.000000
vt 1.000000 1.000000
vt 0.000000 1.000000
vt 0.000000 0.000000
vt 1.000000 0.000000
vt 1.000000 1.000000
vt 0.000000 1.000000
vt 0.000000 0.000000
vt 1.000000 0.000000
vt 1.000000 1.000000
vt 0.000000 1.000000
vt 0.000000 0.000000
vt 1.000000 0.000000
vt 1.000000 1.000000
vt 0.000000 1.000000
vt 0.000000 0.000000
vt 1.000000 0.000000
vt 1.000000 1.000000
vt 0.000000 1.000000
vt 0.000000 0.000000
vt 1.000000 0.000000
vt 1.000000 1.000000
vt 0.000000 1.000000
vn 1.000000 0.000038 0.000016
vn 1.000000 -0.000000 -0.000081
vn 1.000000 0.000000 0.000000
vn 1.000000 0.000003 0.000000
vn 1.000000 -0.000048 0.000135
vn 1.000000 -0.000003 0.000000
vn 1.000000 -0.000178 0.000129
vn 1.000000 -0.000003 0.000000
vn 1.000000 -0.000205 0.000068
vn 1.000000 0.000003 0.000000
vn 1.000000 -0.000131 -0.000043
vn 1.000000 0.000008 0.000000
vn 1.000000 -0.000077 -0.000027
vn 1.000000 0.000014 0.000000
vn 1.000000 -0.000131 -0.000045
vn 1.000000 0.000003 0.000000
vn 1.000000 -0.000046 -0.000135
vn 1.000000 -0.000003 0.000000
vn 1.000000 0.000036 -0.000016
vn 1.000000 -0.000006 0.000000
vn 1.000000 -0.000003 0.000081
vn 1.000000 -0.000006 0.000000
vn 1.000000 -0.000034 -0.000016
vn 1.000000 0.000010 0.000000
vn 1.000000 0.000052 -0.000135
vn 1.000000 0.000016 0.000000
vn 1.000000 0.000135 -0.000046
vn 1.000000 0.000002 0.000000
vn 1.000000 0.000076 -0.000027
vn 1.000000 -0.000018 0.000000
vn 1.000000 0.000130 -0.000043
vn 1.000000 -0.000010 0.000000
vn 1.000000 0.000210 0.000068
vn 1.000000 0.000003 0.000000
vn 1.000000 0.000179 0.000129
vn 1.000000 0.000003 0.000000
vn 1.000000 0.000046 0.000135
vn 1.000000 0.000003 0.000000
vn 1.000000 -0.000039 0.000016
vn 1.000000 0.000000 0.000000
vn 1.000000 0.000072 0.000032
vn 1.000000 0.000000 -0.000159
vn 1.000000 -0.000093 0.000267
vn 1.000000 -0.000349 0.000256
vn 1.000000 -0.000408 0.000134
vn 1.000000 -0.000266 -0.000084
vn 1.000000 -0.000166 -0.000053
vn 1.000000 -0.000262 -0.000090
vn 1.000000 -0.000087 -0.000267
vn 1.000000 0.000077 -0.000032
vn 1.000000 0.000000 0.000159
vn 1.000000 -0.000077 -0.000032
vn 1.000000 0.000087 -0.000267
vn 1.000000 0.000264 -0.000090
vn 1.000000 0.000167 -0.000053
vn 1.000000 0.000266 -0.000084
vn 1.000000 0.000411 0.000134
vn 1.000000 0.000350 0.000256
vn 1.000000 0.000087 0.000267
vn 1.000000 -0.000077 0.000032
vn 1.000000 0.000028 0.000032
vn 1.000000 0.000000 0.000000
vn 1.000000 0.000000 0.000000
vn 1.000000 0.000000 0.000000
vn 1.000000 0.000013 0.000052
vn 1.000000 0.000004 0.000000
vn 1.000000 -0.000046 0.000033
vn 1.000000 -0.000006 0.000000
vn 1.000000 -0.000056 0.000017
vn 1.000000 -0.000006 0.000000
vn 1.000000 -0.000031 -0.000040
vn 1.000000 0.000004 0.000000
vn 1.000000 -0.000035 -0.000013
vn 1.000000 0.000004 0.000000
vn 1.000000 -0.000051 0.000012
vn 1.000000 -0.000004 0.000000
vn 1.000000 0.000011 -0.000052
vn 1.000000 -0.000004 0.000000
vn 1.000000 0.000033 -0.000032
vn 1.000000 0.000004 0.000000
vn 1.000000 0.000001 0.000000
vn 1.000000 0.000004 0.000000
vn 1.000000 -0.000027 -0.000032
vn 1.000000 0.000004 0.000000
vn 1.000000 -0.000011 -0.000052
vn 1.000000 0.000004 0.000000
vn 1.000000 0.000052 0.000012
vn 1.000000 0.000013 0.000000
vn 1.000000 0.000042 -0.000013
vn 1.000000 0.000013 0.000000
vn 1.000000 0.000031 -0.000040
vn 1.000000 -0.000006 0.000000
vn 1.000000 0.000053 0.000017
vn 1.000000 0.000002 0.000000
vn 1.000000 0.000046 0.000033
vn 1.000000 0.000013 0.000000
vn 1.000000 -0.000012 0.000052
vn 1.000000 0.000000 0.000000
vn 1.000000 -0.000028 0.000032
vn 1.000000 -0.000000 0.000000
vn 1.000000 0.000040 0.000045
vn 1.000000 0.000000 0.000000
vn 1.000000 0.000017 0.000074
vn 1.000000 -0.000062 0.000047
vn 1.000000 -0.000076 0.000025
vn 1.000000 -0.000046 -0.000057
vn 1.000000 -0.000052 -0.000018
vn 1.000000 -0.000071 0.000016
vn 1.000000 0.000017 -0.000074
vn 1.000000 0.000045 -0.000045
vn 1.000000 0.000000 0.000000
vn 1.000000 -0.000040 -0.000045
vn 1.000000 -0.000017 -0.000074
vn 1.000000 0.000068 0.000016
vn 1.000000 0.000054 -0.000018
vn 1.000000 0.000046 -0.000057
vn 1.000000 0.000074 0.000025
vn 1.000000 0.000059 0.000047
vn 1.000000 -0.000017 0.000074
vn 1.000000 -0.000040 0.000045
s 1
g polySurface688
usemtl polySurface688SG
f 1/1/1 2/2/2 3/3/3 4/4/4
f 5/5/5 1/1/1 4/4/4 6/6/6
f 7/7/7 5/5/5 6/6/6 8/8/8
f 9/9/9 7/7/7 8/8/8 10/10/10
f 11/11/11 9/9/9 10/10/10 12/12/12
f 13/13/13 11/11/11 12/12/12 14/14/14
f 15/15/15 13/16/13 14/17/14 16/18/16
f 17/19/17 15/15/15 16/18/16 18/20/18
f 19/21/19 17/19/17 18/20/18 20/22/20
f 21/23/21 19/21/19 20/22/20 22/24/22
f 23/25/23 21/23/21 22/24/22 24/26/24
f 25/27/25 23/25/23 24/26/24 26/28/26
f 27/29/27 25/27/25 26/28/26 28/30/28
f 29/31/29 27/29/27 28/30/28 30/32/30
f 31/33/31 29/31/29 30/32/30 32/34/32
f 33/35/33 31/33/31 32/34/32 34/36/34
f 35/37/35 33/35/33 34/36/34 36/38/36
f 37/39/37 35/37/35 36/38/36 38/40/38
f 39/41/39 37/39/37 38/40/38 40/42/40
f 2/2/2 39/41/39 40/42/40 3/3/3
f 2/43/2 1/44/1 42/45/41 41/46/42
f 1/47/1 5/48/5 43/49/43 42/50/41
f 5/51/5 7/52/7 44/53/44 43/54/43
f 7/55/7 9/56/9 45/57/45 44/58/44
f 9/59/9 11/60/11 46/61/46 45/62/45
f 11/63/11 13/64/13 47/65/47 46/66/46
f 13/67/13 15/68/15 48/69/48 47/70/47
f 15/71/15 17/72/17 49/73/49 48/74/48
f 17/75/17 19/76/19 50/77/50 49/78/49
f 19/79/19 21/80/21 51/81/51 50/82/50
f 21/83/21 23/84/23 52/85/52 51/86/51
f 23/87/23 25/88/25 53/89/53 52/90/52
f 25/91/25 27/92/27 54/93/54 53/94/53
f 27/95/27 29/96/29 55/97/55 54/98/54
f 29/99/29 31/100/31 56/101/56 55/102/55
f 31/103/31 33/104/33 57/105/57 56/106/56
f 33/107/33 35/108/35 58/109/58 57/110/57
f 35/111/35 37/112/37 59/113/59 58/114/58
f 37/115/37 39/116/39 60/117/60 59/118/59
f 39/119/39 2/120/2 41/121/42 60/122/60
s 2
f 61/123/61 62/124/62 63/125/63 64/126/64
f 65/127/65 61/123/61 64/126/64 66/128/66
f 67/129/67 65/127/65 66/128/66 68/130/68
f 69/131/69 67/129/67 68/130/68 70/132/70
f 71/133/71 69/131/69 70/132/70 72/134/72
f 73/135/73 71/133/71 72/134/72 74/136/74
f 75/137/75 73/138/73 74/139/74 76/140/76
f 77/141/77 75/137/75 76/140/76 78/142/78
f 79/143/79 77/141/77 78/142/78 80/144/80
f 81/145/81 79/143/79 80/144/80 82/146/82
f 83/147/83 81/145/81 82/146/82 84/148/84
f 85/149/85 83/147/83 84/148/84 86/150/86
f 87/151/87 85/149/85 86/150/86 88/152/88
f 89/153/89 87/151/87 88/152/88 90/154/90
f 91/155/91 89/153/89 90/154/90 92/156/92
f 93/157/93 91/155/91 92/156/92 94/158/94
f 95/159/95 93/157/93 94/158/94 96/160/96
f 97/161/97 95/159/95 96/160/96 98/162/98
f 99/163/99 97/161/97 98/162/98 100/164/100
f 62/124/62 99/163/99 100/164/100 63/125/63
f 62/165/62 61/166/61 102/167/101 101/168/102
f 61/169/61 65/170/65 103/171/103 102/172/101
f 65/173/65 67/174/67 104/175/104 103/176/103
f 67/177/67 69/178/69 105/179/105 104/180/104
f 69/181/69 71/182/71 106/183/106 105/184/105
f 71/185/71 73/186/73 107/187/107 106/188/106
f 73/189/73 75/190/75 108/191/108 107/192/107
f 75/193/75 77/194/77 109/195/109 108/196/108
f 77/197/77 79/198/79 110/199/110 109/200/109
f 79/201/79 81/202/81 111/203/111 110/204/110
f 81/205/81 83/206/83 112/207/112 111/208/111
f 83/209/83 85/210/85 113/211/113 112/212/112
f 85/213/85 87/214/87 114/215/114 113/216/113
f 87/217/87 89/218/89 115/219/115 114/220/114
f 89/221/89 91/222/91 116/223/116 115/224/115
f 91/225/91 93/226/93 117/227/117 116/228/116
f 93/229/93 95/230/95 118/231/118 117/232/117
f 95/233/95 97/234/97 119/235/119 118/236/118
f 97/237/97 99/238/99 120/239/120 119/240/119
f 99/241/99 62/242/62 101/243/102 120/244/120
