# This file uses centimeters as units for non-parametric coordinates.

g default
v 6245.343262 -43.054424 -12863.143555
v 6245.343262 7.311179 -12855.166016
v 6245.343262 7.311179 -12832.640625
v 6245.343262 -50.015648 -12841.720703
v 6245.343262 -88.489891 -12886.293945
v 6245.343262 -101.730530 -12868.068359
v 6245.343262 -124.547707 -12922.351563
v 6245.343262 -142.772110 -12909.110352
v 6245.343262 -147.698242 -12967.789063
v 6245.343262 -169.122375 -12960.828125
v 6245.343262 -155.675369 -13018.153320
v 6245.343262 -178.201904 -13018.153320
v 6245.343262 -147.698334 -13068.516602
v 6245.343262 -169.122482 -13075.478516
v 6245.343262 -124.547806 -13113.955078
v 6245.343262 -142.772263 -13127.196289
v 6245.343262 -88.489960 -13150.012695
v 6245.343262 -101.730583 -13168.238281
v 6245.343262 -43.054451 -13173.163086
v 6245.343262 -50.015427 -13194.586914
v 6245.343262 7.311174 -13181.140625
v 6245.343262 7.311173 -13203.665039
v 6245.343262 57.676815 -13173.163086
v 6245.343262 64.637802 -13194.586914
v 6245.343262 103.112244 -13150.012695
v 6245.343262 116.352890 -13168.238281
v 6245.343262 139.170044 -13113.955078
v 6245.343262 157.394485 -13127.196289
v 6245.343262 162.320572 -13068.516602
v 6245.343262 183.744751 -13075.478516
v 6245.343262 170.297699 -13018.153320
v 6245.343262 192.824234 -13018.153320
v 6245.343262 162.320572 -12967.789063
v 6245.343262 183.744705 -12960.828125
v 6245.343262 139.170044 -12922.351563
v 6245.343262 157.394455 -12909.110352
v 6245.343262 103.112244 -12886.293945
v 6245.343262 116.352890 -12868.068359
v 6245.343262 57.676800 -12863.143555
v 6245.343262 64.638023 -12841.720703
v 6245.337891 7.305796 -12888.875000
v 6245.337891 -32.636509 -12895.138672
v 6245.357910 -68.679688 -12913.569336
v 6245.357910 -97.277985 -12942.125000
v 6245.357910 -115.635139 -12978.130859
v 6245.357910 -121.975342 -13018.113281
v 6245.337891 -115.643143 -13058.133789
v 6245.357910 -97.266960 -13094.141602
v 6245.357910 -68.686203 -13122.777344
v 6245.337891 -32.663277 -13141.128906
v 6245.337891 7.303371 -13147.431641
v 6245.337891 47.251099 -13141.128906
v 6245.357910 83.315613 -13122.737305
v 6245.357910 111.937088 -13094.102539
v 6245.337891 130.284103 -13058.133789
v 6245.357910 136.599091 -13018.113281
v 6245.357910 130.272690 -12978.172852
v 6245.357910 111.898659 -12942.165039
v 6245.357910 83.291008 -12913.569336
v 6245.337891 47.259621 -12895.138672
v 5841.729980 -36.829239 -12882.302734
v 5841.729980 7.311180 -12875.310547
v 5841.729980 7.311180 -12855.569336
v 5841.729980 -42.930058 -12863.528320
v 5841.729980 -76.648888 -12902.591797
v 5841.729980 -88.252983 -12886.619141
v 5841.729980 -108.249954 -12934.192383
v 5841.729980 -124.221817 -12922.587891
v 5841.729980 -128.539078 -12974.013672
v 5841.729980 -147.315201 -12967.914063
v 5841.729980 -135.530228 -13018.153320
v 5841.729980 -155.272491 -13018.153320
v 5841.729980 -128.539154 -13062.291992
v 5841.729980 -147.315292 -13068.392578
v 5841.729980 -108.250038 -13102.114258
v 5841.729980 -124.221947 -13113.718750
v 5841.729980 -76.648949 -13133.714844
v 5841.729980 -88.253021 -13149.687500
v 5841.729980 -36.829262 -13154.003906
v 5841.729980 -42.929859 -13172.779297
v 5841.729980 7.311175 -13160.996094
v 5841.729980 7.311175 -13180.736328
v 5841.729980 51.451626 -13154.003906
v 5841.729980 57.552235 -13172.779297
v 5841.729980 91.271240 -13133.714844
v 5841.729980 102.875343 -13149.687500
v 5841.729980 122.872299 -13102.114258
v 5841.729980 138.844208 -13113.718750
v 5841.729980 143.161423 -13062.291992
v 5841.729980 161.937576 -13068.392578
v 5841.729980 150.152573 -13018.153320
v 5841.729980 169.894836 -13018.153320
v 5841.729980 143.161423 -12974.013672
v 5841.729980 161.937546 -12967.914063
v 5841.729980 122.872299 -12934.192383
v 5841.729980 138.844177 -12922.587891
v 5841.729980 91.271240 -12902.591797
v 5841.729980 102.875343 -12886.619141
v 5841.729980 51.451611 -12882.302734
v 5841.729980 57.552429 -12863.528320
v 5841.729980 7.309418 -12967.685547
v 5841.729980 -8.283126 -12970.130859
v 5841.737305 -22.353546 -12977.326172
v 5841.737305 -33.517658 -12988.473633
v 5841.737305 -40.683865 -13002.529297
v 5841.737305 -43.158886 -13018.137695
v 5841.729980 -40.686977 -13033.760742
v 5841.737305 -33.513348 -13047.817383
v 5841.737305 -22.356110 -13058.996094
v 5841.729980 -8.293579 -13066.160156
v 5841.729980 7.308472 -13068.621094
v 5841.729980 22.903135 -13066.160156
v 5841.737305 36.981873 -13058.980469
v 5841.737305 48.155025 -13047.801758
v 5841.729980 55.317326 -13033.760742
v 5841.737305 57.782475 -13018.137695
v 5841.737305 55.312805 -13002.545898
v 5841.737305 48.140015 -12988.489258
v 5841.737305 36.972290 -12977.326172
v 5841.729980 22.906462 -12970.130859
vt 0.328029 0.497499
vt 0.261515 0.496874
vt 0.263950 0.004368
vt 0.339657 0.004997
vt 0.388029 0.498655
vt 0.407951 0.006076
vt 0.435643 0.500228
vt 0.462148 0.007497
vt 0.466208 0.502066
vt 0.496940 0.009123
vt 0.476734 0.503987
vt 0.508923 0.010794
vt 0.466190 0.505804
vt 0.496924 0.012346
vt 0.435608 0.507339
vt 0.462117 0.013628
vt 0.387981 0.508441
vt 0.407910 0.014514
vt 0.327972 0.509004
vt 0.339608 0.014917
vt 0.261455 0.508971
vt 0.263898 0.014798
vt 0.194941 0.508346
vt 0.188191 0.014168
vt 0.134940 0.507190
vt 0.119897 0.013090
vt 0.087327 0.505617
vt 0.065700 0.011668
vt 0.056762 0.503779
vt 0.030908 0.010042
vt 0.046236 0.501858
vt 0.018925 0.008372
vt 0.056780 0.500041
vt 0.030924 0.006819
vt 0.087362 0.498506
vt 0.065731 0.005537
vt 0.134989 0.497404
vt 0.119938 0.004652
vt 0.194998 0.496841
vt 0.188240 0.004249
vt 0.311824 0.992159
vt 0.259075 0.991688
vt 0.359422 0.993014
vt 0.397186 0.994160
vt 0.421423 0.995490
vt 0.429790 0.996875
vt 0.421421 0.998179
vt 0.397146 0.999269
vt 0.359396 1.000044
vt 0.311819 0.998644
vt 0.259036 0.998595
vt 0.206280 0.998122
vt 0.158654 0.999050
vt 0.120860 0.997901
vt 0.096635 0.996573
vt 0.088302 0.995187
vt 0.096664 0.993886
vt 0.120935 0.992796
vt 0.158721 0.992021
vt 0.206309 0.991637
vt 0.819503 0.091239
vt 0.757059 0.090730
vt 0.757475 0.006515
vt 0.828550 0.007123
vt 0.875833 0.092100
vt 0.892664 0.008185
vt 0.920534 0.093227
vt 0.943543 0.009597
vt 0.949231 0.094511
vt 0.976206 0.011221
vt 0.959115 0.095826
vt 0.987455 0.012898
vt 0.949218 0.097043
vt 0.976190 0.014463
vt 0.920510 0.098044
vt 0.943513 0.015765
vt 0.875800 0.098729
vt 0.892622 0.016674
vt 0.819465 0.099032
vt 0.828501 0.017102
vt 0.757019 0.098924
vt 0.757424 0.017007
vt 0.694575 0.098415
vt 0.686349 0.016399
vt 0.638245 0.097554
vt 0.622235 0.015337
vt 0.593544 0.096427
vt 0.571356 0.013925
vt 0.564847 0.095143
vt 0.538693 0.012300
vt 0.554962 0.093828
vt 0.527444 0.010624
vt 0.564859 0.092611
vt 0.538709 0.009058
vt 0.593567 0.091611
vt 0.571386 0.007757
vt 0.638278 0.090925
vt 0.622277 0.006848
vt 0.694613 0.090622
vt 0.686399 0.006420
vt 0.809792 0.990233
vt 0.752573 0.989811
vt 0.861424 0.990894
vt 0.902388 0.991727
vt 0.928683 0.992652
vt 0.937760 0.993579
vt 0.928686 0.994417
vt 0.902356 0.995082
vt 0.861409 0.995511
vt 0.809804 0.995661
vt 0.752548 0.995517
vt 0.695321 0.995095
vt 0.643660 0.994434
vt 0.602661 0.993599
vt 0.576382 0.992676
vt 0.567340 0.991748
vt 0.576407 0.990911
vt 0.602733 0.990247
vt 0.643717 0.989818
vt 0.695336 0.989667
vn 1.000000 0.000038 0.000016
vn 1.000000 0.000000 -0.000081
vn 1.000000 0.000000 0.000000
vn 1.000000 0.000003 0.000000
vn 1.000000 -0.000048 0.000135
vn 1.000000 0.000038 0.000016
vn 1.000000 0.000003 0.000000
vn 1.000000 -0.000003 0.000000
vn 1.000000 -0.000178 0.000129
vn 1.000000 -0.000048 0.000135
vn 1.000000 -0.000003 0.000000
vn 1.000000 -0.000003 0.000000
vn 1.000000 -0.000205 0.000068
vn 1.000000 -0.000178 0.000129
vn 1.000000 -0.000003 0.000000
vn 1.000000 0.000003 0.000000
vn 1.000000 -0.000131 -0.000043
vn 1.000000 -0.000205 0.000068
vn 1.000000 0.000003 0.000000
vn 1.000000 0.000008 0.000000
vn 1.000000 -0.000077 -0.000027
vn 1.000000 -0.000131 -0.000043
vn 1.000000 0.000008 0.000000
vn 1.000000 0.000014 0.000000
vn 1.000000 -0.000131 -0.000045
vn 1.000000 -0.000077 -0.000027
vn 1.000000 0.000014 0.000000
vn 1.000000 0.000003 0.000000
vn 1.000000 -0.000046 -0.000135
vn 1.000000 -0.000131 -0.000045
vn 1.000000 0.000003 0.000000
vn 1.000000 -0.000003 0.000000
vn 1.000000 0.000036 -0.000016
vn 1.000000 -0.000046 -0.000135
vn 1.000000 -0.000003 0.000000
vn 1.000000 -0.000006 0.000000
vn 1.000000 -0.000003 0.000081
vn 1.000000 0.000036 -0.000016
vn 1.000000 -0.000006 0.000000
vn 1.000000 -0.000006 0.000000
vn 1.000000 -0.000034 -0.000016
vn 1.000000 -0.000003 0.000081
vn 1.000000 -0.000006 0.000000
vn 1.000000 0.000010 0.000000
vn 1.000000 0.000052 -0.000135
vn 1.000000 -0.000034 -0.000016
vn 1.000000 0.000010 0.000000
vn 1.000000 0.000016 0.000000
vn 1.000000 0.000135 -0.000046
vn 1.000000 0.000052 -0.000135
vn 1.000000 0.000016 0.000000
vn 1.000000 0.000002 0.000000
vn 1.000000 0.000076 -0.000027
vn 1.000000 0.000135 -0.000046
vn 1.000000 0.000002 0.000000
vn 1.000000 -0.000018 0.000000
vn 1.000000 0.000130 -0.000043
vn 1.000000 0.000076 -0.000027
vn 1.000000 -0.000018 0.000000
vn 1.000000 -0.000010 0.000000
vn 1.000000 0.000210 0.000068
vn 1.000000 0.000130 -0.000043
vn 1.000000 -0.000010 0.000000
vn 1.000000 0.000003 0.000000
vn 1.000000 0.000179 0.000129
vn 1.000000 0.000210 0.000068
vn 1.000000 0.000003 0.000000
vn 1.000000 0.000003 0.000000
vn 1.000000 0.000046 0.000135
vn 1.000000 0.000179 0.000129
vn 1.000000 0.000003 0.000000
vn 1.000000 0.000003 0.000000
vn 1.000000 -0.000039 0.000016
vn 1.000000 0.000046 0.000135
vn 1.000000 0.000003 0.000000
vn 1.000000 0.000000 0.000000
vn 1.000000 0.000000 -0.000081
vn 1.000000 -0.000039 0.000016
vn 1.000000 0.000000 0.000000
vn 1.000000 0.000000 0.000000
vn 1.000000 0.000000 -0.000081
vn 1.000000 0.000038 0.000016
vn 1.000000 0.000072 0.000032
vn 1.000000 0.000000 -0.000159
vn 1.000000 0.000038 0.000016
vn 1.000000 -0.000048 0.000135
vn 1.000000 -0.000093 0.000267
vn 1.000000 0.000072 0.000032
vn 1.000000 -0.000048 0.000135
vn 1.000000 -0.000178 0.000129
vn 1.000000 -0.000349 0.000256
vn 1.000000 -0.000093 0.000267
vn 1.000000 -0.000178 0.000129
vn 1.000000 -0.000205 0.000068
vn 1.000000 -0.000408 0.000134
vn 1.000000 -0.000349 0.000256
vn 1.000000 -0.000205 0.000068
vn 1.000000 -0.000131 -0.000043
vn 1.000000 -0.000266 -0.000084
vn 1.000000 -0.000408 0.000134
vn 1.000000 -0.000131 -0.000043
vn 1.000000 -0.000077 -0.000027
vn 1.000000 -0.000166 -0.000053
vn 1.000000 -0.000266 -0.000084
vn 1.000000 -0.000077 -0.000027
vn 1.000000 -0.000131 -0.000045
vn 1.000000 -0.000262 -0.000090
vn 1.000000 -0.000166 -0.000053
vn 1.000000 -0.000131 -0.000045
vn 1.000000 -0.000046 -0.000135
vn 1.000000 -0.000087 -0.000267
vn 1.000000 -0.000262 -0.000090
vn 1.000000 -0.000046 -0.000135
vn 1.000000 0.000036 -0.000016
vn 1.000000 0.000077 -0.000032
vn 1.000000 -0.000087 -0.000267
vn 1.000000 0.000036 -0.000016
vn 1.000000 -0.000003 0.000081
vn 1.000000 0.000000 0.000159
vn 1.000000 0.000077 -0.000032
vn 1.000000 -0.000003 0.000081
vn 1.000000 -0.000034 -0.000016
vn 1.000000 -0.000077 -0.000032
vn 1.000000 0.000000 0.000159
vn 1.000000 -0.000034 -0.000016
vn 1.000000 0.000052 -0.000135
vn 1.000000 0.000087 -0.000267
vn 1.000000 -0.000077 -0.000032
vn 1.000000 0.000052 -0.000135
vn 1.000000 0.000135 -0.000046
vn 1.000000 0.000264 -0.000090
vn 1.000000 0.000087 -0.000267
vn 1.000000 0.000135 -0.000046
vn 1.000000 0.000076 -0.000027
vn 1.000000 0.000167 -0.000053
vn 1.000000 0.000264 -0.000090
vn 1.000000 0.000076 -0.000027
vn 1.000000 0.000130 -0.000043
vn 1.000000 0.000266 -0.000084
vn 1.000000 0.000167 -0.000053
vn 1.000000 0.000130 -0.000043
vn 1.000000 0.000210 0.000068
vn 1.000000 0.000411 0.000134
vn 1.000000 0.000266 -0.000084
vn 1.000000 0.000210 0.000068
vn 1.000000 0.000179 0.000129
vn 1.000000 0.000350 0.000256
vn 1.000000 0.000411 0.000134
vn 1.000000 0.000179 0.000129
vn 1.000000 0.000046 0.000135
vn 1.000000 0.000087 0.000267
vn 1.000000 0.000350 0.000256
vn 1.000000 0.000046 0.000135
vn 1.000000 -0.000039 0.000016
vn 1.000000 -0.000077 0.000032
vn 1.000000 0.000087 0.000267
vn 1.000000 -0.000039 0.000016
vn 1.000000 0.000000 -0.000081
vn 1.000000 0.000000 -0.000159
vn 1.000000 -0.000077 0.000032
vn 1.000000 0.000028 0.000032
vn 1.000000 0.000000 0.000000
vn 1.000000 0.000000 0.000000
vn 1.000000 0.000000 0.000000
vn 1.000000 0.000013 0.000052
vn 1.000000 0.000028 0.000032
vn 1.000000 0.000000 0.000000
vn 1.000000 0.000004 0.000000
vn 1.000000 -0.000046 0.000033
vn 1.000000 0.000013 0.000052
vn 1.000000 0.000004 0.000000
vn 1.000000 -0.000006 0.000000
vn 1.000000 -0.000056 0.000017
vn 1.000000 -0.000046 0.000033
vn 1.000000 -0.000006 0.000000
vn 1.000000 -0.000006 0.000000
vn 1.000000 -0.000031 -0.000040
vn 1.000000 -0.000056 0.000017
vn 1.000000 -0.000006 0.000000
vn 1.000000 0.000004 0.000000
vn 1.000000 -0.000035 -0.000013
vn 1.000000 -0.000031 -0.000040
vn 1.000000 0.000004 0.000000
vn 1.000000 0.000004 0.000000
vn 1.000000 -0.000051 0.000012
vn 1.000000 -0.000035 -0.000013
vn 1.000000 0.000004 0.000000
vn 1.000000 -0.000004 0.000000
vn 1.000000 0.000011 -0.000052
vn 1.000000 -0.000051 0.000012
vn 1.000000 -0.000004 0.000000
vn 1.000000 -0.000004 0.000000
vn 1.000000 0.000033 -0.000032
vn 1.000000 0.000011 -0.000052
vn 1.000000 -0.000004 0.000000
vn 1.000000 0.000004 0.000000
vn 1.000000 0.000001 0.000000
vn 1.000000 0.000033 -0.000032
vn 1.000000 0.000004 0.000000
vn 1.000000 0.000004 0.000000
vn 1.000000 -0.000027 -0.000032
vn 1.000000 0.000001 0.000000
vn 1.000000 0.000004 0.000000
vn 1.000000 0.000004 0.000000
vn 1.000000 -0.000011 -0.000052
vn 1.000000 -0.000027 -0.000032
vn 1.000000 0.000004 0.000000
vn 1.000000 0.000004 0.000000
vn 1.000000 0.000052 0.000012
vn 1.000000 -0.000011 -0.000052
vn 1.000000 0.000004 0.000000
vn 1.000000 0.000013 0.000000
vn 1.000000 0.000042 -0.000013
vn 1.000000 0.000052 0.000012
vn 1.000000 0.000013 0.000000
vn 1.000000 0.000013 0.000000
vn 1.000000 0.000031 -0.000040
vn 1.000000 0.000042 -0.000013
vn 1.000000 0.000013 0.000000
vn 1.000000 -0.000006 0.000000
vn 1.000000 0.000053 0.000017
vn 1.000000 0.000031 -0.000040
vn 1.000000 -0.000006 0.000000
vn 1.000000 0.000002 0.000000
vn 1.000000 0.000046 0.000033
vn 1.000000 0.000053 0.000017
vn 1.000000 0.000002 0.000000
vn 1.000000 0.000013 0.000000
vn 1.000000 -0.000012 0.000052
vn 1.000000 0.000046 0.000033
vn 1.000000 0.000013 0.000000
vn 1.000000 0.000000 0.000000
vn 1.000000 -0.000028 0.000032
vn 1.000000 -0.000012 0.000052
vn 1.000000 0.000000 0.000000
vn 1.000000 -0.000000 0.000000
vn 1.000000 0.000000 0.000000
vn 1.000000 -0.000028 0.000032
vn 1.000000 -0.000000 0.000000
vn 1.000000 0.000000 0.000000
vn 1.000000 0.000000 0.000000
vn 1.000000 0.000028 0.000032
vn 1.000000 0.000040 0.000045
vn 1.000000 0.000000 0.000000
vn 1.000000 0.000028 0.000032
vn 1.000000 0.000013 0.000052
vn 1.000000 0.000017 0.000074
vn 1.000000 0.000040 0.000045
vn 1.000000 0.000013 0.000052
vn 1.000000 -0.000046 0.000033
vn 1.000000 -0.000062 0.000047
vn 1.000000 0.000017 0.000074
vn 1.000000 -0.000046 0.000033
vn 1.000000 -0.000056 0.000017
vn 1.000000 -0.000076 0.000025
vn 1.000000 -0.000062 0.000047
vn 1.000000 -0.000056 0.000017
vn 1.000000 -0.000031 -0.000040
vn 1.000000 -0.000046 -0.000057
vn 1.000000 -0.000076 0.000025
vn 1.000000 -0.000031 -0.000040
vn 1.000000 -0.000035 -0.000013
vn 1.000000 -0.000052 -0.000018
vn 1.000000 -0.000046 -0.000057
vn 1.000000 -0.000035 -0.000013
vn 1.000000 -0.000051 0.000012
vn 1.000000 -0.000071 0.000016
vn 1.000000 -0.000052 -0.000018
vn 1.000000 -0.000051 0.000012
vn 1.000000 0.000011 -0.000052
vn 1.000000 0.000017 -0.000074
vn 1.000000 -0.000071 0.000016
vn 1.000000 0.000011 -0.000052
vn 1.000000 0.000033 -0.000032
vn 1.000000 0.000045 -0.000045
vn 1.000000 0.000017 -0.000074
vn 1.000000 0.000033 -0.000032
vn 1.000000 0.000001 0.000000
vn 1.000000 0.000000 0.000000
vn 1.000000 0.000045 -0.000045
vn 1.000000 0.000001 0.000000
vn 1.000000 -0.000027 -0.000032
vn 1.000000 -0.000040 -0.000045
vn 1.000000 0.000000 0.000000
vn 1.000000 -0.000027 -0.000032
vn 1.000000 -0.000011 -0.000052
vn 1.000000 -0.000017 -0.000074
vn 1.000000 -0.000040 -0.000045
vn 1.000000 -0.000011 -0.000052
vn 1.000000 0.000052 0.000012
vn 1.000000 0.000068 0.000016
vn 1.000000 -0.000017 -0.000074
vn 1.000000 0.000052 0.000012
vn 1.000000 0.000042 -0.000013
vn 1.000000 0.000054 -0.000018
vn 1.000000 0.000068 0.000016
vn 1.000000 0.000042 -0.000013
vn 1.000000 0.000031 -0.000040
vn 1.000000 0.000046 -0.000057
vn 1.000000 0.000054 -0.000018
vn 1.000000 0.000031 -0.000040
vn 1.000000 0.000053 0.000017
vn 1.000000 0.000074 0.000025
vn 1.000000 0.000046 -0.000057
vn 1.000000 0.000053 0.000017
vn 1.000000 0.000046 0.000033
vn 1.000000 0.000059 0.000047
vn 1.000000 0.000074 0.000025
vn 1.000000 0.000046 0.000033
vn 1.000000 -0.000012 0.000052
vn 1.000000 -0.000017 0.000074
vn 1.000000 0.000059 0.000047
vn 1.000000 -0.000012 0.000052
vn 1.000000 -0.000028 0.000032
vn 1.000000 -0.000040 0.000045
vn 1.000000 -0.000017 0.000074
vn 1.000000 -0.000028 0.000032
vn 1.000000 0.000000 0.000000
vn 1.000000 0.000000 0.000000
vn 1.000000 -0.000040 0.000045
s off
g Level05_RightHololights:polySurface749
f 1/1/1 2/2/2 3/3/3 4/4/4
f 5/5/5 1/1/6 4/4/7 6/6/8
f 7/7/9 5/5/10 6/6/11 8/8/12
f 9/9/13 7/7/14 8/8/15 10/10/16
f 11/11/17 9/9/18 10/10/19 12/12/20
f 13/13/21 11/11/22 12/12/23 14/14/24
f 15/15/25 13/13/26 14/14/27 16/16/28
f 17/17/29 15/15/30 16/16/31 18/18/32
f 19/19/33 17/17/34 18/18/35 20/20/36
f 21/21/37 19/19/38 20/20/39 22/22/40
f 23/23/41 21/21/42 22/22/43 24/24/44
f 25/25/45 23/23/46 24/24/47 26/26/48
f 27/27/49 25/25/50 26/26/51 28/28/52
f 29/29/53 27/27/54 28/28/55 30/30/56
f 31/31/57 29/29/58 30/30/59 32/32/60
f 33/33/61 31/31/62 32/32/63 34/34/64
f 35/35/65 33/33/66 34/34/67 36/36/68
f 37/37/69 35/35/70 36/36/71 38/38/72
f 39/39/73 37/37/74 38/38/75 40/40/76
f 2/2/77 39/39/78 40/40/79 3/3/80
f 2/2/81 1/1/82 42/41/83 41/42/84
f 1/1/85 5/5/86 43/43/87 42/41/88
f 5/5/89 7/7/90 44/44/91 43/43/92
f 7/7/93 9/9/94 45/45/95 44/44/96
f 9/9/97 11/11/98 46/46/99 45/45/100
f 11/11/101 13/13/102 47/47/103 46/46/104
f 13/13/105 15/15/106 48/48/107 47/47/108
f 15/15/109 17/17/110 49/49/111 48/48/112
f 17/17/113 19/19/114 50/50/115 49/49/116
f 19/19/117 21/21/118 51/51/119 50/50/120
f 21/21/121 23/23/122 52/52/123 51/51/124
f 23/23/125 25/25/126 53/53/127 52/52/128
f 25/25/129 27/27/130 54/54/131 53/53/132
f 27/27/133 29/29/134 55/55/135 54/54/136
f 29/29/137 31/31/138 56/56/139 55/55/140
f 31/31/141 33/33/142 57/57/143 56/56/144
f 33/33/145 35/35/146 58/58/147 57/57/148
f 35/35/149 37/37/150 59/59/151 58/58/152
f 37/37/153 39/39/154 60/60/155 59/59/156
f 39/39/157 2/2/158 41/42/159 60/60/160
f 61/61/161 62/62/162 63/63/163 64/64/164
f 65/65/165 61/61/166 64/64/167 66/66/168
f 67/67/169 65/65/170 66/66/171 68/68/172
f 69/69/173 67/67/174 68/68/175 70/70/176
f 71/71/177 69/69/178 70/70/179 72/72/180
f 73/73/181 71/71/182 72/72/183 74/74/184
f 75/75/185 73/73/186 74/74/187 76/76/188
f 77/77/189 75/75/190 76/76/191 78/78/192
f 79/79/193 77/77/194 78/78/195 80/80/196
f 81/81/197 79/79/198 80/80/199 82/82/200
f 83/83/201 81/81/202 82/82/203 84/84/204
f 85/85/205 83/83/206 84/84/207 86/86/208
f 87/87/209 85/85/210 86/86/211 88/88/212
f 89/89/213 87/87/214 88/88/215 90/90/216
f 91/91/217 89/89/218 90/90/219 92/92/220
f 93/93/221 91/91/222 92/92/223 94/94/224
f 95/95/225 93/93/226 94/94/227 96/96/228
f 97/97/229 95/95/230 96/96/231 98/98/232
f 99/99/233 97/97/234 98/98/235 100/100/236
f 62/62/237 99/99/238 100/100/239 63/63/240
f 62/62/241 61/61/242 102/101/243 101/102/244
f 61/61/245 65/65/246 103/103/247 102/101/248
f 65/65/249 67/67/250 104/104/251 103/103/252
f 67/67/253 69/69/254 105/105/255 104/104/256
f 69/69/257 71/71/258 106/106/259 105/105/260
f 71/71/261 73/73/262 107/107/263 106/106/264
f 73/73/265 75/75/266 108/108/267 107/107/268
f 75/75/269 77/77/270 109/109/271 108/108/272
f 77/77/273 79/79/274 110/110/275 109/109/276
f 79/79/277 81/81/278 111/111/279 110/110/280
f 81/81/281 83/83/282 112/112/283 111/111/284
f 83/83/285 85/85/286 113/113/287 112/112/288
f 85/85/289 87/87/290 114/114/291 113/113/292
f 87/87/293 89/89/294 115/115/295 114/114/296
f 89/89/297 91/91/298 116/116/299 115/115/300
f 91/91/301 93/93/302 117/117/303 116/116/304
f 93/93/305 95/95/306 118/118/307 117/117/308
f 95/95/309 97/97/310 119/119/311 118/118/312
f 97/97/313 99/99/314 120/120/315 119/119/316
f 99/99/317 62/62/318 101/102/319 120/120/320
