# This file uses centimeters as units for non-parametric coordinates.

mtllib Level05_WaterFloorA.mtl
g default
v 5727.321822 -1170.981052 -11413.607896
v 8471.529811 -1170.981052 -11413.607896
v 8471.529811 -1170.981052 -13766.234904
v 5727.321822 -1170.981052 -13766.234904
vt 0.001492 0.001992
vt 0.747431 0.001992
vt 0.747431 0.998008
vt 0.001492 0.998008
vn 0.000000 1.000000 0.000000
vn 0.000000 1.000000 0.000000
vn 0.000000 1.000000 0.000000
vn 0.000000 1.000000 0.000000
s off
g water_surface pCube202
usemtl water_surfaceSG
f 1/1/1 2/2/2 3/3/3 4/4/4
