# This file uses centimeters as units for non-parametric coordinates.

g default
v -5.882191 0.715823 -0.660517
v -5.830578 0.716797 -0.659149
v -5.876122 0.700276 -0.820200
v -5.928069 0.699779 -0.821568
v -5.830750 0.710905 -0.658426
v -5.876293 0.694940 -0.819476
v -7.304460 0.755023 -0.828730
v -7.359123 0.770794 -0.667680
v -6.299036 0.707963 -0.671566
v -6.347618 0.695766 -0.832617
v -5.879705 0.589001 -0.805110
v -5.834162 0.593934 -0.644060
v -5.834451 0.584052 -0.642846
v -5.879994 0.580051 -0.803897
v -5.882999 0.780345 -0.711400
v -5.797854 0.748801 -0.693959
v -5.843398 0.730896 -0.810442
v -5.928877 0.772168 -0.785987
v -5.764528 0.698341 -0.674841
v -5.810071 0.670914 -0.833148
v -7.355000 0.835529 -0.717329
v -7.300337 0.827170 -0.791889
v -6.297385 0.773158 -0.716906
v -6.345967 0.768293 -0.791623
v -5.767982 0.611297 -0.667769
v -5.813526 0.589376 -0.824769
v -5.768292 0.590786 -0.664088
v -5.813836 0.569352 -0.820989
v -5.830579 0.716797 0.905842
v -5.882191 0.715824 0.907210
v -5.928069 0.699779 1.068260
v -5.876122 0.700276 1.066892
v -5.830750 0.710905 0.905118
v -5.876294 0.694940 1.066169
v -6.299035 0.707963 0.918259
v -7.359122 0.770794 0.914373
v -7.304459 0.755023 1.075423
v -6.347617 0.695766 1.079309
v -5.834451 0.584052 0.889539
v -5.834163 0.593934 0.890753
v -5.879706 0.589002 1.051803
v -5.879994 0.580051 1.050589
v -5.797855 0.748798 0.940650
v -5.882999 0.780346 0.958093
v -5.928877 0.772168 1.032680
v -5.843398 0.730902 1.057137
v -5.764528 0.698339 0.921532
v -5.810071 0.670921 1.079842
v -7.355000 0.835529 0.964022
v -6.297384 0.773158 0.963599
v -7.300336 0.827170 1.038582
v -6.345966 0.768293 1.038316
v -5.768292 0.590782 0.910777
v -5.767983 0.611296 0.914461
v -5.813527 0.589382 1.071464
v -5.813836 0.569364 1.067684
vt 0.149486 0.063672
vt 0.087188 0.072811
vt 0.089672 0.011889
vt 0.156616 0.024656
vt 0.045336 0.082792
vt 0.043455 0.000000
vt 1.003659 0.020947
vt 1.001848 0.059901
vt 0.379022 0.060591
vt 0.382633 0.021508
vt 0.008024 0.004331
vt 0.007382 0.086436
vt -0.001845 0.088348
vt -0.000979 0.006295
vt 0.119459 0.090233
vt 0.122984 0.006014
vt 0.094024 0.006754
vt 0.090906 0.090974
vt 0.091675 0.007129
vt 0.088302 0.091348
vt 0.972908 0.001644
vt 0.350319 0.000035
vt 0.350069 0.084254
vt 0.974494 0.085815
vt 0.045036 0.014575
vt 0.041097 0.015204
vt 0.032241 0.099416
vt 0.036608 0.098788
vt 0.087187 0.927290
vt 0.149486 0.936386
vt 0.149276 0.975349
vt 0.088999 0.988150
vt 0.045335 0.917283
vt 0.042782 1.000000
vt 0.379021 0.939062
vt 1.001848 0.938814
vt 1.001836 0.977811
vt 0.380157 0.978093
vt -0.001847 0.911596
vt 0.007382 0.913534
vt 0.007352 0.995571
vt -0.001649 0.993583
vt 0.090907 0.909060
vt 0.093348 0.993216
vt 0.119582 0.993906
vt 0.119460 0.909750
vt 0.088302 0.908678
vt 0.090999 0.992835
vt 0.350068 0.915322
vt 0.347843 0.999479
vt 0.974417 0.997025
vt 0.974493 0.912820
vt 0.032241 0.900458
vt 0.033454 0.984622
vt 0.037394 0.985262
vt 0.036609 0.901099
vn 0.364750 0.883113 -0.295073
vn 0.364750 0.883113 -0.295073
vn 0.364751 0.883113 -0.295073
vn 0.364750 0.883113 -0.295073
vn 0.798282 0.493018 -0.345947
vn 0.798282 0.493018 -0.345947
vn 0.798282 0.493018 -0.345947
vn 0.798282 0.493018 -0.345947
vn 0.059962 0.994519 -0.085659
vn 0.059962 0.994519 -0.085659
vn 0.059962 0.994519 -0.085659
vn 0.059962 0.994519 -0.085659
vn 0.960735 -0.064377 -0.269897
vn 0.960735 -0.064377 -0.269897
vn 0.960735 -0.064377 -0.269897
vn 0.960735 -0.064377 -0.269897
vn 0.961373 -0.063942 -0.267719
vn 0.961373 -0.063942 -0.267719
vn 0.961373 -0.063942 -0.267719
vn 0.961373 -0.063942 -0.267719
vn -0.012198 0.996772 -0.079352
vn -0.012198 0.996772 -0.079352
vn -0.012198 0.996772 -0.079352
vn -0.012198 0.996772 -0.079352
vn 0.011565 -0.995185 0.097332
vn 0.011565 -0.995185 0.097332
vn 0.011565 -0.995185 0.097332
vn 0.011565 -0.995185 0.097332
vn -0.961978 0.063608 0.265618
vn -0.961978 0.063608 0.265618
vn -0.961978 0.063608 0.265618
vn -0.961978 0.063608 0.265618
vn -0.059874 -0.994561 0.085227
vn -0.059874 -0.994561 0.085227
vn -0.059874 -0.994561 0.085227
vn -0.059874 -0.994561 0.085227
vn -0.960741 0.064268 0.269901
vn -0.960741 0.064268 0.269901
vn -0.960741 0.064268 0.269901
vn -0.960741 0.064268 0.269901
vn -0.961374 0.063941 0.267716
vn -0.961374 0.063941 0.267716
vn -0.961374 0.063941 0.267716
vn -0.961374 0.063941 0.267716
vn 0.011929 -0.996406 0.083863
vn 0.011929 -0.996406 0.083863
vn 0.011929 -0.996406 0.083863
vn 0.011929 -0.996406 0.083863
vn 0.042773 0.655344 0.754119
vn 0.042773 0.655344 0.754119
vn 0.042773 0.655344 0.754119
vn 0.042773 0.655344 0.754119
vn -0.031212 0.410741 -0.911218
vn -0.031212 0.410741 -0.911218
vn -0.031212 0.410741 -0.911218
vn -0.031212 0.410741 -0.911218
vn 0.327389 0.479321 0.814290
vn 0.327389 0.479321 0.814290
vn 0.327389 0.479321 0.814290
vn 0.327389 0.479321 0.814290
vn -0.057235 0.292220 -0.954637
vn -0.057235 0.292220 -0.954637
vn -0.057235 0.292220 -0.954637
vn -0.057235 0.292220 -0.954637
vn -0.906408 0.015116 -0.422133
vn -0.906408 0.015116 -0.422133
vn -0.906408 0.015116 -0.422133
vn -0.906408 0.015116 -0.422133
vn 0.036128 0.588747 0.807510
vn 0.036128 0.588747 0.807510
vn 0.036128 0.588747 0.807510
vn 0.036128 0.588747 0.807510
vn 0.027553 0.472754 -0.880764
vn 0.027553 0.472754 -0.880764
vn 0.027553 0.472754 -0.880764
vn 0.027553 0.472754 -0.880764
vn 0.294167 0.146325 0.944486
vn 0.294167 0.146325 0.944486
vn 0.294167 0.146325 0.944486
vn 0.294167 0.146325 0.944486
vn -0.006249 -0.996652 0.081519
vn -0.006249 -0.996652 0.081519
vn -0.006249 -0.996652 0.081519
vn -0.006249 -0.996652 0.081519
vn -0.275637 -0.157718 -0.948235
vn -0.275637 -0.157718 -0.948235
vn -0.275637 -0.157718 -0.948235
vn -0.275637 -0.157718 -0.948235
vn 0.285818 0.090625 0.953989
vn 0.285818 0.090625 0.953989
vn 0.285818 0.090625 0.953989
vn 0.285818 0.090625 0.953989
vn -0.260637 -0.106861 -0.959505
vn -0.260637 -0.106861 -0.959505
vn -0.260637 -0.106861 -0.959505
vn -0.260637 -0.106861 -0.959505
vn -0.026771 0.595671 0.802783
vn -0.026771 0.595670 0.802783
vn -0.026771 0.595671 0.802783
vn -0.026771 0.595671 0.802783
vn 0.013228 0.467094 -0.884109
vn 0.013228 0.467094 -0.884109
vn 0.013228 0.467094 -0.884109
vn 0.013228 0.467094 -0.884109
vn 0.364749 0.883129 0.295029
vn 0.364749 0.883129 0.295029
vn 0.364749 0.883129 0.295029
vn 0.364749 0.883129 0.295029
vn 0.798289 0.493035 0.345907
vn 0.798289 0.493035 0.345907
vn 0.798289 0.493035 0.345907
vn 0.798289 0.493035 0.345907
vn 0.059962 0.994519 0.085659
vn 0.059962 0.994519 0.085659
vn 0.059962 0.994519 0.085659
vn 0.059962 0.994519 0.085659
vn 0.960737 -0.064345 0.269898
vn 0.960737 -0.064345 0.269898
vn 0.960737 -0.064345 0.269898
vn 0.960737 -0.064345 0.269898
vn 0.961373 -0.063953 0.267716
vn 0.961373 -0.063953 0.267716
vn 0.961373 -0.063953 0.267716
vn 0.961373 -0.063953 0.267716
vn -0.012199 0.996771 0.079359
vn -0.012199 0.996771 0.079359
vn -0.012199 0.996771 0.079359
vn -0.012199 0.996772 0.079359
vn 0.011555 -0.995184 -0.097339
vn 0.011555 -0.995184 -0.097339
vn 0.011555 -0.995184 -0.097339
vn 0.011555 -0.995184 -0.097339
vn -0.961977 0.063600 -0.265621
vn -0.961977 0.063600 -0.265621
vn -0.961977 0.063600 -0.265621
vn -0.961977 0.063600 -0.265621
vn -0.059874 -0.994561 -0.085228
vn -0.059874 -0.994561 -0.085228
vn -0.059874 -0.994561 -0.085228
vn -0.059874 -0.994561 -0.085228
vn -0.960744 0.064215 -0.269904
vn -0.960744 0.064215 -0.269904
vn -0.960744 0.064215 -0.269904
vn -0.960744 0.064215 -0.269904
vn -0.961374 0.063938 -0.267718
vn -0.961374 0.063938 -0.267718
vn -0.961374 0.063938 -0.267718
vn -0.961374 0.063938 -0.267718
vn 0.011930 -0.996406 -0.083867
vn 0.011930 -0.996406 -0.083867
vn 0.011930 -0.996406 -0.083867
vn 0.011930 -0.996406 -0.083867
vn 0.042786 0.655345 -0.754117
vn 0.042786 0.655345 -0.754117
vn 0.042786 0.655345 -0.754117
vn 0.042786 0.655345 -0.754117
vn -0.031259 0.410702 0.911234
vn -0.031259 0.410702 0.911234
vn -0.031259 0.410702 0.911234
vn -0.031259 0.410702 0.911234
vn 0.327380 0.479339 -0.814283
vn 0.327380 0.479339 -0.814283
vn 0.327380 0.479339 -0.814283
vn 0.327380 0.479339 -0.814283
vn -0.057314 0.292185 0.954643
vn -0.057314 0.292185 0.954643
vn -0.057314 0.292185 0.954643
vn -0.057314 0.292185 0.954643
vn 0.036128 0.588747 -0.807510
vn 0.036128 0.588747 -0.807510
vn 0.036128 0.588747 -0.807510
vn 0.036128 0.588747 -0.807510
vn -0.906408 0.015103 0.422134
vn -0.906408 0.015103 0.422134
vn -0.906408 0.015103 0.422134
vn -0.906408 0.015103 0.422134
vn 0.027553 0.472749 0.880766
vn 0.027553 0.472749 0.880766
vn 0.027553 0.472749 0.880766
vn 0.027553 0.472749 0.880766
vn 0.294118 0.146414 -0.944488
vn 0.294118 0.146414 -0.944488
vn 0.294118 0.146414 -0.944488
vn 0.294118 0.146414 -0.944488
vn -0.275653 -0.157780 0.948220
vn -0.275653 -0.157780 0.948220
vn -0.275653 -0.157780 0.948220
vn -0.275653 -0.157780 0.948220
vn -0.006207 -0.996658 -0.081456
vn -0.006207 -0.996658 -0.081456
vn -0.006207 -0.996658 -0.081456
vn -0.006207 -0.996658 -0.081456
vn 0.285807 0.090619 -0.953993
vn 0.285807 0.090619 -0.953993
vn 0.285807 0.090619 -0.953993
vn 0.285807 0.090619 -0.953993
vn -0.260645 -0.106855 0.959503
vn -0.260645 -0.106855 0.959503
vn -0.260645 -0.106855 0.959503
vn -0.260645 -0.106855 0.959503
vn -0.026773 0.595671 -0.802782
vn -0.026773 0.595671 -0.802783
vn -0.026773 0.595671 -0.802782
vn -0.026773 0.595671 -0.802782
vn 0.013228 0.467084 0.884114
vn 0.013228 0.467084 0.884114
vn 0.013228 0.467084 0.884114
vn 0.013228 0.467084 0.884114
s off
g racer_speed:Mesh
f 15/1/1 16/2/2 17/3/3 18/4/4
f 16/2/5 19/5/6 20/6/7 17/3/8
f 22/7/9 21/8/10 23/9/11 24/10/12
f 26/11/13 25/12/14 27/13/15 28/14/16
f 20/6/17 19/5/18 25/12/19 26/11/20
f 23/9/21 15/1/22 18/4/23 24/10/24
f 1/15/25 4/16/26 3/17/27 2/18/28
f 2/18/29 3/17/30 6/19/31 5/20/32
f 7/21/33 10/22/34 9/23/35 8/24/36
f 11/25/37 14/26/38 13/27/39 12/28/40
f 6/19/41 11/25/42 12/28/43 5/20/44
f 9/23/45 10/22/46 4/16/47 1/15/48
f 1/15/49 2/18/50 16/2/51 15/1/52
f 3/17/53 4/16/54 18/4/55 17/3/56
f 2/18/57 5/20/58 19/5/59 16/2/60
f 6/19/61 3/17/62 17/3/63 20/6/64
f 7/21/65 8/24/66 21/8/67 22/7/68
f 8/24/69 9/23/70 23/9/71 21/8/72
f 10/22/73 7/21/74 22/7/75 24/10/76
f 12/28/77 13/27/78 27/13/79 25/12/80
f 13/27/81 14/26/82 28/14/83 27/13/84
f 14/26/85 11/25/86 26/11/87 28/14/88
f 5/20/89 12/28/90 25/12/91 19/5/92
f 11/25/93 6/19/94 20/6/95 26/11/96
f 9/23/97 1/15/98 15/1/99 23/9/100
f 4/16/101 10/22/102 24/10/103 18/4/104
f 43/29/105 44/30/106 45/31/107 46/32/108
f 47/33/109 43/29/110 46/32/111 48/34/112
f 50/35/113 49/36/114 51/37/115 52/38/116
f 53/39/117 54/40/118 55/41/119 56/42/120
f 54/40/121 47/33/122 48/34/123 55/41/124
f 45/31/125 44/30/126 50/35/127 52/38/128
f 29/43/129 32/44/130 31/45/131 30/46/132
f 33/47/133 34/48/134 32/44/135 29/43/136
f 35/49/137 38/50/138 37/51/139 36/52/140
f 39/53/141 42/54/142 41/55/143 40/56/144
f 40/56/145 41/55/146 34/48/147 33/47/148
f 31/45/149 38/50/150 35/49/151 30/46/152
f 29/43/153 30/46/154 44/30/155 43/29/156
f 31/45/157 32/44/158 46/32/159 45/31/160
f 33/47/161 29/43/162 43/29/163 47/33/164
f 32/44/165 34/48/166 48/34/167 46/32/168
f 35/49/169 36/52/170 49/36/171 50/35/172
f 36/52/173 37/51/174 51/37/175 49/36/176
f 37/51/177 38/50/178 52/38/179 51/37/180
f 39/53/181 40/56/182 54/40/183 53/39/184
f 41/55/185 42/54/186 56/42/187 55/41/188
f 42/54/189 39/53/190 53/39/191 56/42/192
f 40/56/193 33/47/194 47/33/195 54/40/196
f 34/48/197 41/55/198 55/41/199 48/34/200
f 30/46/201 35/49/202 50/35/203 44/30/204
f 38/50/205 31/45/206 45/31/207 52/38/208
