# This file uses centimeters as units for non-parametric coordinates.

g default
v -29677.521484 769.168457 1502.016846
v -29677.521484 1240.092529 1502.016846
v -29677.521484 1240.092529 943.562134
v -29677.521484 769.168457 943.562134
v -27704.964844 1240.092529 1502.016846
v -27704.964844 1240.092529 943.562134
v -27601.148438 769.888000 1500.742554
v -27608.492188 769.168457 1502.016846
v -27601.148438 1229.915771 1500.742554
v -27606.337891 1230.424561 1502.016846
v -27601.148438 769.888000 944.836426
v -27608.492188 769.168457 943.562134
v -27601.148438 1229.915771 944.836426
v -27606.337891 1230.424561 943.562134
v -27570.585938 1195.413818 1459.049683
v -27570.585938 804.390076 1459.049683
v -27570.585938 804.390076 986.529419
v -27570.585938 1195.413818 986.529419
v -29142.880859 -910.858521 1521.089966
v -29142.880859 -439.934479 1521.089966
v -29142.880859 -439.934479 962.635254
v -29142.880859 -910.858521 962.635254
v -27649.550781 -439.934479 1521.089966
v -27649.550781 -439.934479 962.635254
v -27570.957031 -910.138977 1519.815674
v -27576.515625 -910.858521 1521.089966
v -27570.957031 -450.111145 1519.815674
v -27574.886719 -449.602356 1521.089966
v -27570.957031 -910.138977 963.909546
v -27576.515625 -910.858521 962.635254
v -27570.957031 -450.111145 963.909546
v -27574.886719 -449.602356 962.635254
v -29142.880859 -910.858521 -976.695923
v -29142.880859 -439.934479 -976.695923
v -29142.880859 -439.934479 -1535.150635
v -29142.880859 -910.858521 -1535.150635
v -27649.550781 -439.934479 -976.695923
v -27649.550781 -439.934479 -1535.150635
v -27570.957031 -910.138977 -977.970215
v -27576.515625 -910.858521 -976.695923
v -27570.957031 -450.111145 -977.970215
v -27574.886719 -449.602356 -976.695923
v -27570.957031 -910.138977 -1533.876343
v -27576.515625 -910.858521 -1535.150635
v -27570.957031 -450.111145 -1533.876343
v -27574.886719 -449.602356 -1535.150635
v -29677.521484 769.168457 -833.042358
v -29677.521484 1240.092529 -833.042358
v -29677.521484 1240.092529 -1391.497070
v -29677.521484 769.168457 -1391.497070
v -27704.964844 1240.092529 -833.042358
v -27704.964844 1240.092529 -1391.497070
v -27601.148438 769.888000 -834.316650
v -27608.492188 769.168457 -833.042358
v -27601.148438 1229.915771 -834.316650
v -27606.337891 1230.424561 -833.042358
v -27601.148438 769.888000 -1390.222778
v -27608.492188 769.168457 -1391.497070
v -27601.148438 1229.915771 -1390.222778
v -27606.337891 1230.424561 -1391.497070
v -27570.585938 1195.413818 -876.009521
v -27570.585938 804.390076 -876.009521
v -27570.585938 804.390076 -1348.529907
v -27570.585938 1195.413818 -1348.529907
v -29600.503906 619.895508 1202.638550
v -29600.503906 1090.819580 1202.638550
v -29600.503906 1090.819580 -1149.952148
v -29600.503906 619.895508 -1149.952148
v -29314.884766 1090.819580 1202.638550
v -29314.884766 1090.819580 -1149.952148
v -29299.851563 620.615051 1197.270264
v -29300.916016 619.895508 1202.638550
v -29299.851563 1080.642822 1197.270264
v -29300.603516 1081.151611 1202.638550
v -29299.851563 620.615051 -1144.583984
v -29300.916016 619.895508 -1149.952148
v -29299.851563 1080.642822 -1144.583984
v -29300.603516 1081.151611 -1149.952148
v -29600.503906 -873.818909 1202.638550
v -29600.503906 -402.894867 1202.638550
v -29600.503906 -402.894867 -1149.952148
v -29600.503906 -873.818909 -1149.952148
v -29314.882813 -402.894867 1202.638550
v -29314.882813 -402.894867 -1149.952148
v -29299.849609 -873.099304 1197.270264
v -29300.916016 -873.818909 1202.638550
v -29299.849609 -413.071503 1197.270264
v -29300.601563 -412.562714 1202.638550
v -29299.849609 -873.099304 -1144.583984
v -29300.916016 -873.818909 -1149.952148
v -29299.849609 -413.071503 -1144.583984
v -29300.601563 -412.562714 -1149.952148
vt 0.082899 0.398567
vt 0.082899 0.009127
vt 0.171739 0.008721
vt 0.173601 0.027285
vt 0.173601 0.398567
vt 0.083037 0.007745
vt 0.171641 0.007745
vt 0.089683 0.001992
vt 0.164996 0.001992
vt 0.180599 0.398567
vt 0.180599 0.027285
vt 0.255326 0.027285
vt 0.255326 0.398567
vt 0.180599 0.008721
vt 0.180770 0.007745
vt 0.255156 0.007745
vt 0.255326 0.008721
vt 0.186348 0.001992
vt 0.249577 0.001992
vt 0.261390 0.398567
vt 0.261390 0.027285
vt 0.263252 0.008721
vt 0.352092 0.009127
vt 0.352092 0.398567
vt 0.351954 0.007745
vt 0.263350 0.007745
vt 0.269995 0.001992
vt 0.345308 0.001992
vt 0.001920 0.398567
vt 0.001920 0.009127
vt 0.076648 0.009127
vt 0.076648 0.398567
vt 0.076477 0.007745
vt 0.002091 0.007745
vt 0.007670 0.001992
vt 0.070898 0.001992
vt 0.180599 0.702136
vt 0.255326 0.702136
vt 0.255326 0.792838
vt 0.180599 0.792838
vt 0.898882 0.807058
vt 0.898882 0.731744
vt 0.962110 0.731744
vt 0.962110 0.807058
vt 0.460271 0.698288
vt 0.460271 0.403461
vt 0.549111 0.403154
vt 0.550973 0.417208
vt 0.550973 0.698288
vt 0.460409 0.402415
vt 0.549013 0.402415
vt 0.379629 0.698287
vt 0.379629 0.417208
vt 0.454356 0.417208
vt 0.454356 0.698287
vt 0.379629 0.403154
vt 0.379799 0.402415
vt 0.454185 0.402415
vt 0.454356 0.403154
vt 0.283011 0.698288
vt 0.283011 0.417208
vt 0.284874 0.403155
vt 0.373714 0.403461
vt 0.373714 0.698288
vt 0.373575 0.402415
vt 0.284971 0.402415
vt 0.202369 0.698288
vt 0.202369 0.403461
vt 0.277097 0.403461
vt 0.277097 0.698288
vt 0.276926 0.402415
vt 0.202540 0.402415
vt 0.261389 0.702136
vt 0.336117 0.702136
vt 0.336117 0.792838
vt 0.261389 0.792838
vt 0.759285 0.727896
vt 0.759285 0.639292
vt 0.833671 0.639292
vt 0.833671 0.727896
vt 0.105752 0.698287
vt 0.105752 0.403461
vt 0.194593 0.403154
vt 0.196455 0.417208
vt 0.196455 0.698287
vt 0.105891 0.402415
vt 0.194495 0.402415
vt 0.025110 0.698287
vt 0.025110 0.417208
vt 0.099838 0.417208
vt 0.099838 0.698287
vt 0.025110 0.403154
vt 0.025281 0.402415
vt 0.099667 0.402415
vt 0.099838 0.403154
vt 0.001920 0.998008
vt 0.001920 0.716928
vt 0.003782 0.702875
vt 0.092623 0.703182
vt 0.092623 0.998008
vt 0.092484 0.702135
vt 0.003880 0.702135
vt 0.099808 0.998008
vt 0.099808 0.703182
vt 0.174536 0.703182
vt 0.174536 0.998008
vt 0.174365 0.702135
vt 0.099979 0.702135
vt 0.342180 0.702136
vt 0.416907 0.702136
vt 0.416907 0.792838
vt 0.342180 0.792838
vt 0.840075 0.727896
vt 0.840075 0.639292
vt 0.914461 0.639292
vt 0.914461 0.727896
vt 0.359090 0.398567
vt 0.359090 0.009127
vt 0.447930 0.008721
vt 0.449792 0.027285
vt 0.449792 0.398567
vt 0.359228 0.007745
vt 0.447832 0.007745
vt 0.365874 0.001992
vt 0.441187 0.001992
vt 0.456790 0.398567
vt 0.456790 0.027285
vt 0.531517 0.027285
vt 0.531517 0.398567
vt 0.456790 0.008721
vt 0.456960 0.007745
vt 0.531347 0.007745
vt 0.531517 0.008721
vt 0.462539 0.001992
vt 0.525768 0.001992
vt 0.537580 0.398567
vt 0.537580 0.027285
vt 0.539443 0.008721
vt 0.628283 0.009127
vt 0.628283 0.398567
vt 0.628145 0.007745
vt 0.539540 0.007745
vt 0.546186 0.001992
vt 0.621499 0.001992
vt 0.635281 0.398567
vt 0.635281 0.009127
vt 0.710008 0.009127
vt 0.710008 0.398567
vt 0.709837 0.007745
vt 0.635451 0.007745
vt 0.641030 0.001992
vt 0.704258 0.001992
vt 0.422971 0.702136
vt 0.497698 0.702136
vt 0.497698 0.792838
vt 0.422971 0.792838
vt 0.829739 0.807058
vt 0.829739 0.731744
vt 0.892967 0.731744
vt 0.892967 0.807058
vt 0.567642 0.721065
vt 0.624031 0.721065
vt 0.624090 0.809906
vt 0.621402 0.811768
vt 0.567642 0.811768
vt 0.716071 0.001992
vt 0.769831 0.001992
vt 0.769831 0.316794
vt 0.716071 0.316794
vt 0.772519 0.001992
vt 0.772661 0.002710
vt 0.772661 0.316076
vt 0.772519 0.316794
vt 0.631523 0.721065
vt 0.685283 0.721065
vt 0.687971 0.722927
vt 0.687912 0.811768
vt 0.631523 0.811768
vt 0.779952 0.001992
vt 0.836341 0.001992
vt 0.836341 0.316794
vt 0.779952 0.316794
vt 0.836542 0.316076
vt 0.836542 0.002710
vt 0.843833 0.316794
vt 0.843833 0.001992
vt 0.934535 0.001992
vt 0.934535 0.316794
vt 0.962012 0.634726
vt 0.873408 0.634726
vt 0.873408 0.321361
vt 0.962012 0.321361
vt 0.873270 0.635445
vt 0.962110 0.635445
vt 0.873270 0.320642
vt 0.962110 0.320642
vt 0.503761 0.721065
vt 0.560151 0.721065
vt 0.560210 0.809906
vt 0.557522 0.811768
vt 0.503761 0.811768
vt 0.810765 0.320642
vt 0.864526 0.320642
vt 0.864526 0.635445
vt 0.810765 0.635445
vt 0.867214 0.320642
vt 0.867355 0.321361
vt 0.867355 0.634726
vt 0.867214 0.635445
vt 0.695404 0.721065
vt 0.749164 0.721065
vt 0.751852 0.722927
vt 0.751793 0.811768
vt 0.695404 0.811768
vt 0.748260 0.320642
vt 0.804649 0.320642
vt 0.804649 0.635445
vt 0.748260 0.635445
vt 0.804850 0.634726
vt 0.804850 0.321361
vt 0.651643 0.717217
vt 0.651643 0.402415
vt 0.742345 0.402415
vt 0.742345 0.717217
vt 0.645630 0.716499
vt 0.557026 0.716499
vt 0.557026 0.403133
vt 0.645630 0.403133
vt 0.556888 0.717217
vt 0.645728 0.717217
vt 0.556888 0.402415
vt 0.645728 0.402415
vn 0.000000 0.000000 1.000000
vn 0.000000 0.000000 1.000000
vn 0.000000 0.000000 1.000000
vn 0.000000 0.000000 1.000000
vn 0.000000 0.000000 1.000000
vn 0.000000 1.000000 0.000000
vn 0.000000 1.000000 0.000000
vn 0.000000 1.000000 0.000000
vn 0.000000 1.000000 0.000000
vn 0.000000 0.000000 -1.000000
vn 0.000000 0.000000 -1.000000
vn 0.000000 0.000000 -1.000000
vn 0.000000 0.000000 -1.000000
vn 0.000000 0.000000 -1.000000
vn 0.000000 -1.000000 0.000000
vn 0.000000 -1.000000 0.000000
vn 0.000000 -1.000000 0.000000
vn 0.000000 -1.000000 0.000000
vn -1.000000 0.000000 0.000000
vn -1.000000 0.000000 0.000000
vn -1.000000 0.000000 0.000000
vn -1.000000 0.000000 0.000000
vn 0.097559 0.995230 0.000000
vn 0.097559 0.995230 0.000000
vn 0.097559 0.995230 0.000000
vn 0.097559 0.995230 0.000000
vn 0.097559 0.995230 0.000000
vn 0.097559 0.995230 0.000000
vn 1.000000 0.000000 0.000000
vn 1.000000 0.000000 0.000000
vn 1.000000 0.000000 0.000000
vn 1.000000 0.000000 0.000000
vn 0.097532 -0.995232 0.000000
vn 0.097532 -0.995232 0.000000
vn 0.097532 -0.995232 0.000000
vn 0.097532 -0.995232 0.000000
vn 0.199278 -0.000467 0.979943
vn 0.199278 -0.000467 0.979943
vn 0.199278 -0.000467 0.979943
vn 0.199278 -0.000467 0.979943
vn 0.199289 -0.000467 -0.979941
vn 0.199289 -0.000467 -0.979941
vn 0.199289 -0.000467 -0.979941
vn 0.199289 -0.000467 -0.979941
vn 0.806518 0.000000 0.591209
vn 0.806518 0.000000 0.591209
vn 0.806518 0.000000 0.591209
vn 0.806518 0.000000 0.591209
vn 0.748543 -0.663087 0.000000
vn 0.748543 -0.663087 0.000000
vn 0.748543 -0.663087 0.000000
vn 0.748543 -0.663087 0.000000
vn 0.806519 0.000000 -0.591208
vn 0.806519 0.000000 -0.591208
vn 0.806519 0.000000 -0.591208
vn 0.806519 0.000000 -0.591208
vn 0.748549 0.663079 0.000000
vn 0.748549 0.663079 0.000000
vn 0.748549 0.663079 0.000000
vn 0.748549 0.663079 0.000000
vn 0.000000 0.000000 1.000000
vn 0.000000 0.000000 1.000000
vn 0.000000 0.000000 1.000000
vn 0.000000 0.000000 1.000000
vn 0.000000 0.000000 1.000000
vn 0.000000 1.000000 0.000000
vn 0.000000 1.000000 0.000000
vn 0.000000 1.000000 0.000000
vn 0.000000 1.000000 0.000000
vn -0.000000 0.000000 -1.000000
vn -0.000000 0.000000 -1.000000
vn -0.000000 0.000000 -1.000000
vn -0.000000 0.000000 -1.000000
vn -0.000000 0.000000 -1.000000
vn 0.000000 -1.000000 0.000000
vn 0.000000 -1.000000 0.000000
vn 0.000000 -1.000000 0.000000
vn 0.000000 -1.000000 0.000000
vn -1.000000 0.000000 0.000000
vn -1.000000 0.000000 0.000000
vn -1.000000 0.000000 0.000000
vn -1.000000 0.000000 0.000000
vn 0.128413 0.991721 0.000000
vn 0.128413 0.991721 0.000000
vn 0.128413 0.991721 0.000000
vn 0.128413 0.991721 0.000000
vn 0.128413 0.991721 0.000000
vn 0.128413 0.991721 0.000000
vn 1.000000 0.000000 0.000000
vn 1.000000 0.000000 0.000000
vn 1.000000 0.000000 0.000000
vn 1.000000 0.000000 0.000000
vn 0.128382 -0.991725 0.000000
vn 0.128382 -0.991725 0.000000
vn 0.128382 -0.991725 0.000000
vn 0.128382 -0.991725 0.000000
vn 0.259421 -0.000459 0.965764
vn 0.259421 -0.000459 0.965764
vn 0.259421 -0.000459 0.965764
vn 0.259421 -0.000459 0.965764
vn 0.259421 -0.000459 -0.965764
vn 0.259421 -0.000459 -0.965764
vn 0.259421 -0.000459 -0.965764
vn 0.259421 -0.000459 -0.965764
vn -0.000000 0.000000 1.000000
vn -0.000000 0.000000 1.000000
vn -0.000000 0.000000 1.000000
vn -0.000000 0.000000 1.000000
vn -0.000000 0.000000 1.000000
vn 0.000000 1.000000 0.000000
vn 0.000000 1.000000 0.000000
vn 0.000000 1.000000 0.000000
vn 0.000000 1.000000 0.000000
vn 0.000000 0.000000 -1.000000
vn 0.000000 0.000000 -1.000000
vn 0.000000 0.000000 -1.000000
vn 0.000000 0.000000 -1.000000
vn 0.000000 0.000000 -1.000000
vn 0.000000 -1.000000 0.000000
vn 0.000000 -1.000000 0.000000
vn 0.000000 -1.000000 0.000000
vn 0.000000 -1.000000 0.000000
vn -1.000000 0.000000 0.000000
vn -1.000000 0.000000 0.000000
vn -1.000000 0.000000 0.000000
vn -1.000000 0.000000 0.000000
vn 0.128412 0.991721 0.000000
vn 0.128413 0.991721 0.000000
vn 0.128413 0.991721 0.000000
vn 0.128413 0.991721 0.000000
vn 0.128413 0.991721 0.000000
vn 0.128412 0.991721 0.000000
vn 1.000000 0.000000 0.000000
vn 1.000000 0.000000 0.000000
vn 1.000000 0.000000 0.000000
vn 1.000000 0.000000 0.000000
vn 0.128382 -0.991725 0.000000
vn 0.128382 -0.991725 0.000000
vn 0.128382 -0.991725 0.000000
vn 0.128382 -0.991725 0.000000
vn 0.259421 -0.000459 0.965764
vn 0.259421 -0.000459 0.965764
vn 0.259421 -0.000459 0.965764
vn 0.259421 -0.000459 0.965764
vn 0.259421 -0.000459 -0.965764
vn 0.259421 -0.000459 -0.965764
vn 0.259421 -0.000459 -0.965764
vn 0.259421 -0.000459 -0.965764
vn 0.000000 0.000000 1.000000
vn 0.000000 0.000000 1.000000
vn 0.000000 0.000000 1.000000
vn 0.000000 0.000000 1.000000
vn 0.000000 0.000000 1.000000
vn 0.000000 1.000000 0.000000
vn 0.000000 1.000000 0.000000
vn 0.000000 1.000000 0.000000
vn 0.000000 1.000000 0.000000
vn 0.000000 0.000000 -1.000000
vn 0.000000 0.000000 -1.000000
vn 0.000000 0.000000 -1.000000
vn 0.000000 0.000000 -1.000000
vn 0.000000 0.000000 -1.000000
vn 0.000000 -1.000000 0.000000
vn 0.000000 -1.000000 0.000000
vn 0.000000 -1.000000 0.000000
vn 0.000000 -1.000000 0.000000
vn -1.000000 0.000000 0.000000
vn -1.000000 0.000000 0.000000
vn -1.000000 0.000000 0.000000
vn -1.000000 0.000000 0.000000
vn 0.097559 0.995230 0.000000
vn 0.097559 0.995230 0.000000
vn 0.097559 0.995230 0.000000
vn 0.097559 0.995230 0.000000
vn 0.097559 0.995230 0.000000
vn 0.097559 0.995230 0.000000
vn 1.000000 0.000000 0.000000
vn 1.000000 0.000000 0.000000
vn 1.000000 0.000000 0.000000
vn 1.000000 0.000000 0.000000
vn 0.097532 -0.995232 0.000000
vn 0.097532 -0.995232 0.000000
vn 0.097532 -0.995232 0.000000
vn 0.097532 -0.995232 0.000000
vn 0.199278 -0.000467 0.979943
vn 0.199278 -0.000467 0.979943
vn 0.199278 -0.000467 0.979943
vn 0.199278 -0.000467 0.979943
vn 0.199278 -0.000467 -0.979943
vn 0.199278 -0.000467 -0.979943
vn 0.199278 -0.000467 -0.979943
vn 0.199278 -0.000467 -0.979943
vn 0.806518 0.000000 0.591209
vn 0.806518 0.000000 0.591209
vn 0.806518 0.000000 0.591209
vn 0.806518 0.000000 0.591209
vn 0.748543 -0.663086 0.000000
vn 0.748543 -0.663086 0.000000
vn 0.748543 -0.663086 0.000000
vn 0.748543 -0.663086 0.000000
vn 0.806518 0.000000 -0.591210
vn 0.806518 0.000000 -0.591210
vn 0.806518 0.000000 -0.591210
vn 0.806518 0.000000 -0.591210
vn 0.748542 0.663088 0.000000
vn 0.748542 0.663088 0.000000
vn 0.748542 0.663088 0.000000
vn 0.748542 0.663088 0.000000
vn 0.000000 0.000000 1.000000
vn 0.000000 0.000000 1.000000
vn 0.000000 0.000000 1.000000
vn 0.000000 0.000000 1.000000
vn 0.000000 0.000000 1.000000
vn 0.000000 1.000000 0.000000
vn 0.000000 1.000000 0.000000
vn 0.000000 1.000000 0.000000
vn 0.000000 1.000000 0.000000
vn 0.000000 0.000000 -1.000000
vn 0.000000 0.000000 -1.000000
vn 0.000000 0.000000 -1.000000
vn 0.000000 0.000000 -1.000000
vn 0.000000 0.000000 -1.000000
vn 0.000000 -1.000000 0.000000
vn 0.000000 -1.000000 0.000000
vn 0.000000 -1.000000 0.000000
vn 0.000000 -1.000000 0.000000
vn -1.000000 0.000000 0.000000
vn -1.000000 0.000000 0.000000
vn -1.000000 0.000000 0.000000
vn -1.000000 0.000000 0.000000
vn 0.560615 0.828077 0.000000
vn 0.560615 0.828077 0.000000
vn 0.560615 0.828077 0.000000
vn 0.560615 0.828077 0.000000
vn 0.560615 0.828077 0.000000
vn 0.560615 0.828077 0.000000
vn 1.000000 0.000000 0.000000
vn 1.000000 0.000000 0.000000
vn 1.000000 0.000000 0.000000
vn 1.000000 0.000000 0.000000
vn 0.560414 -0.828213 0.000000
vn 0.560414 -0.828213 0.000000
vn 0.560414 -0.828213 0.000000
vn 0.560414 -0.828213 0.000000
vn 0.985990 -0.000336 0.166801
vn 0.985990 -0.000336 0.166801
vn 0.985990 -0.000336 0.166801
vn 0.985990 -0.000336 0.166801
vn 0.985990 -0.000336 -0.166806
vn 0.985990 -0.000336 -0.166806
vn 0.985990 -0.000336 -0.166806
vn 0.985990 -0.000336 -0.166806
vn 0.000000 0.000000 1.000000
vn 0.000000 0.000000 1.000000
vn 0.000000 0.000000 1.000000
vn 0.000000 0.000000 1.000000
vn 0.000000 0.000000 1.000000
vn 0.000000 1.000000 0.000000
vn 0.000000 1.000000 0.000000
vn 0.000000 1.000000 0.000000
vn 0.000000 1.000000 0.000000
vn 0.000000 0.000000 -1.000000
vn 0.000000 0.000000 -1.000000
vn 0.000000 0.000000 -1.000000
vn 0.000000 0.000000 -1.000000
vn 0.000000 0.000000 -1.000000
vn 0.000000 -1.000000 0.000000
vn 0.000000 -1.000000 0.000000
vn 0.000000 -1.000000 0.000000
vn 0.000000 -1.000000 0.000000
vn -1.000000 0.000000 0.000000
vn -1.000000 0.000000 0.000000
vn -1.000000 0.000000 0.000000
vn -1.000000 0.000000 0.000000
vn 0.560436 0.828198 0.000000
vn 0.560436 0.828198 0.000000
vn 0.560436 0.828198 0.000000
vn 0.560436 0.828198 0.000000
vn 0.560436 0.828198 0.000000
vn 0.560436 0.828198 0.000000
vn 1.000000 0.000000 0.000000
vn 1.000000 0.000000 0.000000
vn 1.000000 0.000000 0.000000
vn 1.000000 0.000000 0.000000
vn 0.559216 -0.829022 0.000000
vn 0.559216 -0.829022 0.000000
vn 0.559216 -0.829022 0.000000
vn 0.559216 -0.829022 0.000000
vn 0.985961 -0.000336 0.166976
vn 0.985961 -0.000336 0.166976
vn 0.985961 -0.000336 0.166976
vn 0.985961 -0.000336 0.166976
vn 0.985961 -0.000336 -0.166976
vn 0.985961 -0.000336 -0.166976
vn 0.985961 -0.000336 -0.166976
vn 0.985961 -0.000336 -0.166976
s off
g polySurface1013
f 1/1/1 8/2/2 10/3/3 5/4/4 2/5/5
f 2/10/6 5/11/7 6/12/8 3/13/9
f 3/20/10 6/21/11 14/22/12 12/23/13 4/24/14
f 4/29/15 12/30/16 8/31/17 1/32/18
f 4/37/19 1/38/20 2/39/21 3/40/22
f 5/11/23 10/14/24 9/15/25 13/16/26 14/17/27 6/12/28
f 15/41/29 16/42/30 17/43/31 18/44/32
f 7/33/33 8/31/34 12/30/35 11/34/36
f 8/2/37 7/6/38 9/7/39 10/3/40
f 11/25/41 12/23/42 14/22/43 13/26/44
f 9/7/45 7/6/46 16/8/47 15/9/48
f 7/33/49 11/34/50 17/35/51 16/36/52
f 11/25/53 13/26/54 18/27/55 17/28/56
f 13/16/57 9/15/58 15/18/59 18/19/60
f 19/45/61 26/46/62 28/47/63 23/48/64 20/49/65
f 20/52/66 23/53/67 24/54/68 21/55/69
f 21/60/70 24/61/71 32/62/72 30/63/73 22/64/74
f 22/67/75 30/68/76 26/69/77 19/70/78
f 22/73/79 19/74/80 20/75/81 21/76/82
f 23/53/83 28/56/84 27/57/85 31/58/86 32/59/87 24/54/88
f 27/77/89 25/78/90 29/79/91 31/80/92
f 25/71/93 26/69/94 30/68/95 29/72/96
f 26/46/97 25/50/98 27/51/99 28/47/100
f 29/65/101 30/63/102 32/62/103 31/66/104
f 33/81/105 40/82/106 42/83/107 37/84/108 34/85/109
f 34/88/110 37/89/111 38/90/112 35/91/113
f 35/96/114 38/97/115 46/98/116 44/99/117 36/100/118
f 36/103/119 44/104/120 40/105/121 33/106/122
f 36/109/123 33/110/124 34/111/125 35/112/126
f 37/89/127 42/92/128 41/93/129 45/94/130 46/95/131 38/90/132
f 41/113/133 39/114/134 43/115/135 45/116/136
f 39/107/137 40/105/138 44/104/139 43/108/140
f 40/82/141 39/86/142 41/87/143 42/83/144
f 43/101/145 44/99/146 46/98/147 45/102/148
f 47/117/149 54/118/150 56/119/151 51/120/152 48/121/153
f 48/126/154 51/127/155 52/128/156 49/129/157
f 49/136/158 52/137/159 60/138/160 58/139/161 50/140/162
f 50/145/163 58/146/164 54/147/165 47/148/166
f 50/153/167 47/154/168 48/155/169 49/156/170
f 51/127/171 56/130/172 55/131/173 59/132/174 60/133/175 52/128/176
f 61/157/177 62/158/178 63/159/179 64/160/180
f 53/149/181 54/147/182 58/146/183 57/150/184
f 54/118/185 53/122/186 55/123/187 56/119/188
f 57/141/189 58/139/190 60/138/191 59/142/192
f 55/123/193 53/122/194 62/124/195 61/125/196
f 53/149/197 57/150/198 63/151/199 62/152/200
f 57/141/201 59/142/202 64/143/203 63/144/204
f 59/132/205 55/131/206 61/134/207 64/135/208
f 65/161/209 72/162/210 74/163/211 69/164/212 66/165/213
f 66/166/214 69/167/215 70/168/216 67/169/217
f 67/174/218 70/175/219 78/176/220 76/177/221 68/178/222
f 68/179/223 76/180/224 72/181/225 65/182/226
f 68/185/227 65/186/228 66/187/229 67/188/230
f 69/167/231 74/170/232 73/171/233 77/172/234 78/173/235 70/168/236
f 73/189/237 71/190/238 75/191/239 77/192/240
f 71/183/241 72/181/242 76/180/243 75/184/244
f 72/193/245 71/190/246 73/189/247 74/194/248
f 75/191/249 76/195/250 78/196/251 77/192/252
f 79/197/253 86/198/254 88/199/255 83/200/256 80/201/257
f 80/202/258 83/203/259 84/204/260 81/205/261
f 81/210/262 84/211/263 92/212/264 90/213/265 82/214/266
f 82/215/267 90/216/268 86/217/269 79/218/270
f 82/221/271 79/222/272 80/223/273 81/224/274
f 83/203/275 88/206/276 87/207/277 91/208/278 92/209/279 84/204/280
f 87/225/281 85/226/282 89/227/283 91/228/284
f 85/219/285 86/217/286 90/216/287 89/220/288
f 86/229/289 85/226/290 87/225/291 88/230/292
f 89/227/293 90/231/294 92/232/295 91/228/296
