# This file uses centimeters as units for non-parametric coordinates.

g default
v -27784.470703 -316.857391 319.803223
v -27770.509766 -316.857391 319.803223
v -27770.509766 -316.857391 305.840240
v -27784.470703 -316.857391 305.840240
v -27784.470703 595.798035 319.803223
v -27770.509766 595.798035 319.803223
v -27770.509766 595.798035 305.840240
v -27784.470703 595.798035 305.840240
v -27784.470703 -316.857391 -253.396942
v -27770.509766 -316.857391 -253.396942
v -27770.509766 -316.857391 -267.359924
v -27784.470703 -316.857391 -267.359924
v -27784.470703 595.798035 -253.396942
v -27770.509766 595.798035 -253.396942
v -27770.509766 595.798035 -267.359924
v -27784.470703 595.798035 -267.359924
v -29450.638672 -364.290985 303.302399
v -29436.677734 -364.290985 303.302399
v -29436.677734 -364.290985 290.123474
v -29450.638672 -364.290985 290.123474
v -29450.638672 589.088074 303.302399
v -29436.677734 589.088074 303.302399
v -29436.677734 589.088074 290.123474
v -29450.638672 589.088074 290.123474
v -29450.638672 -364.290985 -237.710892
v -29436.677734 -364.290985 -237.710892
v -29436.677734 -364.290985 -250.889801
v -29450.638672 -364.290985 -250.889801
v -29450.638672 589.088074 -237.710892
v -29436.677734 589.088074 -237.710892
v -29436.677734 589.088074 -250.889801
v -29450.638672 589.088074 -250.889801
vt 0.018887 0.015767
vt 0.486304 0.015767
vt 0.486304 0.487142
vt 0.018887 0.487142
vt 0.018887 0.015767
vt 0.486304 0.015767
vt 0.486304 0.487142
vt 0.018887 0.487142
vt 0.018887 0.015767
vt 0.486304 0.015767
vt 0.486304 0.487142
vt 0.018887 0.487142
vt 0.508305 0.015767
vt 0.975721 0.015767
vt 0.975721 0.487142
vt 0.508305 0.487142
vt 0.508305 0.015767
vt 0.975721 0.015767
vt 0.975721 0.487142
vt 0.508305 0.487142
vt 0.508305 0.015767
vt 0.975721 0.015767
vt 0.975721 0.487142
vt 0.508305 0.487142
vt 0.022567 0.516752
vt 0.489983 0.516752
vt 0.489983 0.988128
vt 0.022567 0.988128
vt 0.022567 0.516752
vt 0.022567 0.988128
vt 0.489983 0.988128
vt 0.489983 0.516752
vt 0.022567 0.516752
vt 0.489983 0.516752
vt 0.489983 0.988128
vt 0.022567 0.988128
vt 0.515665 0.516752
vt 0.983081 0.516752
vt 0.983081 0.988128
vt 0.515665 0.988128
vt 0.515665 0.516752
vt 0.515665 0.988128
vt 0.983081 0.988128
vt 0.983081 0.516752
vt 0.515665 0.516752
vt 0.983081 0.516752
vt 0.983081 0.988128
vt 0.515665 0.988128
vn 0.000000 1.000000 0.000000
vn 0.000000 1.000000 0.000000
vn 0.000000 1.000000 0.000000
vn 0.000000 1.000000 0.000000
vn 0.000000 -1.000000 0.000000
vn 0.000000 -1.000000 0.000000
vn 0.000000 -1.000000 0.000000
vn 0.000000 -1.000000 0.000000
vn 0.000000 0.000000 1.000000
vn 0.000000 0.000000 1.000000
vn 0.000000 0.000000 1.000000
vn 0.000000 0.000000 1.000000
vn 1.000000 0.000000 0.000000
vn 1.000000 0.000000 0.000000
vn 1.000000 0.000000 0.000000
vn 1.000000 0.000000 0.000000
vn 0.000000 0.000000 -1.000000
vn 0.000000 0.000000 -1.000000
vn 0.000000 0.000000 -1.000000
vn 0.000000 0.000000 -1.000000
vn -1.000000 0.000000 0.000000
vn -1.000000 0.000000 0.000000
vn -1.000000 0.000000 0.000000
vn -1.000000 0.000000 0.000000
vn 0.000000 1.000000 0.000000
vn 0.000000 1.000000 0.000000
vn 0.000000 1.000000 0.000000
vn 0.000000 1.000000 0.000000
vn 0.000000 -1.000000 0.000000
vn 0.000000 -1.000000 0.000000
vn 0.000000 -1.000000 0.000000
vn 0.000000 -1.000000 0.000000
vn 0.000000 0.000000 1.000000
vn 0.000000 0.000000 1.000000
vn 0.000000 0.000000 1.000000
vn 0.000000 0.000000 1.000000
vn 1.000000 0.000000 0.000000
vn 1.000000 0.000000 0.000000
vn 1.000000 0.000000 0.000000
vn 1.000000 0.000000 0.000000
vn 0.000000 0.000000 -1.000000
vn 0.000000 0.000000 -1.000000
vn 0.000000 0.000000 -1.000000
vn 0.000000 0.000000 -1.000000
vn -1.000000 0.000000 0.000000
vn -1.000000 0.000000 0.000000
vn -1.000000 0.000000 0.000000
vn -1.000000 0.000000 0.000000
vn 0.000000 1.000000 0.000000
vn 0.000000 1.000000 0.000000
vn 0.000000 1.000000 0.000000
vn 0.000000 1.000000 0.000000
vn 0.000000 -1.000000 0.000000
vn 0.000000 -1.000000 0.000000
vn 0.000000 -1.000000 0.000000
vn 0.000000 -1.000000 0.000000
vn 0.000000 0.000000 1.000000
vn 0.000000 0.000000 1.000000
vn 0.000000 0.000000 1.000000
vn 0.000000 0.000000 1.000000
vn 1.000000 0.000000 0.000000
vn 1.000000 0.000000 0.000000
vn 1.000000 0.000000 0.000000
vn 1.000000 0.000000 0.000000
vn 0.000000 0.000000 -1.000000
vn 0.000000 0.000000 -1.000000
vn 0.000000 0.000000 -1.000000
vn 0.000000 0.000000 -1.000000
vn -1.000000 0.000000 0.000000
vn -1.000000 0.000000 0.000000
vn -1.000000 0.000000 0.000000
vn -1.000000 0.000000 0.000000
vn 0.000000 1.000000 0.000000
vn 0.000000 1.000000 0.000000
vn 0.000000 1.000000 0.000000
vn 0.000000 1.000000 0.000000
vn 0.000000 -1.000000 0.000000
vn 0.000000 -1.000000 0.000000
vn 0.000000 -1.000000 0.000000
vn 0.000000 -1.000000 0.000000
vn 0.000000 0.000000 1.000000
vn 0.000000 0.000000 1.000000
vn 0.000000 0.000000 1.000000
vn 0.000000 0.000000 1.000000
vn 1.000000 0.000000 0.000000
vn 1.000000 0.000000 0.000000
vn 1.000000 0.000000 0.000000
vn 1.000000 0.000000 0.000000
vn 0.000000 0.000000 -1.000000
vn 0.000000 0.000000 -1.000000
vn 0.000000 0.000000 -1.000000
vn 0.000000 0.000000 -1.000000
vn -1.000000 0.000000 0.000000
vn -1.000000 0.000000 0.000000
vn -1.000000 0.000000 0.000000
vn -1.000000 0.000000 0.000000
s off
g Level04_Beams_Lazers1:polySurface1
f 5/9/1 6/10/2 7/11/3 8/12/4
f 1/5/5 4/8/6 3/7/7 2/6/8
f 1/1/9 2/2/10 6/10/11 5/9/12
f 2/2/13 3/3/14 7/11/15 6/10/16
f 3/3/17 4/4/18 8/12/19 7/11/20
f 4/4/21 1/1/22 5/9/23 8/12/24
f 13/21/25 14/22/26 15/23/27 16/24/28
f 9/17/29 12/20/30 11/19/31 10/18/32
f 9/13/33 10/14/34 14/22/35 13/21/36
f 10/14/37 11/15/38 15/23/39 14/22/40
f 11/15/41 12/16/42 16/24/43 15/23/44
f 12/16/45 9/13/46 13/21/47 16/24/48
f 21/25/49 22/26/50 23/27/51 24/28/52
f 17/29/53 20/30/54 19/31/55 18/32/56
f 17/33/57 18/34/58 22/26/59 21/25/60
f 18/34/61 19/35/62 23/27/63 22/26/64
f 19/35/65 20/36/66 24/28/67 23/27/68
f 20/36/69 17/33/70 21/25/71 24/28/72
f 29/37/73 30/38/74 31/39/75 32/40/76
f 25/41/77 28/42/78 27/43/79 26/44/80
f 25/45/81 26/46/82 30/38/83 29/37/84
f 26/46/85 27/47/86 31/39/87 30/38/88
f 27/47/89 28/48/90 32/40/91 31/39/92
f 28/48/93 25/45/94 29/37/95 32/40/96
