# This file uses centimeters as units for non-parametric coordinates.

g default
v -29580.310547 979.620544 1659.322754
v -29580.310547 5783.311523 1659.322754
v -29580.310547 5783.311523 -1557.244629
v -29580.310547 979.620544 -1557.244629
v -27607.753906 5783.311523 1659.322754
v -27607.753906 5783.311523 -1557.244629
v -27503.937500 986.960266 1651.983032
v -27511.281250 979.620544 1659.322754
v -27503.937500 5679.503906 1651.983032
v -27509.126953 5684.693359 1659.322754
v -27503.937500 986.960266 -1549.904907
v -27511.281250 979.620544 -1557.244629
v -27503.937500 5679.503906 -1549.904907
v -27509.126953 5684.693359 -1557.244629
v -29286.771484 -1751.528809 1490.390747
v -29286.771484 1149.658936 1490.390747
v -29286.771484 1149.658936 1226.003418
v -27749.005859 1149.658936 1226.003418
v -29286.771484 -1751.528809 1226.003418
v -27749.005859 -1751.528809 1226.003418
v -27749.005859 -1751.528809 1477.172729
v -27811.158203 -1751.528809 1490.390747
v -27749.005859 1149.658936 1477.172729
v -27811.158203 1149.658936 1490.390747
v -29286.771484 -1751.528809 -1210.650513
v -29286.771484 1149.658936 -1210.650513
v -29286.771484 1149.658936 -1475.037842
v -27749.005859 1149.658936 -1475.037842
v -29286.771484 -1751.528809 -1475.037842
v -27749.005859 -1751.528809 -1475.037842
v -27749.005859 -1751.528809 -1223.868530
v -27811.158203 -1751.528809 -1210.650513
v -27749.005859 1149.658936 -1223.868530
v -27811.158203 1149.658936 -1210.650513
vt 0.175849 0.410136
vt 0.300476 0.410136
vt 0.300604 0.532636
vt 0.294663 0.535204
vt 0.175849 0.535204
vt 0.294663 0.660271
vt 0.175849 0.660271
vt 0.300605 0.663278
vt 0.300474 0.785338
vt 0.175849 0.785338
vt 0.300474 0.910405
vt 0.175849 0.910405
vt 0.050782 0.410136
vt 0.050782 0.535204
vt 0.300604 0.535204
vt 0.300916 0.535489
vt 0.300916 0.659985
vt 0.300604 0.660271
vt 0.301202 0.532501
vt 0.301202 0.410328
vt 0.425698 0.410328
vt 0.425698 0.532501
vt 0.300916 0.910120
vt 0.300916 0.785624
vt 0.300916 0.410327
vt 0.300916 0.532501
vt 0.300916 0.785147
vt 0.300916 0.662974
vt 0.724416 0.010256
vt 0.850235 0.010256
vt 0.850235 0.141375
vt 0.724416 0.141375
vt 0.855535 0.147930
vt 0.855535 0.272494
vt 0.724416 0.272494
vt 0.855535 0.403612
vt 0.724416 0.403612
vt 0.855535 0.528176
vt 0.850235 0.534731
vt 0.724416 0.534731
vt 0.862090 0.141375
vt 0.862090 0.010256
vt 0.986653 0.010256
vt 0.986653 0.141375
vt 0.593297 0.010256
vt 0.593297 0.141375
vt 0.855535 0.010256
vt 0.855535 0.141375
vt 0.453084 0.159367
vt 0.569910 0.159367
vt 0.569910 0.281114
vt 0.453084 0.281114
vt 0.574831 0.287201
vt 0.574831 0.402861
vt 0.453084 0.402861
vt 0.574831 0.524608
vt 0.453084 0.524608
vt 0.574831 0.640267
vt 0.569910 0.646354
vt 0.453084 0.646354
vt 0.580918 0.281114
vt 0.580918 0.159367
vt 0.696577 0.159367
vt 0.696577 0.281114
vt 0.331337 0.159367
vt 0.331337 0.281114
vt 0.574831 0.159367
vt 0.574831 0.281114
vn -0.000000 0.000000 1.000000
vn -0.000000 0.000000 1.000000
vn -0.000000 0.000000 1.000000
vn -0.000000 0.000000 1.000000
vn -0.000000 0.000000 1.000000
vn 0.000000 1.000000 0.000000
vn 0.000000 1.000000 0.000000
vn 0.000000 1.000000 0.000000
vn 0.000000 1.000000 0.000000
vn 0.000000 0.000000 -1.000000
vn 0.000000 0.000000 -1.000000
vn 0.000000 0.000000 -1.000000
vn 0.000000 0.000000 -1.000000
vn 0.000000 0.000000 -1.000000
vn 0.000000 -1.000000 0.000000
vn 0.000000 -1.000000 0.000000
vn 0.000000 -1.000000 0.000000
vn 0.000000 -1.000000 0.000000
vn -1.000000 0.000000 0.000000
vn -1.000000 0.000000 0.000000
vn -1.000000 0.000000 0.000000
vn -1.000000 0.000000 0.000000
vn 0.707075 0.707138 0.000000
vn 0.707075 0.707138 0.000000
vn 0.707075 0.707138 0.000000
vn 0.707075 0.707138 0.000000
vn 0.707075 0.707138 0.000000
vn 0.707075 0.707138 0.000000
vn 1.000000 0.000000 0.000000
vn 1.000000 0.000000 0.000000
vn 1.000000 0.000000 0.000000
vn 1.000000 0.000000 0.000000
vn 0.706909 -0.707304 0.000000
vn 0.706909 -0.707304 0.000000
vn 0.706909 -0.707304 0.000000
vn 0.706909 -0.707304 0.000000
vn 0.760532 -0.000175 0.649301
vn 0.760532 -0.000175 0.649301
vn 0.760532 -0.000175 0.649301
vn 0.760532 -0.000175 0.649301
vn 0.760532 -0.000175 -0.649301
vn 0.760532 -0.000175 -0.649301
vn 0.760532 -0.000175 -0.649301
vn 0.760532 -0.000175 -0.649301
vn 0.000000 0.000000 1.000000
vn 0.000000 0.000000 1.000000
vn 0.000000 0.000000 1.000000
vn 0.000000 0.000000 1.000000
vn 0.000000 1.000000 0.000000
vn 0.000000 1.000000 0.000000
vn 0.000000 1.000000 0.000000
vn 0.000000 1.000000 0.000000
vn 0.000000 1.000000 0.000000
vn 0.000000 0.000000 -1.000000
vn 0.000000 0.000000 -1.000000
vn 0.000000 0.000000 -1.000000
vn 0.000000 0.000000 -1.000000
vn 0.000000 -1.000000 0.000000
vn 0.000000 -1.000000 0.000000
vn 0.000000 -1.000000 0.000000
vn 0.000000 -1.000000 0.000000
vn 0.000000 -1.000000 0.000000
vn 1.000000 0.000000 0.000000
vn 1.000000 0.000000 0.000000
vn 1.000000 0.000000 0.000000
vn 1.000000 0.000000 0.000000
vn -1.000000 0.000000 0.000000
vn -1.000000 0.000000 0.000000
vn -1.000000 0.000000 0.000000
vn -1.000000 0.000000 0.000000
vn 0.208019 0.000000 0.978125
vn 0.208019 0.000000 0.978125
vn 0.208019 0.000000 0.978125
vn 0.208019 0.000000 0.978125
vn 0.000000 0.000000 1.000000
vn 0.000000 0.000000 1.000000
vn 0.000000 0.000000 1.000000
vn 0.000000 0.000000 1.000000
vn 0.000000 1.000000 0.000000
vn 0.000000 1.000000 0.000000
vn 0.000000 1.000000 0.000000
vn 0.000000 1.000000 0.000000
vn 0.000000 1.000000 0.000000
vn 0.000000 0.000000 -1.000000
vn 0.000000 0.000000 -1.000000
vn 0.000000 0.000000 -1.000000
vn 0.000000 0.000000 -1.000000
vn 0.000000 -1.000000 0.000000
vn 0.000000 -1.000000 0.000000
vn 0.000000 -1.000000 0.000000
vn 0.000000 -1.000000 0.000000
vn 0.000000 -1.000000 0.000000
vn 1.000000 0.000000 0.000000
vn 1.000000 0.000000 0.000000
vn 1.000000 0.000000 0.000000
vn 1.000000 0.000000 0.000000
vn -1.000000 0.000000 0.000000
vn -1.000000 0.000000 0.000000
vn -1.000000 0.000000 0.000000
vn -1.000000 0.000000 0.000000
vn 0.208019 0.000000 0.978125
vn 0.208019 0.000000 0.978125
vn 0.208019 0.000000 0.978125
vn 0.208019 0.000000 0.978125
s off
g polySurface1013
f 1/1/1 8/2/2 10/3/3 5/4/4 2/5/5
f 2/5/6 5/4/7 6/6/8 3/7/9
f 3/7/10 6/6/11 14/8/12 12/9/13 4/10/14
f 4/10/15 12/9/16 8/11/17 1/12/18
f 4/13/19 1/1/20 2/5/21 3/14/22
f 5/4/23 10/15/24 9/16/25 13/17/26 14/18/27 6/6/28
f 9/19/29 7/20/30 11/21/31 13/22/32
f 7/23/33 8/11/34 12/9/35 11/24/36
f 8/2/37 7/25/38 9/26/39 10/3/40
f 11/27/41 12/9/42 14/8/43 13/28/44
f 15/29/45 22/30/46 24/31/47 16/32/48
f 16/32/49 24/31/50 23/33/51 18/34/52 17/35/53
f 17/35/54 18/34/55 20/36/56 19/37/57
f 19/37/58 20/36/59 21/38/60 22/39/61 15/40/62
f 23/41/63 21/42/64 20/43/65 18/44/66
f 19/45/67 15/29/68 16/32/69 17/46/70
f 22/30/71 21/47/72 23/48/73 24/31/74
f 25/49/75 32/50/76 34/51/77 26/52/78
f 26/52/79 34/51/80 33/53/81 28/54/82 27/55/83
f 27/55/84 28/54/85 30/56/86 29/57/87
f 29/57/88 30/56/89 31/58/90 32/59/91 25/60/92
f 33/61/93 31/62/94 30/63/95 28/64/96
f 29/65/97 25/49/98 26/52/99 27/66/100
f 32/50/101 31/67/102 33/68/103 34/51/104
