# This file uses centimeters as units for non-parametric coordinates.

g default
v -28465.083984 -1412.707275 2148.288818
v -28364.791016 -1412.707275 2148.288818
v -28465.083984 -406.148315 2148.288818
v -28364.791016 -406.148315 2148.288818
v -28465.083984 -406.148315 -2046.211182
v -28364.791016 -406.148315 -2046.211182
v -28465.083984 -1412.707275 -2046.211182
v -28364.791016 -1412.707275 -2046.211182
v -28762.498047 -1412.707275 2148.288818
v -28662.205078 -1412.707275 2148.288818
v -28762.498047 -406.148315 2148.288818
v -28662.205078 -406.148315 2148.288818
v -28762.498047 -406.148315 -2046.211182
v -28662.205078 -406.148315 -2046.211182
v -28762.498047 -1412.707275 -2046.211182
v -28662.205078 -1412.707275 -2046.211182
v -29096.966797 -1412.707275 2148.288818
v -28996.673828 -1412.707275 2148.288818
v -29096.966797 -406.148315 2148.288818
v -28996.673828 -406.148315 2148.288818
v -29096.966797 -406.148315 -2046.211182
v -28996.673828 -406.148315 -2046.211182
v -29096.966797 -1412.707275 -2046.211182
v -28996.673828 -1412.707275 -2046.211182
v -29096.966797 622.180542 2148.288818
v -28996.673828 622.180542 2148.288818
v -29096.966797 1628.739502 2148.288818
v -28996.673828 1628.739502 2148.288818
v -29096.966797 1628.739502 -2046.211182
v -28996.673828 1628.739502 -2046.211182
v -29096.966797 622.180542 -2046.211182
v -28996.673828 622.180542 -2046.211182
v -28762.498047 622.180542 2148.288818
v -28662.205078 622.180542 2148.288818
v -28762.498047 1628.739502 2148.288818
v -28662.205078 1628.739502 2148.288818
v -28762.498047 1628.739502 -2046.211182
v -28662.205078 1628.739502 -2046.211182
v -28762.498047 622.180542 -2046.211182
v -28662.205078 622.180542 -2046.211182
v -28465.083984 622.180542 2148.288818
v -28364.791016 622.180542 2148.288818
v -28465.083984 1628.739502 2148.288818
v -28364.791016 1628.739502 2148.288818
v -28465.083984 1628.739502 -2046.211182
v -28364.791016 1628.739502 -2046.211182
v -28465.083984 622.180542 -2046.211182
v -28364.791016 622.180542 -2046.211182
v -27977.839844 -1090.561401 1103.400879
v -27977.839844 -384.909424 1103.400879
v -27977.839844 -384.909424 -1050.714478
v -27977.839844 -1090.561401 -1050.714478
v -27849.185547 -384.909424 1103.400879
v -27849.185547 -384.909424 -1050.714478
v -27842.414063 -1089.483276 1098.485474
v -27842.894531 -1090.561401 1103.400879
v -27842.414063 -400.158569 1098.485474
v -27842.753906 -399.396179 1103.400879
v -27842.414063 -1089.483276 -1045.799194
v -27842.894531 -1090.561401 -1050.714478
v -27842.414063 -400.158569 -1045.799194
v -27842.753906 -399.396179 -1050.714478
v -28215.375000 -1090.561401 1103.400879
v -28215.375000 -384.909424 1103.400879
v -28215.375000 -384.909424 -1050.714478
v -28215.375000 -1090.561401 -1050.714478
v -28086.720703 -384.909424 1103.400879
v -28086.720703 -384.909424 -1050.714478
v -28079.949219 -1089.483276 1098.485474
v -28080.429688 -1090.561401 1103.400879
v -28079.949219 -400.158569 1098.485474
v -28080.289063 -399.396179 1103.400879
v -28079.949219 -1089.483276 -1045.799194
v -28080.429688 -1090.561401 -1050.714478
v -28079.949219 -400.158569 -1045.799194
v -28080.289063 -399.396179 -1050.714478
vt 0.570172 0.028569
vt 0.593746 0.028569
vt 0.593746 0.052142
vt 0.570172 0.052142
vt 0.593746 0.940792
vt 0.570172 0.940792
vt 0.593746 0.964365
vt 0.570172 0.964365
vt 0.593746 0.987939
vt 0.570172 0.987939
vt 0.617319 0.028569
vt 0.617319 0.052142
vt 0.546599 0.028569
vt 0.546599 0.052142
vt 0.646854 0.028832
vt 0.670559 0.028832
vt 0.670559 0.052536
vt 0.646854 0.052536
vt 0.670559 0.938147
vt 0.646854 0.938147
vt 0.670559 0.961851
vt 0.646854 0.961851
vt 0.670559 0.985556
vt 0.646854 0.985556
vt 0.694263 0.028832
vt 0.694263 0.052536
vt 0.623150 0.028832
vt 0.623150 0.052536
vt 0.262256 0.027385
vt 0.286475 0.027385
vt 0.286475 0.051603
vt 0.262256 0.051603
vt 0.286475 0.938027
vt 0.262256 0.938027
vt 0.286475 0.962245
vt 0.262256 0.962245
vt 0.286475 0.986464
vt 0.262256 0.986464
vt 0.310693 0.027385
vt 0.310693 0.051603
vt 0.238038 0.027385
vt 0.238038 0.051603
vt 0.791887 0.028651
vt 0.815631 0.028651
vt 0.815631 0.052396
vt 0.791887 0.052396
vt 0.815631 0.063341
vt 0.791887 0.063341
vt 0.815631 0.077785
vt 0.791887 0.077785
vt 0.815631 0.981978
vt 0.791887 0.981978
vt 0.839376 0.028651
vt 0.839376 0.052396
vt 0.768142 0.028651
vt 0.768142 0.052396
vt 0.417146 0.027238
vt 0.441574 0.027238
vt 0.441574 0.051667
vt 0.417146 0.051667
vt 0.441574 0.068712
vt 0.417146 0.068712
vt 0.441574 0.083840
vt 0.417146 0.083840
vt 0.441574 0.988716
vt 0.417146 0.988716
vt 0.466003 0.027238
vt 0.466003 0.051667
vt 0.392717 0.027238
vt 0.392717 0.051667
vt 0.719849 0.029380
vt 0.741909 0.029380
vt 0.741909 0.051441
vt 0.719849 0.051441
vt 0.741909 0.065056
vt 0.719849 0.065056
vt 0.741909 0.077816
vt 0.719849 0.077816
vt 0.741909 0.980324
vt 0.719849 0.980324
vt 0.763970 0.029380
vt 0.763970 0.051441
vt 0.697788 0.029380
vt 0.697788 0.051441
vt 0.340028 0.027375
vt 0.363690 0.027375
vt 0.363714 0.050633
vt 0.362586 0.051120
vt 0.340028 0.051120
vt 0.362586 0.938143
vt 0.340028 0.938143
vt 0.363714 0.938713
vt 0.363689 0.961887
vt 0.340028 0.961887
vt 0.363689 0.985632
vt 0.340028 0.985632
vt 0.316283 0.027375
vt 0.316283 0.051120
vt 0.363714 0.051120
vt 0.363773 0.051174
vt 0.363773 0.938088
vt 0.363714 0.938143
vt 0.363827 0.050607
vt 0.363827 0.027412
vt 0.387464 0.027412
vt 0.387464 0.050607
vt 0.363773 0.985578
vt 0.363773 0.961941
vt 0.363773 0.027412
vt 0.363773 0.050607
vt 0.363773 0.961851
vt 0.363773 0.938655
vt 0.493062 0.027769
vt 0.517003 0.027769
vt 0.517028 0.051302
vt 0.515887 0.051795
vt 0.493062 0.051795
vt 0.515887 0.940192
vt 0.493062 0.940192
vt 0.517028 0.940770
vt 0.517003 0.964217
vt 0.493062 0.964217
vt 0.517003 0.988243
vt 0.493062 0.988243
vt 0.469036 0.027769
vt 0.469036 0.051795
vt 0.517028 0.051795
vt 0.517088 0.051850
vt 0.517088 0.940137
vt 0.517028 0.940192
vt 0.517142 0.051276
vt 0.517142 0.027807
vt 0.541059 0.027807
vt 0.541059 0.051276
vt 0.517088 0.988189
vt 0.517088 0.964272
vt 0.517088 0.027806
vt 0.517088 0.051276
vt 0.517088 0.964181
vt 0.517088 0.940711
vn 0.000000 0.000000 1.000000
vn 0.000000 0.000000 1.000000
vn 0.000000 0.000000 1.000000
vn 0.000000 0.000000 1.000000
vn 0.000000 1.000000 0.000000
vn 0.000000 1.000000 0.000000
vn 0.000000 1.000000 0.000000
vn 0.000000 1.000000 0.000000
vn 0.000000 0.000000 -1.000000
vn 0.000000 0.000000 -1.000000
vn 0.000000 0.000000 -1.000000
vn 0.000000 0.000000 -1.000000
vn 0.000000 -1.000000 0.000000
vn 0.000000 -1.000000 0.000000
vn 0.000000 -1.000000 0.000000
vn 0.000000 -1.000000 0.000000
vn 1.000000 0.000000 0.000000
vn 1.000000 0.000000 0.000000
vn 1.000000 0.000000 0.000000
vn 1.000000 0.000000 0.000000
vn -1.000000 0.000000 0.000000
vn -1.000000 0.000000 0.000000
vn -1.000000 0.000000 0.000000
vn -1.000000 0.000000 0.000000
vn 0.000000 0.000000 1.000000
vn 0.000000 0.000000 1.000000
vn 0.000000 0.000000 1.000000
vn 0.000000 0.000000 1.000000
vn 0.000000 1.000000 0.000000
vn 0.000000 1.000000 0.000000
vn 0.000000 1.000000 0.000000
vn 0.000000 1.000000 0.000000
vn 0.000000 0.000000 -1.000000
vn 0.000000 0.000000 -1.000000
vn 0.000000 0.000000 -1.000000
vn 0.000000 0.000000 -1.000000
vn 0.000000 -1.000000 0.000000
vn 0.000000 -1.000000 0.000000
vn 0.000000 -1.000000 0.000000
vn 0.000000 -1.000000 0.000000
vn 1.000000 0.000000 0.000000
vn 1.000000 0.000000 0.000000
vn 1.000000 0.000000 0.000000
vn 1.000000 0.000000 0.000000
vn -1.000000 0.000000 0.000000
vn -1.000000 0.000000 0.000000
vn -1.000000 0.000000 0.000000
vn -1.000000 0.000000 0.000000
vn 0.000000 0.000000 1.000000
vn 0.000000 0.000000 1.000000
vn 0.000000 0.000000 1.000000
vn 0.000000 0.000000 1.000000
vn 0.000000 1.000000 0.000000
vn 0.000000 1.000000 0.000000
vn 0.000000 1.000000 0.000000
vn 0.000000 1.000000 0.000000
vn 0.000000 0.000000 -1.000000
vn 0.000000 0.000000 -1.000000
vn 0.000000 0.000000 -1.000000
vn 0.000000 0.000000 -1.000000
vn 0.000000 -1.000000 0.000000
vn 0.000000 -1.000000 0.000000
vn 0.000000 -1.000000 0.000000
vn 0.000000 -1.000000 0.000000
vn 1.000000 0.000000 0.000000
vn 1.000000 0.000000 0.000000
vn 1.000000 0.000000 0.000000
vn 1.000000 0.000000 0.000000
vn -1.000000 0.000000 0.000000
vn -1.000000 0.000000 0.000000
vn -1.000000 0.000000 0.000000
vn -1.000000 0.000000 0.000000
vn 0.000000 0.000000 1.000000
vn 0.000000 0.000000 1.000000
vn 0.000000 0.000000 1.000000
vn 0.000000 0.000000 1.000000
vn 0.000000 1.000000 0.000000
vn 0.000000 1.000000 0.000000
vn 0.000000 1.000000 0.000000
vn 0.000000 1.000000 0.000000
vn 0.000000 0.000000 -1.000000
vn 0.000000 0.000000 -1.000000
vn 0.000000 0.000000 -1.000000
vn 0.000000 0.000000 -1.000000
vn 0.000000 -1.000000 0.000000
vn 0.000000 -1.000000 0.000000
vn 0.000000 -1.000000 0.000000
vn 0.000000 -1.000000 0.000000
vn 1.000000 0.000000 0.000000
vn 1.000000 0.000000 0.000000
vn 1.000000 0.000000 0.000000
vn 1.000000 0.000000 0.000000
vn -1.000000 0.000000 0.000000
vn -1.000000 0.000000 0.000000
vn -1.000000 0.000000 0.000000
vn -1.000000 0.000000 0.000000
vn 0.000000 0.000000 1.000000
vn 0.000000 0.000000 1.000000
vn 0.000000 0.000000 1.000000
vn 0.000000 0.000000 1.000000
vn 0.000000 1.000000 0.000000
vn 0.000000 1.000000 0.000000
vn 0.000000 1.000000 0.000000
vn 0.000000 1.000000 0.000000
vn 0.000000 0.000000 -1.000000
vn 0.000000 0.000000 -1.000000
vn 0.000000 0.000000 -1.000000
vn 0.000000 0.000000 -1.000000
vn 0.000000 -1.000000 0.000000
vn 0.000000 -1.000000 0.000000
vn 0.000000 -1.000000 0.000000
vn 0.000000 -1.000000 0.000000
vn 1.000000 0.000000 0.000000
vn 1.000000 0.000000 0.000000
vn 1.000000 0.000000 0.000000
vn 1.000000 0.000000 0.000000
vn -1.000000 0.000000 0.000000
vn -1.000000 0.000000 0.000000
vn -1.000000 0.000000 0.000000
vn -1.000000 0.000000 0.000000
vn 0.000000 0.000000 1.000000
vn 0.000000 0.000000 1.000000
vn 0.000000 0.000000 1.000000
vn 0.000000 0.000000 1.000000
vn 0.000000 1.000000 0.000000
vn 0.000000 1.000000 0.000000
vn 0.000000 1.000000 0.000000
vn 0.000000 1.000000 0.000000
vn 0.000000 0.000000 -1.000000
vn 0.000000 0.000000 -1.000000
vn 0.000000 0.000000 -1.000000
vn 0.000000 0.000000 -1.000000
vn 0.000000 -1.000000 0.000000
vn 0.000000 -1.000000 0.000000
vn 0.000000 -1.000000 0.000000
vn 0.000000 -1.000000 0.000000
vn 1.000000 0.000000 0.000000
vn 1.000000 0.000000 0.000000
vn 1.000000 0.000000 0.000000
vn 1.000000 0.000000 0.000000
vn -1.000000 0.000000 0.000000
vn -1.000000 0.000000 0.000000
vn -1.000000 0.000000 0.000000
vn -1.000000 0.000000 0.000000
vn 0.000000 0.000000 1.000000
vn 0.000000 0.000000 1.000000
vn 0.000000 0.000000 1.000000
vn 0.000000 0.000000 1.000000
vn 0.000000 0.000000 1.000000
vn 0.000000 1.000000 0.000000
vn 0.000000 1.000000 0.000000
vn 0.000000 1.000000 0.000000
vn 0.000000 1.000000 0.000000
vn 0.000000 0.000000 -1.000000
vn 0.000000 0.000000 -1.000000
vn 0.000000 0.000000 -1.000000
vn 0.000000 0.000000 -1.000000
vn 0.000000 0.000000 -1.000000
vn 0.000000 -1.000000 0.000000
vn 0.000000 -1.000000 0.000000
vn 0.000000 -1.000000 0.000000
vn 0.000000 -1.000000 0.000000
vn -1.000000 0.000000 0.000000
vn -1.000000 0.000000 0.000000
vn -1.000000 0.000000 0.000000
vn -1.000000 0.000000 0.000000
vn 0.913952 0.405822 0.000000
vn 0.913952 0.405822 0.000000
vn 0.913952 0.405822 0.000000
vn 0.913952 0.405822 0.000000
vn 0.913952 0.405822 0.000000
vn 0.913952 0.405822 0.000000
vn 1.000000 0.000000 0.000000
vn 1.000000 0.000000 0.000000
vn 1.000000 0.000000 0.000000
vn 1.000000 0.000000 0.000000
vn 0.913493 -0.406854 0.000000
vn 0.913493 -0.406854 0.000000
vn 0.913493 -0.406854 0.000000
vn 0.913493 -0.406854 0.000000
vn 0.996537 -0.000106 0.083151
vn 0.996537 -0.000106 0.083151
vn 0.996537 -0.000106 0.083151
vn 0.996537 -0.000106 0.083151
vn 0.996537 -0.000101 -0.083153
vn 0.996537 -0.000101 -0.083153
vn 0.996537 -0.000101 -0.083153
vn 0.996537 -0.000101 -0.083153
vn 0.000000 0.000000 1.000000
vn 0.000000 0.000000 1.000000
vn 0.000000 0.000000 1.000000
vn 0.000000 0.000000 1.000000
vn 0.000000 0.000000 1.000000
vn 0.000000 1.000000 0.000000
vn 0.000000 1.000000 0.000000
vn 0.000000 1.000000 0.000000
vn 0.000000 1.000000 0.000000
vn 0.000000 0.000000 -1.000000
vn 0.000000 0.000000 -1.000000
vn 0.000000 0.000000 -1.000000
vn 0.000000 0.000000 -1.000000
vn 0.000000 0.000000 -1.000000
vn 0.000000 -1.000000 0.000000
vn 0.000000 -1.000000 0.000000
vn 0.000000 -1.000000 0.000000
vn 0.000000 -1.000000 0.000000
vn -1.000000 0.000000 0.000000
vn -1.000000 0.000000 0.000000
vn -1.000000 0.000000 0.000000
vn -1.000000 0.000000 0.000000
vn 0.913952 0.405822 0.000000
vn 0.913952 0.405822 0.000000
vn 0.913952 0.405822 0.000000
vn 0.913952 0.405822 0.000000
vn 0.913952 0.405822 0.000000
vn 0.913952 0.405822 0.000000
vn 1.000000 0.000000 0.000000
vn 1.000000 0.000000 0.000000
vn 1.000000 0.000000 0.000000
vn 1.000000 0.000000 0.000000
vn 0.914079 -0.405537 0.000000
vn 0.914079 -0.405537 0.000000
vn 0.914079 -0.405537 0.000000
vn 0.914079 -0.405537 0.000000
vn 0.996537 -0.000101 0.083151
vn 0.996537 -0.000101 0.083151
vn 0.996537 -0.000101 0.083151
vn 0.996537 -0.000101 0.083151
vn 0.996537 -0.000101 -0.083153
vn 0.996537 -0.000101 -0.083153
vn 0.996537 -0.000101 -0.083153
vn 0.996537 -0.000101 -0.083153
s off
g Level04_Blocks2:polySurface1013
f 1/1/1 2/2/2 4/3/3 3/4/4
f 3/4/5 4/3/6 6/5/7 5/6/8
f 5/6/9 6/5/10 8/7/11 7/8/12
f 7/8/13 8/7/14 2/9/15 1/10/16
f 2/2/17 8/11/18 6/12/19 4/3/20
f 7/13/21 1/1/22 3/4/23 5/14/24
f 9/15/25 10/16/26 12/17/27 11/18/28
f 11/18/29 12/17/30 14/19/31 13/20/32
f 13/20/33 14/19/34 16/21/35 15/22/36
f 15/22/37 16/21/38 10/23/39 9/24/40
f 10/16/41 16/25/42 14/26/43 12/17/44
f 15/27/45 9/15/46 11/18/47 13/28/48
f 17/29/49 18/30/50 20/31/51 19/32/52
f 19/32/53 20/31/54 22/33/55 21/34/56
f 21/34/57 22/33/58 24/35/59 23/36/60
f 23/36/61 24/35/62 18/37/63 17/38/64
f 18/30/65 24/39/66 22/40/67 20/31/68
f 23/41/69 17/29/70 19/32/71 21/42/72
f 25/43/73 26/44/74 28/45/75 27/46/76
f 27/46/77 28/45/78 30/47/79 29/48/80
f 29/48/81 30/47/82 32/49/83 31/50/84
f 31/50/85 32/49/86 26/51/87 25/52/88
f 26/44/89 32/53/90 30/54/91 28/45/92
f 31/55/93 25/43/94 27/46/95 29/56/96
f 33/57/97 34/58/98 36/59/99 35/60/100
f 35/60/101 36/59/102 38/61/103 37/62/104
f 37/62/105 38/61/106 40/63/107 39/64/108
f 39/64/109 40/63/110 34/65/111 33/66/112
f 34/58/113 40/67/114 38/68/115 36/59/116
f 39/69/117 33/57/118 35/60/119 37/70/120
f 41/71/121 42/72/122 44/73/123 43/74/124
f 43/74/125 44/73/126 46/75/127 45/76/128
f 45/76/129 46/75/130 48/77/131 47/78/132
f 47/78/133 48/77/134 42/79/135 41/80/136
f 42/72/137 48/81/138 46/82/139 44/73/140
f 47/83/141 41/71/142 43/74/143 45/84/144
f 49/85/145 56/86/146 58/87/147 53/88/148 50/89/149
f 50/89/150 53/88/151 54/90/152 51/91/153
f 51/91/154 54/90/155 62/92/156 60/93/157 52/94/158
f 52/94/159 60/93/160 56/95/161 49/96/162
f 52/97/163 49/85/164 50/89/165 51/98/166
f 53/88/167 58/99/168 57/100/169 61/101/170 62/102/171 54/90/172
f 57/103/173 55/104/174 59/105/175 61/106/176
f 55/107/177 56/95/178 60/93/179 59/108/180
f 56/86/181 55/109/182 57/110/183 58/87/184
f 59/111/185 60/93/186 62/92/187 61/112/188
f 63/113/189 70/114/190 72/115/191 67/116/192 64/117/193
f 64/117/194 67/116/195 68/118/196 65/119/197
f 65/119/198 68/118/199 76/120/200 74/121/201 66/122/202
f 66/122/203 74/121/204 70/123/205 63/124/206
f 66/125/207 63/113/208 64/117/209 65/126/210
f 67/116/211 72/127/212 71/128/213 75/129/214 76/130/215 68/118/216
f 71/131/217 69/132/218 73/133/219 75/134/220
f 69/135/221 70/123/222 74/121/223 73/136/224
f 70/114/225 69/137/226 71/138/227 72/115/228
f 73/139/229 74/121/230 76/120/231 75/140/232
