# This file uses centimeters as units for non-parametric coordinates.

g default
v -28368.871094 678.682190 2064.182617
v -28368.871094 -438.347107 2064.182617
v -28368.871094 678.682190 314.379791
v -28368.871094 -438.347107 314.379791
v -28446.546875 678.682190 2064.182617
v -28446.546875 -438.347107 2064.182617
v -28446.546875 678.682190 314.379791
v -28446.546875 -438.347107 314.379791
v -28675.873047 678.682190 2064.182617
v -28675.873047 -438.347107 2064.182617
v -28675.873047 678.682190 314.379791
v -28675.873047 -438.347107 314.379791
v -28752.183594 678.682190 2064.182617
v -28752.183594 -438.347107 2064.182617
v -28752.183594 678.682190 314.379791
v -28752.183594 -438.347107 314.379791
v -29010.615234 678.682190 2064.182617
v -29010.615234 -438.347107 2064.182617
v -29010.615234 678.682190 314.379791
v -29010.615234 -438.347107 314.379791
v -29088.291016 678.682190 2064.182617
v -29088.291016 -438.347107 2064.182617
v -29088.291016 678.682190 314.379791
v -29088.291016 -438.347107 314.379791
vt 0.000000 0.000000
vt 1.000000 0.000000
vt 1.000000 1.000000
vt 0.000000 1.000000
vt 0.000000 0.000000
vt 1.000000 0.000000
vt 1.000000 1.000000
vt 0.000000 1.000000
vt 0.000000 0.000000
vt 1.000000 0.000000
vt 1.000000 1.000000
vt 0.000000 1.000000
vt 0.000000 0.000000
vt 1.000000 0.000000
vt 1.000000 1.000000
vt 0.000000 1.000000
vt 0.000000 0.000000
vt 1.000000 0.000000
vt 1.000000 1.000000
vt 0.000000 1.000000
vt 0.000000 0.000000
vt 1.000000 0.000000
vt 1.000000 1.000000
vt 0.000000 1.000000
vn 1.000000 0.000000 0.000000
vn 1.000000 0.000000 0.000000
vn 1.000000 0.000000 0.000000
vn 1.000000 0.000000 0.000000
vn 1.000000 0.000000 0.000000
vn 1.000000 0.000000 0.000000
vn 1.000000 0.000000 0.000000
vn 1.000000 0.000000 0.000000
vn 1.000000 0.000000 0.000000
vn 1.000000 0.000000 0.000000
vn 1.000000 0.000000 0.000000
vn 1.000000 0.000000 0.000000
vn 1.000000 0.000000 0.000000
vn 1.000000 0.000000 0.000000
vn 1.000000 0.000000 0.000000
vn 1.000000 0.000000 0.000000
vn 1.000000 0.000000 0.000000
vn 1.000000 0.000000 0.000000
vn 1.000000 0.000000 0.000000
vn 1.000000 0.000000 0.000000
vn 1.000000 0.000000 0.000000
vn 1.000000 0.000000 0.000000
vn 1.000000 0.000000 0.000000
vn 1.000000 0.000000 0.000000
s off
g Level04_Hololights_Left:polySurface504
f 1/1/1 2/2/2 4/3/3 3/4/4
f 5/5/5 6/6/6 8/7/7 7/8/8
f 9/9/9 10/10/10 12/11/11 11/12/12
f 13/13/13 14/14/14 16/15/15 15/16/16
f 17/17/17 18/18/18 20/19/19 19/20/20
f 21/21/21 22/22/22 24/23/23 23/24/24
