# This file uses centimeters as units for non-parametric coordinates.

g default
v -29094.859375 -910.047424 1287.668091
v -29094.859375 -467.896179 1287.668091
v -29094.859375 -467.896179 -1297.364990
v -29094.859375 -910.047424 -1297.364990
v -27692.769531 -467.896179 1287.668091
v -27692.769531 -467.896179 -1297.364990
v -27618.978516 -909.371826 1281.769409
v -27624.197266 -910.047424 1287.668091
v -27618.978516 -477.451080 1281.769409
v -27622.666016 -476.973358 1287.668091
v -27618.978516 -909.371826 -1291.466309
v -27624.197266 -910.047424 -1297.364990
v -27618.978516 -477.451080 -1291.466309
v -27622.666016 -476.973358 -1297.364990
v -28289.669922 -1751.528809 1210.363281
v -28289.669922 1149.658936 1210.363281
v -28289.669922 1149.658936 1298.205078
v -27911.152344 1149.658936 1298.205078
v -28289.669922 -1751.528809 1298.205078
v -27911.152344 -1751.528809 1298.205078
v -27911.152344 -1751.528809 1214.754883
v -27926.451172 -1751.528809 1210.363281
v -27911.152344 1149.658936 1214.754883
v -27926.451172 1149.658936 1210.363281
v -29560.652344 663.859680 712.734131
v -29560.652344 1134.783691 712.734131
v -29560.652344 1134.783691 -660.047852
v -29560.652344 663.859680 -660.047852
v -27588.095703 1134.783691 712.734131
v -27588.095703 1134.783691 -660.047852
v -27484.279297 664.579224 709.601624
v -27491.623047 663.859680 712.734131
v -27484.279297 1124.607056 709.601624
v -27489.468750 1125.115845 712.734131
v -27484.279297 664.579224 -656.915405
v -27491.623047 663.859680 -660.047852
v -27484.279297 1124.607056 -656.915405
v -27489.468750 1125.115845 -660.047852
v -28289.671875 -1751.528809 -1194.025879
v -28289.671875 1149.658936 -1194.025879
v -28289.671875 1149.658936 -1281.867676
v -27911.152344 1149.658936 -1281.867676
v -28289.671875 -1751.528809 -1281.867676
v -27911.152344 -1751.528809 -1281.867676
v -27911.152344 -1751.528809 -1198.417480
v -27926.451172 -1751.528809 -1194.025879
v -27911.152344 1149.658936 -1198.417480
v -27926.451172 1149.658936 -1194.025879
vt 0.236873 0.008486
vt 0.347306 0.008486
vt 0.347419 0.117035
vt 0.342156 0.119310
vt 0.236873 0.119310
vt 0.342156 0.230134
vt 0.236873 0.230134
vt 0.347420 0.232799
vt 0.347305 0.340958
vt 0.236873 0.340958
vt 0.347305 0.451782
vt 0.236873 0.451782
vt 0.126049 0.008486
vt 0.126049 0.119310
vt 0.347419 0.119310
vt 0.347696 0.119563
vt 0.347696 0.229881
vt 0.347419 0.230134
vt 0.347949 0.116915
vt 0.347949 0.008656
vt 0.458267 0.008656
vt 0.458267 0.116915
vt 0.347696 0.451529
vt 0.347696 0.341211
vt 0.347696 0.008656
vt 0.347696 0.116915
vt 0.347696 0.340789
vt 0.347696 0.232529
vt 0.234067 0.500140
vt 0.234067 0.620952
vt 0.349996 0.620952
vt 0.349997 0.500140
vt 0.234067 0.741765
vt 0.354879 0.741765
vt 0.354879 0.626992
vt 0.234067 0.862577
vt 0.354879 0.862577
vt 0.234067 0.983389
vt 0.349996 0.983389
vt 0.354879 0.977349
vt 0.360919 0.620952
vt 0.475692 0.620952
vt 0.475692 0.500140
vt 0.360919 0.500140
vt 0.113255 0.500140
vt 0.113255 0.620952
vt 0.354879 0.620952
vt 0.354879 0.500140
vt 0.633136 0.496502
vt 0.758297 0.496502
vt 0.758426 0.619528
vt 0.752460 0.622106
vt 0.633136 0.622106
vt 0.752460 0.747711
vt 0.633136 0.747711
vt 0.758427 0.750731
vt 0.758296 0.873315
vt 0.633136 0.873315
vt 0.758296 0.998919
vt 0.633136 0.998919
vt 0.507531 0.496502
vt 0.507531 0.622106
vt 0.758426 0.622106
vt 0.758740 0.622393
vt 0.758740 0.747424
vt 0.758426 0.747711
vt 0.759026 0.619392
vt 0.759027 0.496695
vt 0.884057 0.496695
vt 0.884057 0.619392
vt 0.758740 0.998632
vt 0.758740 0.873601
vt 0.758740 0.496694
vt 0.758740 0.619392
vt 0.758740 0.873123
vt 0.758740 0.750425
vt 0.647567 0.011363
vt 0.754470 0.011363
vt 0.754470 0.122769
vt 0.647567 0.122769
vt 0.758973 0.128338
vt 0.758973 0.234175
vt 0.647567 0.234175
vt 0.758973 0.345581
vt 0.647567 0.345581
vt 0.758973 0.451417
vt 0.754470 0.456987
vt 0.647567 0.456987
vt 0.764542 0.122769
vt 0.764542 0.011363
vt 0.870379 0.011363
vt 0.870379 0.122769
vt 0.536161 0.011363
vt 0.536161 0.122769
vt 0.758973 0.011363
vt 0.758973 0.122769
vn 0.000000 0.000000 1.000000
vn 0.000000 0.000000 1.000000
vn 0.000000 0.000000 1.000000
vn 0.000000 0.000000 1.000000
vn 0.000000 0.000000 1.000000
vn 0.000000 1.000000 0.000000
vn 0.000000 1.000000 0.000000
vn 0.000000 1.000000 0.000000
vn 0.000000 1.000000 0.000000
vn 0.000000 0.000000 -1.000000
vn 0.000000 0.000000 -1.000000
vn 0.000000 0.000000 -1.000000
vn 0.000000 0.000000 -1.000000
vn 0.000000 0.000000 -1.000000
vn 0.000000 -1.000000 0.000000
vn 0.000000 -1.000000 0.000000
vn 0.000000 -1.000000 0.000000
vn 0.000000 -1.000000 0.000000
vn -1.000000 0.000000 0.000000
vn -1.000000 0.000000 0.000000
vn -1.000000 0.000000 0.000000
vn -1.000000 0.000000 0.000000
vn 0.128416 0.991720 0.000000
vn 0.128416 0.991720 0.000000
vn 0.128416 0.991720 0.000000
vn 0.128416 0.991720 0.000000
vn 0.128416 0.991720 0.000000
vn 0.128416 0.991720 0.000000
vn 1.000000 0.000000 0.000000
vn 1.000000 0.000000 0.000000
vn 1.000000 0.000000 0.000000
vn 1.000000 0.000000 0.000000
vn 0.128346 -0.991729 0.000000
vn 0.128346 -0.991729 0.000000
vn 0.128346 -0.991729 0.000000
vn 0.128346 -0.991729 0.000000
vn 0.798111 -0.001413 0.602508
vn 0.798111 -0.001413 0.602508
vn 0.798111 -0.001413 0.602508
vn 0.798111 -0.001413 0.602508
vn 0.798118 -0.001413 -0.602499
vn 0.798118 -0.001413 -0.602499
vn 0.798119 -0.001413 -0.602499
vn 0.798119 -0.001413 -0.602499
vn 0.000000 0.000000 -1.000000
vn 0.000000 0.000000 -1.000000
vn 0.000000 0.000000 -1.000000
vn 0.000000 0.000000 -1.000000
vn 0.000000 1.000000 0.000000
vn 0.000000 1.000000 0.000000
vn 0.000000 1.000000 0.000000
vn 0.000000 1.000000 0.000000
vn 0.000000 1.000000 0.000000
vn 0.000000 0.000000 1.000000
vn 0.000000 0.000000 1.000000
vn 0.000000 0.000000 1.000000
vn 0.000000 0.000000 1.000000
vn 0.000000 -1.000000 0.000000
vn 0.000000 -1.000000 0.000000
vn 0.000000 -1.000000 0.000000
vn 0.000000 -1.000000 0.000000
vn 0.000000 -1.000000 0.000000
vn 1.000000 0.000000 0.000000
vn 1.000000 0.000000 0.000000
vn 1.000000 0.000000 0.000000
vn 1.000000 0.000000 0.000000
vn -1.000000 0.000000 0.000000
vn -1.000000 0.000000 0.000000
vn -1.000000 0.000000 0.000000
vn -1.000000 0.000000 0.000000
vn 0.275915 0.000000 -0.961182
vn 0.275915 0.000000 -0.961182
vn 0.275915 0.000000 -0.961182
vn 0.275915 0.000000 -0.961182
vn 0.000000 0.000000 1.000000
vn 0.000000 0.000000 1.000000
vn 0.000000 0.000000 1.000000
vn 0.000000 0.000000 1.000000
vn 0.000000 0.000000 1.000000
vn 0.000000 1.000000 0.000000
vn 0.000000 1.000000 0.000000
vn 0.000000 1.000000 0.000000
vn 0.000000 1.000000 0.000000
vn 0.000000 0.000000 -1.000000
vn 0.000000 0.000000 -1.000000
vn 0.000000 0.000000 -1.000000
vn 0.000000 0.000000 -1.000000
vn 0.000000 0.000000 -1.000000
vn 0.000000 -1.000000 0.000000
vn 0.000000 -1.000000 0.000000
vn 0.000000 -1.000000 0.000000
vn 0.000000 -1.000000 0.000000
vn -1.000000 0.000000 0.000000
vn -1.000000 0.000000 0.000000
vn -1.000000 0.000000 0.000000
vn -1.000000 0.000000 0.000000
vn 0.097558 0.995230 0.000000
vn 0.097558 0.995230 0.000000
vn 0.097558 0.995230 0.000000
vn 0.097558 0.995230 0.000000
vn 0.097558 0.995230 0.000000
vn 0.097558 0.995230 0.000000
vn 1.000000 0.000000 0.000000
vn 1.000000 0.000000 0.000000
vn 1.000000 0.000000 0.000000
vn 1.000000 0.000000 0.000000
vn 0.097536 -0.995232 0.000000
vn 0.097536 -0.995232 0.000000
vn 0.097536 -0.995232 0.000000
vn 0.097536 -0.995232 0.000000
vn 0.447130 -0.001046 0.894468
vn 0.447130 -0.001046 0.894468
vn 0.447130 -0.001046 0.894468
vn 0.447130 -0.001046 0.894468
vn 0.447122 -0.001046 -0.894472
vn 0.447122 -0.001046 -0.894472
vn 0.447122 -0.001046 -0.894472
vn 0.447122 -0.001046 -0.894472
vn 0.000000 0.000000 1.000000
vn 0.000000 0.000000 1.000000
vn 0.000000 0.000000 1.000000
vn 0.000000 0.000000 1.000000
vn 0.000000 1.000000 0.000000
vn 0.000000 1.000000 0.000000
vn 0.000000 1.000000 0.000000
vn 0.000000 1.000000 0.000000
vn 0.000000 1.000000 0.000000
vn 0.000000 0.000000 -1.000000
vn 0.000000 0.000000 -1.000000
vn 0.000000 0.000000 -1.000000
vn 0.000000 0.000000 -1.000000
vn 0.000000 -1.000000 0.000002
vn 0.000000 -1.000000 0.000002
vn 0.000000 -1.000000 0.000002
vn 0.000000 -1.000000 0.000002
vn 0.000000 -1.000000 0.000002
vn 1.000000 0.000000 0.000000
vn 1.000000 0.000000 0.000000
vn 1.000000 0.000000 0.000000
vn 1.000000 0.000000 0.000000
vn -1.000000 0.000000 0.000000
vn -1.000000 0.000000 0.000000
vn -1.000000 0.000000 0.000000
vn -1.000000 0.000000 0.000000
vn 0.275910 0.000000 0.961183
vn 0.275910 0.000000 0.961183
vn 0.275910 0.000000 0.961183
vn 0.275910 0.000000 0.961183
s off
g polySurface1013
f 1/1/1 8/2/2 10/3/3 5/4/4 2/5/5
f 2/5/6 5/4/7 6/6/8 3/7/9
f 3/7/10 6/6/11 14/8/12 12/9/13 4/10/14
f 4/10/15 12/9/16 8/11/17 1/12/18
f 4/13/19 1/1/20 2/5/21 3/14/22
f 5/4/23 10/15/24 9/16/25 13/17/26 14/18/27 6/6/28
f 9/19/29 7/20/30 11/21/31 13/22/32
f 7/23/33 8/11/34 12/9/35 11/24/36
f 8/2/37 7/25/38 9/26/39 10/3/40
f 11/27/41 12/9/42 14/8/43 13/28/44
f 15/29/45 16/30/46 24/31/47 22/32/48
f 16/30/49 17/33/50 18/34/51 23/35/52 24/31/53
f 17/33/54 19/36/55 20/37/56 18/34/57
f 19/36/58 15/38/59 22/39/60 21/40/61 20/37/62
f 23/41/63 18/42/64 20/43/65 21/44/66
f 19/45/67 17/46/68 16/30/69 15/29/70
f 22/32/71 24/31/72 23/47/73 21/48/74
f 25/49/75 32/50/76 34/51/77 29/52/78 26/53/79
f 26/53/80 29/52/81 30/54/82 27/55/83
f 27/55/84 30/54/85 38/56/86 36/57/87 28/58/88
f 28/58/89 36/57/90 32/59/91 25/60/92
f 28/61/93 25/49/94 26/53/95 27/62/96
f 29/52/97 34/63/98 33/64/99 37/65/100 38/66/101 30/54/102
f 33/67/103 31/68/104 35/69/105 37/70/106
f 31/71/107 32/59/108 36/57/109 35/72/110
f 32/50/111 31/73/112 33/74/113 34/51/114
f 35/75/115 36/57/116 38/56/117 37/76/118
f 39/77/119 46/78/120 48/79/121 40/80/122
f 40/80/123 48/79/124 47/81/125 42/82/126 41/83/127
f 41/83/128 42/82/129 44/84/130 43/85/131
f 43/85/132 44/84/133 45/86/134 46/87/135 39/88/136
f 47/89/137 45/90/138 44/91/139 42/92/140
f 43/93/141 39/77/142 40/80/143 41/94/144
f 46/78/145 45/95/146 47/96/147 48/79/148
