# This file uses centimeters as units for non-parametric coordinates.

g default
v -28368.871094 678.682190 -250.308853
v -28368.871094 -438.347107 -250.308853
v -28368.871094 678.682190 -2000.111694
v -28368.871094 -438.347107 -2000.111694
v -28446.546875 678.682190 -250.308853
v -28446.546875 -438.347107 -250.308853
v -28446.546875 678.682190 -2000.111694
v -28446.546875 -438.347107 -2000.111694
v -28675.873047 678.682190 -250.308853
v -28675.873047 -438.347107 -250.308853
v -28675.873047 678.682190 -2000.111694
v -28675.873047 -438.347107 -2000.111694
v -28752.183594 678.682190 -250.308853
v -28752.183594 -438.347107 -250.308853
v -28752.183594 678.682190 -2000.111694
v -28752.183594 -438.347107 -2000.111694
v -29010.615234 678.682190 -250.308853
v -29010.615234 -438.347107 -250.308853
v -29010.615234 678.682190 -2000.111694
v -29010.615234 -438.347107 -2000.111694
v -29088.291016 678.682190 -250.308853
v -29088.291016 -438.347107 -250.308853
v -29088.291016 678.682190 -2000.111694
v -29088.291016 -438.347107 -2000.111694
vt 0.014575 0.988011
vt 0.132814 0.988135
vt 0.132816 0.017439
vt 0.014577 0.017316
vt 0.141154 0.992003
vt 0.275843 0.992143
vt 0.275845 0.014394
vt 0.141156 0.014253
vt 0.289996 0.994359
vt 0.425218 0.994500
vt 0.425220 0.014933
vt 0.289998 0.014792
vt 0.823895 0.988865
vt 0.992443 0.989040
vt 0.992445 0.005733
vt 0.823897 0.005558
vt 0.639643 0.995443
vt 0.808481 0.995619
vt 0.808483 0.009129
vt 0.639645 0.008953
vt 0.444129 0.992385
vt 0.612917 0.992561
vt 0.612919 0.018947
vt 0.444131 0.018771
vn 1.000000 0.000000 0.000000
vn 1.000000 0.000000 0.000000
vn 1.000000 0.000000 0.000000
vn 1.000000 0.000000 0.000000
vn 1.000000 0.000000 0.000000
vn 1.000000 0.000000 0.000000
vn 1.000000 0.000000 0.000000
vn 1.000000 0.000000 0.000000
vn 1.000000 0.000000 0.000000
vn 1.000000 0.000000 0.000000
vn 1.000000 0.000000 0.000000
vn 1.000000 0.000000 0.000000
vn 1.000000 0.000000 0.000000
vn 1.000000 0.000000 0.000000
vn 1.000000 0.000000 0.000000
vn 1.000000 0.000000 0.000000
vn 1.000000 0.000000 0.000000
vn 1.000000 0.000000 0.000000
vn 1.000000 0.000000 0.000000
vn 1.000000 0.000000 0.000000
vn 1.000000 0.000000 0.000000
vn 1.000000 0.000000 0.000000
vn 1.000000 0.000000 0.000000
vn 1.000000 0.000000 0.000000
s off
g Level04_HololightsRight:polySurface505
f 1/1/1 2/2/2 4/3/3 3/4/4
f 5/5/5 6/6/6 8/7/7 7/8/8
f 9/9/9 10/10/10 12/11/11 11/12/12
f 13/13/13 14/14/14 16/15/15 15/16/16
f 17/17/17 18/18/18 20/19/19 19/20/20
f 21/21/21 22/22/22 24/23/23 23/24/24
