# This file uses centimeters as units for non-parametric coordinates.

g default
v -29656.052734 -552.248291 -1953.835571
v -29656.052734 -552.248291 2006.522217
v -29656.052734 -530.491943 2006.522217
v -29656.052734 -530.491943 -1953.835571
v -29912.839844 -159.687317 2006.522217
v -29912.839844 -159.687317 -1953.835571
v -29656.052734 706.647461 -1953.835571
v -29656.052734 706.647461 2006.522217
v -29656.052734 728.403809 2006.522217
v -29656.052734 728.403809 -1953.835571
v -29912.839844 335.842834 -1953.835571
v -29912.839844 335.842834 2006.522217
vt 0.686128 0.009420
vt 0.686125 0.024486
vt 0.835565 0.024558
vt 0.835568 0.009492
vt 0.007814 0.012478
vt 0.334535 0.012478
vt 0.332640 0.994916
vt 0.005919 0.994916
vt 0.836769 0.009451
vt 0.836767 0.024600
vt 0.986207 0.024673
vt 0.986209 0.009523
vt 0.343183 0.009623
vt 0.669904 0.009623
vt 0.669904 0.994736
vt 0.343183 0.994736
vn -1.000000 0.000000 0.000000
vn -1.000000 0.000000 0.000000
vn -1.000000 0.000000 0.000000
vn -1.000000 0.000000 0.000000
vn -0.822113 -0.569324 0.000000
vn -0.822113 -0.569324 0.000000
vn -0.822113 -0.569324 0.000000
vn -0.822113 -0.569324 0.000000
vn -1.000000 0.000000 0.000000
vn -1.000000 0.000000 0.000000
vn -1.000000 0.000000 0.000000
vn -1.000000 0.000000 0.000000
vn -0.822113 0.569324 0.000000
vn -0.822113 0.569324 0.000000
vn -0.822113 0.569324 0.000000
vn -0.822113 0.569324 0.000000
s off
g Level04_HololightsExit:polySurface1
f 1/1/1 2/2/2 3/3/3 4/4/4
f 4/5/5 3/6/6 5/7/7 6/8/8
f 7/9/9 8/10/10 9/11/11 10/12/12
f 8/13/13 7/14/14 11/15/15 12/16/16
