# This file uses centimeters as units for non-parametric coordinates.

mtllib fulladds_LightsHolders_Level3.mtl
g default
v -21826.239563 -473.128029 2116.809136
v -21826.239563 -1046.663970 1824.577695
v -21591.551992 -1046.663970 1824.577695
v -21591.551992 -473.128029 2116.809136
v -21826.239563 162.641361 2217.504901
v -21591.551992 162.641361 2217.504901
v -21826.239563 798.410896 2116.809136
v -21591.551992 798.410847 2116.809136
v -21826.239563 1371.946982 1824.577695
v -21591.551992 1371.946982 1824.577695
v -21826.239563 1827.107686 1369.417186
v -21591.551992 1827.107686 1369.417186
v -21826.239563 2119.338158 795.881099
v -21591.551992 2119.338158 795.881099
v -21826.239563 2220.033922 160.111479
v -21591.551992 2220.033922 160.111479
v -21826.239563 2119.338158 -475.658117
v -21591.551992 2119.338158 -475.658020
v -21826.239563 1827.107879 -1049.194349
v -21591.551992 1827.107879 -1049.194349
v -21826.239563 1371.947079 -1504.354664
v -21591.551992 1371.947079 -1504.354664
v -21826.239563 798.411090 -1796.586493
v -21591.551992 798.411090 -1796.586493
v -21826.239563 162.641324 -1897.282258
v -21591.551992 162.641324 -1897.282258
v -21826.239563 -473.128272 -1796.586493
v -21591.551992 -473.128272 -1796.586493
v -21826.239563 -1046.664455 -1504.355440
v -21591.551992 -1046.664455 -1504.355440
v -21826.239563 -1501.825255 -1049.194543
v -21591.551992 -1501.825255 -1049.194543
v -21826.239563 -1794.054952 -475.657826
v -21591.551992 -1794.054952 -475.657826
v -21826.239563 -1894.750717 160.111891
v -21591.551992 -1894.750717 160.111891
v -21826.239563 -1794.054177 795.880857
v -21591.551992 -1794.054177 795.880857
v -21826.239563 -1501.824868 1369.416992
v -21591.551992 -1501.824868 1369.416992
v -21788.776816 -1036.328126 1810.351821
v -21788.776816 -467.694189 2100.085720
v -21629.013188 -1036.328126 1810.351821
v -21629.013188 -467.694189 2100.085720
v -21788.776816 162.641361 2199.920932
v -21629.013188 162.641361 2199.920932
v -21788.776816 792.977055 2100.085720
v -21629.013188 792.977055 2100.085720
v -21788.776816 1361.611332 1810.351821
v -21629.013188 1361.611332 1810.351821
v -21788.776816 1812.881812 1359.081535
v -21629.013188 1812.881812 1359.081535
v -21788.776816 2102.614742 790.447258
v -21629.013188 2102.614742 790.447258
v -21788.776816 2202.449953 160.111479
v -21629.013188 2202.449953 160.111479
v -21788.776816 2102.614742 -470.224276
v -21629.013188 2102.614742 -470.224276
v -21788.776816 1812.882199 -1038.858699
v -21629.013188 1812.882199 -1038.858699
v -21788.776816 1361.611429 -1490.128597
v -21629.013188 1361.611429 -1490.128597
v -21788.776816 792.977249 -1779.862883
v -21629.013188 792.977249 -1779.862883
v -21788.776816 162.641324 -1879.698095
v -21629.013188 162.641324 -1879.698095
v -21788.776816 -467.694431 -1779.862883
v -21629.013188 -467.694431 -1779.862883
v -21788.776816 -1036.328805 -1490.129566
v -21629.013188 -1036.328805 -1490.129566
v -21788.776816 -1487.599188 -1038.858892
v -21629.013188 -1487.599188 -1038.858892
v -21788.776816 -1777.331536 -470.224082
v -21629.013188 -1777.331536 -470.224082
v -21788.776816 -1877.166166 160.111854
v -21629.013188 -1877.166166 160.111854
v -21788.776816 -1777.330567 790.447016
v -21629.014738 -1777.330567 790.447016
v -21788.776816 -1487.598800 1359.081245
v -21629.014738 -1487.598800 1359.081245
vt 0.021261 0.311404
vt 0.021261 0.141269
vt 0.103435 0.141269
vt 0.103435 0.311404
vt 0.001992 0.309778
vt 0.001992 0.138176
vt 0.021261 0.006248
vt 0.103434 0.006248
vt 0.122703 0.138176
vt 0.122703 0.309778
vt 0.021261 0.500000
vt 0.103435 0.500000
vt 0.001992 0.001992
vt 0.001992 0.500000
vt 0.122703 0.001992
vt 0.122703 0.500000
vt 0.021261 0.688596
vt 0.103435 0.688596
vt 0.001992 0.690222
vt 0.122703 0.690222
vt 0.021261 0.858732
vt 0.103435 0.858732
vt 0.001992 0.861824
vt 0.122703 0.861824
vt 0.021261 0.993752
vt 0.103435 0.993752
vt 0.001992 0.998008
vt 0.122703 0.998008
vt 0.402615 0.172189
vt 0.402615 0.005030
vt 0.483351 0.005030
vt 0.483351 0.172189
vt 0.383683 0.170592
vt 0.383683 0.001992
vt 0.502283 0.001992
vt 0.502283 0.170592
vt 0.402615 0.357487
vt 0.483351 0.357487
vt 0.383683 0.357487
vt 0.502283 0.357487
vt 0.402615 0.542784
vt 0.483351 0.542784
vt 0.383683 0.544381
vt 0.502283 0.544381
vt 0.402615 0.709943
vt 0.483351 0.709943
vt 0.383683 0.712981
vt 0.502283 0.712981
vt 0.402615 0.842601
vt 0.483351 0.842601
vt 0.383683 0.846783
vt 0.502283 0.846783
vt 0.357664 0.676586
vt 0.357664 0.843745
vt 0.276927 0.843745
vt 0.276927 0.676586
vt 0.376596 0.678183
vt 0.376596 0.846784
vt 0.257996 0.846784
vt 0.257996 0.678183
vt 0.357664 0.491289
vt 0.276927 0.491289
vt 0.376596 0.491289
vt 0.257996 0.491289
vt 0.357664 0.305991
vt 0.276927 0.305991
vt 0.376596 0.304394
vt 0.257996 0.304394
vt 0.357664 0.138832
vt 0.276927 0.138832
vt 0.376596 0.135794
vt 0.257996 0.135794
vt 0.357664 0.006174
vt 0.276927 0.006174
vt 0.376596 0.001992
vt 0.257996 0.001992
vt 0.779201 0.167928
vt 0.779201 0.004954
vt 0.857917 0.004954
vt 0.857917 0.167928
vt 0.760744 0.166371
vt 0.760744 0.001992
vt 0.876374 0.001992
vt 0.876374 0.166371
vt 0.779201 0.348586
vt 0.857917 0.348586
vt 0.760744 0.348586
vt 0.876374 0.348586
vt 0.779201 0.529244
vt 0.857916 0.529244
vt 0.760744 0.530802
vt 0.876374 0.530802
vt 0.779201 0.692218
vt 0.857916 0.692218
vt 0.760744 0.695180
vt 0.876374 0.695180
vt 0.248887 0.304861
vt 0.130104 0.304861
vt 0.130104 0.136000
vt 0.248887 0.136000
vt 0.248887 0.492044
vt 0.130104 0.492044
vt 0.130104 0.001992
vt 0.248887 0.001992
vt 0.248887 0.679227
vt 0.130104 0.679227
vt 0.248887 0.848087
vt 0.130104 0.848087
vt 0.248887 0.982095
vt 0.130104 0.982095
vt 0.635057 0.667380
vt 0.751761 0.667380
vt 0.751761 0.833286
vt 0.635057 0.833286
vt 0.635057 0.483471
vt 0.751761 0.483471
vt 0.635057 0.299562
vt 0.751761 0.299562
vt 0.635057 0.133656
vt 0.751761 0.133656
vt 0.635057 0.001992
vt 0.751761 0.001992
vt 0.509370 0.667381
vt 0.626075 0.667381
vt 0.626075 0.833287
vt 0.509370 0.833287
vt 0.509370 0.483472
vt 0.626075 0.483472
vt 0.509370 0.299563
vt 0.626075 0.299563
vt 0.509370 0.133656
vt 0.626075 0.133656
vt 0.509370 0.001992
vt 0.626075 0.001992
vt 0.884225 0.522353
vt 0.998008 0.522353
vt 0.998008 0.684106
vt 0.884225 0.684106
vt 0.884225 0.343049
vt 0.998008 0.343049
vt 0.884225 0.163745
vt 0.998008 0.163745
vt 0.884225 0.001992
vt 0.998008 0.001992
vn 0.092116 -0.307703 0.947013
vn 0.092117 -0.585286 0.805577
vn -0.092118 -0.585286 0.805577
vn -0.092117 -0.307703 0.947013
vn 0.092116 0.000000 0.995748
vn 0.092116 -0.307703 0.947013
vn -0.092117 -0.307703 0.947013
vn -0.092117 0.000000 0.995748
vn 0.092116 0.307703 0.947013
vn 0.092116 0.000000 0.995748
vn -0.092117 0.000000 0.995748
vn -0.092117 0.307703 0.947013
vn 0.092117 0.585286 0.805577
vn 0.092116 0.307703 0.947013
vn -0.092117 0.307703 0.947013
vn -0.092117 0.585286 0.805577
vn 0.092117 0.805577 0.585286
vn 0.092117 0.585286 0.805577
vn -0.092117 0.585286 0.805577
vn -0.092118 0.805577 0.585286
vn 0.092117 0.947013 0.307702
vn 0.092117 0.805577 0.585286
vn -0.092118 0.805577 0.585286
vn -0.092118 0.947013 0.307703
vn 0.092116 0.995748 -0.000000
vn 0.092117 0.947013 0.307702
vn -0.092118 0.947013 0.307703
vn -0.092117 0.995748 -0.000000
vn 0.092116 0.947013 -0.307702
vn 0.092116 0.995748 -0.000000
vn -0.092117 0.995748 -0.000000
vn -0.092116 0.947013 -0.307702
vn 0.092116 0.805577 -0.585286
vn 0.092116 0.947013 -0.307702
vn -0.092116 0.947013 -0.307702
vn -0.092117 0.805578 -0.585285
vn 0.092117 0.585286 -0.805577
vn 0.092116 0.805577 -0.585286
vn -0.092117 0.805578 -0.585285
vn -0.092118 0.585286 -0.805577
vn 0.092117 0.307703 -0.947013
vn 0.092117 0.585286 -0.805577
vn -0.092118 0.585286 -0.805577
vn -0.092118 0.307704 -0.947013
vn 0.092117 -0.000000 -0.995748
vn 0.092117 0.307703 -0.947013
vn -0.092118 0.307704 -0.947013
vn -0.092118 0.000000 -0.995748
vn 0.092117 -0.307703 -0.947013
vn 0.092117 -0.000000 -0.995748
vn -0.092118 0.000000 -0.995748
vn -0.092118 -0.307703 -0.947013
vn 0.092117 -0.585286 -0.805577
vn 0.092117 -0.307703 -0.947013
vn -0.092118 -0.307703 -0.947013
vn -0.092118 -0.585286 -0.805577
vn 0.092117 -0.805578 -0.585285
vn 0.092117 -0.585286 -0.805577
vn -0.092118 -0.585286 -0.805577
vn -0.092118 -0.805578 -0.585285
vn 0.092116 -0.947013 -0.307702
vn 0.092117 -0.805578 -0.585285
vn -0.092118 -0.805578 -0.585285
vn -0.092117 -0.947013 -0.307701
vn 0.092118 -0.995748 0.000000
vn 0.092116 -0.947013 -0.307702
vn -0.092117 -0.947013 -0.307701
vn -0.092118 -0.995748 0.000001
vn 0.092118 -0.947013 0.307702
vn 0.092118 -0.995748 0.000000
vn -0.092118 -0.995748 0.000001
vn -0.092118 -0.947013 0.307702
vn 0.092118 -0.805578 0.585285
vn 0.092118 -0.947013 0.307702
vn -0.092118 -0.947013 0.307702
vn -0.092118 -0.805578 0.585285
vn 0.092117 -0.585286 0.805577
vn 0.092118 -0.805578 0.585285
vn -0.092118 -0.805578 0.585285
vn -0.092118 -0.585286 0.805577
vn 0.000000 0.453991 -0.891006
vn 0.000000 0.453991 -0.891006
vn 0.000000 0.453991 -0.891006
vn 0.000000 0.453991 -0.891006
vn 0.000000 0.156434 -0.987688
vn 0.000000 0.156434 -0.987688
vn 0.000000 0.156434 -0.987688
vn 0.000000 0.156434 -0.987688
vn -0.000000 -0.156434 -0.987688
vn -0.000000 -0.156434 -0.987688
vn -0.000000 -0.156434 -0.987688
vn -0.000000 -0.156434 -0.987688
vn -0.000000 -0.453991 -0.891006
vn -0.000000 -0.453991 -0.891006
vn -0.000000 -0.453991 -0.891006
vn -0.000000 -0.453991 -0.891006
vn -0.000000 -0.707107 -0.707107
vn -0.000000 -0.707107 -0.707107
vn -0.000000 -0.707107 -0.707107
vn -0.000000 -0.707107 -0.707107
vn -0.000000 -0.891007 -0.453990
vn -0.000000 -0.891007 -0.453990
vn -0.000000 -0.891007 -0.453990
vn -0.000000 -0.891007 -0.453990
vn -0.000000 -0.987688 -0.156434
vn -0.000000 -0.987688 -0.156434
vn -0.000000 -0.987688 -0.156434
vn -0.000000 -0.987688 -0.156434
vn -0.000001 -0.987688 0.156434
vn -0.000001 -0.987688 0.156434
vn -0.000001 -0.987688 0.156434
vn -0.000001 -0.987688 0.156434
vn -0.000000 -0.891007 0.453989
vn -0.000000 -0.891007 0.453989
vn -0.000000 -0.891007 0.453989
vn -0.000000 -0.891007 0.453989
vn -0.000000 -0.707106 0.707107
vn -0.000000 -0.707106 0.707107
vn -0.000000 -0.707106 0.707107
vn -0.000000 -0.707106 0.707107
vn -0.000000 -0.453991 0.891006
vn -0.000000 -0.453991 0.891006
vn -0.000000 -0.453991 0.891006
vn -0.000000 -0.453991 0.891006
vn -0.000000 -0.156434 0.987688
vn -0.000000 -0.156434 0.987688
vn -0.000000 -0.156434 0.987688
vn -0.000000 -0.156434 0.987688
vn 0.000000 0.156434 0.987688
vn 0.000000 0.156434 0.987688
vn 0.000000 0.156434 0.987688
vn 0.000000 0.156434 0.987688
vn 0.000000 0.453990 0.891007
vn 0.000000 0.453990 0.891007
vn 0.000000 0.453990 0.891007
vn 0.000000 0.453990 0.891007
vn 0.000000 0.707107 0.707107
vn 0.000000 0.707107 0.707107
vn 0.000000 0.707107 0.707107
vn 0.000000 0.707107 0.707107
vn 0.000000 0.891008 0.453988
vn 0.000000 0.891008 0.453988
vn 0.000000 0.891008 0.453988
vn 0.000000 0.891008 0.453988
vn 0.000000 0.987688 0.156434
vn 0.000000 0.987688 0.156434
vn 0.000000 0.987688 0.156434
vn 0.000000 0.987688 0.156434
vn 0.000000 0.987688 -0.156435
vn 0.000000 0.987688 -0.156435
vn 0.000000 0.987688 -0.156435
vn 0.000000 0.987688 -0.156435
vn 0.000000 0.891008 -0.453988
vn 0.000000 0.891008 -0.453988
vn 0.000000 0.891008 -0.453988
vn 0.000000 0.891008 -0.453988
vn 0.000000 0.707107 -0.707107
vn 0.000000 0.707107 -0.707107
vn 0.000000 0.707107 -0.707107
vn 0.000000 0.707107 -0.707107
vn 0.424898 -0.279735 0.860936
vn 0.424900 -0.532087 0.732354
vn 0.092117 -0.585286 0.805577
vn 0.092116 -0.307703 0.947013
vn -0.424911 -0.532086 0.732349
vn -0.424912 -0.279733 0.860929
vn -0.092117 -0.307703 0.947013
vn -0.092118 -0.585286 0.805577
vn 0.424896 0.000000 0.905242
vn 0.424898 -0.279735 0.860936
vn 0.092116 -0.307703 0.947013
vn 0.092116 0.000000 0.995748
vn -0.424912 -0.279733 0.860929
vn -0.424910 -0.000000 0.905235
vn -0.092117 0.000000 0.995748
vn -0.092117 -0.307703 0.947013
vn 0.424897 0.279735 0.860936
vn 0.424896 0.000000 0.905242
vn 0.092116 0.000000 0.995748
vn 0.092116 0.307703 0.947013
vn -0.424910 -0.000000 0.905235
vn -0.424911 0.279733 0.860930
vn -0.092117 0.307703 0.947013
vn -0.092117 0.000000 0.995748
vn 0.424898 0.532088 0.732355
vn 0.424897 0.279735 0.860936
vn 0.092116 0.307703 0.947013
vn 0.092117 0.585286 0.805577
vn -0.424911 0.279733 0.860930
vn -0.424913 0.532083 0.732350
vn -0.092117 0.585286 0.805577
vn -0.092117 0.307703 0.947013
vn 0.424900 0.732355 0.532087
vn 0.424898 0.532088 0.732355
vn 0.092117 0.585286 0.805577
vn 0.092117 0.805577 0.585286
vn -0.424913 0.532083 0.732350
vn -0.424915 0.732349 0.532082
vn -0.092118 0.805577 0.585286
vn -0.092117 0.585286 0.805577
vn 0.424900 0.860935 0.279734
vn 0.424900 0.732355 0.532087
vn 0.092117 0.805577 0.585286
vn 0.092117 0.947013 0.307702
vn -0.424915 0.732349 0.532082
vn -0.424913 0.860929 0.279733
vn -0.092118 0.947013 0.307703
vn -0.092118 0.805577 0.585286
vn 0.424897 0.905242 -0.000000
vn 0.424900 0.860935 0.279734
vn 0.092117 0.947013 0.307702
vn 0.092116 0.995748 -0.000000
vn -0.424913 0.860929 0.279733
vn -0.424910 0.905236 -0.000000
vn -0.092117 0.995748 -0.000000
vn -0.092118 0.947013 0.307703
vn 0.424895 0.860937 -0.279735
vn 0.424897 0.905242 -0.000000
vn 0.092116 0.995748 -0.000000
vn 0.092116 0.947013 -0.307702
vn -0.424910 0.905236 -0.000000
vn -0.424909 0.860931 -0.279732
vn -0.092116 0.947013 -0.307702
vn -0.092117 0.995748 -0.000000
vn 0.424896 0.732356 -0.532089
vn 0.424895 0.860937 -0.279735
vn 0.092116 0.947013 -0.307702
vn 0.092116 0.805577 -0.585286
vn -0.424909 0.860931 -0.279732
vn -0.424910 0.732351 -0.532083
vn -0.092117 0.805578 -0.585285
vn -0.092116 0.947013 -0.307702
vn 0.424900 0.532086 -0.732355
vn 0.424896 0.732356 -0.532089
vn 0.092116 0.805577 -0.585286
vn 0.092117 0.585286 -0.805577
vn -0.424910 0.732351 -0.532083
vn -0.424914 0.532083 -0.732350
vn -0.092118 0.585286 -0.805577
vn -0.092117 0.805578 -0.585285
vn 0.424901 0.279734 -0.860934
vn 0.424900 0.532086 -0.732355
vn 0.092117 0.585286 -0.805577
vn 0.092117 0.307703 -0.947013
vn -0.424914 0.532083 -0.732350
vn -0.424915 0.279733 -0.860928
vn -0.092118 0.307704 -0.947013
vn -0.092118 0.585286 -0.805577
vn 0.424899 -0.000000 -0.905240
vn 0.424901 0.279734 -0.860934
vn 0.092117 0.307703 -0.947013
vn 0.092117 -0.000000 -0.995748
vn -0.424915 0.279733 -0.860928
vn -0.424914 0.000000 -0.905234
vn -0.092118 0.000000 -0.995748
vn -0.092118 0.307704 -0.947013
vn 0.424900 -0.279734 -0.860935
vn 0.424899 -0.000000 -0.905240
vn 0.092117 -0.000000 -0.995748
vn 0.092117 -0.307703 -0.947013
vn -0.424914 0.000000 -0.905234
vn -0.424914 -0.279732 -0.860929
vn -0.092118 -0.307703 -0.947013
vn -0.092118 0.000000 -0.995748
vn 0.424900 -0.532087 -0.732355
vn 0.424900 -0.279734 -0.860935
vn 0.092117 -0.307703 -0.947013
vn 0.092117 -0.585286 -0.805577
vn -0.424914 -0.279732 -0.860929
vn -0.424914 -0.532083 -0.732350
vn -0.092118 -0.585286 -0.805577
vn -0.092118 -0.307703 -0.947013
vn 0.424898 -0.732356 -0.532087
vn 0.424900 -0.532087 -0.732355
vn 0.092117 -0.585286 -0.805577
vn 0.092117 -0.805578 -0.585285
vn -0.424914 -0.532083 -0.732350
vn -0.424913 -0.732351 -0.532081
vn -0.092118 -0.805578 -0.585285
vn -0.092118 -0.585286 -0.805577
vn 0.424898 -0.860936 -0.279734
vn 0.424898 -0.732356 -0.532087
vn 0.092117 -0.805578 -0.585285
vn 0.092116 -0.947013 -0.307702
vn -0.424913 -0.732351 -0.532081
vn -0.424913 -0.860929 -0.279731
vn -0.092117 -0.947013 -0.307701
vn -0.092118 -0.805578 -0.585285
vn 0.424901 -0.905240 0.000001
vn 0.424898 -0.860936 -0.279734
vn 0.092116 -0.947013 -0.307702
vn 0.092118 -0.995748 0.000000
vn -0.424913 -0.860929 -0.279731
vn -0.424912 -0.905235 0.000002
vn -0.092118 -0.995748 0.000001
vn -0.092117 -0.947013 -0.307701
vn 0.424902 -0.860934 0.279734
vn 0.424901 -0.905240 0.000001
vn 0.092118 -0.995748 0.000000
vn 0.092118 -0.947013 0.307702
vn -0.424912 -0.905235 0.000002
vn -0.424906 -0.860932 0.279734
vn -0.092118 -0.947013 0.307702
vn -0.092118 -0.995748 0.000001
vn 0.424902 -0.732355 0.532086
vn 0.424902 -0.860934 0.279734
vn 0.092118 -0.947013 0.307702
vn 0.092118 -0.805578 0.585285
vn -0.424906 -0.860932 0.279734
vn -0.424906 -0.732355 0.532083
vn -0.092118 -0.805578 0.585285
vn -0.092118 -0.947013 0.307702
vn 0.424900 -0.532087 0.732354
vn 0.424902 -0.732355 0.532086
vn 0.092118 -0.805578 0.585285
vn 0.092117 -0.585286 0.805577
vn -0.424906 -0.732355 0.532083
vn -0.424911 -0.532086 0.732349
vn -0.092118 -0.585286 0.805577
vn -0.092118 -0.805578 0.585285
s off
g polySurface987 polySurface986 pCylinder26
usemtl polySurface987SG
f 42/1/1 41/2/2 43/3/3 44/4/4
f 45/11/5 42/1/6 44/4/7 46/12/8
f 47/17/9 45/11/10 46/12/11 48/18/12
f 49/21/13 47/17/14 48/18/15 50/22/16
f 51/25/17 49/21/18 50/22/19 52/26/20
f 53/29/21 51/30/22 52/31/23 54/32/24
f 55/37/25 53/29/26 54/32/27 56/38/28
f 57/41/29 55/37/30 56/38/31 58/42/32
f 59/45/33 57/41/34 58/42/35 60/46/36
f 61/49/37 59/45/38 60/46/39 62/50/40
f 63/53/41 61/54/42 62/55/43 64/56/44
f 65/61/45 63/53/46 64/56/47 66/62/48
f 67/65/49 65/61/50 66/62/51 68/66/52
f 69/69/53 67/65/54 68/66/55 70/70/56
f 71/73/57 69/69/58 70/70/59 72/74/60
f 73/77/61 71/78/62 72/79/63 74/80/64
f 75/85/65 73/77/66 74/80/67 76/86/68
f 77/89/69 75/85/70 76/86/71 78/90/72
f 79/93/73 77/89/74 78/90/75 80/94/76
f 41/2/77 79/7/78 80/8/79 43/3/80
f 1/97/81 4/98/82 3/99/83 2/100/84
f 5/101/85 6/102/86 4/98/87 1/97/88
f 7/105/89 8/106/90 6/102/91 5/101/92
f 9/107/93 10/108/94 8/106/95 7/105/96
f 11/109/97 12/110/98 10/108/99 9/107/100
f 13/111/101 14/112/102 12/113/103 11/114/104
f 15/115/105 16/116/106 14/112/107 13/111/108
f 17/117/109 18/118/110 16/116/111 15/115/112
f 19/119/113 20/120/114 18/118/115 17/117/116
f 21/121/117 22/122/118 20/120/119 19/119/120
f 23/123/121 24/124/122 22/125/123 21/126/124
f 25/127/125 26/128/126 24/124/127 23/123/128
f 27/129/129 28/130/130 26/128/131 25/127/132
f 29/131/133 30/132/134 28/130/135 27/129/136
f 31/133/137 32/134/138 30/132/139 29/131/140
f 33/135/141 34/136/142 32/137/143 31/138/144
f 35/139/145 36/140/146 34/136/147 33/135/148
f 37/141/149 38/142/150 36/140/151 35/139/152
f 39/143/153 40/144/154 38/142/155 37/141/156
f 2/100/157 3/99/158 40/103/159 39/104/160
f 1/5/161 2/6/162 41/2/163 42/1/164
f 3/9/165 4/10/166 44/4/167 43/3/168
f 5/14/169 1/5/170 42/1/171 45/11/172
f 4/10/173 6/16/174 46/12/175 44/4/176
f 7/19/177 5/14/178 45/11/179 47/17/180
f 6/16/181 8/20/182 48/18/183 46/12/184
f 9/23/185 7/19/186 47/17/187 49/21/188
f 8/20/189 10/24/190 50/22/191 48/18/192
f 11/27/193 9/23/194 49/21/195 51/25/196
f 10/24/197 12/28/198 52/26/199 50/22/200
f 13/33/201 11/34/202 51/30/203 53/29/204
f 12/35/205 14/36/206 54/32/207 52/31/208
f 15/39/209 13/33/210 53/29/211 55/37/212
f 14/36/213 16/40/214 56/38/215 54/32/216
f 17/43/217 15/39/218 55/37/219 57/41/220
f 16/40/221 18/44/222 58/42/223 56/38/224
f 19/47/225 17/43/226 57/41/227 59/45/228
f 18/44/229 20/48/230 60/46/231 58/42/232
f 21/51/233 19/47/234 59/45/235 61/49/236
f 20/48/237 22/52/238 62/50/239 60/46/240
f 23/57/241 21/58/242 61/54/243 63/53/244
f 22/59/245 24/60/246 64/56/247 62/55/248
f 25/63/249 23/57/250 63/53/251 65/61/252
f 24/60/253 26/64/254 66/62/255 64/56/256
f 27/67/257 25/63/258 65/61/259 67/65/260
f 26/64/261 28/68/262 68/66/263 66/62/264
f 29/71/265 27/67/266 67/65/267 69/69/268
f 28/68/269 30/72/270 70/70/271 68/66/272
f 31/75/273 29/71/274 69/69/275 71/73/276
f 30/72/277 32/76/278 72/74/279 70/70/280
f 33/81/281 31/82/282 71/78/283 73/77/284
f 32/83/285 34/84/286 74/80/287 72/79/288
f 35/87/289 33/81/290 73/77/291 75/85/292
f 34/84/293 36/88/294 76/86/295 74/80/296
f 37/91/297 35/87/298 75/85/299 77/89/300
f 36/88/301 38/92/302 78/90/303 76/86/304
f 39/95/305 37/91/306 77/89/307 79/93/308
f 38/92/309 40/96/310 80/94/311 78/90/312
f 2/6/313 39/13/314 79/7/315 41/2/316
f 40/15/317 3/9/318 43/3/319 80/8/320
