# This file uses centimeters as units for non-parametric coordinates.

mtllib fulladds_MovingColumnsLights_Level7.mtl
g default
v -2344.192871 -17272.966797 -10980.399414
v -2293.797363 -17272.968750 -10980.206055
v -2293.796631 -5998.057129 -10980.459961
v -2344.194824 -5998.054688 -10980.477539
v -2243.399902 -17272.968750 -10980.267578
v -2243.400391 -5998.058105 -10980.691406
v -2316.567383 -17272.966797 -11029.237305
v -2293.816406 -17272.968750 -11029.169922
v -2293.815918 -5998.058594 -11029.423828
v -2316.566895 -5998.055664 -11029.315430
v -2271.064453 -17272.968750 -11029.083984
v -2271.064453 -5998.060059 -11029.507813
v -2243.416992 -17272.968750 -14143.827148
v -2293.809570 -17272.968750 -14143.911133
v -2293.809326 -5998.057129 -14143.762695
v -2243.417969 -5998.058105 -14143.561523
v -2344.201172 -17272.968750 -14143.739258
v -2344.202148 -5998.055176 -14143.708008
v -2271.077148 -17272.968750 -14095.010742
v -2293.824219 -17272.968750 -14094.945313
v -2293.823730 -5998.057617 -14094.796875
v -2271.077148 -5998.059082 -14094.745117
v -2316.570801 -17272.968750 -14094.905273
v -2316.570313 -5998.055176 -14094.874023
vt 0.423161 0.001992
vt 0.511088 0.001992
vt 0.511089 0.930377
vt 0.423163 0.930377
vt 0.599018 0.001992
vt 0.599018 0.930376
vt 0.608470 0.930377
vt 0.608462 0.001992
vt 0.803237 0.001992
vt 0.803235 0.930377
vt 0.998007 0.001992
vt 0.998008 0.930377
vt 0.571570 0.997736
vt 0.559259 0.997988
vt 0.559264 0.934207
vt 0.564821 0.934116
vt 0.546948 0.997908
vt 0.553706 0.934319
vt 0.590016 0.934116
vt 0.602327 0.934140
vt 0.595578 0.997759
vt 0.590020 0.997899
vt 0.577705 0.934419
vt 0.584462 0.998008
vt 0.212997 0.997096
vt 0.212674 0.001992
vt 0.414986 0.001992
vt 0.415309 0.997096
vt 0.206011 0.001992
vt 0.204256 0.997327
vt 0.001992 0.997327
vt 0.003746 0.001992
vt 0.599293 0.930408
vt 0.511226 0.930408
vt 0.511228 0.001992
vt 0.599293 0.001992
vt 0.423161 0.930408
vt 0.423163 0.001992
vt 0.998008 0.001992
vt 0.998003 0.930407
vt 0.802908 0.930407
vt 0.802908 0.001992
vt 0.607808 0.930407
vt 0.607812 0.001992
vt 0.546214 0.934259
vt 0.558546 0.934150
vt 0.558549 0.997939
vt 0.552983 0.997855
vt 0.589342 0.998008
vt 0.577011 0.997745
vt 0.583779 0.934150
vt 0.589345 0.934216
vt 0.003097 0.997323
vt 0.001992 0.001992
vt 0.204613 0.001992
vt 0.205712 0.997323
vt 0.570876 0.934374
vt 0.564115 0.997992
vt 0.415464 0.001992
vt 0.415330 0.997168
vt 0.212674 0.997168
vt 0.212808 0.001992
vt 0.601673 0.997936
vt 0.594911 0.934318
vn 0.000873 0.000015 1.000000
vn 0.000405 0.000022 1.000000
vn 0.000405 0.000022 1.000000
vn 0.000873 0.000015 1.000000
vn 0.000405 0.000022 1.000000
vn -0.000062 0.000030 1.000000
vn -0.000062 0.000030 1.000000
vn 0.000405 0.000022 1.000000
vn 0.002093 -0.000015 -0.999998
vn 0.002093 -0.000015 -0.999998
vn -0.000396 -0.000022 -1.000000
vn -0.000396 -0.000022 -1.000000
vn -0.000396 -0.000022 -1.000000
vn -0.000396 -0.000022 -1.000000
vn -0.002886 -0.000030 -0.999996
vn -0.002886 -0.000030 -0.999996
vn 0.000053 1.000000 0.000035
vn 0.000027 1.000000 0.000015
vn 0.000027 1.000000 0.000015
vn 0.000053 1.000000 0.000035
vn -0.000053 -1.000000 0.000030
vn -0.000073 -1.000000 0.000016
vn -0.000073 -1.000000 0.000016
vn -0.000053 -1.000000 0.000030
vn 0.870390 0.000003 0.492364
vn 0.870390 0.000003 0.492364
vn 0.870390 0.000003 0.492364
vn 0.870390 0.000003 0.492364
vn 0.000027 1.000000 0.000015
vn 0.000000 1.000000 -0.000005
vn 0.000000 1.000000 -0.000005
vn 0.000027 1.000000 0.000015
vn -0.870009 0.000019 0.493036
vn -0.870009 0.000019 0.493036
vn -0.870009 0.000019 0.493036
vn -0.870009 0.000019 0.493036
vn -0.000033 -1.000000 0.000044
vn -0.000053 -1.000000 0.000030
vn -0.000053 -1.000000 0.000030
vn -0.000033 -1.000000 0.000044
vn -0.000312 0.000018 -1.000000
vn 0.000281 0.000013 -1.000000
vn 0.000281 0.000013 -1.000000
vn -0.000312 0.000018 -1.000000
vn 0.000281 0.000013 -1.000000
vn 0.000873 0.000008 -1.000000
vn 0.000873 0.000008 -1.000000
vn 0.000281 0.000013 -1.000000
vn -0.002844 -0.000018 0.999996
vn -0.002844 -0.000018 0.999996
vn -0.000296 -0.000013 1.000000
vn -0.000296 -0.000013 1.000000
vn -0.000296 -0.000013 1.000000
vn -0.000296 -0.000013 1.000000
vn 0.002253 -0.000008 0.999997
vn 0.002253 -0.000008 0.999997
vn 0.000000 1.000000 0.000000
vn 0.000000 1.000000 -0.000003
vn 0.000000 1.000000 -0.000003
vn 0.000000 1.000000 0.000000
vn -0.000047 -1.000000 -0.000015
vn -0.000033 -1.000000 -0.000031
vn -0.000033 -1.000000 -0.000031
vn -0.000047 -1.000000 -0.000015
vn -0.870039 0.000012 -0.492982
vn -0.870039 0.000012 -0.492982
vn -0.870039 0.000012 -0.492982
vn -0.870039 0.000012 -0.492982
vn 0.000000 1.000000 -0.000003
vn 0.000000 1.000000 -0.000005
vn 0.000000 1.000000 -0.000005
vn 0.000000 1.000000 -0.000003
vn 0.870337 0.000001 -0.492458
vn 0.870337 0.000001 -0.492458
vn 0.870336 0.000001 -0.492457
vn 0.870337 0.000001 -0.492458
vn -0.000060 -1.000000 0.000000
vn -0.000047 -1.000000 -0.000015
vn -0.000047 -1.000000 -0.000015
vn -0.000060 -1.000000 0.000000
s off
g polySurface982
usemtl polySurface982SG
f 7/1/1 8/2/2 9/3/3 10/4/4
f 8/2/5 11/5/6 12/6/7 9/3/8
f 1/7/9 4/8/10 3/9/11 2/10/12
f 2/10/13 3/9/14 6/11/15 5/12/16
f 1/13/17 2/14/18 8/15/19 7/16/20
f 3/19/21 4/20/22 10/21/23 9/22/24
f 4/25/25 1/26/26 7/27/27 10/28/28
f 2/14/29 5/17/30 11/18/31 8/15/32
f 5/29/33 6/30/34 12/31/35 11/32/36
f 6/23/37 3/19/38 9/22/39 12/24/40
f 19/33/41 20/34/42 21/35/43 22/36/44
f 20/34/45 23/37/46 24/38/47 21/35/48
f 13/39/49 16/40/50 15/41/51 14/42/52
f 14/42/53 15/41/54 18/43/55 17/44/56
f 13/45/57 14/46/58 20/47/59 19/48/60
f 15/49/61 16/50/62 22/51/63 21/52/64
f 16/53/65 13/54/66 19/55/67 22/56/68
f 14/46/69 17/57/70 23/58/71 20/47/72
f 17/59/73 18/60/74 24/61/75 23/62/76
f 18/63/77 15/49/78 21/52/79 24/64/80
