# This file uses centimeters as units for non-parametric coordinates.

mtllib Level06_Grinders.mtl
g default
v 455.444569 -4192.372799 -328.854390
v 156.302764 -4181.414476 -546.160751
v -213.257210 -4171.394667 -546.494014
v -512.121514 -4164.991497 -329.765385
v -626.176546 -4163.555046 21.206259
v -511.894397 -4166.705099 372.330723
v -212.953124 -4172.560635 589.468042
v 156.447850 -4178.530568 589.667406
v 455.209783 -4182.333645 372.852557
v 569.229987 -4182.873941 21.851403
v 702.953375 -4046.776347 -506.500541
v 248.661522 -4040.833449 -836.464250
v -312.648550 -4036.871306 -836.597713
v -766.518133 -4037.851405 -506.803086
v -939.530597 -4044.783574 26.995900
v -765.555112 -4056.192445 560.944203
v -311.010427 -4068.575723 891.120955
v 250.500255 -4077.649624 891.423776
v 704.498715 -4079.949173 561.737786
v 877.556246 -4074.148277 27.976672
v 777.362863 -4201.826545 -561.772679
v 278.299931 -4193.569202 -924.262258
v -338.315408 -4187.395237 -924.469569
v -836.914639 -4186.742959 -562.279411
v -1027.009653 -4192.883438 23.997283
v -835.956520 -4204.347339 610.451815
v -336.706044 -4217.386666 973.099882
v 280.058274 -4227.352790 973.432511
v 778.753156 -4230.442291 611.323396
v 968.881536 -4225.140203 25.074515
v 721.803203 -4238.964943 -530.951862
v 258.421892 -4233.289920 -867.515426
v -314.121545 -4229.653844 -867.638057
v -777.072145 -4231.041606 -531.221278
v -953.539308 -4238.442160 13.286492
v -776.067219 -4250.319101 557.943974
v -312.408270 -4263.075569 894.742166
v 260.355841 -4272.331955 895.051155
v 723.448087 -4274.553070 558.753133
v 899.964112 -4268.396694 14.286852
v -506.543386 -4103.513889 -319.391801
v -618.720646 -4105.748781 26.362515
v -506.072351 -4111.500587 372.234144
v -211.622981 -4118.661503 586.115180
v 152.159541 -4124.540714 586.311539
v 446.322595 -4126.892673 372.748308
v 558.504718 -4124.773177 26.997862
v 445.792143 -4117.387477 -318.928041
v 151.368824 -4110.884586 -532.787452
v -212.393318 -4105.529325 -532.966378
v 787.996416 -4468.268267 -561.683335
v 718.521579 -4463.165048 -515.399826
v 282.270929 -4452.376368 -928.850839
v 257.465671 -4448.065071 -850.309849
v -340.137142 -4438.304878 -929.132234
v -312.233337 -4434.657101 -850.755859
v -843.616568 -4430.024797 -563.727777
v -772.847030 -4426.803658 -516.613960
v -1035.814653 -4429.567481 28.083786
v -948.607661 -4426.413390 24.454747
v -843.028635 -4436.221654 620.357054
v -772.396197 -4432.698484 565.830545
v -338.731550 -4446.728543 986.721171
v -311.478970 -4442.502954 900.648219
v 284.459588 -4456.599428 987.157535
v 258.001263 -4451.706839 900.955627
v 788.522045 -4462.060341 621.446184
v 718.480386 -4456.884381 566.733318
v 980.356111 -4461.406942 30.979608
v 894.229473 -4456.317954 25.450896
v 754.784136 -3935.136655 -547.789111
v 770.872119 -3934.195733 -563.109562
v 266.333113 -3919.468353 -902.628762
v 274.529483 -3918.367857 -923.639220
v -334.714121 -3905.589349 -903.080386
v -339.853909 -3904.564025 -924.239013
v -821.016573 -3897.500409 -550.262920
v -836.710808 -3896.569647 -563.898164
v -1006.607765 -3897.293929 21.306688
v -1026.276714 -3896.333280 19.625226
v -820.342379 -3904.113271 593.261221
v -836.212140 -3902.891942 603.265410
v -333.289949 -3914.660563 946.970628
v -339.375719 -3913.192371 964.052309
v 268.455771 -3924.555187 947.264436
v 274.374238 -3922.936948 964.318049
v 755.039756 -3929.967079 594.109834
v 770.707029 -3928.409247 604.044010
v 940.337614 -3929.020544 23.748909
v 960.280842 -3927.656422 20.025641
vt 0.000000 1.000000
vt 0.100000 1.000000
vt 0.200000 1.000000
vt 0.300000 1.000000
vt 0.400000 1.000000
vt 0.500000 1.000000
vt 0.600000 1.000000
vt 0.700000 1.000000
vt 0.800000 1.000000
vt 0.900000 1.000000
vt 1.000000 1.000000
vt 1.000000 0.833333
vt 0.000000 0.166667
vt 0.000000 -0.000000
vt 0.100000 -0.000000
vt 0.200000 -0.000000
vt 0.300000 -0.000000
vt 0.400000 -0.000000
vt 0.500000 -0.000000
vt 0.600000 -0.000000
vt 0.700000 -0.000000
vt 0.800000 -0.000000
vt 0.900000 -0.000000
vt 1.000000 -0.000000
vt 0.300000 0.896032
vt 0.400000 0.896032
vt 0.500000 0.896032
vt 0.600000 0.896032
vt 0.700000 0.896032
vt 0.800000 0.896032
vt 0.900000 0.896032
vt 0.000000 0.896032
vt 1.000000 0.896032
vt 0.100000 0.896032
vt 0.200000 0.896032
vt 0.000000 0.359820
vt 0.001377 0.357383
vt 1.000000 0.299612
vt 0.000000 0.500000
vt 0.100000 0.360530
vt 0.200000 0.361134
vt 0.300000 0.361844
vt 0.400110 0.362574
vt 0.500078 0.363199
vt 0.600030 0.363571
vt 0.700000 0.363714
vt 0.800000 0.363436
vt 0.900000 0.362533
vt 0.999816 0.360093
vt 0.000034 0.299649
vt 0.100000 0.166667
vt 0.099972 0.298084
vt 0.200000 0.166667
vt 0.199956 0.296412
vt 0.300000 0.166667
vt 0.300000 0.294655
vt 0.400000 0.166667
vt 0.400000 0.293188
vt 0.500000 0.166667
vt 0.500000 0.292163
vt 0.600000 0.166667
vt 0.600000 0.291649
vt 0.700000 0.166667
vt 0.700000 0.291673
vt 0.800000 0.166667
vt 0.800000 0.292276
vt 0.900000 0.166667
vt 0.900000 0.293296
vt 1.000000 0.166667
vt 0.000000 0.708742
vt 1.000000 0.698972
vt 0.000000 0.833333
vt 0.100165 0.705438
vt 0.100000 0.833332
vt 0.200132 0.702915
vt 0.200000 0.833333
vt 0.300000 0.701070
vt 0.300000 0.833333
vt 0.400000 0.699555
vt 0.400000 0.833333
vt 0.500000 0.698671
vt 0.500000 0.833333
vt 0.600000 0.698325
vt 0.600000 0.833333
vt 0.699981 0.698467
vt 0.700000 0.833333
vt 0.800000 0.699082
vt 0.800000 0.833333
vt 0.900000 0.700203
vt 0.900000 0.833333
vt 0.999805 0.708094
vt 0.000119 0.649103
vt 0.100000 0.500000
vt 0.100000 0.649482
vt 0.200000 0.500000
vt 0.200000 0.649776
vt 0.300000 0.500000
vt 0.300000 0.650208
vt 0.400000 0.500000
vt 0.399948 0.650448
vt 0.500000 0.500000
vt 0.499970 0.650792
vt 0.600000 0.500000
vt 0.599991 0.651038
vt 0.700000 0.500000
vt 0.700000 0.651120
vt 0.800000 0.500000
vt 0.800000 0.651008
vt 0.900000 0.500000
vt 1.000000 0.649225
vt 0.900138 0.650769
vt 1.000000 0.500000
vn -0.581109 -0.185141 0.792487
vn -0.581109 -0.185141 0.792487
vn -0.212708 0.925459 0.313498
vn -0.211693 0.926156 0.312122
vn -0.004745 -0.193634 0.981062
vn -0.004745 -0.193634 0.981062
vn 0.008854 0.929045 0.369860
vn 0.008911 0.932333 0.361490
vn 0.576164 -0.178836 0.797529
vn 0.576164 -0.178836 0.797529
vn 0.209263 0.934830 0.286883
vn 0.202074 0.939403 0.276925
vn 0.941437 -0.142647 0.305528
vn 0.941437 -0.142647 0.305528
vn 0.315024 0.942428 0.112206
vn 0.303296 0.946707 0.108426
vn 0.945992 -0.097302 -0.309242
vn 0.945992 -0.097302 -0.309242
vn 0.299878 0.950697 -0.079044
vn 0.291886 0.953397 -0.076395
vn 0.585571 -0.063936 -0.808096
vn 0.585571 -0.063936 -0.808096
vn 0.184214 0.958145 -0.219143
vn 0.183318 0.958601 -0.217894
vn -0.000465 -0.062075 -0.998071
vn -0.000465 -0.062075 -0.998071
vn 0.015711 0.963255 -0.268130
vn 0.015686 0.961478 -0.274433
vn -0.585364 -0.095934 -0.805075
vn -0.585364 -0.095934 -0.805075
vn -0.150837 0.964680 -0.215963
vn -0.158028 0.961263 -0.225833
vn -0.940433 -0.148871 -0.305652
vn -0.940433 -0.148871 -0.305652
vn -0.264063 0.961435 -0.076900
vn -0.276700 0.957534 -0.081024
vn -0.935688 -0.177786 0.304762
vn -0.935688 -0.177786 0.304762
vn -0.305773 0.942066 0.137892
vn -0.311393 0.939959 0.139683
vn -0.103604 -0.988183 0.112958
vn -0.103604 -0.988183 0.112958
vn -0.103604 -0.988183 0.112958
vn -0.103604 -0.988183 0.112958
vn -0.014367 -0.985527 0.168907
vn -0.014367 -0.985527 0.168907
vn -0.014367 -0.985527 0.168907
vn -0.014367 -0.985527 0.168907
vn 0.108113 -0.981535 0.157797
vn 0.108113 -0.981535 0.157797
vn 0.108113 -0.981535 0.157797
vn 0.108113 -0.981535 0.157797
vn 0.210332 -0.975679 0.061740
vn 0.210332 -0.975679 0.061740
vn 0.210332 -0.975678 0.061740
vn 0.210332 -0.975678 0.061740
vn 0.231911 -0.968398 -0.091778
vn 0.231911 -0.968398 -0.091778
vn 0.231911 -0.968398 -0.091778
vn 0.231911 -0.968398 -0.091778
vn 0.145813 -0.961472 -0.233044
vn 0.145813 -0.961472 -0.233044
vn 0.145813 -0.961472 -0.233045
vn 0.145813 -0.961472 -0.233045
vn -0.015314 -0.957261 -0.288821
vn -0.015314 -0.957261 -0.288821
vn -0.015314 -0.957261 -0.288821
vn -0.015314 -0.957261 -0.288821
vn -0.174678 -0.957344 -0.230173
vn -0.174678 -0.957344 -0.230173
vn -0.174678 -0.957344 -0.230173
vn -0.174678 -0.957344 -0.230173
vn -0.258625 -0.961781 -0.089943
vn -0.258625 -0.961781 -0.089943
vn -0.258625 -0.961781 -0.089943
vn -0.258625 -0.961781 -0.089943
vn -0.201153 -0.978581 0.043775
vn -0.201153 -0.978581 0.043775
vn -0.201153 -0.978581 0.043775
vn -0.201153 -0.978581 0.043775
vn 0.190338 0.979081 0.071920
vn 0.190338 0.979081 0.071920
vn 0.183539 0.982172 -0.040635
vn 0.183539 0.982172 -0.040635
vn 0.116804 0.985205 -0.125410
vn 0.116804 0.985205 -0.125410
vn 0.016043 0.987479 -0.156930
vn 0.016043 0.987479 -0.156930
vn -0.085400 0.988338 -0.126075
vn -0.085400 0.988338 -0.126075
vn -0.153434 0.987313 -0.040870
vn -0.153434 0.987313 -0.040870
vn -0.175131 0.979869 0.095838
vn -0.175131 0.979869 0.095838
vn -0.122291 0.974010 0.190657
vn -0.122291 0.974010 0.190657
vn 0.009744 0.974859 0.222610
vn 0.009744 0.974859 0.222610
vn 0.127466 0.976530 0.173612
vn 0.127466 0.976530 0.173612
vn -0.056671 -0.997887 0.031790
vn -0.056634 -0.997887 0.031853
vn -0.039566 -0.998333 0.042024
vn -0.039412 -0.998335 0.042108
vn -0.057670 -0.998329 0.003638
vn -0.057644 -0.998321 0.005769
vn -0.004349 -0.998877 0.047178
vn -0.003661 -0.998887 0.047033
vn 0.025627 -0.999277 0.028089
vn 0.026229 -0.999284 0.027263
vn 0.035426 -0.999361 -0.004735
vn 0.035348 -0.999359 -0.005702
vn 0.023359 -0.999138 -0.034310
vn 0.022942 -0.999132 -0.034773
vn -0.001646 -0.998768 -0.049599
vn -0.001808 -0.998766 -0.049637
vn -0.028978 -0.998439 -0.047753
vn -0.028719 -0.998441 -0.047856
vn -0.049992 -0.998263 -0.031175
vn -0.049628 -0.998265 -0.031692
vn 0.587800 0.023271 -0.808671
vn 0.587800 0.023271 -0.808671
vn 0.587800 0.023271 -0.808671
vn 0.587800 0.023271 -0.808671
vn 0.000691 0.018150 -0.999835
vn 0.000691 0.018150 -0.999835
vn 0.000691 0.018150 -0.999835
vn 0.000691 0.018150 -0.999835
vn -0.587306 0.020135 -0.809114
vn -0.587306 0.020135 -0.809114
vn -0.587306 0.020135 -0.809114
vn -0.587306 0.020135 -0.809114
vn -0.950813 0.029024 -0.308402
vn -0.950813 0.029024 -0.308402
vn -0.950813 0.029024 -0.308402
vn -0.950813 0.029024 -0.308402
vn -0.949851 0.041441 0.309945
vn -0.949851 0.041441 0.309945
vn -0.949851 0.041441 0.309945
vn -0.949851 0.041441 0.309945
vn -0.586097 0.052803 0.808518
vn -0.586097 0.052803 0.808518
vn -0.586097 0.052803 0.808518
vn -0.586097 0.052803 0.808518
vn 0.000333 0.059527 0.998227
vn 0.000333 0.059527 0.998227
vn 0.000333 0.059527 0.998227
vn 0.000333 0.059527 0.998227
vn 0.586684 0.059829 0.807603
vn 0.586684 0.059829 0.807603
vn 0.586684 0.059829 0.807603
vn 0.586684 0.059829 0.807603
vn 0.949694 0.053689 0.308543
vn 0.949694 0.053689 0.308543
vn 0.949694 0.053689 0.308543
vn 0.949694 0.053689 0.308543
vn 0.950372 0.038114 -0.308772
vn 0.950372 0.038114 -0.308772
vn 0.950372 0.038114 -0.308772
vn 0.950372 0.038114 -0.308772
vn -0.585438 0.065949 0.808030
vn -0.585438 0.065949 0.808030
vn -0.585438 0.065949 0.808030
vn -0.585438 0.065949 0.808030
vn 0.000712 0.080939 0.996719
vn 0.000712 0.080939 0.996719
vn 0.000712 0.080939 0.996719
vn 0.000712 0.080939 0.996719
vn 0.586319 0.072340 0.806843
vn 0.586319 0.072340 0.806843
vn 0.586319 0.072340 0.806843
vn 0.586319 0.072340 0.806844
vn 0.950206 0.043402 0.308586
vn 0.950206 0.043402 0.308586
vn 0.950206 0.043402 0.308586
vn 0.950206 0.043402 0.308586
vn 0.950860 0.006160 -0.309559
vn 0.950860 0.006160 -0.309559
vn 0.950860 0.006160 -0.309559
vn 0.950860 0.006160 -0.309559
vn 0.587178 -0.023379 -0.809120
vn 0.587178 -0.023379 -0.809120
vn 0.587178 -0.023379 -0.809120
vn 0.587178 -0.023379 -0.809120
vn 0.000008 -0.032899 -0.999459
vn 0.000008 -0.032899 -0.999459
vn 0.000008 -0.032899 -0.999459
vn 0.000008 -0.032899 -0.999459
vn -0.587495 -0.019162 -0.809001
vn -0.587495 -0.019162 -0.809001
vn -0.587495 -0.019162 -0.809001
vn -0.587495 -0.019162 -0.809001
vn -0.951147 0.011541 -0.308523
vn -0.951147 0.011541 -0.308523
vn -0.951147 0.011541 -0.308523
vn -0.951147 0.011541 -0.308523
vn -0.949759 0.040894 0.310300
vn -0.949759 0.040894 0.310300
vn -0.949759 0.040894 0.310300
vn -0.949759 0.040894 0.310300
vn -0.033448 0.999000 0.029664
vn -0.028747 0.999025 0.033510
vn 0.007483 0.998616 0.052069
vn 0.008547 0.998607 0.052062
vn -0.068924 0.997587 -0.008352
vn -0.066718 0.997762 -0.004462
vn 0.030552 0.998610 0.042947
vn 0.031390 0.998625 0.041983
vn 0.043043 0.998775 0.024424
vn 0.043454 0.998781 0.023427
vn 0.052635 0.998603 0.004602
vn 0.053344 0.998571 0.003313
vn 0.059051 0.997861 -0.028055
vn 0.059011 0.997806 -0.029999
vn 0.038051 0.996811 -0.070146
vn 0.037227 0.996789 -0.070892
vn -0.016003 0.996271 -0.084778
vn -0.015207 0.996273 -0.084907
vn -0.063302 0.996747 -0.049883
vn -0.062021 0.996708 -0.052212
vn -0.507997 0.481039 0.714521
vn -0.507997 0.481039 0.714521
vn -0.507997 0.481039 0.714521
vn -0.507997 0.481039 0.714521
vn 0.006691 0.464935 0.885319
vn 0.006691 0.464935 0.885319
vn 0.006691 0.464935 0.885319
vn 0.006691 0.464935 0.885319
vn 0.529132 0.442252 0.724176
vn 0.529132 0.442252 0.724176
vn 0.529133 0.442252 0.724176
vn 0.529132 0.442252 0.724176
vn 0.865199 0.413793 0.283206
vn 0.865199 0.413793 0.283206
vn 0.865199 0.413793 0.283206
vn 0.865199 0.413793 0.283206
vn 0.880173 0.382977 -0.280398
vn 0.880173 0.382977 -0.280398
vn 0.880173 0.382977 -0.280398
vn 0.880173 0.382977 -0.280398
vn 0.554747 0.356348 -0.751846
vn 0.554747 0.356348 -0.751846
vn 0.554747 0.356347 -0.751846
vn 0.554747 0.356348 -0.751846
vn 0.006058 0.341949 -0.939699
vn 0.006058 0.341949 -0.939699
vn 0.006058 0.341949 -0.939699
vn 0.006058 0.341949 -0.939699
vn -0.549431 0.345587 -0.760720
vn -0.549431 0.345587 -0.760720
vn -0.549431 0.345587 -0.760720
vn -0.549431 0.345587 -0.760720
vn -0.885376 0.367176 -0.285115
vn -0.885376 0.367176 -0.285115
vn -0.885376 0.367176 -0.285115
vn -0.885376 0.367176 -0.285115
vn -0.854885 0.432412 0.286690
vn -0.854885 0.432412 0.286690
vn -0.854885 0.432412 0.286690
vn -0.854885 0.432412 0.286690
vn 0.587816 0.010048 -0.808932
vn 0.587816 0.010048 -0.808932
vn 0.587816 0.010048 -0.808932
vn 0.587816 0.010048 -0.808932
vn 0.000680 0.001536 -0.999999
vn 0.000680 0.001536 -0.999999
vn 0.000680 0.001536 -0.999999
vn 0.000680 0.001536 -0.999999
vn -0.587423 -0.003329 -0.809273
vn -0.587423 -0.003329 -0.809273
vn -0.587423 -0.003329 -0.809273
vn -0.587423 -0.003329 -0.809273
vn -0.951156 -0.001633 -0.308708
vn -0.951156 -0.001633 -0.308708
vn -0.951156 -0.001633 -0.308708
vn -0.951156 -0.001633 -0.308708
vn -0.950782 0.006747 0.309788
vn -0.950782 0.006747 0.309788
vn -0.950782 0.006747 0.309788
vn -0.950782 0.006747 0.309788
vn -0.587251 0.018853 0.809185
vn -0.587251 0.018853 0.809185
vn -0.587251 0.018853 0.809185
vn -0.587251 0.018853 0.809185
vn -0.000008 0.029828 0.999555
vn -0.000008 0.029828 0.999555
vn -0.000008 0.029828 0.999555
vn -0.000008 0.029828 0.999555
vn 0.587329 0.035155 0.808584
vn 0.587329 0.035155 0.808584
vn 0.587329 0.035155 0.808584
vn 0.587329 0.035155 0.808584
vn 0.950626 0.032742 0.308607
vn 0.950626 0.032742 0.308607
vn 0.950626 0.032742 0.308607
vn 0.950626 0.032742 0.308607
vn 0.950735 0.021895 -0.309230
vn 0.950735 0.021895 -0.309230
vn 0.950735 0.021895 -0.309230
vn 0.950735 0.021895 -0.309230
s 1
g pTorus1
usemtl initialShadingGroup
f 2/2/1 1/1/2 48/32/3 49/34/4
s 2
f 3/3/5 2/2/6 49/34/7 50/35/8
s 3
f 4/4/9 3/3/10 50/35/11 41/25/12
s 4
f 5/5/13 4/4/14 41/25/15 42/26/16
s 5
f 6/6/17 5/5/18 42/26/19 43/27/20
s 6
f 7/7/21 6/6/22 43/27/23 44/28/24
s 7
f 8/8/25 7/7/26 44/28/27 45/29/28
s 8
f 9/9/29 8/8/30 45/29/31 46/30/32
s 9
f 10/10/33 9/9/34 46/30/35 47/31/36
s 10
f 1/11/37 10/10/38 47/31/39 48/33/40
s off
f 32/51/41 31/13/42 1/14/43 2/15/44
f 33/53/45 32/51/46 2/15/47 3/16/48
f 34/55/49 33/53/50 3/16/51 4/17/52
f 35/57/53 34/55/54 4/17/55 5/18/56
f 36/59/57 35/57/58 5/18/59 6/19/60
f 37/61/61 36/59/62 6/19/63 7/20/64
f 38/63/65 37/61/66 7/20/67 8/21/68
f 39/65/69 38/63/70 8/21/71 9/22/72
f 40/67/73 39/65/74 9/22/75 10/23/76
f 31/69/77 40/67/78 10/23/79 1/24/80
s 4
f 42/26/16 41/25/15 14/78/81 15/80/82
s 5
f 43/27/20 42/26/19 15/80/83 16/82/84
s 6
f 44/28/24 43/27/23 16/82/85 17/84/86
s 7
f 45/29/28 44/28/27 17/84/87 18/86/88
s 8
f 46/30/32 45/29/31 18/86/89 19/88/90
s 9
f 47/31/36 46/30/35 19/88/91 20/90/92
s 10
f 48/33/40 47/31/39 20/90/93 11/12/94
s 1
f 49/34/4 48/32/3 11/72/95 12/74/96
s 2
f 50/35/8 49/34/7 12/74/97 13/76/98
s 3
f 41/25/12 50/35/11 13/76/99 14/78/100
s 11
f 51/36/101 52/37/102 54/52/103 53/40/104
f 52/38/102 51/49/101 69/48/105 70/68/106
f 53/40/104 54/52/103 56/54/107 55/41/108
f 55/41/108 56/54/107 58/56/109 57/42/110
f 57/42/110 58/56/109 60/58/111 59/43/112
f 59/43/112 60/58/111 62/60/113 61/44/114
f 61/44/114 62/60/113 64/62/115 63/45/116
f 63/45/116 64/62/115 66/64/117 65/46/118
f 65/46/118 66/64/117 68/66/119 67/47/120
f 67/47/120 68/66/119 70/68/106 69/48/105
s off
f 22/93/121 21/39/122 51/36/123 53/40/124
f 23/95/125 22/93/126 53/40/127 55/41/128
f 24/97/129 23/95/130 55/41/131 57/42/132
f 25/99/133 24/97/134 57/42/135 59/43/136
f 26/101/137 25/99/138 59/43/139 61/44/140
f 27/103/141 26/101/142 61/44/143 63/45/144
f 28/105/145 27/103/146 63/45/147 65/46/148
f 29/107/149 28/105/150 65/46/151 67/47/152
f 30/109/153 29/107/154 67/47/155 69/48/156
f 21/112/157 30/109/158 69/48/159 51/49/160
f 54/52/161 52/50/162 31/13/163 32/51/164
f 56/54/165 54/52/166 32/51/167 33/53/168
f 58/56/169 56/54/170 33/53/171 34/55/172
f 60/58/173 58/56/174 34/55/175 35/57/176
f 62/60/177 60/58/178 35/57/179 36/59/180
f 64/62/181 62/60/182 36/59/183 37/61/184
f 66/64/185 64/62/186 37/61/187 38/63/188
f 68/66/189 66/64/190 38/63/191 39/65/192
f 70/68/193 68/66/194 39/65/195 40/67/196
f 52/38/197 70/68/198 40/67/199 31/69/200
s 12
f 71/70/201 72/92/202 74/94/203 73/73/204
f 72/71/202 71/91/201 89/89/205 90/111/206
f 73/73/204 74/94/203 76/96/207 75/75/208
f 75/75/208 76/96/207 78/98/209 77/77/210
f 77/77/210 78/98/209 80/100/211 79/79/212
f 79/79/212 80/100/211 82/102/213 81/81/214
f 81/81/214 82/102/213 84/104/215 83/83/216
f 83/83/216 84/104/215 86/106/217 85/85/218
f 85/85/218 86/106/217 88/108/219 87/87/220
f 87/87/220 88/108/219 90/111/206 89/89/205
s off
f 12/74/221 11/72/222 71/70/223 73/73/224
f 13/76/225 12/74/226 73/73/227 75/75/228
f 14/78/229 13/76/230 75/75/231 77/77/232
f 15/80/233 14/78/234 77/77/235 79/79/236
f 16/82/237 15/80/238 79/79/239 81/81/240
f 17/84/241 16/82/242 81/81/243 83/83/244
f 18/86/245 17/84/246 83/83/247 85/85/248
f 19/88/249 18/86/250 85/85/251 87/87/252
f 20/90/253 19/88/254 87/87/255 89/89/256
f 11/12/257 20/90/258 89/89/259 71/91/260
f 74/94/261 72/92/262 21/39/263 22/93/264
f 76/96/265 74/94/266 22/93/267 23/95/268
f 78/98/269 76/96/270 23/95/271 24/97/272
f 80/100/273 78/98/274 24/97/275 25/99/276
f 82/102/277 80/100/278 25/99/279 26/101/280
f 84/104/281 82/102/282 26/101/283 27/103/284
f 86/106/285 84/104/286 27/103/287 28/105/288
f 88/108/289 86/106/290 28/105/291 29/107/292
f 90/111/293 88/108/294 29/107/295 30/109/296
f 72/110/297 90/111/298 30/109/299 21/112/300
