# This file uses centimeters as units for non-parametric coordinates.

mtllib New_Outer_Pipe.mtl
g default
v 2.673015 -0.000000 -25.000000
v 2.542189 0.826007 -25.000000
v 2.162515 1.571159 -25.000000
v 1.571159 2.162515 -25.000000
v 0.826007 2.542189 -25.000000
v -0.000000 2.673016 -25.000000
v -0.826007 2.542189 -25.000000
v -1.571159 2.162515 -25.000000
v -2.162516 1.571159 -25.000000
v -2.542190 0.826007 -25.000000
v -2.673017 -0.000000 -25.000000
v -2.542190 -0.826008 -25.000000
v -2.162516 -1.571160 -25.000000
v -1.571160 -2.162516 -25.000000
v -0.826007 -2.542190 -25.000000
v 0.000000 -2.673017 -25.000000
v 0.826008 -2.542190 -25.000000
v 1.571160 -2.162516 -25.000000
v 2.162516 -1.571160 -25.000000
v 2.542190 -0.826007 -25.000000
v 6.532395 0.000001 25.000000
v 6.212676 2.018622 25.000000
v 5.284818 3.839645 25.000000
v 3.839645 5.284818 25.000000
v 2.018622 6.212680 25.000000
v 0.000001 6.532396 25.000000
v -2.018620 6.212680 25.000000
v -3.839645 5.284818 25.000000
v -5.284818 3.839645 25.000000
v -6.212676 2.018622 25.000000
v -6.532396 0.000001 25.000000
v -6.212677 -2.018620 25.000000
v -5.284819 -3.839645 25.000000
v -3.839646 -5.284818 25.000000
v -2.018620 -6.212677 25.000000
v 0.000001 -6.532396 25.000000
v 2.018623 -6.212677 25.000000
v 3.839646 -5.284818 25.000000
v 5.284819 -3.839645 25.000000
v 6.212681 -2.018620 25.000000
v 7.918056 0.000001 25.000000
v 7.530517 2.446815 25.000000
v 6.405841 4.654118 25.000000
v 4.654117 6.405841 25.000000
v 2.446813 7.530517 25.000000
v 0.000000 7.918056 25.000000
v -2.446813 7.530518 25.000000
v -4.654117 6.405841 25.000000
v -6.405842 4.654118 25.000000
v -7.530518 2.446815 25.000000
v -7.918057 0.000001 25.000000
v -7.530518 -2.446813 25.000000
v -6.405842 -4.654118 25.000000
v -4.654118 -6.405842 25.000000
v -2.446813 -7.530519 25.000000
v 0.000000 -7.918058 25.000000
v 2.446815 -7.530519 25.000000
v 4.654119 -6.405843 25.000000
v 6.405846 -4.654119 25.000000
v 7.530521 -2.446813 25.000000
v 3.240019 -0.000000 -25.000000
v 3.081441 1.001221 -25.000000
v 2.621230 1.904435 -25.000000
v 1.904435 2.621231 -25.000000
v 1.001221 3.081441 -25.000000
v -0.000000 3.240019 -25.000000
v -1.001221 3.081441 -25.000000
v -1.904436 2.621231 -25.000000
v -2.621231 1.904436 -25.000000
v -3.081442 1.001221 -25.000000
v -3.240020 -0.000000 -25.000000
v -3.081442 -1.001221 -25.000000
v -2.621231 -1.904436 -25.000000
v -1.904436 -2.621232 -25.000000
v -1.001221 -3.081443 -25.000000
v -0.000000 -3.240021 -25.000000
v 1.001221 -3.081443 -25.000000
v 1.904436 -2.621232 -25.000000
v 2.621232 -1.904437 -25.000000
v 3.081443 -1.001222 -25.000000
vt 0.045878 0.001992
vt 0.054079 0.001992
vt 0.054079 0.498385
vt 0.034038 0.498385
vt 0.062279 0.001992
vt 0.074119 0.498385
vt 0.038481 0.001992
vt 0.015959 0.498385
vt 0.069677 0.001992
vt 0.092198 0.498385
vt 0.032610 0.001992
vt 0.001612 0.498385
vt 0.075548 0.001992
vt 0.106546 0.498385
vt 0.172829 0.001992
vt 0.180227 0.001992
vt 0.202748 0.498385
vt 0.184669 0.498385
vt 0.164628 0.001992
vt 0.164628 0.498385
vt 0.156428 0.001992
vt 0.144588 0.498385
vt 0.149030 0.001992
vt 0.126509 0.498385
vt 0.143159 0.001992
vt 0.112162 0.498385
vt 0.269028 0.001992
vt 0.276425 0.001992
vt 0.298947 0.498385
vt 0.280868 0.498385
vt 0.260827 0.001992
vt 0.260827 0.498385
vt 0.252627 0.001992
vt 0.240787 0.498385
vt 0.245229 0.001992
vt 0.222708 0.498385
vt 0.239358 0.001992
vt 0.208360 0.498385
vt 0.334478 0.498385
vt 0.327080 0.498385
vt 0.304559 0.001992
vt 0.322638 0.001992
vt 0.342678 0.498385
vt 0.342678 0.001992
vt 0.350879 0.498385
vt 0.362719 0.001992
vt 0.358277 0.498385
vt 0.380798 0.001992
vt 0.693249 0.600265
vt 0.696423 0.580224
vt 0.710180 0.580224
vt 0.706332 0.604516
vt 0.693249 0.560184
vt 0.706332 0.555933
vt 0.684037 0.618344
vt 0.695167 0.626430
vt 0.684037 0.542105
vt 0.695167 0.534019
vt 0.669690 0.632691
vt 0.677776 0.643821
vt 0.669690 0.527757
vt 0.677776 0.516628
vt 0.651611 0.641903
vt 0.655862 0.654986
vt 0.651611 0.518546
vt 0.655862 0.505462
vt 0.631570 0.645077
vt 0.631570 0.658834
vt 0.631570 0.515372
vt 0.631570 0.501615
vt 0.611530 0.641903
vt 0.607279 0.654986
vt 0.611530 0.518546
vt 0.607279 0.505462
vt 0.593451 0.632691
vt 0.585365 0.643821
vt 0.593451 0.527757
vt 0.585365 0.516628
vt 0.579103 0.618344
vt 0.567974 0.626430
vt 0.579103 0.542105
vt 0.567974 0.534019
vt 0.569892 0.600265
vt 0.556808 0.604516
vt 0.569892 0.560184
vt 0.556808 0.555933
vt 0.566718 0.580224
vt 0.552961 0.580224
vt 0.474452 0.498385
vt 0.450161 0.498385
vt 0.450161 0.001992
vt 0.460101 0.001992
vt 0.425869 0.498385
vt 0.440221 0.001992
vt 0.496366 0.498385
vt 0.469068 0.001992
vt 0.403955 0.498385
vt 0.431254 0.001992
vt 0.513757 0.498385
vt 0.476184 0.001992
vt 0.386564 0.498385
vt 0.424137 0.001992
vt 0.606923 0.001992
vt 0.628836 0.001992
vt 0.601538 0.498385
vt 0.592571 0.498385
vt 0.582631 0.001992
vt 0.582631 0.498385
vt 0.558339 0.001992
vt 0.572691 0.498385
vt 0.536425 0.001992
vt 0.563724 0.498385
vt 0.519035 0.001992
vt 0.556608 0.498385
vt 0.656071 0.498385
vt 0.634158 0.498385
vt 0.661456 0.001992
vt 0.670423 0.001992
vt 0.680363 0.498385
vt 0.680363 0.001992
vt 0.704655 0.498385
vt 0.690303 0.001992
vt 0.726569 0.498385
vt 0.699270 0.001992
vt 0.743959 0.498385
vt 0.706386 0.001992
vt 0.737058 0.998008
vt 0.715144 0.998008
vt 0.742442 0.501615
vt 0.751409 0.501615
vt 0.761349 0.998008
vt 0.761349 0.501615
vt 0.785641 0.998008
vt 0.771289 0.501615
vt 0.807555 0.998008
vt 0.780256 0.501615
vt 0.546422 0.523841
vt 0.547996 0.533781
vt 0.542367 0.533781
vt 0.541068 0.525581
vt 0.546422 0.543721
vt 0.541068 0.541982
vt 0.541853 0.514874
vt 0.537299 0.518183
vt 0.541853 0.552688
vt 0.537299 0.549380
vt 0.534737 0.507758
vt 0.531428 0.512312
vt 0.534737 0.559805
vt 0.531428 0.555251
vt 0.525770 0.503189
vt 0.524030 0.508543
vt 0.525770 0.564373
vt 0.524030 0.559020
vt 0.515830 0.501615
vt 0.515830 0.507244
vt 0.515830 0.565948
vt 0.515830 0.560319
vt 0.505890 0.503189
vt 0.507629 0.508543
vt 0.505890 0.564373
vt 0.507629 0.559020
vt 0.496923 0.507758
vt 0.500232 0.512312
vt 0.496923 0.559805
vt 0.500232 0.555251
vt 0.489807 0.514874
vt 0.494361 0.518183
vt 0.489807 0.552688
vt 0.494361 0.549380
vt 0.485238 0.523841
vt 0.490591 0.525581
vt 0.485238 0.543721
vt 0.490591 0.541982
vt 0.483663 0.533781
vt 0.489293 0.533781
vn -0.948236 -0.308101 0.076959
vn -0.997034 -0.000001 0.076959
vn -0.997034 -0.000001 0.076959
vn -0.948236 -0.308101 0.076959
vn -0.806618 -0.586042 0.076959
vn -0.806618 -0.586042 0.076959
vn -0.586043 -0.806617 0.076959
vn -0.586043 -0.806617 0.076959
vn -0.308101 -0.948236 0.076959
vn -0.308101 -0.948236 0.076959
vn -0.000000 -0.997034 0.076959
vn -0.000000 -0.997034 0.076959
vn 0.308101 -0.948236 0.076959
vn 0.308101 -0.948236 0.076959
vn 0.586043 -0.806617 0.076959
vn 0.586043 -0.806617 0.076959
vn 0.806618 -0.586042 0.076959
vn 0.806618 -0.586042 0.076959
vn 0.948236 -0.308101 0.076959
vn 0.948236 -0.308101 0.076959
vn 0.997034 -0.000000 0.076959
vn 0.997034 -0.000000 0.076959
vn 0.948236 0.308101 0.076959
vn 0.948236 0.308101 0.076959
vn 0.806618 0.586042 0.076959
vn 0.806618 0.586042 0.076959
vn 0.586042 0.806618 0.076959
vn 0.586042 0.806618 0.076959
vn 0.308101 0.948236 0.076959
vn 0.308101 0.948236 0.076959
vn 0.000000 0.997034 0.076959
vn 0.000000 0.997034 0.076959
vn -0.308101 0.948236 0.076959
vn -0.308101 0.948236 0.076959
vn -0.586042 0.806617 0.076959
vn -0.586042 0.806617 0.076959
vn -0.806617 0.586042 0.076959
vn -0.806617 0.586042 0.076959
vn -0.948236 0.308100 0.076959
vn -0.948236 0.308100 0.076959
vn 0.000000 0.000000 1.000000
vn 0.000000 0.000001 1.000000
vn 0.000000 0.000001 1.000000
vn 0.000000 0.000000 1.000000
vn 0.000000 -0.000001 1.000000
vn 0.000000 -0.000001 1.000000
vn 0.000000 -0.000000 1.000000
vn 0.000000 -0.000000 1.000000
vn 0.000000 0.000001 1.000000
vn 0.000000 0.000001 1.000000
vn 0.000000 -0.000000 1.000000
vn 0.000000 -0.000000 1.000000
vn 0.000000 -0.000001 1.000000
vn 0.000000 -0.000001 1.000000
vn 0.000000 0.000000 1.000000
vn 0.000000 0.000000 1.000000
vn 0.000000 0.000000 1.000000
vn 0.000000 0.000000 1.000000
vn 0.000000 0.000001 1.000000
vn 0.000000 0.000001 1.000000
vn 0.000000 0.000000 1.000000
vn 0.000000 0.000000 1.000000
vn 0.000000 -0.000000 1.000000
vn 0.000000 -0.000000 1.000000
vn 0.000000 0.000000 1.000000
vn 0.000000 -0.000000 1.000000
vn 0.000000 -0.000000 1.000000
vn 0.000000 -0.000000 1.000000
vn 0.000000 0.000001 1.000000
vn 0.000000 0.000001 1.000000
vn 0.000000 0.000001 1.000000
vn 0.000000 0.000001 1.000000
vn 0.000000 0.000000 1.000000
vn 0.000000 0.000000 1.000000
vn 0.000000 0.000000 1.000000
vn 0.000000 0.000000 1.000000
vn 0.000000 0.000000 1.000000
vn 0.000000 0.000000 1.000000
vn 0.000000 0.000000 1.000000
vn 0.000000 0.000000 1.000000
vn 0.946921 0.307673 -0.093154
vn 0.995652 0.000001 -0.093154
vn 0.995652 0.000001 -0.093154
vn 0.946921 0.307673 -0.093154
vn 0.805499 0.585229 -0.093154
vn 0.805499 0.585229 -0.093154
vn 0.585229 0.805499 -0.093154
vn 0.585229 0.805499 -0.093154
vn 0.307673 0.946921 -0.093154
vn 0.307673 0.946921 -0.093154
vn 0.000000 0.995652 -0.093154
vn 0.000000 0.995652 -0.093154
vn -0.307673 0.946921 -0.093154
vn -0.307673 0.946921 -0.093154
vn -0.585229 0.805499 -0.093154
vn -0.585229 0.805499 -0.093154
vn -0.805499 0.585229 -0.093154
vn -0.805499 0.585229 -0.093154
vn -0.946921 0.307673 -0.093154
vn -0.946921 0.307673 -0.093154
vn -0.995652 -0.000000 -0.093154
vn -0.995652 -0.000000 -0.093154
vn -0.946921 -0.307673 -0.093154
vn -0.946921 -0.307673 -0.093154
vn -0.805499 -0.585229 -0.093154
vn -0.805499 -0.585229 -0.093154
vn -0.585229 -0.805499 -0.093154
vn -0.585229 -0.805499 -0.093154
vn -0.307674 -0.946921 -0.093154
vn -0.307674 -0.946921 -0.093154
vn 0.000000 -0.995652 -0.093154
vn 0.000000 -0.995652 -0.093154
vn 0.307673 -0.946921 -0.093154
vn 0.307673 -0.946921 -0.093154
vn 0.585229 -0.805499 -0.093154
vn 0.585229 -0.805499 -0.093154
vn 0.805499 -0.585229 -0.093154
vn 0.805499 -0.585229 -0.093154
vn 0.946921 -0.307672 -0.093154
vn 0.946921 -0.307672 -0.093154
vn 0.000000 -0.000001 -1.000000
vn 0.000000 -0.000000 -1.000000
vn 0.000000 -0.000000 -1.000000
vn 0.000000 -0.000001 -1.000000
vn 0.000000 0.000000 -1.000000
vn 0.000000 -0.000000 -1.000000
vn 0.000000 0.000001 -1.000000
vn 0.000000 0.000001 -1.000000
vn 0.000000 -0.000000 -1.000000
vn 0.000000 -0.000000 -1.000000
vn 0.000000 0.000002 -1.000000
vn 0.000000 0.000002 -1.000000
vn 0.000000 0.000002 -1.000000
vn 0.000000 0.000002 -1.000000
vn 0.000000 0.000001 -1.000000
vn 0.000000 0.000001 -1.000000
vn 0.000000 0.000001 -1.000000
vn 0.000000 0.000001 -1.000000
vn 0.000000 -0.000000 -1.000000
vn 0.000000 -0.000000 -1.000000
vn 0.000000 -0.000000 -1.000000
vn 0.000000 -0.000000 -1.000000
vn 0.000000 -0.000000 -1.000000
vn 0.000000 -0.000000 -1.000000
vn 0.000000 -0.000000 -1.000000
vn 0.000000 -0.000000 -1.000000
vn 0.000000 0.000001 -1.000000
vn 0.000000 0.000001 -1.000000
vn 0.000000 0.000001 -1.000000
vn 0.000000 0.000001 -1.000000
vn 0.000000 -0.000000 -1.000000
vn 0.000000 -0.000000 -1.000000
vn 0.000000 -0.000000 -1.000000
vn 0.000000 -0.000000 -1.000000
vn 0.000000 -0.000001 -1.000000
vn 0.000000 -0.000001 -1.000000
vn 0.000000 -0.000000 -1.000000
vn 0.000000 0.000000 -1.000000
vn 0.000000 0.000001 -1.000000
vn 0.000000 0.000001 -1.000000
s 1
g pPipe1
usemtl initialShadingGroup
f 2/1/1 1/2/2 21/3/3 22/4/4
f 3/7/5 2/1/1 22/4/4 23/8/6
f 4/11/7 3/7/5 23/8/6 24/12/8
f 5/15/9 4/16/7 24/17/8 25/18/10
f 6/19/11 5/15/9 25/18/10 26/20/12
f 7/21/13 6/19/11 26/20/12 27/22/14
f 8/23/15 7/21/13 27/22/14 28/24/16
f 9/25/17 8/23/15 28/24/16 29/26/18
f 10/27/19 9/28/17 29/29/18 30/30/20
f 11/31/21 10/27/19 30/30/20 31/32/22
f 12/33/23 11/31/21 31/32/22 32/34/24
f 13/35/25 12/33/23 32/34/24 33/36/26
f 14/37/27 13/35/25 33/36/26 34/38/28
f 15/39/29 14/40/27 34/41/28 35/42/30
f 16/43/31 15/39/29 35/42/30 36/44/32
f 17/45/33 16/43/31 36/44/32 37/46/34
f 18/47/35 17/45/33 37/46/34 38/48/36
f 19/9/37 18/13/35 38/14/36 39/10/38
f 20/5/39 19/9/37 39/10/38 40/6/40
f 1/2/2 20/5/39 40/6/40 21/3/3
s 2
f 22/49/41 21/50/42 41/51/43 42/52/44
f 23/55/45 22/49/41 42/52/44 43/56/46
f 24/59/47 23/55/45 43/56/46 44/60/48
f 25/63/49 24/59/47 44/60/48 45/64/50
f 26/67/51 25/63/49 45/64/50 46/68/52
f 27/71/53 26/67/51 46/68/52 47/72/54
f 28/75/55 27/71/53 47/72/54 48/76/56
f 29/79/57 28/75/55 48/76/56 49/80/58
f 30/83/59 29/79/57 49/80/58 50/84/60
f 31/87/61 30/83/59 50/84/60 51/88/62
f 32/85/63 31/87/61 51/88/62 52/86/64
f 33/81/65 32/85/63 52/86/64 53/82/66
f 34/77/67 33/81/65 53/82/66 54/78/68
f 35/73/69 34/77/67 54/78/68 55/74/70
f 36/69/71 35/73/69 55/74/70 56/70/72
f 37/65/73 36/69/71 56/70/72 57/66/74
f 38/61/75 37/65/73 57/66/74 58/62/76
f 39/57/77 38/61/75 58/62/76 59/58/78
f 40/53/79 39/57/77 59/58/78 60/54/80
f 21/50/42 40/53/79 60/54/80 41/51/43
s 3
f 42/89/81 41/90/82 61/91/83 62/92/84
f 43/95/85 42/89/81 62/92/84 63/96/86
f 44/99/87 43/95/85 63/96/86 64/100/88
f 45/103/89 44/104/87 64/105/88 65/106/90
f 46/107/91 45/103/89 65/106/90 66/108/92
f 47/109/93 46/107/91 66/108/92 67/110/94
f 48/111/95 47/109/93 67/110/94 68/112/96
f 49/113/97 48/111/95 68/112/96 69/114/98
f 50/115/99 49/116/97 69/117/98 70/118/100
f 51/119/101 50/115/99 70/118/100 71/120/102
f 52/121/103 51/119/101 71/120/102 72/122/104
f 53/123/105 52/121/103 72/122/104 73/124/106
f 54/125/107 53/123/105 73/124/106 74/126/108
f 55/127/109 54/128/107 74/129/108 75/130/110
f 56/131/111 55/127/109 75/130/110 76/132/112
f 57/133/113 56/131/111 76/132/112 77/134/114
f 58/135/115 57/133/113 77/134/114 78/136/116
f 59/97/117 58/101/115 78/102/116 79/98/118
f 60/93/119 59/97/117 79/98/118 80/94/120
f 41/90/82 60/93/119 80/94/120 61/91/83
s 4
f 62/137/121 61/138/122 1/139/123 2/140/124
f 63/143/125 62/137/121 2/140/124 3/144/126
f 64/147/127 63/143/125 3/144/126 4/148/128
f 65/151/129 64/147/127 4/148/128 5/152/130
f 66/155/131 65/151/129 5/152/130 6/156/132
f 67/159/133 66/155/131 6/156/132 7/160/134
f 68/163/135 67/159/133 7/160/134 8/164/136
f 69/167/137 68/163/135 8/164/136 9/168/138
f 70/171/139 69/167/137 9/168/138 10/172/140
f 71/175/141 70/171/139 10/172/140 11/176/142
f 72/173/143 71/175/141 11/176/142 12/174/144
f 73/169/145 72/173/143 12/174/144 13/170/146
f 74/165/147 73/169/145 13/170/146 14/166/148
f 75/161/149 74/165/147 14/166/148 15/162/150
f 76/157/151 75/161/149 15/162/150 16/158/152
f 77/153/153 76/157/151 16/158/152 17/154/154
f 78/149/155 77/153/153 17/154/154 18/150/156
f 79/145/157 78/149/155 18/150/156 19/146/158
f 80/141/159 79/145/157 19/146/158 20/142/160
f 61/138/122 80/141/159 20/142/160 1/139/123
