# This file uses centimeters as units for non-parametric coordinates.

mtllib New_Blocks.mtl
g default
v -1.684450 1.331625 0.598925
v 1.684450 1.331625 0.598925
v -1.684450 5.908791 0.598925
v 1.684450 5.908791 0.598925
v -1.684450 5.908791 -0.598925
v 1.684450 5.908791 -0.598925
v -1.684450 1.331625 -0.598925
v 1.684450 1.331625 -0.598925
v 1.063602 1.228431 -8.607882
v 1.317815 -0.225116 -8.607882
v 4.444044 1.819643 -8.607882
v 4.698257 0.366095 -8.607882
v 4.444044 1.819643 -9.805732
v 4.698257 0.366095 -9.805732
v 1.063602 1.228431 -9.805732
v 1.317815 -0.225116 -9.805732
v 1.522468 2.253579 -8.607882
v 1.776682 0.800031 -8.607882
v 2.662733 2.453001 -8.607882
v 2.916947 0.999454 -8.607882
v 2.662733 2.453001 -9.805732
v 2.916947 0.999454 -9.805732
v 1.522468 2.253579 -9.805732
v 1.776682 0.800031 -9.805732
v -6.618019 -3.460125 11.492311
v -4.764991 -4.715462 14.010227
v -3.651705 0.918507 11.492311
v -1.798678 -0.336830 14.010227
v -1.513460 -0.530052 9.196501
v 0.339568 -1.785389 11.714417
v -4.479773 -4.908684 9.196501
v -2.626746 -6.164021 11.714417
v 3.247313 1.495429 16.512388
v 4.012448 -1.344586 14.869717
v 7.709627 2.658661 16.579763
v 8.474762 -0.181354 14.937092
v 7.429482 3.861326 14.369989
v 8.194617 1.021311 12.727318
v 2.967169 2.698094 14.302614
v 3.732303 -0.141921 12.659942
v 1.757342 1.784808 15.337767
v 2.123859 0.424373 14.550888
v 3.894897 2.342024 15.370041
v 4.261415 0.981589 14.583162
v 3.760701 2.918129 14.311506
v 4.127218 1.557695 13.524628
v 1.623146 2.360914 14.279232
v 1.989663 1.000479 13.492353
v 2.559244 1.184199 15.798111
v 2.858252 0.074346 15.156170
v 4.303077 1.638779 15.824441
v 4.602085 0.528927 15.182499
v 4.193599 2.108770 14.960880
v 4.492607 0.998918 14.318939
v 2.449766 1.654190 14.934551
v 2.748774 0.544337 14.292609
v -0.932613 0.943205 16.981882
v 0.212075 1.357000 16.678204
v -2.036179 7.178828 21.318798
v -0.891491 7.592623 21.015120
v -2.495015 7.754737 20.374001
v -1.350327 8.168531 20.070322
v -1.391448 1.519114 16.037085
v -0.246760 1.932909 15.733406
v 3.694759 -3.940240 -15.787941
v 4.693323 -2.663875 -15.787941
v 0.802058 -1.677135 -13.729412
v 1.800622 -0.400770 -13.729412
v 0.377761 -1.345186 -14.690584
v 1.376325 -0.068821 -14.690584
v 3.270462 -3.608291 -16.749113
v 4.269026 -2.331926 -16.749113
v 1.900983 -1.768029 -15.241461
v 2.393446 -1.161855 -14.942879
v 0.918211 -3.410841 -10.285337
v 1.410675 -2.804667 -9.986755
v 0.157706 -2.815860 -10.238922
v 0.650169 -2.209685 -9.940340
v 1.140478 -1.173047 -15.195045
v 1.632941 -0.566873 -14.896463
v -6.181099 1.162497 -17.536276
v -3.641397 -0.558030 -16.143730
v -3.214786 5.541129 -17.536276
v -0.675083 3.820602 -16.143730
v -2.032219 4.739996 -20.682842
v 0.507484 3.019469 -19.290297
v -4.998532 0.361364 -20.682842
v -2.458829 -1.359163 -19.290297
v -0.860123 -7.165343 -4.403295
v 1.888041 -5.216733 -4.403295
v -6.718381 1.096676 -4.403295
v -3.970217 3.045286 -4.403295
v -6.718381 1.096676 -8.377243
v -3.970217 3.045286 -8.377243
v -0.860123 -7.165343 -8.377243
v 1.888041 -5.216733 -8.377243
vt 0.082679 0.668560
vt 0.163366 0.668560
vt 0.082679 0.750922
vt 0.163366 0.750922
vt 0.082679 0.833284
vt 0.163366 0.833284
vt 0.082679 0.915646
vt 0.163366 0.915646
vt 0.082679 0.998008
vt 0.163366 0.998008
vt 0.244052 0.668560
vt 0.244052 0.750922
vt 0.001992 0.668560
vt 0.001992 0.750922
vt 0.332340 0.668560
vt 0.413026 0.668560
vt 0.413026 0.750922
vt 0.332340 0.750922
vt 0.413026 0.833284
vt 0.332340 0.833284
vt 0.413026 0.915646
vt 0.332340 0.915646
vt 0.413026 0.998008
vt 0.332340 0.998008
vt 0.493713 0.668560
vt 0.493713 0.750922
vt 0.251653 0.668560
vt 0.251653 0.750922
vt 0.581805 0.001992
vt 0.662492 0.001992
vt 0.662492 0.084354
vt 0.581805 0.084354
vt 0.662492 0.166716
vt 0.581805 0.166716
vt 0.662492 0.249078
vt 0.581805 0.249078
vt 0.662492 0.331440
vt 0.581805 0.331440
vt 0.743179 0.001992
vt 0.743179 0.084354
vt 0.501119 0.001992
vt 0.501119 0.084354
vt 0.831271 0.001992
vt 0.911958 0.001992
vt 0.911958 0.084354
vt 0.831271 0.084354
vt 0.911958 0.166716
vt 0.831271 0.166716
vt 0.911958 0.249078
vt 0.831271 0.249078
vt 0.911958 0.331440
vt 0.831271 0.331440
vt 0.992645 0.001992
vt 0.992645 0.084354
vt 0.750585 0.001992
vt 0.750585 0.084354
vt 0.581805 0.668560
vt 0.662492 0.668560
vt 0.662492 0.750922
vt 0.581805 0.750922
vt 0.662492 0.833284
vt 0.581805 0.833284
vt 0.662492 0.915646
vt 0.581805 0.915646
vt 0.662492 0.998008
vt 0.581805 0.998008
vt 0.743179 0.668560
vt 0.743179 0.750922
vt 0.501119 0.668560
vt 0.501119 0.750922
vt 0.082679 0.001992
vt 0.163366 0.001992
vt 0.163366 0.084354
vt 0.082679 0.084354
vt 0.163366 0.166716
vt 0.082679 0.166716
vt 0.163366 0.249078
vt 0.082679 0.249078
vt 0.163366 0.331440
vt 0.082679 0.331440
vt 0.244052 0.001992
vt 0.244052 0.084354
vt 0.001992 0.001992
vt 0.001992 0.084354
vt 0.836634 0.335276
vt 0.917321 0.335276
vt 0.917321 0.417638
vt 0.836634 0.417638
vt 0.917321 0.500000
vt 0.836634 0.500000
vt 0.917321 0.582362
vt 0.836634 0.582362
vt 0.917321 0.664724
vt 0.836634 0.664724
vt 0.998008 0.335276
vt 0.998008 0.417638
vt 0.755947 0.335276
vt 0.755947 0.417638
vt 0.588439 0.335276
vt 0.669125 0.335276
vt 0.669125 0.417638
vt 0.588439 0.417638
vt 0.669125 0.500000
vt 0.588439 0.500000
vt 0.669125 0.582362
vt 0.588439 0.582362
vt 0.669125 0.664724
vt 0.588439 0.664724
vt 0.749812 0.335276
vt 0.749812 0.417638
vt 0.507752 0.335276
vt 0.507752 0.417638
vt 0.332340 0.001992
vt 0.413026 0.001992
vt 0.413026 0.084354
vt 0.332340 0.084354
vt 0.413026 0.166716
vt 0.332340 0.166716
vt 0.413026 0.249078
vt 0.332340 0.249078
vt 0.413026 0.331440
vt 0.332340 0.331440
vt 0.493713 0.001992
vt 0.493713 0.084354
vt 0.251653 0.001992
vt 0.251653 0.084354
vt 0.340243 0.335276
vt 0.420930 0.335276
vt 0.420930 0.417638
vt 0.340243 0.417638
vt 0.420930 0.500000
vt 0.340243 0.500000
vt 0.420930 0.582362
vt 0.340243 0.582362
vt 0.420930 0.664724
vt 0.340243 0.664724
vt 0.501616 0.335276
vt 0.501616 0.417638
vt 0.259556 0.335276
vt 0.259556 0.417638
vt 0.092047 0.335276
vt 0.172734 0.335276
vt 0.172734 0.417638
vt 0.092047 0.417638
vt 0.172734 0.500000
vt 0.092047 0.500000
vt 0.172734 0.582362
vt 0.092047 0.582362
vt 0.172734 0.664724
vt 0.092047 0.664724
vt 0.253421 0.335276
vt 0.253421 0.417638
vt 0.011360 0.335276
vt 0.011360 0.417638
vt 0.831697 0.668560
vt 0.914853 0.668560
vt 0.914853 0.748477
vt 0.831697 0.748477
vt 0.914853 0.828394
vt 0.831697 0.828394
vt 0.914853 0.908311
vt 0.831697 0.908311
vt 0.914853 0.988229
vt 0.831697 0.988229
vt 0.998008 0.668560
vt 0.998008 0.748477
vt 0.748542 0.668560
vt 0.748542 0.748477
vn 0.000000 0.000000 1.000000
vn 0.000000 0.000000 1.000000
vn 0.000000 0.000000 1.000000
vn 0.000000 0.000000 1.000000
vn 0.000000 1.000000 0.000000
vn 0.000000 1.000000 0.000000
vn 0.000000 1.000000 0.000000
vn 0.000000 1.000000 0.000000
vn 0.000000 0.000000 -1.000000
vn 0.000000 0.000000 -1.000000
vn 0.000000 0.000000 -1.000000
vn 0.000000 0.000000 -1.000000
vn 0.000000 -1.000000 0.000000
vn 0.000000 -1.000000 0.000000
vn 0.000000 -1.000000 0.000000
vn 0.000000 -1.000000 0.000000
vn 1.000000 0.000000 0.000000
vn 1.000000 0.000000 0.000000
vn 1.000000 0.000000 0.000000
vn 1.000000 0.000000 0.000000
vn -1.000000 0.000000 0.000000
vn -1.000000 0.000000 0.000000
vn -1.000000 0.000000 0.000000
vn -1.000000 0.000000 0.000000
vn -0.000000 0.000000 1.000000
vn -0.000000 0.000000 1.000000
vn -0.000000 0.000000 1.000000
vn -0.000000 0.000000 1.000000
vn 0.985049 0.172277 0.000000
vn 0.985049 0.172277 0.000000
vn 0.985049 0.172277 0.000000
vn 0.985049 0.172277 0.000000
vn 0.000000 0.000000 -1.000000
vn 0.000000 0.000000 -1.000000
vn 0.000000 0.000000 -1.000000
vn 0.000000 0.000000 -1.000000
vn -0.985049 -0.172277 0.000000
vn -0.985049 -0.172277 0.000000
vn -0.985049 -0.172277 0.000000
vn -0.985049 -0.172277 0.000000
vn 0.172277 -0.985049 0.000000
vn 0.172277 -0.985049 0.000000
vn 0.172277 -0.985049 0.000000
vn 0.172277 -0.985049 0.000000
vn -0.172277 0.985049 0.000000
vn -0.172277 0.985049 0.000000
vn -0.172277 0.985049 0.000000
vn -0.172277 0.985049 0.000000
vn -0.000000 0.000000 1.000000
vn -0.000000 0.000000 1.000000
vn -0.000000 0.000000 1.000000
vn -0.000000 0.000000 1.000000
vn 0.985049 0.172277 0.000000
vn 0.985049 0.172277 0.000000
vn 0.985049 0.172277 0.000000
vn 0.985049 0.172277 0.000000
vn 0.000000 0.000000 -1.000000
vn 0.000000 0.000000 -1.000000
vn 0.000000 0.000000 -1.000000
vn 0.000000 0.000000 -1.000000
vn -0.985049 -0.172277 0.000000
vn -0.985049 -0.172277 0.000000
vn -0.985049 -0.172277 0.000000
vn -0.985049 -0.172277 0.000000
vn 0.172277 -0.985049 0.000000
vn 0.172277 -0.985049 0.000000
vn 0.172277 -0.985049 0.000000
vn 0.172277 -0.985049 0.000000
vn -0.172277 0.985049 0.000000
vn -0.172277 0.985049 0.000000
vn -0.172277 0.985049 0.000000
vn -0.172277 0.985049 0.000000
vn -0.618777 0.419192 0.664374
vn -0.618777 0.419192 0.664374
vn -0.618777 0.419192 0.664374
vn -0.618777 0.419192 0.664374
vn 0.560866 0.827906 -0.000000
vn 0.560866 0.827906 -0.000000
vn 0.560866 0.827906 -0.000000
vn 0.560866 0.827906 -0.000000
vn 0.618777 -0.419192 -0.664374
vn 0.618777 -0.419192 -0.664374
vn 0.618777 -0.419192 -0.664374
vn 0.618777 -0.419192 -0.664374
vn -0.560867 -0.827906 0.000000
vn -0.560867 -0.827906 0.000000
vn -0.560867 -0.827906 0.000000
vn -0.560867 -0.827906 0.000000
vn 0.550040 -0.372625 0.747400
vn 0.550039 -0.372625 0.747400
vn 0.550039 -0.372625 0.747400
vn 0.550039 -0.372625 0.747400
vn -0.550039 0.372625 -0.747400
vn -0.550039 0.372625 -0.747400
vn -0.550039 0.372625 -0.747400
vn -0.550039 0.372625 -0.747400
vn 0.110668 -0.475099 0.872946
vn 0.110668 -0.475099 0.872946
vn 0.110668 -0.475099 0.872946
vn 0.110668 -0.475099 0.872946
vn 0.967559 0.252223 0.014609
vn 0.967559 0.252223 0.014609
vn 0.967559 0.252223 0.014609
vn 0.967559 0.252223 0.014609
vn -0.110668 0.475099 -0.872945
vn -0.110668 0.475099 -0.872945
vn -0.110668 0.475099 -0.872946
vn -0.110668 0.475099 -0.872946
vn -0.967559 -0.252222 -0.014609
vn -0.967559 -0.252223 -0.014609
vn -0.967559 -0.252222 -0.014609
vn -0.967559 -0.252222 -0.014609
vn 0.227117 -0.843010 -0.487599
vn 0.227117 -0.843010 -0.487599
vn 0.227117 -0.843010 -0.487599
vn 0.227117 -0.843010 -0.487599
vn -0.227117 0.843010 0.487599
vn -0.227117 0.843010 0.487599
vn -0.227117 0.843010 0.487599
vn -0.227117 0.843010 0.487599
vn 0.110668 -0.475098 0.872946
vn 0.110668 -0.475098 0.872946
vn 0.110668 -0.475098 0.872946
vn 0.110668 -0.475098 0.872946
vn 0.967559 0.252223 0.014609
vn 0.967559 0.252223 0.014609
vn 0.967559 0.252223 0.014609
vn 0.967559 0.252223 0.014609
vn -0.110667 0.475098 -0.872946
vn -0.110667 0.475098 -0.872946
vn -0.110667 0.475098 -0.872946
vn -0.110667 0.475098 -0.872946
vn -0.967559 -0.252222 -0.014609
vn -0.967559 -0.252222 -0.014609
vn -0.967559 -0.252222 -0.014609
vn -0.967559 -0.252222 -0.014609
vn 0.227117 -0.843009 -0.487599
vn 0.227117 -0.843010 -0.487599
vn 0.227117 -0.843010 -0.487599
vn 0.227117 -0.843009 -0.487599
vn -0.227117 0.843010 0.487599
vn -0.227117 0.843010 0.487599
vn -0.227117 0.843010 0.487599
vn -0.227117 0.843010 0.487599
vn 0.110667 -0.475099 0.872946
vn 0.110668 -0.475099 0.872946
vn 0.110668 -0.475099 0.872946
vn 0.110667 -0.475099 0.872946
vn 0.967559 0.252222 0.014609
vn 0.967559 0.252222 0.014609
vn 0.967559 0.252222 0.014609
vn 0.967559 0.252222 0.014609
vn -0.110668 0.475099 -0.872945
vn -0.110668 0.475099 -0.872946
vn -0.110668 0.475099 -0.872946
vn -0.110668 0.475099 -0.872946
vn -0.967559 -0.252223 -0.014609
vn -0.967559 -0.252222 -0.014609
vn -0.967559 -0.252223 -0.014609
vn -0.967559 -0.252223 -0.014609
vn 0.227117 -0.843010 -0.487599
vn 0.227117 -0.843010 -0.487599
vn 0.227117 -0.843010 -0.487599
vn 0.227117 -0.843010 -0.487599
vn -0.227117 0.843010 0.487599
vn -0.227117 0.843010 0.487599
vn -0.227117 0.843010 0.487599
vn -0.227117 0.843010 0.487599
vn 0.383050 -0.480786 0.788744
vn 0.383050 -0.480786 0.788744
vn 0.383050 -0.480786 0.788744
vn 0.383050 -0.480786 0.788744
vn -0.143783 0.812431 0.565051
vn -0.143783 0.812431 0.565051
vn -0.143783 0.812431 0.565051
vn -0.143783 0.812431 0.565051
vn -0.383050 0.480786 -0.788744
vn -0.383050 0.480786 -0.788744
vn -0.383050 0.480786 -0.788744
vn -0.383050 0.480786 -0.788744
vn 0.143783 -0.812431 -0.565051
vn 0.143783 -0.812431 -0.565051
vn 0.143783 -0.812431 -0.565051
vn 0.143783 -0.812431 -0.565051
vn 0.912469 0.329850 -0.242073
vn 0.912469 0.329850 -0.242073
vn 0.912469 0.329850 -0.242073
vn 0.912469 0.329850 -0.242073
vn -0.912469 -0.329850 0.242073
vn -0.912469 -0.329850 0.242073
vn -0.912469 -0.329850 0.242073
vn -0.912469 -0.329850 0.242073
vn 0.385078 -0.301265 0.872327
vn 0.385078 -0.301265 0.872327
vn 0.385078 -0.301265 0.872327
vn 0.385078 -0.301265 0.872327
vn -0.687048 0.537512 0.488923
vn -0.687048 0.537512 0.488923
vn -0.687048 0.537512 0.488923
vn -0.687048 0.537512 0.488923
vn -0.385078 0.301265 -0.872327
vn -0.385078 0.301265 -0.872327
vn -0.385078 0.301265 -0.872327
vn -0.385078 0.301265 -0.872327
vn 0.687048 -0.537512 -0.488923
vn 0.687048 -0.537512 -0.488923
vn 0.687048 -0.537512 -0.488923
vn 0.687048 -0.537512 -0.488923
vn 0.616182 0.787604 -0.000000
vn 0.616182 0.787604 -0.000000
vn 0.616182 0.787604 -0.000000
vn 0.616182 0.787604 -0.000000
vn -0.616182 -0.787604 0.000000
vn -0.616182 -0.787604 0.000000
vn -0.616182 -0.787604 0.000000
vn -0.616182 -0.787604 0.000000
vn 0.786695 -0.615471 -0.048014
vn 0.786695 -0.615471 -0.048014
vn 0.786695 -0.615471 -0.048014
vn 0.786695 -0.615471 -0.048014
vn -0.184975 -0.309207 0.932832
vn -0.184975 -0.309207 0.932832
vn -0.184975 -0.309207 0.932832
vn -0.184975 -0.309207 0.932832
vn -0.786696 0.615471 0.048014
vn -0.786696 0.615471 0.048014
vn -0.786696 0.615471 0.048014
vn -0.786696 0.615471 0.048014
vn 0.184975 0.309207 -0.932832
vn 0.184975 0.309207 -0.932832
vn 0.184975 0.309207 -0.932832
vn 0.184975 0.309207 -0.932832
vn 0.588978 0.724973 0.357099
vn 0.588978 0.724973 0.357099
vn 0.588978 0.724973 0.357099
vn 0.588978 0.724973 0.357099
vn -0.588977 -0.724973 -0.357099
vn -0.588977 -0.724973 -0.357099
vn -0.588977 -0.724973 -0.357099
vn -0.588977 -0.724973 -0.357099
vn -0.342218 0.231836 0.910571
vn -0.342218 0.231836 0.910571
vn -0.342218 0.231836 0.910571
vn -0.342218 0.231836 0.910571
vn 0.560867 0.827906 -0.000000
vn 0.560867 0.827906 -0.000000
vn 0.560867 0.827906 -0.000000
vn 0.560867 0.827906 -0.000000
vn 0.342218 -0.231836 -0.910571
vn 0.342218 -0.231836 -0.910571
vn 0.342218 -0.231836 -0.910571
vn 0.342218 -0.231836 -0.910571
vn -0.560866 -0.827906 0.000000
vn -0.560867 -0.827906 0.000000
vn -0.560866 -0.827906 0.000000
vn -0.560866 -0.827906 0.000000
vn 0.753867 -0.510709 0.413353
vn 0.753867 -0.510709 0.413353
vn 0.753867 -0.510709 0.413353
vn 0.753867 -0.510709 0.413353
vn -0.753867 0.510709 -0.413353
vn -0.753867 0.510709 -0.413353
vn -0.753867 0.510709 -0.413353
vn -0.753867 0.510709 -0.413353
vn 0.000000 0.000000 1.000000
vn 0.000000 0.000000 1.000000
vn 0.000000 0.000000 1.000000
vn 0.000000 0.000000 1.000000
vn -0.578411 0.815745 0.000000
vn -0.578411 0.815745 0.000000
vn -0.578411 0.815745 0.000000
vn -0.578411 0.815745 0.000000
vn 0.000000 0.000000 -1.000000
vn 0.000000 0.000000 -1.000000
vn 0.000000 0.000000 -1.000000
vn 0.000000 0.000000 -1.000000
vn 0.578411 -0.815745 0.000000
vn 0.578411 -0.815745 0.000000
vn 0.578411 -0.815745 0.000000
vn 0.578411 -0.815745 0.000000
vn 0.815745 0.578411 0.000000
vn 0.815745 0.578411 0.000000
vn 0.815745 0.578411 0.000000
vn 0.815745 0.578411 0.000000
vn -0.815745 -0.578411 0.000000
vn -0.815745 -0.578411 0.000000
vn -0.815745 -0.578411 0.000000
vn -0.815745 -0.578411 0.000000
s off
g pCube13
usemtl initialShadingGroup
f 1/1/1 2/2/2 4/4/3 3/3/4
f 3/3/5 4/4/6 6/6/7 5/5/8
f 5/5/9 6/6/10 8/8/11 7/7/12
f 7/7/13 8/8/14 2/10/15 1/9/16
f 2/2/17 8/11/18 6/12/19 4/4/20
f 7/13/21 1/1/22 3/3/23 5/14/24
f 9/15/25 10/16/26 12/17/27 11/18/28
f 11/18/29 12/17/30 14/19/31 13/20/32
f 13/20/33 14/19/34 16/21/35 15/22/36
f 15/22/37 16/21/38 10/23/39 9/24/40
f 10/16/41 16/25/42 14/26/43 12/17/44
f 15/27/45 9/15/46 11/18/47 13/28/48
f 17/29/49 18/30/50 20/31/51 19/32/52
f 19/32/53 20/31/54 22/33/55 21/34/56
f 21/34/57 22/33/58 24/35/59 23/36/60
f 23/36/61 24/35/62 18/37/63 17/38/64
f 18/30/65 24/39/66 22/40/67 20/31/68
f 23/41/69 17/29/70 19/32/71 21/42/72
f 25/43/73 26/44/74 28/45/75 27/46/76
f 27/46/77 28/45/78 30/47/79 29/48/80
f 29/48/81 30/47/82 32/49/83 31/50/84
f 31/50/85 32/49/86 26/51/87 25/52/88
f 26/44/89 32/53/90 30/54/91 28/45/92
f 31/55/93 25/43/94 27/46/95 29/56/96
f 33/57/97 34/58/98 36/59/99 35/60/100
f 35/60/101 36/59/102 38/61/103 37/62/104
f 37/62/105 38/61/106 40/63/107 39/64/108
f 39/64/109 40/63/110 34/65/111 33/66/112
f 34/58/113 40/67/114 38/68/115 36/59/116
f 39/69/117 33/57/118 35/60/119 37/70/120
f 41/71/121 42/72/122 44/73/123 43/74/124
f 43/74/125 44/73/126 46/75/127 45/76/128
f 45/76/129 46/75/130 48/77/131 47/78/132
f 47/78/133 48/77/134 42/79/135 41/80/136
f 42/72/137 48/81/138 46/82/139 44/73/140
f 47/83/141 41/71/142 43/74/143 45/84/144
f 49/85/145 50/86/146 52/87/147 51/88/148
f 51/88/149 52/87/150 54/89/151 53/90/152
f 53/90/153 54/89/154 56/91/155 55/92/156
f 55/92/157 56/91/158 50/93/159 49/94/160
f 50/86/161 56/95/162 54/96/163 52/87/164
f 55/97/165 49/85/166 51/88/167 53/98/168
f 57/99/169 58/100/170 60/101/171 59/102/172
f 59/102/173 60/101/174 62/103/175 61/104/176
f 61/104/177 62/103/178 64/105/179 63/106/180
f 63/106/181 64/105/182 58/107/183 57/108/184
f 58/100/185 64/109/186 62/110/187 60/101/188
f 63/111/189 57/99/190 59/102/191 61/112/192
f 65/113/193 66/114/194 68/115/195 67/116/196
f 67/116/197 68/115/198 70/117/199 69/118/200
f 69/118/201 70/117/202 72/119/203 71/120/204
f 71/120/205 72/119/206 66/121/207 65/122/208
f 66/114/209 72/123/210 70/124/211 68/115/212
f 71/125/213 65/113/214 67/116/215 69/126/216
f 73/127/217 74/128/218 76/129/219 75/130/220
f 75/130/221 76/129/222 78/131/223 77/132/224
f 77/132/225 78/131/226 80/133/227 79/134/228
f 79/134/229 80/133/230 74/135/231 73/136/232
f 74/128/233 80/137/234 78/138/235 76/129/236
f 79/139/237 73/127/238 75/130/239 77/140/240
f 81/141/241 82/142/242 84/143/243 83/144/244
f 83/144/245 84/143/246 86/145/247 85/146/248
f 85/146/249 86/145/250 88/147/251 87/148/252
f 87/148/253 88/147/254 82/149/255 81/150/256
f 82/142/257 88/151/258 86/152/259 84/143/260
f 87/153/261 81/141/262 83/144/263 85/154/264
f 89/155/265 90/156/266 92/157/267 91/158/268
f 91/158/269 92/157/270 94/159/271 93/160/272
f 93/160/273 94/159/274 96/161/275 95/162/276
f 95/162/277 96/161/278 90/163/279 89/164/280
f 90/156/281 96/165/282 94/166/283 92/157/284
f 95/167/285 89/155/286 91/158/287 93/168/288
