# This file uses centimeters as units for non-parametric coordinates.

g default
v -8286.518555 191.408493 343.327271
v -2070.839111 191.944901 344.184631
v -2070.839111 310.685394 533.973938
v -8286.518555 310.148987 533.116577
v -8286.518555 351.045288 310.448914
v -2070.839111 351.581696 311.306305
v -2070.839111 470.322205 501.095581
v -8286.518555 469.785767 500.238220
v -8714.425781 220.802536 337.273376
v -8714.425781 339.543030 527.062622
v -8714.425781 380.439301 304.395020
v -8714.425781 499.179779 494.184265
v -8303.057617 185.457336 375.270569
v -8303.057617 270.225403 510.759888
v -2070.839111 270.092346 511.547485
v -2070.839111 185.324326 376.058167
v -8747.503906 215.367340 369.041138
v -8747.503906 300.135406 504.530518
v -7400.599121 457.561737 834.074951
v -2767.220703 512.894287 1031.775391
v -2767.220703 512.894287 731.666626
v -7400.599121 457.561737 533.966248
v -7400.599121 205.132263 834.074951
v -2767.220703 260.464813 1031.775391
v -2767.220703 260.464813 731.666626
v -7400.599121 205.132263 533.966248
vt 0.369099 0.363316
vt 0.369679 0.001992
vt 0.542345 0.001992
vt 0.541765 0.363316
vt 0.670777 0.001992
vt 0.670197 0.363316
vt 0.573558 0.388191
vt 0.400892 0.388191
vt 0.701990 0.388191
vt 0.328827 0.401071
vt 0.398839 0.529503
vt 0.386710 0.702169
vt 0.316698 0.573737
vt 0.340585 0.393910
vt 0.390566 0.485597
vt 0.205774 0.001992
vt 0.206354 0.363316
vt 0.033688 0.363316
vt 0.033107 0.001992
vt 0.249680 0.001992
vt 0.249536 0.364278
vt 0.174561 0.388191
vt 0.001895 0.388191
vt 0.341223 0.364278
vt 0.341367 0.001992
vt 0.217185 0.390114
vt 0.308872 0.390114
vt 0.228722 0.528221
vt 0.298734 0.399789
vt 0.310863 0.572455
vt 0.240850 0.700887
vt 0.237034 0.485597
vt 0.287015 0.393910
vt 0.360467 0.001992
vt 0.360783 0.363316
vt 0.348999 0.364278
vt 0.348709 0.001992
vt 0.363016 0.388191
vt 0.351297 0.390114
vt 0.382713 0.998008
vt 0.309783 0.728665
vt 0.420491 0.728665
vt 0.493422 0.998008
vt 0.229567 0.974027
vt 0.118859 0.974027
vt 0.191789 0.704683
vt 0.302498 0.704683
vt 0.679853 0.451836
vt 0.949196 0.391987
vt 0.949196 0.665020
vt 0.679853 0.724868
vt 0.222887 0.666943
vt 0.112178 0.666943
vt 0.112178 0.393910
vt 0.222887 0.393910
vt 0.674018 0.724868
vt 0.404674 0.665020
vt 0.404674 0.391987
vt 0.674018 0.451836
vt 0.112603 0.943771
vt 0.001895 0.943771
vt 0.001895 0.670739
vt 0.112603 0.670739
vn -0.004237 -0.847745 0.530387
vn 0.000000 -0.847753 0.530391
vn 0.000000 -0.847753 0.530391
vn -0.004231 -0.847745 0.530387
vn 0.004377 0.847745 -0.530386
vn 0.004367 0.847745 -0.530386
vn 0.000085 0.847753 -0.530391
vn 0.000085 0.847753 -0.530391
vn -0.000145 0.201723 0.979443
vn -0.000153 0.201723 0.979443
vn -0.000153 0.201723 0.979443
vn -0.000141 0.201723 0.979443
vn -1.000000 0.000000 0.000000
vn -1.000000 0.000000 0.000000
vn -1.000000 0.000000 0.000000
vn -1.000000 0.000000 0.000000
vn 0.000153 -0.201723 -0.979443
vn 0.000145 -0.201723 -0.979443
vn 0.000141 -0.201723 -0.979443
vn 0.000153 -0.201723 -0.979443
vn 0.998638 -0.044223 0.027668
vn 0.998638 -0.044223 0.027668
vn 1.000000 0.000000 0.000000
vn 1.000000 0.000000 0.000000
vn 0.004367 0.847745 -0.530386
vn 0.004377 0.847745 -0.530386
vn 0.064352 0.845996 -0.529292
vn 0.064352 0.845996 -0.529292
vn -0.000145 0.201723 0.979443
vn -0.000141 0.201723 0.979443
vn 0.000000 0.201723 0.979443
vn 0.000000 0.201723 0.979443
vn -0.004237 -0.847745 0.530387
vn -0.004231 -0.847745 0.530387
vn -0.065596 -0.845927 0.529249
vn -0.065596 -0.845927 0.529249
vn 0.000141 -0.201723 -0.979443
vn 0.000145 -0.201723 -0.979443
vn 0.000000 -0.201723 -0.979443
vn 0.000000 -0.201723 -0.979443
vn 0.003053 0.485073 -0.874469
vn 0.000100 0.486056 -0.873928
vn 0.000100 0.486056 -0.873928
vn 0.003058 0.485071 -0.874469
vn -1.000000 0.000000 0.000000
vn -1.000000 0.000000 0.000000
vn -1.000000 -0.000003 0.000002
vn -1.000000 -0.000003 0.000002
vn -0.000057 0.981146 0.193268
vn 0.004146 0.980740 0.195274
vn 0.004140 0.980741 0.195271
vn -0.000057 0.981146 0.193268
vn 0.004146 0.980740 0.195274
vn 0.062994 0.972800 0.222916
vn 0.062994 0.972800 0.222916
vn 0.004140 0.980741 0.195271
vn 0.998638 -0.044223 0.027668
vn 0.998638 -0.044223 0.027668
vn 0.544210 -0.711221 0.444971
vn 0.544210 -0.711221 0.444971
vn 0.044412 0.470798 -0.881123
vn 0.003053 0.485073 -0.874469
vn 0.003058 0.485071 -0.874469
vn 0.044412 0.470798 -0.881123
vn -0.011941 0.999929 0.000000
vn -0.011941 0.999929 0.000000
vn -0.011941 0.999929 0.000000
vn -0.011941 0.999929 0.000000
vn 0.011941 -0.999929 0.000000
vn 0.011941 -0.999929 0.000000
vn 0.011941 -0.999929 0.000000
vn 0.011941 -0.999929 0.000000
vn 0.042630 0.000000 -0.999091
vn 0.042630 0.000000 -0.999091
vn 0.042630 0.000000 -0.999091
vn 0.042630 0.000000 -0.999091
vn -1.000000 0.000000 0.000000
vn -1.000000 0.000000 0.000000
vn -1.000000 0.000000 0.000000
vn -1.000000 0.000000 0.000000
vn -0.042630 0.000000 0.999091
vn -0.042630 0.000000 0.999091
vn -0.042630 0.000000 0.999091
vn -0.042630 0.000000 0.999091
vn 1.000000 0.000000 0.000000
vn 1.000000 0.000000 0.000000
vn 1.000000 0.000000 0.000000
vn 1.000000 0.000000 0.000000
s off
g polySurface317
f 5/4/1 6/3/2 7/5/3 8/6/4
f 13/24/5 14/21/6 15/20/7 16/25/8
f 1/1/9 2/2/10 6/3/11 5/4/12
f 2/10/13 3/11/14 7/12/15 6/13/16
f 3/16/17 4/17/18 8/18/19 7/19/20
f 10/28/21 9/29/22 11/30/23 12/31/24
f 14/21/25 13/24/26 17/27/27 18/26/28
f 1/1/29 5/4/30 11/7/31 9/8/32
f 5/4/33 8/6/34 12/9/35 11/7/36
f 8/18/37 4/17/38 10/22/39 12/23/40
f 4/17/41 3/16/42 15/20/43 14/21/44
f 3/11/45 2/10/46 16/14/47 15/15/48
f 2/34/49 1/35/50 13/36/51 16/37/52
f 1/35/53 9/38/54 17/39/55 13/36/56
f 9/29/57 10/28/58 18/32/59 17/33/60
f 10/22/61 4/17/62 14/21/63 18/26/64
f 23/40/65 24/41/66 25/42/67 26/43/68
f 19/44/69 22/45/70 21/46/71 20/47/72
f 19/48/73 20/49/74 24/50/75 23/51/76
f 20/52/77 21/53/78 25/54/79 24/55/80
f 21/56/81 22/57/82 26/58/83 25/59/84
f 22/60/85 19/61/86 23/62/87 26/63/88
