# This file uses centimeters as units for non-parametric coordinates.

mtllib Level02_Hololights.mtl
g default
v -9408.220740 2.944869 -318.663120
v -9408.222693 3.003158 -630.649371
v -9408.217810 9.875655 -628.655244
v -9408.470740 9.513442 -320.940867
v -9408.222693 169.043014 -802.716772
v -9408.217810 172.057662 -796.966566
v -9408.222693 437.995132 -802.716772
v -9408.217810 435.125136 -798.033808
v -9408.222693 546.692580 -630.648461
v -9408.217810 538.997329 -629.721575
v -9408.222693 546.722121 -318.699995
v -9408.217810 539.301345 -320.023752
v -9408.220740 419.584853 -146.536659
v -9408.556677 417.662276 -151.533009
v -9408.218787 146.534316 -178.383099
v -9408.810584 149.850326 -184.871403
v -9633.390662 51.511977 -588.028114
v -9633.160193 39.585830 -365.760308
v -9633.410193 200.410140 -750.211934
v -9633.410193 389.181411 -750.230074
v -9633.408240 513.499770 -588.057601
v -9633.359412 510.619796 -359.261498
v -9632.999060 376.806960 -197.693384
v -9632.816443 179.858581 -197.295374
vt 1.000000 1.000000
vt 0.000000 1.000000
vt 0.000000 1.000000
vt 1.000000 1.000000
vt 1.000000 1.000000
vt 0.000000 1.000000
vt 0.000000 1.000000
vt 1.000000 1.000000
vt 1.000000 1.000000
vt 0.000000 1.000000
vt 0.000000 1.000000
vt 1.000000 1.000000
vt 1.000000 1.000000
vt 0.000000 1.000000
vt 0.000000 1.000000
vt 1.000000 1.000000
vt 1.000000 1.000000
vt 0.000000 1.000000
vt 0.000000 1.000000
vt 1.000000 1.000000
vt 1.000000 1.000000
vt 0.000000 1.000000
vt 0.000000 1.000000
vt 1.000000 1.000000
vt 1.000000 1.000000
vt 0.000000 1.000000
vt 0.000000 1.000000
vt 1.000000 1.000000
vt 1.000000 1.000000
vt 0.000000 1.000000
vt 0.000000 1.000000
vt 1.000000 1.000000
vt 0.000000 0.000000
vt 1.000000 0.000000
vt 1.000000 1.000000
vt 0.000000 1.000000
vt 0.000000 0.000000
vt 1.000000 0.000000
vt 1.000000 1.000000
vt 0.000000 1.000000
vt 0.000000 0.000000
vt 1.000000 0.000000
vt 1.000000 1.000000
vt 0.000000 1.000000
vt 0.000000 0.000000
vt 1.000000 0.000000
vt 1.000000 1.000000
vt 0.000000 1.000000
vt 0.000000 0.000000
vt 1.000000 0.000000
vt 1.000000 1.000000
vt 0.000000 1.000000
vt 0.000000 0.000000
vt 1.000000 0.000000
vt 1.000000 1.000000
vt 0.000000 1.000000
vt 0.000000 0.000000
vt 1.000000 0.000000
vt 1.000000 1.000000
vt 0.000000 1.000000
vt 0.000000 0.000000
vt 1.000000 0.000000
vt 1.000000 1.000000
vt 0.000000 1.000000
vn 0.999264 0.031452 -0.021952
vn 0.999960 0.008927 -0.000059
vn 0.999934 0.011522 0.000073
vn 0.999544 0.026764 -0.013991
vn 1.000000 -0.000223 -0.000779
vn 1.000000 -0.000319 -0.000710
vn 1.000000 0.000219 -0.000773
vn 1.000000 0.000356 -0.000672
vn 1.000000 0.000666 -0.000151
vn 1.000000 0.000665 -0.000143
vn 0.999945 -0.008525 -0.006159
vn 0.999962 -0.007039 -0.005163
vn 0.998114 -0.000462 -0.061392
vn 0.998781 -0.007117 -0.048848
vn 0.997431 0.020357 -0.068688
vn 0.997737 0.028489 -0.060912
vn -0.185624 -0.982375 -0.021956
vn -0.185624 -0.982375 -0.021956
vn -0.185624 -0.982375 -0.021956
vn -0.185624 -0.982375 -0.021956
vn -0.264204 -0.701967 -0.661391
vn -0.264204 -0.701967 -0.661391
vn -0.264204 -0.701967 -0.661391
vn -0.264204 -0.701967 -0.661391
vn -0.227031 -0.000039 -0.973887
vn -0.227031 -0.000039 -0.973887
vn -0.227031 -0.000039 -0.973887
vn -0.227031 -0.000039 -0.973888
vn -0.260757 0.791950 -0.552106
vn -0.260757 0.791950 -0.552106
vn -0.260757 0.791950 -0.552106
vn -0.260757 0.791950 -0.552106
vn -0.152064 0.988357 0.005224
vn -0.152064 0.988357 0.005224
vn -0.152064 0.988357 0.005224
vn -0.152064 0.988357 0.005224
vn -0.254980 0.761596 0.595783
vn -0.254980 0.761596 0.595783
vn -0.254980 0.761596 0.595783
vn -0.254980 0.761596 0.595783
vn -0.152371 -0.066043 0.986114
vn -0.152371 -0.066043 0.986114
vn -0.152371 -0.066043 0.986114
vn -0.152371 -0.066043 0.986114
vn -0.209221 -0.719740 0.661968
vn -0.209221 -0.719740 0.661968
vn -0.209221 -0.719740 0.661968
vn -0.209221 -0.719740 0.661968
s 1
g polySurface403 polySurface344 pCube26
usemtl initialShadingGroup
f 1/1/1 2/2/2 3/3/3 4/4/4
f 2/5/2 5/6/5 6/7/6 3/8/3
f 5/9/5 7/10/7 8/11/8 6/12/6
f 7/13/7 9/14/9 10/15/10 8/16/8
f 9/17/9 11/18/11 12/19/12 10/20/10
f 11/21/11 13/22/13 14/23/14 12/24/12
f 13/25/13 15/26/15 16/27/16 14/28/14
f 15/29/15 1/30/1 4/31/4 16/32/16
s off
f 2/33/17 1/34/18 18/35/19 17/36/20
f 5/37/21 2/38/22 17/39/23 19/40/24
f 7/41/25 5/42/26 19/43/27 20/44/28
f 9/45/29 7/46/30 20/47/31 21/48/32
f 11/49/33 9/50/34 21/51/35 22/52/36
f 13/53/37 11/54/38 22/55/39 23/56/40
f 15/57/41 13/58/42 23/59/43 24/60/44
f 1/61/45 15/62/46 24/63/47 18/64/48
