# This file uses centimeters as units for non-parametric coordinates.

g default
v -3313.894531 439.043396 -1035.305908
v -4504.010742 439.043396 -1034.162476
v -4504.010742 37.290249 -781.090576
v -3313.894531 37.290249 -782.233826
v -3313.894531 37.290249 -1035.305908
v -4504.010742 37.290249 -1034.162476
v -3145.899170 439.043396 -1042.329956
v -3145.899170 37.290249 -1042.329956
v -3145.899170 37.290249 -789.257935
v -3145.899170 417.394531 -1038.112061
v -3145.899170 58.939186 -1038.112061
v -3145.899170 58.939186 -793.475769
v -4504.010742 426.812775 -781.090576
v -4504.010742 439.043304 -793.321167
v -3313.894531 426.812775 -782.233826
v -3313.894531 439.043304 -794.464600
v -3145.899170 426.800537 -789.257935
v -3145.899170 439.043304 -801.491821
v -3145.899170 405.163940 -793.475769
v -3145.899170 417.394470 -805.706421
vt 0.001992 0.443561
vt 0.003198 0.056423
vt 0.270179 0.056423
vt 0.268973 0.443561
vt 0.010608 0.001775
vt 0.277590 0.001775
vt 0.546273 0.056423
vt 0.547480 0.443561
vt 0.293401 0.443561
vt 0.292195 0.056423
vt 0.560382 0.443561
vt 0.559176 0.056423
vt 0.538860 0.001775
vt 0.284785 0.001775
vt 0.551766 0.001775
vt 0.587077 0.889338
vt 0.587077 0.502200
vt 0.998008 0.502200
vt 0.998008 0.889338
vt 0.587090 0.447552
vt 0.998008 0.447552
vt 0.991217 0.056423
vt 0.991217 0.443561
vt 0.567383 0.443561
vt 0.567383 0.056423
vt 0.567383 0.001775
vt 0.991217 0.001775
vt 0.580941 0.871387
vt 0.326863 0.871387
vt 0.313960 0.858484
vt 0.313960 0.447553
vt 0.580941 0.447553
vt 0.290472 0.848548
vt 0.294918 0.871387
vt 0.040844 0.871387
vt 0.045293 0.848548
vt 0.307825 0.858471
vt 0.303375 0.835645
vt 0.040844 0.447553
vt 0.045293 0.470392
vt 0.303375 0.470392
vt 0.307825 0.447553
vn 0.000000 1.000000 0.000000
vn 0.000000 1.000000 0.000000
vn 0.000000 1.000000 0.000000
vn 0.000000 1.000000 0.000000
vn 0.000000 -1.000000 0.000000
vn 0.000000 -1.000000 0.000000
vn 0.000000 -1.000000 0.000000
vn 0.000000 -1.000000 0.000000
vn -0.000961 0.000000 -1.000000
vn -0.006013 0.000000 -0.999982
vn -0.006014 0.000000 -0.999982
vn -0.000961 0.000000 -1.000000
vn 0.006014 0.000000 0.999982
vn 0.000961 0.000000 1.000000
vn 0.000961 0.000000 1.000000
vn 0.006014 0.000000 0.999982
vn 1.000000 0.000000 0.000000
vn 1.000000 0.000000 0.000000
vn 1.000000 0.000000 0.000000
vn 1.000000 0.000000 0.000000
vn 1.000000 0.000000 0.000000
vn 0.000000 -1.000000 0.000000
vn 0.000000 -1.000000 0.000000
vn 0.000000 -1.000000 0.000000
vn 0.000000 -1.000000 0.000000
vn 0.006014 0.000000 0.999982
vn 0.006014 0.000000 0.999982
vn 0.041774 0.000000 0.999127
vn 0.041774 0.000000 0.999127
vn 0.000000 1.000000 0.000000
vn 0.000000 1.000000 0.000000
vn 0.000000 1.000000 0.000000
vn 0.000000 1.000000 0.000000
vn -0.006014 0.000000 -0.999982
vn -0.006013 0.000000 -0.999982
vn -0.041775 0.000000 -0.999127
vn -0.041775 0.000000 -0.999127
vn -1.000000 0.000000 0.000000
vn -1.000000 -0.000004 0.000000
vn -1.000000 0.000000 0.000000
vn -1.000000 0.000000 0.000000
vn -1.000000 0.000000 0.000000
vn -1.000000 -0.000012 0.000000
vn -1.000000 -0.000002 0.000000
vn -1.000000 0.000000 0.000000
vn -1.000000 -0.000012 0.000000
vn -1.000000 -0.000012 0.000000
vn -1.000000 -0.000002 0.000000
vn -1.000000 -0.000002 0.000000
vn -1.000000 -0.000012 0.000000
vn -1.000000 -0.000001 0.000000
vn -1.000000 0.000000 0.000000
vn -1.000000 -0.000002 0.000000
vn -1.000000 0.000000 0.000000
vn -1.000000 0.000000 0.000000
vn -1.000000 0.000000 0.000000
vn -1.000000 -0.000002 0.000000
vn -1.000000 -0.000002 0.000000
vn -0.000679 -0.707113 -0.707100
vn -0.000679 -0.707113 -0.707100
vn -0.006207 -0.707075 -0.707112
vn -0.002068 -0.707105 -0.707105
vn -0.002068 -0.707105 -0.707105
vn -0.006207 -0.707075 -0.707112
vn -0.029590 -0.706672 -0.706922
vn -0.029590 -0.706672 -0.706922
vn -1.000000 -0.000001 0.000000
vn -1.000000 -0.000004 0.000000
vn -1.000000 0.000000 0.000000
vn -1.000000 0.000000 0.000000
s off
g polySurface45 Level02_Main:polySurface16 Level02_Main:polySurface1
f 3/1/1 4/2/2 5/3/3 6/4/4
f 16/7/5 14/8/6 2/9/7 1/10/8
f 13/16/9 15/17/10 4/18/11 3/19/12
f 1/22/13 2/23/14 6/24/15 5/25/16
f 2/28/17 14/29/18 13/30/19 3/31/20 6/32/21
f 18/13/22 16/7/23 1/10/24 7/14/25
f 1/22/26 5/25/27 8/26/28 7/27/29
f 5/3/30 4/2/31 9/5/32 8/6/33
f 4/18/34 15/17/35 17/20/36 9/21/37
f 20/33/38 18/34/39 7/35/40 10/36/41
f 7/35/42 8/39/43 11/40/44 10/36/45
f 8/39/46 9/42/47 12/41/48 11/40/49
f 9/42/50 17/37/51 19/38/52 12/41/53
f 19/38/54 20/33/55 10/36/56 11/40/57 12/41/58
f 13/11/59 14/8/60 16/7/61 15/12/62
f 15/12/63 16/7/64 18/13/65 17/15/66
f 17/37/67 18/34/68 20/33/69 19/38/70
