# This file uses centimeters as units for non-parametric coordinates.

g Level02_LeftBranchDuct:default1
v -7044.917480 -821.174866 849.043030
v -4544.229980 -821.174866 847.444519
v -4544.229980 -821.174866 493.597717
v -7044.917480 -821.174866 495.196259
v -7044.917480 -1118.804688 849.043030
v -4544.229980 -1118.804688 847.444519
v -4544.229980 -1118.804688 493.597717
v -7044.917480 -1118.804688 495.196259
v -7051.570801 -778.338440 798.309753
v -7051.570801 -778.338440 545.700867
v -4544.229980 -777.304932 544.445374
v -4544.229980 -777.304932 797.054199
v -5330.154785 -777.628906 544.838928
v -5330.154785 -777.628906 797.447754
v -5328.068359 -821.174866 847.945557
v -5328.068359 -1118.804688 847.945557
v -5328.068359 -1118.804688 494.098755
v -5328.068359 -821.174866 494.098755
v -5062.229492 -777.518494 544.704773
v -5062.229492 -777.518494 797.313538
v -5060.854980 -821.174866 847.774780
v -5060.854980 -1118.804688 847.774780
v -5060.854980 -1118.804688 493.927979
v -5060.854980 -821.174866 493.927979
v -7235.030273 -869.635010 869.000000
v -7235.028320 -869.644958 475.234436
v -7230.530273 -1192.014282 864.570007
v -7230.530273 -1192.014282 479.669250
v -7058.830566 -755.176331 807.277466
v -7058.832520 -755.187317 536.721680
v -7253.123535 -820.419128 805.808716
v -7253.125488 -820.425232 538.425720
v -7048.065918 -811.178894 871.803833
v -7040.733398 -1131.947998 862.836121
v -7040.733398 -1131.947998 481.403107
v -7048.067871 -811.189880 472.423859
v -4596.569824 -777.326477 544.471558
v -4596.569824 -777.326477 797.080444
v -4596.431152 -821.174866 847.477905
v -4596.431152 -1118.804688 847.477905
v -4596.431152 -1118.804688 493.631073
v -4596.431152 -821.174866 493.631073
vt 0.012077 0.670882
vt 0.012999 0.440484
vt 0.310214 0.440484
vt 0.309293 0.670882
vt 0.013143 0.404624
vt 0.310358 0.404624
vt 0.013392 0.342300
vt 0.310607 0.342300
vt 0.257854 0.338472
vt 0.045674 0.338472
vt 0.044950 0.107462
vt 0.257130 0.107462
vt 0.003253 0.337579
vt 0.002331 0.107182
vt 0.044838 0.071507
vt 0.257018 0.071507
vt 0.299546 0.107182
vt 0.300468 0.337579
vt 0.002188 0.071322
vt 0.044642 0.009016
vt 0.256822 0.009016
vt 0.299403 0.071322
vt 0.001938 0.008997
vt 0.044620 0.001992
vt 0.256800 0.001992
vt 0.299153 0.008997
vt 0.001910 0.001992
vt 0.299125 0.001992
vt 0.306717 0.337579
vt 0.306717 0.107181
vt 0.545819 0.107181
vt 0.545819 0.337579
vt 0.306717 0.071322
vt 0.545819 0.071322
vt 0.306717 0.008997
vt 0.545819 0.008997
vt 0.306717 0.001992
vt 0.545819 0.001992
vt 0.353330 0.675979
vt 0.353330 0.973195
vt 0.114227 0.973195
vt 0.114227 0.675979
vt 0.388573 0.718305
vt 0.388573 0.930485
vt 0.792505 0.107182
vt 0.792505 0.337579
vt 0.553402 0.337579
vt 0.553402 0.107182
vt 0.792505 0.071322
vt 0.553402 0.071322
vt 0.792505 0.008997
vt 0.553402 0.008997
vt 0.792505 0.001992
vt 0.553402 0.001992
vt 0.575468 0.341407
vt 0.575476 0.672152
vt 0.316490 0.668431
vt 0.316490 0.345132
vt 0.615009 0.394485
vt 0.615014 0.619074
vt 0.646971 0.395414
vt 0.646971 0.622669
vt 0.620897 0.621435
vt 0.620897 0.396845
vt 0.648415 0.676868
vt 0.623325 0.674513
vt 0.623325 0.343767
vt 0.648415 0.341407
vt 0.058957 0.674709
vt 0.059941 0.932401
vt 0.034471 0.980655
vt 0.033867 0.721670
vt 0.027381 0.676165
vt 0.027381 0.996552
vt 0.001910 0.998008
vt 0.001910 0.674709
vt 0.093580 0.722964
vt 0.092596 0.980647
vt 0.067506 0.933686
vt 0.068110 0.674709
vt 0.938373 0.615318
vt 0.938373 0.403138
vt 0.956980 0.395606
vt 0.956972 0.622861
vt 0.903960 0.360525
vt 0.911990 0.341407
vt 0.903960 0.657740
vt 0.911981 0.676868
vt 0.664857 0.360525
vt 0.654298 0.348939
vt 0.664857 0.657740
vt 0.654298 0.669326
vt 0.101145 0.971924
vt 0.101145 0.674709
vt 0.108150 0.674737
vt 0.108150 0.971952
vn 0.000000 -1.000000 0.000000
vn 0.000000 -1.000000 0.000000
vn 0.000000 -1.000000 0.000000
vn 0.000000 -1.000000 0.000000
vn -0.000412 1.000000 0.000000
vn -0.000412 1.000000 0.000000
vn -0.000412 1.000000 0.000000
vn -0.000412 1.000000 0.000000
vn 0.000639 0.000000 1.000000
vn 0.000639 0.000000 1.000000
vn 0.000639 0.000000 1.000000
vn 0.000639 0.000000 1.000000
vn 1.000000 0.000000 0.000000
vn 1.000000 0.000000 0.000000
vn 1.000000 0.000000 0.000000
vn 1.000000 0.000000 0.000000
vn -0.000639 0.000000 -1.000000
vn -0.000639 0.000000 -1.000000
vn -0.000639 0.000000 -1.000000
vn -0.000639 0.000000 -1.000000
vn -0.999648 -0.026547 -0.000002
vn -0.999903 -0.013956 -0.000002
vn -0.999903 -0.013956 -0.000002
vn -0.999648 -0.026547 -0.000002
vn -0.318318 0.947984 -0.000028
vn -0.318318 0.947984 -0.000028
vn -0.318318 0.947984 -0.000028
vn -0.318318 0.947984 -0.000028
vn 0.003691 -0.020759 0.999778
vn 0.003691 -0.020759 0.999778
vn 0.003691 -0.020759 0.999778
vn 0.003691 -0.020759 0.999778
vn 0.301727 -0.953394 0.000000
vn 0.301727 -0.953394 0.000000
vn 0.301727 -0.953394 0.000000
vn 0.301727 -0.953394 0.000000
vn 0.003682 -0.020785 -0.999777
vn 0.003682 -0.020785 -0.999777
vn 0.003682 -0.020785 -0.999777
vn 0.003682 -0.020785 -0.999777
vn -0.000527 0.760713 -0.649088
vn -0.000527 0.760713 -0.649088
vn -0.000527 0.760428 -0.649422
vn -0.000527 0.760414 -0.649438
vn 1.000000 0.000000 0.000000
vn 1.000000 -0.000001 0.000000
vn 1.000000 -0.000001 0.000000
vn 1.000000 0.000000 0.000000
vn 0.000213 0.760163 0.649732
vn 0.000213 0.760186 0.649705
vn 0.000213 0.760701 0.649102
vn 0.000213 0.760701 0.649102
vn -0.241371 0.721524 0.648955
vn -0.241371 0.721524 0.648955
vn -0.241371 0.721524 0.648955
vn -0.241371 0.721524 0.648955
vn -0.999648 -0.026547 -0.000002
vn -0.938578 -0.345068 0.000008
vn -0.938578 -0.345068 0.000008
vn -0.999648 -0.026547 -0.000002
vn -0.241563 0.720849 -0.649634
vn -0.241563 0.720849 -0.649634
vn -0.241563 0.720849 -0.649634
vn -0.241563 0.720849 -0.649634
vn -0.000412 1.000000 0.000000
vn -0.000412 1.000000 0.000000
vn -0.000412 1.000000 0.000000
vn -0.000412 1.000000 0.000000
vn 0.000217 0.755865 0.654727
vn 0.000217 0.755876 0.654715
vn 0.000213 0.760186 0.649705
vn 0.000213 0.760163 0.649732
vn 0.000639 0.000000 1.000000
vn 0.000639 0.000000 1.000000
vn 0.000639 0.000000 1.000000
vn 0.000639 0.000000 1.000000
vn 0.000000 -1.000000 0.000000
vn 0.000000 -1.000000 0.000000
vn 0.000000 -1.000000 0.000000
vn 0.000000 -1.000000 0.000000
vn -0.000639 0.000000 -1.000000
vn -0.000639 0.000000 -1.000000
vn -0.000639 0.000000 -1.000000
vn -0.000639 0.000000 -1.000000
vn -0.000527 0.760428 -0.649422
vn -0.000528 0.758054 -0.652192
vn -0.000528 0.758047 -0.652200
vn -0.000527 0.760414 -0.649438
vn -0.000412 1.000000 0.000000
vn -0.000412 1.000000 0.000000
vn -0.000412 1.000000 0.000000
vn -0.000412 1.000000 0.000000
vn 0.000218 0.755239 0.655449
vn 0.000218 0.755240 0.655449
vn 0.000217 0.755876 0.654715
vn 0.000217 0.755865 0.654727
vn 0.000639 0.000000 1.000000
vn 0.000639 0.000000 1.000000
vn 0.000639 0.000000 1.000000
vn 0.000639 0.000000 1.000000
vn 0.000000 -1.000000 0.000000
vn 0.000000 -1.000000 0.000000
vn 0.000000 -1.000000 0.000000
vn 0.000000 -1.000000 0.000000
vn -0.000639 0.000000 -1.000000
vn -0.000639 0.000000 -1.000000
vn -0.000639 0.000000 -1.000000
vn -0.000639 0.000000 -1.000000
vn -0.000528 0.758054 -0.652192
vn -0.000528 0.757705 -0.652597
vn -0.000528 0.757705 -0.652597
vn -0.000528 0.758047 -0.652200
vn 0.956828 0.290481 -0.010067
vn 0.959355 0.281464 -0.020416
vn 0.959362 0.281443 0.020350
vn 0.956832 0.290468 0.010028
vn 0.996636 0.081951 -0.000365
vn 0.998772 0.047630 -0.013630
vn 0.994995 0.098007 -0.019489
vn 0.985495 0.169217 -0.012875
vn 0.985495 0.169217 -0.012875
vn 0.994995 0.098007 -0.019489
vn 0.994998 0.097987 0.019446
vn 0.985499 0.169196 0.012847
vn 0.985499 0.169196 0.012847
vn 0.994998 0.097987 0.019446
vn 0.998775 0.047593 0.013554
vn 0.996648 0.081811 0.000302
vn 0.956832 0.290468 0.010028
vn 0.959362 0.281443 0.020350
vn 0.998772 0.047630 -0.013630
vn 0.996636 0.081951 -0.000365
vn 0.996648 0.081811 0.000302
vn 0.998775 0.047593 0.013554
vn 0.959355 0.281464 -0.020416
vn 0.956828 0.290481 -0.010067
vn -0.000412 1.000000 0.000000
vn -0.000412 1.000000 0.000000
vn -0.000412 1.000000 0.000000
vn -0.000412 1.000000 0.000000
vn 0.000218 0.754321 0.656506
vn 0.000218 0.754321 0.656506
vn 0.000218 0.755240 0.655449
vn 0.000218 0.755239 0.655449
vn 0.000639 0.000000 1.000000
vn 0.000639 0.000000 1.000000
vn 0.000639 0.000000 1.000000
vn 0.000639 0.000000 1.000000
vn 0.000000 -1.000000 0.000000
vn 0.000000 -1.000000 0.000000
vn 0.000000 -1.000000 0.000000
vn 0.000000 -1.000000 0.000000
vn -0.000639 0.000000 -1.000000
vn -0.000639 0.000000 -1.000000
vn -0.000639 0.000000 -1.000000
vn -0.000639 0.000000 -1.000000
vn -0.000528 0.757705 -0.652597
vn -0.000529 0.757203 -0.653180
vn -0.000529 0.757203 -0.653180
vn -0.000528 0.757705 -0.652597
s off
g Level02_LeftBranchDuct:polySurface16 Level02_LeftBranchDuct:polySurface19 Level02_LeftBranchDuct:polySurface20 Level02_LeftBranchDuct:polySurface1
f 5/1/1 8/4/2 17/3/3 16/2/4
f 9/9/5 14/12/6 13/11/7 10/10/8
f 1/29/9 5/32/10 16/31/11 15/30/12
f 2/39/13 6/42/14 7/41/15 3/40/16
f 18/45/17 17/48/18 8/47/19 4/46/20
f 26/55/21 28/58/22 27/57/23 25/56/24
f 30/61/25 32/64/26 31/63/27 29/62/28
f 33/69/29 25/72/30 27/71/31 34/70/32
f 34/73/33 27/76/34 28/75/35 35/74/36
f 35/77/37 28/80/38 26/79/39 36/78/40
f 4/13/41 10/10/42 13/11/43 18/14/44
f 3/40/45 11/44/46 12/43/47 2/39/48
f 15/17/49 14/12/50 9/9/51 1/18/52
f 33/65/53 29/62/54 31/63/55 25/66/56
f 25/56/57 31/60/58 32/59/59 26/55/60
f 26/67/61 32/64/62 30/61/63 36/68/64
f 14/12/65 20/16/66 19/15/67 13/11/68
f 21/22/69 20/16/70 14/12/71 15/17/72
f 16/31/73 22/34/74 21/33/75 15/30/76
f 17/3/77 23/6/78 22/5/79 16/2/80
f 24/49/81 23/50/82 17/48/83 18/45/84
f 13/11/85 19/15/86 24/19/87 18/14/88
f 20/16/89 38/21/90 37/20/91 19/15/92
f 39/26/93 38/21/94 20/16/95 21/22/96
f 22/34/97 40/36/98 39/35/99 21/33/100
f 23/6/101 41/8/102 40/7/103 22/5/104
f 42/51/105 41/52/106 23/50/107 24/49/108
f 19/15/109 37/20/110 42/23/111 24/19/112
f 10/81/113 30/84/114 29/83/115 9/82/116
f 1/85/117 33/86/118 34/90/119 5/89/120
f 5/89/121 34/90/122 35/92/123 8/91/124
f 8/91/125 35/92/126 36/88/127 4/87/128
f 9/82/129 29/83/130 33/86/131 1/85/132
f 4/87/133 36/88/134 30/84/135 10/81/136
f 38/21/137 12/25/138 11/24/139 37/20/140
f 2/28/141 12/25/142 38/21/143 39/26/144
f 40/36/145 6/38/146 2/37/147 39/35/148
f 41/93/149 7/96/150 6/95/151 40/94/152
f 3/53/153 7/54/154 41/52/155 42/51/156
f 37/20/157 11/24/158 3/27/159 42/23/160
