# This file uses centimeters as units for non-parametric coordinates.

g default
v -7227.300781 890.178467 -166.385132
v -7227.300781 890.178467 -575.238770
v -7772.306641 802.598999 -575.238770
v -7772.306641 802.598999 -166.385132
v -7210.951172 912.690674 -151.783234
v -7210.951172 912.690674 -589.840698
v -7227.300781 890.178467 -575.238770
v -7227.300781 890.178467 -166.385132
v -7210.951172 912.690674 -589.840698
v -7794.885742 818.855591 -589.840698
v -7772.306641 802.598999 -575.238770
v -7227.300781 890.178467 -575.238770
v -7794.885742 818.855591 -589.840698
v -7794.885742 818.855591 -151.783234
v -7772.306641 802.598999 -166.385132
v -7772.306641 802.598999 -575.238770
v -7794.885742 818.855591 -151.783234
v -7210.951172 912.690674 -151.783234
v -7227.300781 890.178467 -166.385132
v -7772.306641 802.598999 -166.385132
vt 0.161266 0.964819
vt 0.848437 0.957789
vt 0.838844 0.031486
vt 0.151673 0.038516
vt 0.137012 1.000001
vt 0.873266 0.992469
vt 0.848437 0.957789
vt 0.161266 0.964819
vt 0.873266 0.992469
vt 0.862988 0.000001
vt 0.838844 0.031486
vt 0.848437 0.957789
vt 0.862988 0.000001
vt 0.126734 0.007533
vt 0.151673 0.038516
vt 0.838844 0.031486
vt 0.126734 0.007533
vt 0.137012 1.000001
vt 0.161266 0.964819
vt 0.151673 0.038516
vn 0.158659 -0.987333 0.000000
vn 0.158659 -0.987333 0.000000
vn 0.158659 -0.987333 0.000000
vn 0.158659 -0.987333 0.000000
vn 0.809123 -0.587639 0.000000
vn 0.809123 -0.587639 0.000000
vn 0.809123 -0.587639 0.000000
vn 0.809123 -0.587639 0.000000
vn 0.094685 -0.589222 -0.802404
vn 0.094685 -0.589222 -0.802404
vn 0.094685 -0.589222 -0.802404
vn 0.094685 -0.589222 -0.802404
vn -0.584299 -0.811539 0.000000
vn -0.584299 -0.811539 0.000000
vn -0.584299 -0.811539 0.000000
vn -0.584299 -0.811539 0.000000
vn 0.094684 -0.589221 0.802405
vn 0.094684 -0.589221 0.802405
vn 0.094684 -0.589221 0.802405
vn 0.094684 -0.589221 0.802405
s off
g Level02_RightBranchDetail:polySurface518
f 1/1/1 4/4/2 3/3/3 2/2/4
f 5/5/5 8/8/6 7/7/7 6/6/8
f 9/9/9 12/12/10 11/11/11 10/10/12
f 13/13/13 16/16/14 15/15/15 14/14/16
f 17/17/17 20/20/18 19/19/19 18/18/20
