# This file uses centimeters as units for non-parametric coordinates.

g default
v -5151.961914 -567.631958 1255.749023
v -4614.199219 -569.616516 1246.429443
v -4623.627930 -1008.925293 1048.290405
v -5146.175781 -734.354187 1377.344971
v -4608.413086 -736.338684 1368.025269
v -4617.841797 -1175.647339 1169.886353
v -5187.920898 -598.330688 1278.718506
v -5182.134766 -765.052734 1400.314453
v -5155.577637 -606.622864 1209.862305
v -4616.395020 -607.602905 1200.290039
v -5192.944824 -637.758545 1233.340332
v -5117.625000 -599.335754 1200.220215
v -4654.929688 -600.826355 1191.409912
v -5114.150879 -558.209656 1247.874756
v -4652.673828 -560.729187 1239.001953
v -5123.771484 -915.087646 1056.991943
v -4661.077637 -916.552979 1048.495728
v -5161.390625 -1006.940552 1057.609863
v -5155.604492 -1173.662598 1179.205811
v -5191.562988 -1204.361328 1202.175415
v -5197.349609 -1037.639282 1080.579468
v -5199.675293 -951.378174 1091.890259
v -5162.308594 -920.242615 1068.412109
v -4623.126465 -921.222351 1058.839966
v -6746.640625 -567.631958 1255.749023
v -6208.877930 -569.616516 1246.429443
v -6740.854980 -734.354187 1377.344971
v -6203.091797 -736.338684 1368.025269
v -6782.600098 -598.330688 1278.718506
v -6776.813965 -765.052734 1400.314453
v -6750.256836 -606.622864 1209.862305
v -6211.074219 -607.602905 1200.290039
v -6787.623535 -637.758545 1233.340332
v -6712.303711 -599.335754 1200.220215
v -6249.608398 -600.826355 1191.409912
v -6708.830078 -558.209656 1247.874756
v -6247.353027 -560.729187 1239.001953
v -6212.520996 -1175.647339 1169.886353
v -6750.283691 -1173.662598 1179.205811
v -6718.450195 -915.087646 1056.991943
v -6255.756348 -916.552979 1048.495728
v -6218.307129 -1008.925293 1048.290405
v -6786.241699 -1204.361328 1202.175415
v -6792.028320 -1037.639282 1080.579468
v -6794.354004 -951.378174 1091.890259
v -6756.987793 -920.242615 1068.412109
v -6217.805664 -921.222351 1058.839966
v -5942.569336 -567.631958 1255.749023
v -5404.806641 -569.616516 1246.429443
v -5936.783203 -734.354187 1377.344971
v -5399.020508 -736.338684 1368.025269
v -5978.528320 -598.330688 1278.718506
v -5972.742188 -765.052734 1400.314453
v -5946.185547 -606.622864 1209.862305
v -5407.002930 -607.602905 1200.290039
v -5983.552246 -637.758545 1233.340332
v -5908.232422 -599.335754 1200.220215
v -5445.537109 -600.826355 1191.409912
v -5904.758301 -558.209656 1247.874756
v -5443.281250 -560.729187 1239.001953
v -5408.449219 -1175.647339 1169.886353
v -5946.212402 -1173.662598 1179.205811
v -5914.378906 -915.087646 1056.991943
v -5451.685059 -916.552979 1048.495728
v -5414.235352 -1008.925293 1048.290405
v -5982.170410 -1204.361328 1202.175415
v -5987.957031 -1037.639282 1080.579468
v -5990.282715 -951.378174 1091.890259
v -5952.916016 -920.242615 1068.412109
v -5413.733887 -921.222351 1058.839966
vt 0.743548 0.312241
vt 0.751382 0.130381
vt -0.058154 0.133570
vt -0.048681 0.315429
vt 1.027154 0.302586
vt 1.563487 0.304664
vt 1.563050 0.148191
vt 1.037194 0.146112
vt 0.968225 0.314198
vt 0.977471 0.132338
vt 1.699747 0.135527
vt 1.941846 0.133570
vt 2.751381 0.130381
vt -0.300253 0.135527
vt -0.294360 0.317386
vt 1.763422 0.329547
vt 0.939555 0.326358
vt 0.685807 0.324401
vt -0.021735 0.327590
vt 1.577981 0.317697
vt 1.016751 0.315420
vt 0.988224 0.328057
vt 1.655002 0.330333
vt -0.424581 0.135357
vt -0.422019 0.317697
vt 1.027889 0.133081
vt 1.575419 0.135357
vt 0.985446 0.145349
vt 0.976848 0.301411
vt 0.743548 0.851526
vt 0.751382 0.669667
vt -0.058155 0.672855
vt -0.048681 0.854715
vt 1.027154 0.841871
vt 1.563486 0.843950
vt 1.563049 0.687477
vt 1.037194 0.685398
vt 0.968225 0.853483
vt 0.977471 0.671623
vt 1.699747 0.674812
vt 1.941845 0.672855
vt 2.751382 0.669667
vt 1.763422 0.868832
vt 0.939555 0.865644
vt 0.685807 0.863687
vt -0.021735 0.866875
vt 1.577981 0.856982
vt 1.016751 0.854706
vt 0.988224 0.867342
vt 1.655002 0.869619
vt 1.027889 0.672366
vt 1.575419 0.674643
vt 0.985446 0.684635
vt 0.976848 0.840696
vt 0.743548 0.579607
vt 0.751382 0.397747
vt -0.058155 0.400936
vt -0.048681 0.582796
vt 1.027154 0.569952
vt 1.563487 0.572030
vt 1.563050 0.415557
vt 1.037194 0.413478
vt 0.968225 0.581564
vt 0.977471 0.399704
vt 1.699747 0.402893
vt 1.941845 0.400936
vt 2.751382 0.397747
vt 1.763422 0.596913
vt 0.939555 0.593724
vt 0.685807 0.591767
vt -0.021735 0.594956
vt 1.577981 0.585063
vt 1.016751 0.582787
vt 0.988224 0.595423
vt 1.655002 0.597699
vt 1.027889 0.400447
vt 1.575419 0.402723
vt 0.985446 0.412715
vt 0.976848 0.568777
vn -0.071765 0.411361 -0.908643
vn -0.014276 0.411354 -0.911364
vn -0.014276 0.411354 -0.911364
vn -0.071689 0.411362 -0.908649
vn -0.038719 0.470656 -0.881467
vn 0.008625 0.471052 -0.882063
vn 0.007076 0.412520 -0.910921
vn -0.037845 0.413025 -0.909933
vn -0.015990 -0.589716 -0.807453
vn -0.016174 -0.589737 -0.807434
vn -0.016171 -0.589549 -0.807571
vn -0.015903 -0.589545 -0.807579
vn -0.998870 0.000000 0.047533
vn -0.998870 0.000000 0.047533
vn -0.998870 0.000001 0.047532
vn -0.998870 0.000001 0.047532
vn -0.016171 -0.589549 -0.807571
vn -0.016171 -0.589549 -0.807571
vn -0.015903 -0.589546 -0.807578
vn -0.015987 -0.589547 -0.807576
vn 0.998696 0.001583 -0.051030
vn 0.998696 0.001583 -0.051030
vn 0.998870 0.000001 -0.047532
vn 0.998870 0.000001 -0.047532
vn -0.521504 0.360394 -0.773401
vn -0.678746 0.313986 -0.663865
vn -0.678746 0.313986 -0.663865
vn -0.535563 0.407871 -0.739469
vn -0.015990 -0.589716 -0.807453
vn -0.015903 -0.589545 -0.807579
vn -0.012651 -0.589499 -0.807670
vn -0.012651 -0.589499 -0.807670
vn -0.071765 0.411361 -0.908643
vn -0.071689 0.411362 -0.908649
vn -0.685930 0.311356 -0.657691
vn -0.685930 0.311356 -0.657691
vn -0.062356 0.120730 -0.990725
vn -0.062441 0.120728 -0.990720
vn -0.017075 0.121464 -0.992449
vn -0.017075 0.121464 -0.992449
vn -0.998870 0.000000 0.047533
vn -0.998870 0.000000 0.047533
vn -0.998869 -0.000007 0.047550
vn -0.998869 -0.000007 0.047550
vn -0.014160 -0.761115 0.648462
vn 0.031306 -0.761529 0.647374
vn 0.038719 -0.470656 0.881467
vn -0.008625 -0.471052 0.882063
vn 0.562536 -0.651899 0.508509
vn 0.725652 -0.554331 0.407610
vn 0.725652 -0.554331 0.407610
vn 0.535563 -0.407871 0.739469
vn 0.998696 0.001583 -0.051030
vn 0.998696 0.001583 -0.051030
vn 0.987678 0.046236 -0.149511
vn 0.987678 0.046236 -0.149511
vn -0.535563 0.407871 -0.739469
vn -0.038719 0.470656 -0.881467
vn -0.037845 0.413025 -0.909933
vn -0.521504 0.360394 -0.773401
vn 0.278956 0.390667 -0.877247
vn 0.007076 0.412520 -0.910921
vn 0.008625 0.471052 -0.882063
vn 0.282637 0.450438 -0.846890
vn -0.016174 -0.589737 -0.807434
vn -0.015990 -0.589716 -0.807453
vn -0.016854 -0.641535 -0.766908
vn -0.016854 -0.641535 -0.766908
vn 0.562536 -0.651899 0.508509
vn 0.535563 -0.407871 0.739469
vn 0.038719 -0.470656 0.881467
vn 0.031306 -0.761529 0.647374
vn -0.282637 -0.450438 0.846890
vn -0.280427 -0.730905 0.622204
vn -0.014160 -0.761115 0.648462
vn -0.008625 -0.471052 0.882063
vn -0.071765 0.411361 -0.908643
vn -0.014276 0.411354 -0.911364
vn -0.014276 0.411354 -0.911364
vn -0.071689 0.411362 -0.908649
vn 0.038719 -0.470656 0.881467
vn 0.037845 -0.413025 0.909933
vn -0.007076 -0.412520 0.910921
vn -0.008625 -0.471052 0.882063
vn -0.015990 -0.589716 -0.807453
vn -0.016174 -0.589737 -0.807434
vn -0.016171 -0.589549 -0.807571
vn -0.015903 -0.589545 -0.807579
vn -0.998870 0.000000 0.047533
vn -0.998870 0.000000 0.047533
vn -0.998870 0.000001 0.047532
vn -0.998870 0.000001 0.047532
vn 0.998696 0.001583 -0.051030
vn 0.998696 0.001583 -0.051030
vn 0.998870 0.000001 -0.047532
vn 0.998870 0.000001 -0.047532
vn 0.521504 -0.360394 0.773401
vn 0.535563 -0.407871 0.739469
vn 0.678746 -0.313986 0.663865
vn 0.678746 -0.313986 0.663865
vn -0.015990 -0.589716 -0.807453
vn -0.015903 -0.589545 -0.807579
vn -0.012651 -0.589499 -0.807670
vn -0.012651 -0.589499 -0.807670
vn -0.071765 0.411361 -0.908643
vn -0.071689 0.411362 -0.908649
vn -0.685930 0.311356 -0.657691
vn -0.685930 0.311356 -0.657691
vn -0.998870 0.000000 0.047533
vn -0.998870 0.000000 0.047533
vn -0.998869 -0.000007 0.047550
vn -0.998869 -0.000007 0.047550
vn -0.014160 -0.761115 0.648462
vn 0.031306 -0.761529 0.647374
vn 0.038719 -0.470656 0.881467
vn -0.008625 -0.471052 0.882063
vn 0.562536 -0.651899 0.508509
vn 0.725652 -0.554331 0.407610
vn 0.725652 -0.554331 0.407610
vn 0.535563 -0.407871 0.739469
vn 0.998696 0.001583 -0.051030
vn 0.998696 0.001583 -0.051030
vn 0.987678 0.046236 -0.149511
vn 0.987678 0.046236 -0.149511
vn 0.535563 -0.407871 0.739469
vn 0.521504 -0.360394 0.773401
vn 0.037845 -0.413025 0.909933
vn 0.038719 -0.470656 0.881467
vn -0.278956 -0.390667 0.877247
vn -0.282637 -0.450438 0.846890
vn -0.008625 -0.471052 0.882063
vn -0.007076 -0.412520 0.910921
vn -0.016174 -0.589737 -0.807434
vn -0.015990 -0.589716 -0.807453
vn -0.016854 -0.641535 -0.766908
vn -0.016854 -0.641535 -0.766908
vn 0.562536 -0.651899 0.508509
vn 0.535563 -0.407871 0.739469
vn 0.038719 -0.470656 0.881467
vn 0.031306 -0.761529 0.647374
vn -0.282637 -0.450438 0.846890
vn -0.280427 -0.730905 0.622204
vn -0.014160 -0.761115 0.648462
vn -0.008625 -0.471052 0.882063
vn -0.071765 0.411361 -0.908643
vn -0.014276 0.411354 -0.911364
vn -0.014276 0.411354 -0.911364
vn -0.071689 0.411362 -0.908649
vn 0.038719 -0.470656 0.881467
vn 0.037845 -0.413025 0.909933
vn -0.007076 -0.412520 0.910921
vn -0.008625 -0.471052 0.882063
vn -0.015990 -0.589716 -0.807453
vn -0.016174 -0.589737 -0.807434
vn -0.016171 -0.589549 -0.807571
vn -0.015903 -0.589545 -0.807579
vn -0.998870 0.000000 0.047533
vn -0.998870 0.000000 0.047533
vn -0.998870 0.000001 0.047532
vn -0.998870 0.000001 0.047532
vn 0.998696 0.001583 -0.051030
vn 0.998696 0.001583 -0.051030
vn 0.998870 0.000001 -0.047532
vn 0.998870 0.000001 -0.047532
vn 0.521504 -0.360394 0.773401
vn 0.535563 -0.407871 0.739469
vn 0.678746 -0.313986 0.663865
vn 0.678746 -0.313986 0.663865
vn -0.015990 -0.589716 -0.807453
vn -0.015903 -0.589545 -0.807579
vn -0.012651 -0.589499 -0.807670
vn -0.012651 -0.589499 -0.807670
vn -0.071765 0.411361 -0.908643
vn -0.071689 0.411362 -0.908649
vn -0.685930 0.311356 -0.657691
vn -0.685930 0.311356 -0.657691
vn -0.998870 0.000000 0.047533
vn -0.998870 0.000000 0.047533
vn -0.998869 -0.000007 0.047550
vn -0.998869 -0.000007 0.047550
vn -0.014160 -0.761115 0.648462
vn 0.031306 -0.761529 0.647374
vn 0.038719 -0.470656 0.881467
vn -0.008625 -0.471052 0.882063
vn 0.562536 -0.651899 0.508509
vn 0.725652 -0.554331 0.407610
vn 0.725652 -0.554331 0.407610
vn 0.535563 -0.407871 0.739469
vn 0.998696 0.001583 -0.051030
vn 0.998696 0.001583 -0.051030
vn 0.987678 0.046236 -0.149511
vn 0.987678 0.046236 -0.149511
vn 0.535563 -0.407871 0.739469
vn 0.521504 -0.360394 0.773401
vn 0.037845 -0.413025 0.909933
vn 0.038719 -0.470656 0.881467
vn -0.278956 -0.390667 0.877247
vn -0.282637 -0.450438 0.846890
vn -0.008625 -0.471052 0.882063
vn -0.007076 -0.412520 0.910921
vn -0.016174 -0.589737 -0.807434
vn -0.015990 -0.589716 -0.807453
vn -0.016854 -0.641535 -0.766908
vn -0.016854 -0.641535 -0.766908
vn 0.562536 -0.651899 0.508509
vn 0.535563 -0.407871 0.739469
vn 0.038719 -0.470656 0.881467
vn 0.031306 -0.761529 0.647374
vn -0.282637 -0.450438 0.846890
vn -0.280427 -0.730905 0.622204
vn -0.014160 -0.761115 0.648462
vn -0.008625 -0.471052 0.882063
s off
g Level02_Ornaments:polySurface15
f 4/1/1 5/2/2 6/3/3 19/4/4
f 12/5/5 13/8/6 17/7/7 16/6/8
f 1/9/9 2/10/10 5/2/11 4/1/12
f 2/10/13 3/11/14 6/12/15 5/13/16
f 3/14/17 6/3/18 19/4/19 18/15/20
f 21/16/21 7/17/22 8/18/23 20/19/24
f 23/20/25 22/23/26 11/22/27 9/21/28
f 1/9/29 4/1/30 8/18/31 7/17/32
f 4/1/33 19/4/34 20/19/35 8/18/36
f 18/15/37 23/25/38 24/24/39 3/14/40
f 3/11/41 2/10/42 10/26/43 24/27/44
f 15/28/45 14/29/46 12/5/47 13/8/48
f 1/9/49 7/17/50 11/22/51 9/21/52
f 7/17/53 21/16/54 22/23/55 11/22/56
f 9/21/57 12/5/58 16/6/59 23/20/60
f 24/27/61 17/7/62 13/8/63 10/26/64
f 2/10/65 1/9/66 14/29/67 15/28/68
f 1/9/69 9/21/70 12/5/71 14/29/72
f 10/26/73 2/10/74 15/28/75 13/8/76
f 27/30/77 28/31/78 38/32/79 39/33/80
f 34/34/81 40/35/82 41/36/83 35/37/84
f 25/38/85 26/39/86 28/31/87 27/30/88
f 26/39/89 42/40/90 38/41/91 28/42/92
f 44/43/93 29/44/94 30/45/95 43/46/96
f 46/47/97 31/48/98 33/49/99 45/50/100
f 25/38/101 27/30/102 30/45/103 29/44/104
f 27/30/105 39/33/106 43/46/107 30/45/108
f 42/40/109 26/39/110 32/51/111 47/52/112
f 37/53/113 36/54/114 34/34/115 35/37/116
f 25/38/117 29/44/118 33/49/119 31/48/120
f 29/44/121 44/43/122 45/50/123 33/49/124
f 31/48/125 46/47/126 40/35/127 34/34/128
f 47/52/129 32/51/130 35/37/131 41/36/132
f 26/39/133 25/38/134 36/54/135 37/53/136
f 25/38/137 31/48/138 34/34/139 36/54/140
f 32/51/141 26/39/142 37/53/143 35/37/144
f 50/55/145 51/56/146 61/57/147 62/58/148
f 57/59/149 63/60/150 64/61/151 58/62/152
f 48/63/153 49/64/154 51/56/155 50/55/156
f 49/64/157 65/65/158 61/66/159 51/67/160
f 67/68/161 52/69/162 53/70/163 66/71/164
f 69/72/165 54/73/166 56/74/167 68/75/168
f 48/63/169 50/55/170 53/70/171 52/69/172
f 50/55/173 62/58/174 66/71/175 53/70/176
f 65/65/177 49/64/178 55/76/179 70/77/180
f 60/78/181 59/79/182 57/59/183 58/62/184
f 48/63/185 52/69/186 56/74/187 54/73/188
f 52/69/189 67/68/190 68/75/191 56/74/192
f 54/73/193 69/72/194 63/60/195 57/59/196
f 70/77/197 55/76/198 58/62/199 64/61/200
f 49/64/201 48/63/202 59/79/203 60/78/204
f 48/63/205 54/73/206 57/59/207 59/79/208
f 55/76/209 49/64/210 60/78/211 58/62/212
