# This file uses centimeters as units for non-parametric coordinates.

g default
v -6251.899902 653.023132 12.476738
v -6789.726563 651.038574 20.491943
v -6781.757813 211.729782 218.652084
v -6243.931152 213.714523 210.636917
v -6256.790039 486.300934 -109.132156
v -6794.616699 484.316437 -101.116890
v -6786.647949 45.007702 97.043228
v -6248.821289 46.992489 89.028030
v -6215.771973 622.324463 -10.405342
v -6207.803223 183.015854 187.754822
v -6220.662109 455.602356 -132.014206
v -6212.694336 16.293732 66.145882
v -6248.622070 614.032227 58.371822
v -6242.933594 300.412506 199.837036
v -6782.181152 299.432739 208.101379
v -6787.870605 613.052185 66.636269
v -6211.082520 582.896606 34.984543
v -6205.394531 269.276947 176.449738
v -6286.645996 621.319397 67.921791
v -6281.554688 305.567413 211.163666
v -6744.307129 304.102112 218.537613
v -6749.401855 619.828735 75.609711
v -6289.768555 662.445435 20.259232
v -6751.306641 659.925903 28.012709
v -5151.706543 653.023132 10.799653
v -5689.532715 651.038574 18.814859
v -5681.563965 211.729782 216.975006
v -5143.737305 213.714523 208.959824
v -5156.596680 486.300934 -110.809242
v -5694.423340 484.316437 -102.793976
v -5686.454102 45.007702 95.366142
v -5148.627441 46.992489 87.350952
v -5115.578125 622.324463 -12.082426
v -5107.609863 183.015854 186.077728
v -5120.468262 455.602356 -133.691284
v -5112.500488 16.293732 64.468796
v -5148.428223 614.032227 56.694736
v -5142.739746 300.412506 198.159958
v -5681.987793 299.432739 206.424301
v -5687.676758 613.052185 64.959183
v -5110.889160 582.896606 33.307457
v -5105.200684 269.276947 174.772659
v -5186.452148 621.319397 66.244705
v -5181.360840 305.567413 209.486572
v -5644.113281 304.102112 216.860519
v -5649.208496 619.828735 73.932625
v -5189.575195 662.445435 18.582146
v -5651.113281 659.925903 26.335625
v -3697.668945 620.326843 153.124527
v -3665.179932 376.999908 151.981247
v -3665.179932 376.999908 -101.090698
v -3697.668945 620.326843 -99.947411
v -4985.182617 448.418671 153.124527
v -4952.693359 205.091705 151.981247
v -4952.693359 205.091705 -101.090698
v -4985.182617 448.418671 -99.947411
v -3652.026123 278.482574 144.957184
v -3652.026123 278.482574 -108.114761
v -4939.539551 106.574379 -108.114761
v -4939.539551 106.574379 144.957184
v -3673.484619 275.617462 140.739319
v -3673.484619 275.617462 -103.896896
v -4918.081055 109.439522 -103.896896
v -4918.081055 109.439522 140.739319
vt 0.282143 0.936228
vt 0.190010 0.935532
vt 0.191375 0.781452
vt 0.283509 0.782148
vt 0.282981 0.994703
vt 0.190848 0.994007
vt 0.289697 0.771381
vt 0.288332 0.925461
vt 0.276494 0.998008
vt 0.197429 0.997124
vt 0.289170 0.983936
vt 0.490887 0.785805
vt 0.491759 0.896550
vt 0.412486 0.897064
vt 0.411614 0.786328
vt 0.497401 0.788361
vt 0.498375 0.898358
vt 0.405998 0.898702
vt 0.405024 0.788705
vt 0.411287 0.772265
vt 0.490352 0.771381
vt 0.503832 0.799282
vt 0.504806 0.909278
vt 0.496839 0.774686
vt 0.404706 0.775382
vt 0.504393 0.939533
vt 0.498204 0.928766
vt 0.497367 0.987241
vt 0.503555 0.998008
vt 0.406071 0.929462
vt 0.405233 0.987937
vt 0.895215 0.163659
vt 0.741135 0.427094
vt 0.682660 0.265427
vt 0.836740 0.001992
vt 0.881892 0.225004
vt 0.771896 0.413068
vt 0.290657 0.001992
vt 0.444738 0.265427
vt 0.386263 0.427094
vt 0.232182 0.163659
vt 0.320912 0.017021
vt 0.430909 0.205085
vt 0.455505 0.235007
vt 0.441829 0.173994
vt 0.676850 0.771381
vt 0.665863 0.863758
vt 0.651989 0.857270
vt 0.661792 0.777997
vt 0.389491 0.936228
vt 0.297358 0.935532
vt 0.298723 0.781452
vt 0.390856 0.782148
vt 0.390329 0.994703
vt 0.298196 0.994007
vt 0.397045 0.771381
vt 0.395680 0.925461
vt 0.383842 0.998008
vt 0.304777 0.997124
vt 0.396518 0.983936
vt 0.598235 0.785805
vt 0.599107 0.896550
vt 0.519834 0.897064
vt 0.518962 0.786328
vt 0.604749 0.788361
vt 0.605723 0.898358
vt 0.513346 0.898702
vt 0.512372 0.788705
vt 0.518635 0.772265
vt 0.597700 0.771381
vt 0.611179 0.799282
vt 0.612154 0.909278
vt 0.604187 0.774686
vt 0.512054 0.775382
vt 0.611741 0.939533
vt 0.605552 0.928766
vt 0.604715 0.987241
vt 0.610904 0.998008
vt 0.513419 0.929462
vt 0.512581 0.987937
vt 0.674769 0.163659
vt 0.520689 0.427094
vt 0.462213 0.265427
vt 0.616294 0.001992
vt 0.661446 0.225004
vt 0.551449 0.413068
vt 0.060434 0.001992
vt 0.214515 0.265427
vt 0.156040 0.427094
vt 0.001959 0.163659
vt 0.090689 0.017021
vt 0.200686 0.205085
vt 0.225282 0.235007
vt 0.211606 0.173994
vt 0.644262 0.771381
vt 0.633276 0.863758
vt 0.619402 0.857270
vt 0.629205 0.777997
vt 0.855678 0.778313
vt 0.770335 0.776793
vt 0.770335 0.440358
vt 0.855678 0.441878
vt 0.735782 0.767455
vt 0.735782 0.431020
vt 0.981609 0.431020
vt 0.981609 0.767455
vt 0.896266 0.768975
vt 0.896266 0.432540
vt 0.861713 0.778313
vt 0.861713 0.441878
vt 0.096368 0.438839
vt 0.181711 0.433274
vt 0.242004 0.653834
vt 0.156662 0.659400
vt 0.216264 0.431020
vt 0.276558 0.651581
vt 0.726072 0.436627
vt 0.726072 0.761848
vt 0.512863 0.761848
vt 0.512863 0.436627
vt 0.729748 0.431020
vt 0.729748 0.767455
vt 0.509187 0.767455
vt 0.509187 0.431020
vt 0.096807 0.665579
vt 0.182150 0.671144
vt 0.121856 0.891705
vt 0.036513 0.886139
vt 0.001959 0.883886
vt 0.062253 0.663326
vt 0.503153 0.431020
vt 0.503153 0.767455
vt 0.282592 0.767455
vt 0.282592 0.431020
vn 0.069539 0.411230 0.908875
vn 0.012065 0.411330 0.911407
vn 0.012065 0.411330 0.911407
vn 0.069462 0.411231 0.908881
vn -0.036575 -0.470579 -0.881600
vn -0.035632 -0.412957 -0.910053
vn 0.009286 -0.412535 -0.910895
vn 0.010765 -0.471072 -0.882029
vn 0.014030 -0.589680 0.807515
vn 0.014214 -0.589701 0.807497
vn 0.014211 -0.589513 0.807634
vn 0.013943 -0.589510 0.807641
vn 0.999192 0.000000 -0.040182
vn 0.999192 0.000000 -0.040182
vn 0.999192 0.000001 -0.040181
vn 0.999192 0.000001 -0.040181
vn -0.014212 0.589513 -0.807634
vn -0.014027 0.589511 -0.807638
vn -0.013944 0.589511 -0.807640
vn -0.014212 0.589513 -0.807634
vn -0.999044 0.001583 0.043682
vn -0.999044 0.001583 0.043682
vn -0.999192 0.000001 0.040181
vn -0.999192 0.000001 0.040181
vn -0.518591 -0.359677 -0.775691
vn -0.532722 -0.407074 -0.741956
vn -0.675623 -0.313287 -0.667371
vn -0.675623 -0.313287 -0.667371
vn 0.014030 -0.589680 0.807515
vn 0.013943 -0.589510 0.807641
vn 0.010692 -0.589472 0.807718
vn 0.010692 -0.589472 0.807718
vn 0.069539 0.411230 0.908875
vn 0.069462 0.411231 0.908881
vn 0.682804 0.310663 0.661262
vn 0.682804 0.310663 0.661262
vn -0.013944 0.589511 -0.807640
vn -0.014027 0.589511 -0.807638
vn -0.010692 0.589472 -0.807718
vn -0.010692 0.589472 -0.807718
vn -0.059935 -0.120694 -0.990879
vn -0.014667 -0.121454 -0.992489
vn -0.014667 -0.121454 -0.992489
vn -0.060020 -0.120692 -0.990874
vn 0.999192 0.000000 -0.040182
vn 0.999192 0.000000 -0.040182
vn 0.999192 -0.000007 -0.040199
vn 0.999192 -0.000007 -0.040199
vn 0.015733 -0.761152 -0.648383
vn -0.029733 -0.761455 -0.647536
vn -0.036575 -0.470579 -0.881600
vn 0.010765 -0.471072 -0.882029
vn -0.560504 -0.650976 -0.511923
vn -0.723594 -0.553517 -0.412347
vn -0.723594 -0.553517 -0.412347
vn -0.532722 -0.407074 -0.741956
vn -0.999044 0.001583 0.043682
vn -0.999044 0.001583 0.043682
vn -0.988737 0.046269 0.142334
vn -0.988737 0.046269 0.142334
vn -0.583658 -0.091619 -0.806815
vn -0.059935 -0.120694 -0.990879
vn -0.060020 -0.120692 -0.990874
vn -0.583658 -0.091619 -0.806815
vn -0.532722 -0.407074 -0.741956
vn -0.518591 -0.359677 -0.775691
vn -0.035632 -0.412957 -0.910053
vn -0.036575 -0.470579 -0.881600
vn -0.008649 0.911289 -0.411677
vn -0.008649 0.911289 -0.411677
vn -0.008649 0.911289 -0.411677
vn -0.008649 0.911289 -0.411677
vn 0.281423 -0.391142 -0.876247
vn 0.285027 -0.450973 -0.845803
vn 0.010765 -0.471072 -0.882029
vn 0.009286 -0.412535 -0.910895
vn 0.014214 -0.589701 0.807497
vn 0.014030 -0.589680 0.807515
vn 0.014993 -0.641497 0.766979
vn 0.014993 -0.641496 0.766980
vn -0.560504 -0.650976 -0.511923
vn -0.532722 -0.407074 -0.741956
vn -0.036575 -0.470579 -0.881600
vn -0.029733 -0.761455 -0.647536
vn 0.285027 -0.450973 -0.845803
vn 0.282177 -0.731537 -0.620669
vn 0.015733 -0.761152 -0.648383
vn 0.010765 -0.471072 -0.882029
vn 0.069539 0.411230 0.908875
vn 0.012065 0.411330 0.911407
vn 0.012065 0.411330 0.911407
vn 0.069462 0.411231 0.908881
vn -0.036575 -0.470579 -0.881600
vn -0.035632 -0.412957 -0.910053
vn 0.009286 -0.412535 -0.910895
vn 0.010765 -0.471072 -0.882029
vn 0.014030 -0.589680 0.807515
vn 0.014214 -0.589701 0.807497
vn 0.014211 -0.589513 0.807634
vn 0.013943 -0.589510 0.807641
vn 0.999192 0.000000 -0.040182
vn 0.999192 0.000000 -0.040182
vn 0.999192 0.000001 -0.040181
vn 0.999192 0.000001 -0.040181
vn -0.014212 0.589513 -0.807634
vn -0.014027 0.589511 -0.807638
vn -0.013944 0.589511 -0.807640
vn -0.014212 0.589513 -0.807634
vn -0.999044 0.001583 0.043682
vn -0.999044 0.001583 0.043682
vn -0.999192 0.000001 0.040181
vn -0.999192 0.000001 0.040181
vn -0.518591 -0.359677 -0.775691
vn -0.532722 -0.407074 -0.741956
vn -0.675623 -0.313287 -0.667371
vn -0.675623 -0.313287 -0.667371
vn 0.014030 -0.589680 0.807515
vn 0.013943 -0.589510 0.807641
vn 0.010692 -0.589472 0.807718
vn 0.010692 -0.589472 0.807718
vn 0.069539 0.411230 0.908875
vn 0.069462 0.411231 0.908881
vn 0.682804 0.310663 0.661262
vn 0.682804 0.310663 0.661262
vn -0.013944 0.589511 -0.807640
vn -0.014027 0.589511 -0.807638
vn -0.010692 0.589472 -0.807718
vn -0.010692 0.589472 -0.807718
vn -0.059935 -0.120694 -0.990879
vn -0.014667 -0.121454 -0.992489
vn -0.014667 -0.121454 -0.992489
vn -0.060020 -0.120692 -0.990874
vn 0.999192 0.000000 -0.040182
vn 0.999192 0.000000 -0.040182
vn 0.999192 -0.000007 -0.040199
vn 0.999192 -0.000007 -0.040199
vn 0.015733 -0.761152 -0.648383
vn -0.029733 -0.761455 -0.647536
vn -0.036575 -0.470579 -0.881600
vn 0.010765 -0.471072 -0.882029
vn -0.560504 -0.650976 -0.511923
vn -0.723594 -0.553517 -0.412347
vn -0.723594 -0.553517 -0.412347
vn -0.532722 -0.407074 -0.741956
vn -0.999044 0.001583 0.043682
vn -0.999044 0.001583 0.043682
vn -0.988737 0.046269 0.142334
vn -0.988737 0.046269 0.142334
vn -0.583658 -0.091619 -0.806815
vn -0.059935 -0.120694 -0.990879
vn -0.060020 -0.120692 -0.990874
vn -0.583658 -0.091619 -0.806815
vn -0.532722 -0.407074 -0.741956
vn -0.518591 -0.359677 -0.775691
vn -0.035632 -0.412957 -0.910053
vn -0.036575 -0.470579 -0.881600
vn -0.008649 0.911289 -0.411677
vn -0.008649 0.911289 -0.411677
vn -0.008649 0.911289 -0.411677
vn -0.008649 0.911289 -0.411677
vn 0.281423 -0.391142 -0.876247
vn 0.285027 -0.450973 -0.845803
vn 0.010765 -0.471072 -0.882029
vn 0.009286 -0.412535 -0.910895
vn 0.014214 -0.589701 0.807497
vn 0.014030 -0.589680 0.807515
vn 0.014993 -0.641497 0.766979
vn 0.014993 -0.641496 0.766980
vn -0.560504 -0.650976 -0.511923
vn -0.532722 -0.407074 -0.741956
vn -0.036575 -0.470579 -0.881600
vn -0.029733 -0.761455 -0.647536
vn 0.285027 -0.450973 -0.845803
vn 0.282177 -0.731537 -0.620669
vn 0.015733 -0.761152 -0.648383
vn 0.010765 -0.471072 -0.882029
vn 0.991204 0.132345 0.000000
vn 0.991204 0.132345 0.000000
vn 0.991204 0.132345 0.000000
vn 0.991204 0.132345 0.000000
vn -0.991204 -0.132345 0.000000
vn -0.991204 -0.132345 0.000000
vn -0.991204 -0.132345 0.000000
vn -0.991204 -0.132345 0.000000
vn -0.000616 0.004616 -0.999989
vn -0.003133 0.023467 -0.999720
vn -0.003133 0.023467 -0.999720
vn -0.000616 0.004616 -0.999989
vn -0.132345 0.991204 0.000000
vn -0.132345 0.991204 0.000000
vn -0.132345 0.991204 0.000000
vn -0.132345 0.991204 0.000000
vn 0.003133 -0.023467 0.999720
vn 0.000616 -0.004616 0.999989
vn 0.000616 -0.004616 0.999989
vn 0.003133 -0.023467 0.999720
vn 0.132345 -0.991204 0.000000
vn 0.132345 -0.991204 0.000000
vn 0.132345 -0.991204 0.000000
vn 0.132345 -0.991204 0.000000
vn -0.991204 -0.132345 0.000000
vn -0.991204 -0.132345 0.000000
vn -0.991204 -0.132345 0.000000
vn -0.991204 -0.132345 0.000000
vn 0.003133 -0.023467 0.999720
vn 0.003133 -0.023467 0.999720
vn 0.009330 -0.069875 0.997512
vn 0.009330 -0.069875 0.997512
vn 0.991204 0.132345 0.000000
vn 0.991204 0.132345 0.000000
vn 0.991204 0.132345 0.000000
vn 0.991204 0.132345 0.000000
vn -0.003133 0.023467 -0.999720
vn -0.003133 0.023467 -0.999720
vn -0.009330 0.069875 -0.997512
vn -0.009330 0.069875 -0.997512
vn -0.132344 0.991204 0.000000
vn -0.132344 0.991204 0.000000
vn -0.132345 0.991204 0.000000
vn -0.132345 0.991204 0.000000
vn -0.132344 0.991204 0.000000
vn -0.132346 0.991204 0.000000
vn -0.132345 0.991204 0.000000
vn -0.132345 0.991204 0.000000
vn -0.132346 0.991204 0.000000
vn -0.132346 0.991204 0.000000
vn -0.132345 0.991204 0.000000
vn -0.132345 0.991204 0.000000
vn -0.132346 0.991204 0.000000
vn -0.132344 0.991204 0.000000
vn -0.132345 0.991204 0.000000
vn -0.132345 0.991204 0.000000
s off
g polySurface83
f 5/1/1 6/2/2 7/3/3 8/4/4
f 19/12/5 20/13/6 21/14/7 22/15/8
f 1/5/9 2/6/10 6/2/11 5/1/12
f 2/32/13 3/33/14 7/34/15 6/35/16
f 3/30/17 4/27/18 8/28/19 7/31/20
f 10/38/21 9/39/22 11/40/23 12/41/24
f 14/17/25 13/16/26 17/22/27 18/23/28
f 1/5/29 5/1/30 11/8/31 9/11/32
f 5/1/33 8/4/34 12/7/35 11/8/36
f 8/28/37 4/27/38 10/26/39 12/29/40
f 4/27/41 3/30/42 15/18/43 14/17/44
f 3/33/45 2/32/46 16/36/47 15/37/48
f 24/20/49 23/21/50 19/12/51 22/15/52
f 1/44/53 9/39/54 17/43/55 13/45/56
f 9/39/57 10/38/58 18/42/59 17/43/60
f 10/26/61 4/27/62 14/17/63 18/23/64
f 13/16/65 14/17/66 20/13/67 19/12/68
f 14/46/69 15/47/70 21/48/71 20/49/72
f 15/18/73 16/19/74 22/15/75 21/14/76
f 2/6/77 1/5/78 23/9/79 24/10/80
f 1/24/81 13/16/82 19/12/83 23/21/84
f 16/19/85 2/25/86 24/20/87 22/15/88
f 29/50/89 30/51/90 31/52/91 32/53/92
f 43/61/93 44/62/94 45/63/95 46/64/96
f 25/54/97 26/55/98 30/51/99 29/50/100
f 26/81/101 27/82/102 31/83/103 30/84/104
f 27/79/105 28/76/106 32/77/107 31/80/108
f 34/87/109 33/88/110 35/89/111 36/90/112
f 38/66/113 37/65/114 41/71/115 42/72/116
f 25/54/117 29/50/118 35/57/119 33/60/120
f 29/50/121 32/53/122 36/56/123 35/57/124
f 32/77/125 28/76/126 34/75/127 36/78/128
f 28/76/129 27/79/130 39/67/131 38/66/132
f 27/82/133 26/81/134 40/85/135 39/86/136
f 48/69/137 47/70/138 43/61/139 46/64/140
f 25/93/141 33/88/142 41/92/143 37/94/144
f 33/88/145 34/87/146 42/91/147 41/92/148
f 34/75/149 28/76/150 38/66/151 42/72/152
f 37/65/153 38/66/154 44/62/155 43/61/156
f 38/95/157 39/96/158 45/97/159 44/98/160
f 39/67/161 40/68/162 46/64/163 45/63/164
f 26/55/165 25/54/166 47/58/167 48/59/168
f 25/73/169 37/65/170 43/61/171 47/70/172
f 40/68/173 26/74/174 48/69/175 46/64/176
f 53/99/177 54/100/178 55/101/179 56/102/180
f 49/105/181 52/106/182 51/107/183 50/108/184
f 49/111/185 50/112/186 54/113/187 53/114/188
f 61/117/189 62/118/190 63/119/191 64/120/192
f 51/125/193 52/126/194 56/127/195 55/128/196
f 52/131/197 49/132/198 53/133/199 56/134/200
f 50/108/201 51/107/202 58/109/203 57/110/204
f 51/125/205 55/128/206 59/129/207 58/130/208
f 55/101/209 54/100/210 60/103/211 59/104/212
f 54/113/213 50/112/214 57/115/215 60/116/216
f 57/121/217 58/122/218 62/118/219 61/117/220
f 58/122/221 59/123/222 63/119/223 62/118/224
f 59/123/225 60/124/226 64/120/227 63/119/228
f 60/124/229 57/121/230 61/117/231 64/120/232
