# This file uses centimeters as units for non-parametric coordinates.

mtllib Exit.mtl
g default
v -9.000000 -9.000000 -1.039944
v 9.000000 -9.000000 -1.039944
v -11.270807 -11.270807 1.039940
v 11.270807 -11.270807 1.039940
v -11.270807 11.270807 1.039940
v 11.270807 11.270807 1.039940
v -9.000000 9.000000 -1.039944
v 9.000000 9.000000 -1.039944
v -3.984103 -3.984103 1.039940
v 3.984103 -3.984103 1.039940
v 3.984103 3.984103 1.039940
v -3.984103 3.984103 1.039940
v -3.984103 -3.984103 -0.832540
v -3.984103 3.984103 -0.832540
v 3.984103 3.984103 -0.832538
v 3.984103 -3.984103 -0.832538
v -8.164017 8.164017 -1.005371
v -8.164017 -8.164017 -1.005371
v -7.328034 7.328034 -0.970802
v -7.328034 -7.328034 -0.970802
v -6.492051 6.492051 -0.936237
v -6.492051 -6.492051 -0.936237
v -5.656068 5.656068 -0.901672
v -5.656068 -5.656068 -0.901672
v -4.820086 4.820086 -0.867109
v -4.820086 -4.820086 -0.867109
v 8.164017 -8.164017 -1.005371
v 7.328034 -7.328034 -0.970802
v 6.492051 -6.492051 -0.936237
v 5.656068 -5.656068 -0.901672
v 4.820086 -4.820086 -0.867107
v 8.164017 8.164017 -1.005371
v 7.328034 7.328034 -0.970802
v 6.492051 6.492051 -0.936237
v 5.656068 5.656068 -0.901672
v 4.820086 4.820086 -0.867107
v -2.143714 2.143718 -20.103598
v -2.143714 -2.143718 -20.103598
v -1.742586 1.742590 -20.087009
v -1.742586 -1.742590 -20.087009
v 2.143714 -2.143718 -20.103598
v 1.742586 -1.742590 -20.087009
v 2.143714 2.143718 -20.103598
v 1.742586 1.742590 -20.087009
v -25.061197 -24.732420 -1.039944
v 25.061197 -24.732420 -1.039944
v 25.061197 -24.732420 1.039940
v -25.061197 -24.732420 1.039940
v -25.061197 22.648369 1.039940
v 25.061197 22.648369 1.039940
v 25.061197 22.648369 -1.039944
v -25.061197 22.648369 -1.039944
v -9.000000 -9.000000 2.125311
v -8.808487 -8.808487 2.316823
v 8.808487 -8.808487 2.316823
v 9.000000 -9.000000 2.125311
v 8.808487 8.808487 2.316823
v 9.000000 9.000000 2.125311
v -8.808487 8.808487 2.316823
v -9.000000 9.000000 2.125311
v 3.984103 -3.984103 4.388960
v 5.529461 -5.529461 3.868861
v -3.984103 -3.984103 4.388960
v -5.529461 -5.529461 3.868860
v 3.984103 3.984103 4.388960
v 5.529461 5.529461 3.868861
v -3.984103 3.984103 4.388960
v -5.529461 5.529461 3.868860
vt 0.039794 0.292338
vt 0.455119 0.292338
vt 0.494294 0.291743
vt 0.910809 0.291743
vt 0.910809 0.291743
vt 0.494294 0.291743
vt 0.494294 0.708258
vt 0.910809 0.708258
vt 0.910809 0.708258
vt 0.494294 0.708258
vt 0.669444 0.474137
vt 0.735660 0.474137
vt 0.455119 0.707662
vt 0.039794 0.707662
vt 0.735660 0.474137
vt 0.669444 0.474137
vt 0.280470 0.474211
vt 0.214443 0.474211
vt 0.735660 0.544184
vt 0.280470 0.544057
vt 0.735660 0.544184
vt 0.214443 0.544057
vt 0.172880 0.430243
vt 0.172880 0.588025
vt 0.179808 0.580697
vt 0.179808 0.437571
vt 0.186735 0.573369
vt 0.186735 0.444899
vt 0.193662 0.566041
vt 0.193662 0.452227
vt 0.200589 0.558713
vt 0.200589 0.459555
vt 0.207516 0.551386
vt 0.207516 0.466883
vt 0.229693 0.490343
vt 0.229693 0.527925
vt 0.233017 0.524409
vt 0.233017 0.493859
vt 0.322032 0.430243
vt 0.315105 0.437571
vt 0.308178 0.444899
vt 0.301251 0.452227
vt 0.294324 0.459555
vt 0.287396 0.466883
vt 0.265220 0.490343
vt 0.261896 0.493859
vt 0.322032 0.588025
vt 0.315105 0.580697
vt 0.308178 0.573369
vt 0.301251 0.566041
vt 0.294324 0.558713
vt 0.287396 0.551386
vt 0.265220 0.527925
vt 0.261896 0.524409
vt 0.669444 0.544184
vt 0.669444 0.544184
vt 0.796212 0.410081
vt 0.608892 0.410081
vt 0.608892 0.608240
vt 0.796212 0.608240
vt 0.627762 0.430043
vt 0.629354 0.431727
vt 0.629354 0.586594
vt 0.627762 0.588278
vt 0.777342 0.430043
vt 0.775750 0.431727
vt 0.777342 0.588278
vt 0.775750 0.586594
vt 0.735660 0.474137
vt 0.748502 0.460552
vt 0.748502 0.557769
vt 0.735660 0.544184
vt 0.669444 0.474137
vt 0.656602 0.460552
vt 0.669444 0.544184
vt 0.656602 0.557769
vn 0.000000 -1.000000 0.000000
vn 0.000000 -1.000000 0.000000
vn 0.000000 -1.000000 0.000000
vn 0.000000 -1.000000 0.000000
vn 0.000000 1.000000 0.000000
vn 0.000000 1.000000 0.000000
vn 0.000000 1.000000 0.000000
vn 0.000000 1.000000 0.000000
vn 1.000000 0.000000 0.000000
vn 1.000000 0.000000 0.000000
vn 1.000000 0.000000 0.000000
vn 1.000000 0.000000 0.000000
vn -1.000000 0.000000 0.000000
vn -1.000000 0.000000 0.000000
vn -1.000000 0.000000 0.000000
vn -1.000000 0.000000 0.000000
vn 0.000000 1.000000 0.000000
vn 0.000000 1.000000 0.000000
vn 0.000000 0.994880 0.101062
vn 0.000000 0.994880 0.101062
vn -1.000000 0.000000 0.000000
vn -1.000000 0.000000 0.000000
vn -0.994880 0.000000 0.101063
vn -0.994880 0.000000 0.101063
vn 0.000000 -1.000000 0.000000
vn 0.000000 -1.000000 0.000000
vn 0.000000 -0.994880 0.101062
vn 0.000000 -0.994880 0.101062
vn 1.000000 0.000000 0.000000
vn 1.000000 0.000000 0.000000
vn 0.994880 0.000000 0.101063
vn 0.994880 0.000000 0.101063
vn 0.000185 0.000185 -1.000000
vn 0.000198 -0.000198 -1.000000
vn 0.041319 0.000000 -0.999146
vn 0.041319 0.000000 -0.999146
vn 0.041319 0.000000 -0.999146
vn 0.041319 0.000000 -0.999146
vn 0.041315 0.000000 -0.999146
vn 0.041315 0.000000 -0.999146
vn 0.041315 0.000000 -0.999146
vn 0.041315 0.000000 -0.999146
vn 0.041311 0.000000 -0.999146
vn 0.041311 0.000000 -0.999146
vn 0.041311 0.000000 -0.999146
vn 0.041311 0.000000 -0.999146
vn 0.041311 0.000000 -0.999146
vn 0.041311 0.000000 -0.999146
vn 0.041311 0.000000 -0.999146
vn 0.041311 0.000000 -0.999146
vn 0.041309 0.000000 -0.999146
vn 0.041309 0.000000 -0.999146
vn 0.041319 0.000000 -0.999146
vn 0.041319 0.000000 -0.999146
vn 0.041319 0.000000 -0.999146
vn 0.041319 0.000000 -0.999146
vn -0.000185 0.000185 -1.000000
vn 0.000185 0.000185 -1.000000
vn 0.000000 0.041319 -0.999146
vn 0.000000 0.041319 -0.999146
vn 0.000000 0.041319 -0.999146
vn 0.000000 0.041319 -0.999146
vn 0.000000 0.041315 -0.999146
vn 0.000000 0.041315 -0.999146
vn 0.000000 0.041315 -0.999146
vn 0.000000 0.041315 -0.999146
vn 0.000000 0.041311 -0.999146
vn 0.000000 0.041311 -0.999146
vn 0.000000 0.041311 -0.999146
vn 0.000000 0.041311 -0.999146
vn 0.000000 0.041311 -0.999146
vn 0.000000 0.041311 -0.999146
vn 0.000000 0.041311 -0.999146
vn 0.000000 0.041311 -0.999146
vn 0.000000 0.041310 -0.999146
vn 0.000000 0.041310 -0.999146
vn 0.000000 0.041318 -0.999146
vn 0.000000 0.041318 -0.999146
vn 0.000000 0.041318 -0.999146
vn 0.000000 0.041318 -0.999146
vn -0.000198 -0.000198 -1.000000
vn -0.000185 0.000185 -1.000000
vn -0.041319 0.000000 -0.999146
vn -0.041319 0.000000 -0.999146
vn -0.041319 0.000000 -0.999146
vn -0.041319 0.000000 -0.999146
vn -0.041315 0.000000 -0.999146
vn -0.041315 0.000000 -0.999146
vn -0.041315 0.000000 -0.999146
vn -0.041315 0.000000 -0.999146
vn -0.041311 0.000000 -0.999146
vn -0.041311 0.000000 -0.999146
vn -0.041311 0.000000 -0.999146
vn -0.041311 0.000000 -0.999146
vn -0.041311 0.000000 -0.999146
vn -0.041311 0.000000 -0.999146
vn -0.041311 0.000000 -0.999146
vn -0.041311 0.000000 -0.999146
vn -0.041311 0.000000 -0.999146
vn -0.041311 0.000000 -0.999146
vn -0.041319 0.000000 -0.999146
vn -0.041319 0.000000 -0.999146
vn -0.041319 0.000000 -0.999146
vn -0.041319 0.000000 -0.999146
vn 0.000198 -0.000198 -1.000000
vn -0.000198 -0.000198 -1.000000
vn 0.000000 -0.041319 -0.999146
vn 0.000000 -0.041319 -0.999146
vn 0.000000 -0.041319 -0.999146
vn 0.000000 -0.041319 -0.999146
vn 0.000000 -0.041315 -0.999146
vn 0.000000 -0.041315 -0.999146
vn 0.000000 -0.041315 -0.999146
vn 0.000000 -0.041315 -0.999146
vn 0.000000 -0.041311 -0.999146
vn 0.000000 -0.041311 -0.999146
vn 0.000000 -0.041311 -0.999146
vn 0.000000 -0.041311 -0.999146
vn 0.000000 -0.041311 -0.999146
vn 0.000000 -0.041311 -0.999146
vn 0.000000 -0.041311 -0.999146
vn 0.000000 -0.041311 -0.999146
vn 0.000000 -0.041310 -0.999146
vn 0.000000 -0.041310 -0.999146
vn 0.000000 -0.041318 -0.999146
vn 0.000000 -0.041318 -0.999146
vn 0.000000 -0.041318 -0.999146
vn 0.000000 -0.041318 -0.999146
vn -0.990460 0.000000 -0.137803
vn -0.990460 0.000000 -0.137803
vn -0.990460 0.000000 -0.137803
vn -0.990460 0.000000 -0.137803
vn 0.994880 0.000000 0.101063
vn 0.994880 0.000000 0.101063
vn 0.993292 0.000000 0.115634
vn 0.993292 0.000000 0.115634
vn 0.000000 -0.990460 -0.137802
vn 0.000000 -0.990460 -0.137802
vn 0.000000 -0.990460 -0.137802
vn 0.000000 -0.990460 -0.137802
vn 0.000000 0.994880 0.101062
vn 0.000000 0.994880 0.101062
vn 0.000000 0.993292 0.115634
vn 0.000000 0.993292 0.115634
vn 0.990460 0.000000 -0.137803
vn 0.990460 0.000000 -0.137803
vn 0.990460 0.000000 -0.137803
vn 0.990460 0.000000 -0.137803
vn -0.994880 0.000000 0.101063
vn -0.994880 0.000000 0.101063
vn -0.993292 0.000000 0.115634
vn -0.993292 0.000000 0.115634
vn 0.000000 0.990460 -0.137802
vn 0.000000 0.990460 -0.137802
vn 0.000000 0.990460 -0.137802
vn 0.000000 0.990460 -0.137802
vn 0.000000 -0.994880 0.101062
vn 0.000000 -0.994880 0.101062
vn 0.000000 -0.993292 0.115634
vn 0.000000 -0.993292 0.115634
vn 0.000185 0.000185 -1.000000
vn -0.000185 0.000185 -1.000000
vn 0.000000 0.000000 -1.000000
vn 0.000000 0.000000 -1.000000
vn 0.000000 -0.000000 1.000000
vn 0.000000 -0.000000 1.000000
vn 0.000000 -0.000000 1.000000
vn 0.000000 -0.000000 1.000000
vn 0.000000 0.000000 1.000000
vn 0.000000 0.000000 1.000000
vn 0.000000 0.000000 1.000000
vn 0.000000 0.000000 1.000000
vn -0.000198 -0.000198 -1.000000
vn 0.000198 -0.000198 -1.000000
vn 0.000000 0.000000 -1.000000
vn 0.000000 0.000000 -1.000000
vn -0.000185 0.000185 -1.000000
vn -0.000198 -0.000198 -1.000000
vn 0.000000 0.000000 -1.000000
vn 0.000000 0.000000 -1.000000
vn 0.000000 0.000000 1.000000
vn 0.000000 -0.000000 1.000000
vn 0.000000 -0.000000 1.000000
vn 0.000000 0.000000 1.000000
vn 0.000198 -0.000198 -1.000000
vn 0.000185 0.000185 -1.000000
vn 0.000000 0.000000 -1.000000
vn 0.000000 0.000000 -1.000000
vn 0.000000 -0.000000 1.000000
vn 0.000000 0.000000 1.000000
vn 0.000000 0.000000 1.000000
vn 0.000000 -0.000000 1.000000
vn -0.707105 0.000000 0.707109
vn -0.486819 0.000000 0.873503
vn -0.486819 0.000000 0.873503
vn -0.707105 0.000000 0.707109
vn 0.000000 -0.486819 0.873503
vn 0.000000 -0.707105 0.707108
vn 0.000000 -0.707105 0.707108
vn 0.000000 -0.486819 0.873503
vn 0.486819 0.000000 0.873503
vn 0.707105 0.000000 0.707109
vn 0.707105 0.000000 0.707109
vn 0.486819 0.000000 0.873503
vn 0.000000 0.486819 0.873503
vn 0.000000 0.707105 0.707108
vn 0.000000 0.707105 0.707108
vn 0.000000 0.486819 0.873503
vn 0.000000 -0.431240 0.902237
vn 0.000000 -0.431240 0.902237
vn 0.000000 -0.431240 0.902237
vn 0.000000 -0.431240 0.902237
vn 0.431240 0.000000 0.902237
vn 0.431240 0.000000 0.902237
vn 0.431240 0.000000 0.902237
vn 0.431240 0.000000 0.902237
vn 0.000000 0.431240 0.902237
vn 0.000000 0.431240 0.902237
vn 0.000000 0.431240 0.902237
vn 0.000000 0.431240 0.902237
vn -0.431240 0.000000 0.902237
vn -0.431240 0.000000 0.902237
vn -0.431240 0.000000 0.902237
vn -0.431240 0.000000 0.902237
vn 0.318975 0.000000 0.947763
vn 0.318975 0.000000 0.947763
vn 0.318975 0.000000 0.947763
vn 0.318975 0.000000 0.947763
vn 0.000000 -0.318975 0.947763
vn 0.000000 -0.318975 0.947763
vn 0.000000 -0.318975 0.947763
vn 0.000000 -0.318975 0.947763
vn -0.318975 0.000000 0.947763
vn -0.318975 0.000000 0.947763
vn -0.318975 0.000000 0.947763
vn -0.318975 0.000000 0.947763
vn 0.000000 0.318975 0.947763
vn 0.000000 0.318975 0.947763
vn 0.000000 0.318975 0.947763
vn 0.000000 0.318975 0.947763
vn 0.000000 1.000000 0.000000
vn 0.000000 1.000000 0.000000
vn 0.000000 1.000000 0.000000
vn 0.000000 1.000000 0.000000
vn -1.000000 0.000000 0.000000
vn -1.000000 0.000000 0.000000
vn -1.000000 0.000000 0.000000
vn -1.000000 0.000000 0.000000
vn 0.000000 -1.000000 0.000000
vn 0.000000 -1.000000 0.000000
vn 0.000000 -1.000000 0.000000
vn 0.000000 -1.000000 0.000000
vn 1.000000 0.000000 0.000000
vn 1.000000 0.000000 0.000000
vn 1.000000 0.000000 0.000000
vn 1.000000 0.000000 0.000000
vn 0.000000 -0.486819 0.873503
vn 0.000000 -0.486819 0.873503
vn 0.000000 -0.427820 0.903864
vn 0.000000 -0.427820 0.903864
vn 0.486819 0.000000 0.873503
vn 0.486819 0.000000 0.873503
vn 0.427820 0.000000 0.903864
vn 0.427820 0.000000 0.903864
vn 0.000000 0.486819 0.873503
vn 0.000000 0.486819 0.873503
vn 0.000000 0.427820 0.903864
vn 0.000000 0.427820 0.903864
vn -0.486819 0.000000 0.873503
vn -0.486819 0.000000 0.873503
vn -0.427819 0.000000 0.903864
vn -0.427819 0.000000 0.903864
s off
g Exit:pCube2
usemtl initialShadingGroup
f 45/3/1 46/4/2 47/5/3 48/6/4
f 49/7/5 50/8/6 51/9/7 52/10/8
f 46/4/9 51/9/10 50/8/11 47/5/12
f 52/10/13 45/3/14 48/6/15 49/7/16
f 9/11/17 10/12/18 16/15/19 13/16/20
f 10/12/21 11/19/22 15/21/23 16/15/24
f 11/19/25 12/55/26 14/56/27 15/21/28
f 12/55/29 9/11/30 13/16/31 14/56/32
f 1/23/33 7/24/34 17/25/35 18/26/36
f 18/26/37 17/25/38 19/27/39 20/28/40
f 20/28/41 19/27/42 21/29/43 22/30/44
f 22/30/45 21/29/46 23/31/47 24/32/48
f 24/32/49 23/31/50 25/33/51 26/34/52
f 38/35/53 37/36/54 39/37/55 40/38/56
f 2/39/57 1/23/58 18/26/59 27/40/60
f 27/40/61 18/26/62 20/28/63 28/41/64
f 28/41/65 20/28/66 22/30/67 29/42/68
f 29/42/69 22/30/70 24/32/71 30/43/72
f 30/43/73 24/32/74 26/34/75 31/44/76
f 41/45/77 38/35/78 40/38/79 42/46/80
f 8/47/81 2/39/82 27/40/83 32/48/84
f 32/48/85 27/40/86 28/41/87 33/49/88
f 33/49/89 28/41/90 29/42/91 34/50/92
f 34/50/93 29/42/94 30/43/95 35/51/96
f 35/51/97 30/43/98 31/44/99 36/52/100
f 43/53/101 41/45/102 42/46/103 44/54/104
f 7/24/105 8/47/106 32/48/107 17/25/108
f 17/25/109 32/48/110 33/49/111 19/27/112
f 19/27/113 33/49/114 34/50/115 21/29/116
f 21/29/117 34/50/118 35/51/119 23/31/120
f 23/31/121 35/51/122 36/52/123 25/33/124
f 37/36/125 43/53/126 44/54/127 39/37/128
f 26/34/129 25/33/130 37/36/131 38/35/132
f 14/22/133 13/18/134 40/38/135 39/37/136
f 31/44/137 26/34/138 38/35/139 41/45/140
f 13/18/141 16/17/142 42/46/143 40/38/144
f 36/52/145 31/44/146 41/45/147 43/53/148
f 16/17/149 15/20/150 44/54/151 42/46/152
f 25/33/153 36/52/154 43/53/155 37/36/156
f 15/20/157 14/22/158 39/37/159 44/54/160
f 1/23/161 2/39/162 46/2/163 45/1/164
f 4/57/165 3/58/166 48/6/167 47/5/168
f 5/59/169 6/60/170 50/8/171 49/7/172
f 8/47/173 7/24/174 52/14/175 51/13/176
f 2/39/177 8/47/178 51/13/179 46/2/180
f 6/60/181 4/57/182 47/5/183 50/8/184
f 7/24/185 1/23/186 45/1/187 52/14/188
f 3/58/189 5/59/190 49/7/191 48/6/192
f 53/61/193 54/62/194 59/63/195 60/64/196
f 54/62/197 53/61/198 56/65/199 55/66/200
f 55/66/201 56/65/202 58/67/203 57/68/204
f 57/68/205 58/67/206 60/64/207 59/63/208
f 3/58/209 4/57/210 56/65/211 53/61/212
f 4/57/213 6/60/214 58/67/215 56/65/216
f 6/60/217 5/59/218 60/64/219 58/67/220
f 5/59/221 3/58/222 53/61/223 60/64/224
f 61/69/225 62/70/226 66/71/227 65/72/228
f 62/70/229 61/69/230 63/73/231 64/74/232
f 64/74/233 63/73/234 67/75/235 68/76/236
f 65/72/237 66/71/238 68/76/239 67/75/240
f 10/12/241 9/11/242 63/73/243 61/69/244
f 11/19/245 10/12/246 61/69/247 65/72/248
f 12/55/249 11/19/250 65/72/251 67/75/252
f 9/11/253 12/55/254 67/75/255 63/73/256
f 54/62/257 55/66/258 62/70/259 64/74/260
f 55/66/261 57/68/262 66/71/263 62/70/264
f 57/68/265 59/63/266 68/76/267 66/71/268
f 59/63/269 54/62/270 64/74/271 68/76/272
