# This file uses centimeters as units for non-parametric coordinates.

mtllib Level06_Tunnel_Mouth_Light_BL.mtl
g default
v -714.244031 -179.091089 -12105.452134
v -490.729530 -179.091564 -12108.497785
v -713.065032 -186.339581 -12153.372826
v -489.556629 -186.340526 -12156.405988
v -713.968629 -145.409088 -12110.532784
v -490.454123 -145.409627 -12113.579925
v -489.281247 -152.657447 -12161.489052
v -712.789560 -152.657359 -12158.452005
v -841.215230 -151.370320 -12103.663873
v -840.015081 -158.376278 -12151.608111
v -835.035055 -118.200173 -12108.345513
v -833.835196 -125.204878 -12156.289957
v -1150.310371 91.733070 -12105.159998
v -1149.110171 84.728412 -12153.105180
v -1144.130345 124.901835 -12109.844436
v -1142.930181 117.897757 -12157.788958
v -1377.884492 211.734629 -12102.197106
v -1377.018713 203.108004 -12149.883541
v -1365.012162 242.811297 -12107.573103
v -1364.146673 234.184386 -12155.262510
v -1664.517567 381.868667 -12101.995133
v -1663.651586 373.241959 -12149.685294
v -1651.644597 412.944349 -12107.382944
v -1650.779899 404.318268 -12155.060521
v -1861.990786 413.062320 -12101.771757
v -1859.890901 403.684255 -12149.285114
v -1871.341453 445.118550 -12108.506566
v -1869.243166 435.740053 -12156.015444
v -2125.258861 408.829252 -12067.615962
v -2107.587033 401.628075 -12112.170621
v -2130.503978 441.668821 -12074.995887
v -2112.833051 434.467645 -12119.550594
v -2449.600626 332.294284 -12033.756024
v -2427.514340 328.388101 -12076.727362
v -2469.956015 356.499926 -12046.414841
v -2447.871420 352.593347 -12089.377212
v -2584.039334 42.560223 -12120.706638
v -2549.375970 36.616668 -12154.063358
v -2603.799580 57.735168 -12143.939197
v -2569.136797 51.791917 -12177.290746
v -2700.275186 -152.447477 -12159.560118
v -2659.410688 -158.892330 -12184.813850
v -2716.078756 -141.857029 -12187.818623
v -2675.213706 -148.302869 -12213.071426
v -2702.278034 -296.135376 -12210.082846
v -2661.345061 -298.864164 -12235.894301
v -2719.397922 -287.236750 -12238.156006
v -2678.464732 -289.965787 -12263.965912
v -2694.873647 -348.908660 -12220.539009
v -2653.933505 -349.459033 -12246.477163
v -2705.172661 -362.968489 -12249.009125
v -2664.232783 -363.519443 -12274.947955
v -2698.142248 -396.327624 -12104.226723
v -2663.366460 -388.060090 -12118.464507
v -2701.132135 -430.740105 -12118.891669
v -2662.234476 -426.565536 -12136.603264
v -2739.721505 -626.589715 -12074.266971
v -2704.945655 -618.322368 -12079.467659
v -2742.217542 -624.892404 -12095.826020
v -2703.813669 -620.377920 -12097.606448
vt 0.492966 0.058681
vt 0.505320 0.002002
vt 0.545330 0.002357
vt 0.532976 0.059036
vt 0.522484 0.089727
vt 0.482474 0.089382
vt 0.480053 0.168197
vt 0.440054 0.167842
vt 0.453882 0.224306
vt 0.413893 0.223875
vt 0.420060 0.297051
vt 0.380082 0.296621
vt 0.407308 0.352514
vt 0.367330 0.352385
vt 0.366975 0.413831
vt 0.328977 0.417705
vt 0.337661 0.498447
vt 0.301181 0.503461
vt 0.604651 0.058681
vt 0.564638 0.059036
vt 0.552285 0.002357
vt 0.592292 0.001991
vt 0.615141 0.090878
vt 0.575133 0.091233
vt 0.657567 0.169346
vt 0.617559 0.169701
vt 0.684841 0.227063
vt 0.644860 0.227499
vt 0.718658 0.299806
vt 0.678672 0.300245
vt 0.731412 0.349921
vt 0.691427 0.350042
vt 0.770373 0.416269
vt 0.732378 0.412398
vt 0.802872 0.498121
vt 0.766381 0.493106
vt 0.001886 0.058678
vt 0.002975 0.001994
vt 0.019408 0.001994
vt 0.018321 0.058678
vt 0.030669 0.089374
vt 0.014485 0.090878
vt 0.145529 0.167845
vt 0.129344 0.169346
vt 0.200744 0.223867
vt 0.185485 0.227063
vt 0.280764 0.296613
vt 0.265505 0.299809
vt 0.295335 0.352388
vt 0.279597 0.349924
vt 0.290272 0.417703
vt 0.274092 0.416266
vt 0.246264 0.503464
vt 0.233889 0.498121
vt 0.039138 0.547254
vt 0.039128 0.507244
vt 0.055560 0.507244
vt 0.055560 0.547254
vt 0.944371 0.501922
vt 0.945468 0.558591
vt 0.929047 0.558591
vt 0.927949 0.501922
vt 0.932748 0.590788
vt 0.916564 0.589282
vt 0.817884 0.669259
vt 0.801720 0.667752
vt 0.762550 0.727046
vt 0.747290 0.723861
vt 0.682530 0.799792
vt 0.667270 0.796606
vt 0.668799 0.849594
vt 0.653066 0.852069
vt 0.673426 0.911966
vt 0.657241 0.913386
vt 0.712144 0.992675
vt 0.699769 0.998012
vt 0.033268 0.522336
vt 0.024514 0.527093
vt 0.023583 0.509837
vt 0.033306 0.507244
vt 0.410765 0.964155
vt 0.374273 0.962842
vt 0.474955 0.830372
vt 0.504419 0.830071
vt 0.525543 0.739693
vt 0.548733 0.738595
vt 0.417189 0.976530
vt 0.520604 0.838906
vt 0.584374 0.674784
vt 0.607565 0.675500
vt 0.569772 0.745622
vt 0.599731 0.650394
vt 0.622760 0.652156
vt 0.628592 0.681698
vt 0.647252 0.647459
vt 0.522734 0.624497
vt 0.542320 0.607438
vt 0.517505 0.511696
vt 0.532592 0.512024
vt 0.510607 0.619394
vt 0.512748 0.507241
vt 0.368454 0.962845
vt 0.362019 0.975220
vt 0.251575 0.839204
vt 0.267770 0.830375
vt 0.325536 0.976533
vt 0.222116 0.838908
vt 0.196144 0.746723
vt 0.217177 0.739696
vt 0.172953 0.745625
vt 0.137318 0.680986
vt 0.158351 0.674787
vt 0.114128 0.681701
vt 0.118502 0.645697
vt 0.142992 0.650397
vt 0.095473 0.647462
vt 0.216047 0.604024
vt 0.232116 0.619397
vt 0.212721 0.509595
vt 0.229977 0.507244
vt 0.200403 0.607441
vt 0.210128 0.512027
vt 0.071403 0.619402
vt 0.061371 0.596373
vt 0.062140 0.507249
vt 0.070771 0.519377
vt 0.077217 0.530273
vt 0.087252 0.507244
vt 0.089662 0.612173
vt 0.080033 0.627817
vn 0.092476 0.985009 -0.145621
vn -0.002035 0.988742 -0.149618
vn -0.002035 0.988742 -0.149618
vn 0.060134 0.987286 -0.147140
vn -0.092174 -0.985037 0.145620
vn -0.061043 -0.987237 0.147093
vn 0.002032 -0.988740 0.149631
vn 0.002032 -0.988740 0.149631
vn 0.023673 0.146278 0.988960
vn 0.013476 0.149055 0.988737
vn 0.013476 0.149055 0.988737
vn 0.027033 0.145359 0.989010
vn 0.999674 -0.004380 0.025137
vn 0.999674 -0.004380 0.025137
vn 0.999674 -0.004380 0.025137
vn 0.999674 -0.004380 0.025137
vn -0.013427 -0.149044 -0.988739
vn -0.023645 -0.146267 -0.988963
vn -0.027050 -0.145338 -0.989012
vn -0.013427 -0.149044 -0.988739
vn 0.261487 0.010844 0.965146
vn 0.262317 0.005787 0.964964
vn 0.172332 -0.985034 0.002967
vn 0.172332 -0.985034 0.002967
vn -0.210285 -0.967754 0.138680
vn -0.210285 -0.967754 0.138680
vn 0.046836 0.139907 0.989056
vn 0.046836 0.139907 0.989056
vn 0.215742 0.966598 -0.138360
vn 0.215742 0.966598 -0.138360
vn -0.046917 -0.139878 -0.989057
vn -0.046917 -0.139878 -0.989057
vn -0.615473 -0.781936 0.098843
vn -0.615473 -0.781936 0.098843
vn -0.615473 -0.781936 0.098843
vn -0.615473 -0.781936 0.098843
vn 0.091535 0.122471 0.988242
vn 0.091535 0.122471 0.988242
vn 0.091535 0.122471 0.988242
vn 0.091535 0.122471 0.988242
vn 0.615471 0.781938 -0.098831
vn 0.615471 0.781938 -0.098831
vn 0.615471 0.781938 -0.098831
vn 0.615471 0.781938 -0.098831
vn -0.091527 -0.122463 -0.988244
vn -0.091527 -0.122463 -0.988244
vn -0.091527 -0.122463 -0.988244
vn -0.091527 -0.122463 -0.988244
vn -0.458102 -0.878781 0.133742
vn -0.458102 -0.878781 0.133742
vn -0.458102 -0.878781 0.133742
vn -0.458102 -0.878781 0.133742
vn 0.080893 0.130743 0.988111
vn 0.080893 0.130743 0.988111
vn 0.080893 0.130743 0.988111
vn 0.080893 0.130743 0.988111
vn 0.462809 0.876387 -0.133245
vn 0.462809 0.876387 -0.133245
vn 0.462809 0.876387 -0.133245
vn 0.462809 0.876387 -0.133245
vn -0.080965 -0.130755 -0.988103
vn -0.080965 -0.130755 -0.988103
vn -0.080965 -0.130755 -0.988103
vn -0.080965 -0.130755 -0.988103
vn -0.504967 -0.850913 0.144759
vn -0.504967 -0.850913 0.144759
vn -0.504967 -0.850913 0.144759
vn -0.504967 -0.850913 0.144759
vn 0.081992 0.136999 0.987172
vn 0.081992 0.136999 0.987172
vn 0.081992 0.136999 0.987172
vn 0.081992 0.136999 0.987172
vn 0.504966 0.850910 -0.144777
vn 0.504966 0.850910 -0.144777
vn 0.504966 0.850910 -0.144777
vn 0.504966 0.850910 -0.144777
vn -0.081933 -0.136876 -0.987194
vn -0.081933 -0.136876 -0.987194
vn -0.081933 -0.136876 -0.987194
vn -0.081933 -0.136876 -0.987194
vn -0.151889 -0.972036 0.179098
vn -0.151889 -0.972036 0.179098
vn -0.151889 -0.972036 0.179098
vn -0.151889 -0.972036 0.179098
vn 0.026300 0.187095 0.981990
vn 0.026300 0.187095 0.981990
vn 0.026300 0.187095 0.981990
vn 0.026300 0.187095 0.981990
vn 0.142135 0.973400 -0.179696
vn 0.142135 0.973400 -0.179696
vn 0.142135 0.973400 -0.179696
vn 0.142135 0.973400 -0.179696
vn -0.026556 -0.186824 -0.982034
vn -0.026556 -0.186824 -0.982034
vn -0.026556 -0.186824 -0.982034
vn -0.026556 -0.186824 -0.982034
vn 0.037888 -0.982013 0.184974
vn 0.037888 -0.982013 0.184974
vn 0.037888 -0.982013 0.184974
vn 0.037888 -0.982013 0.184974
vn 0.121364 0.236945 0.963913
vn 0.121364 0.236945 0.963913
vn 0.121364 0.236945 0.963913
vn 0.121364 0.236945 0.963913
vn -0.034889 0.982235 -0.184382
vn -0.034889 0.982235 -0.184382
vn -0.034889 0.982235 -0.184382
vn -0.034889 0.982235 -0.184382
vn -0.142165 -0.240740 -0.960122
vn -0.142165 -0.240740 -0.960122
vn -0.142165 -0.240740 -0.960122
vn -0.142165 -0.240740 -0.960122
vn 0.243783 -0.942091 0.230292
vn 0.243783 -0.942091 0.230292
vn 0.243783 -0.942091 0.230292
vn 0.243783 -0.942091 0.230292
vn 0.007216 0.334297 0.942440
vn 0.007216 0.334297 0.942440
vn 0.007216 0.334297 0.942440
vn 0.007216 0.334297 0.942440
vn -0.252879 0.938768 -0.234023
vn -0.252879 0.938768 -0.234023
vn -0.252879 0.938768 -0.234023
vn -0.252879 0.938768 -0.234023
vn -0.014489 -0.337044 -0.941377
vn -0.014489 -0.337044 -0.941377
vn -0.014489 -0.337044 -0.941377
vn -0.014489 -0.337044 -0.941377
vn 0.682598 -0.461048 0.567005
vn 0.682598 -0.461048 0.567005
vn 0.682598 -0.461048 0.567005
vn 0.682598 -0.461048 0.567005
vn -0.638175 0.050105 0.768260
vn -0.638175 0.050105 0.768260
vn -0.638175 0.050105 0.768260
vn -0.638174 0.050105 0.768260
vn -0.680747 0.464767 -0.566194
vn -0.680747 0.464767 -0.566194
vn -0.680747 0.464767 -0.566194
vn -0.680747 0.464767 -0.566194
vn 0.639144 -0.048183 -0.767576
vn 0.639144 -0.048183 -0.767576
vn 0.639144 -0.048183 -0.767576
vn 0.639144 -0.048183 -0.767576
vn 0.509179 -0.428101 0.746636
vn 0.509179 -0.428101 0.746636
vn 0.509179 -0.428101 0.746636
vn 0.509179 -0.428101 0.746636
vn -0.717606 0.282060 0.636776
vn -0.717606 0.282060 0.636776
vn -0.717606 0.282060 0.636776
vn -0.717606 0.282060 0.636776
vn -0.509491 0.427213 -0.746933
vn -0.509491 0.427213 -0.746933
vn -0.509491 0.427213 -0.746933
vn -0.509491 0.427213 -0.746933
vn 0.716439 -0.284229 -0.637126
vn 0.716439 -0.284229 -0.637126
vn 0.716439 -0.284229 -0.637126
vn 0.716439 -0.284229 -0.637126
vn 0.480322 -0.301663 0.823584
vn 0.480322 -0.301663 0.823584
vn 0.480322 -0.301663 0.823584
vn 0.480322 -0.301663 0.823584
vn -0.875266 -0.144886 0.461430
vn -0.875266 -0.144886 0.461430
vn -0.875266 -0.144886 0.461430
vn -0.875266 -0.144886 0.461430
vn -0.480345 0.301470 -0.823641
vn -0.480345 0.301470 -0.823641
vn -0.480345 0.301470 -0.823641
vn -0.480345 0.301470 -0.823641
vn 0.875316 0.150299 -0.459599
vn 0.875316 0.150299 -0.459599
vn 0.875316 0.150299 -0.459599
vn 0.875316 0.150299 -0.459599
vn 0.529090 -0.095773 0.843143
vn 0.529090 -0.095773 0.843143
vn 0.529090 -0.095773 0.843143
vn 0.529090 -0.095773 0.843143
vn -0.869789 -0.219668 0.441828
vn -0.869789 -0.219668 0.441828
vn -0.869789 -0.219668 0.441828
vn -0.869789 -0.219668 0.441828
vn -0.533526 0.021966 -0.845498
vn -0.533526 0.021966 -0.845498
vn -0.533526 0.021966 -0.845498
vn -0.533526 0.021966 -0.845498
vn 0.867756 0.227987 -0.441612
vn 0.867756 0.227987 -0.441612
vn 0.867756 0.227987 -0.441612
vn 0.867756 0.227987 -0.441612
vn 0.081951 0.938733 0.334760
vn 0.081951 0.938733 0.334760
vn 0.081951 0.938733 0.334760
vn 0.081951 0.938733 0.334760
vn -0.978080 0.187444 0.090684
vn -0.978080 0.187444 0.090684
vn -0.981667 0.188337 0.029297
vn -0.981162 0.188192 0.043637
vn -0.192966 -0.883758 -0.426304
vn -0.192966 -0.883758 -0.426304
vn -0.192966 -0.883758 -0.426304
vn -0.192966 -0.883758 -0.426304
vn 0.988707 -0.147119 -0.028545
vn 0.988707 -0.147119 -0.028545
vn 0.984388 -0.148503 0.094487
vn 0.983458 -0.148516 0.103701
vn 0.245696 0.100005 0.964175
vn 0.245696 0.100005 0.964175
vn -0.981829 0.188538 -0.021582
vn -0.981829 0.188538 -0.021582
vn -0.232004 -0.105257 -0.967003
vn -0.232004 -0.105257 -0.967003
vn -0.232004 -0.105257 -0.967003
vn -0.232004 -0.105257 -0.967003
vn 0.963132 -0.147482 0.225002
vn 0.963132 -0.147482 0.225002
s 1
g pPlane2
usemtl initialShadingGroup
f 5/1/1 6/2/2 7/3/3 8/4/4
s 2
f 1/19/5 3/20/6 4/21/7 2/22/8
s 3
f 1/37/9 2/38/10 6/39/11 5/40/12
s off
f 2/55/13 4/56/14 7/57/15 6/58/16
s 4
f 4/59/17 3/60/18 8/61/19 7/62/20
s 5
f 58/77/21 57/78/22 59/79/23 60/80/24
s 2
f 3/20/6 1/19/5 9/23/25 10/24/26
s 3
f 1/37/9 5/40/12 11/41/27 9/42/28
s 1
f 5/1/1 8/4/4 12/5/29 11/6/30
s 4
f 8/61/19 3/60/18 10/63/31 12/64/32
s off
f 10/24/33 9/23/34 13/25/35 14/26/36
f 9/42/37 11/41/38 15/43/39 13/44/40
f 11/6/41 12/5/42 16/7/43 15/8/44
f 12/64/45 10/63/46 14/65/47 16/66/48
f 14/26/49 13/25/50 17/27/51 18/28/52
f 13/44/53 15/43/54 19/45/55 17/46/56
f 15/8/57 16/7/58 20/9/59 19/10/60
f 16/66/61 14/65/62 18/67/63 20/68/64
f 18/28/65 17/27/66 21/29/67 22/30/68
f 17/46/69 19/45/70 23/47/71 21/48/72
f 19/10/73 20/9/74 24/11/75 23/12/76
f 20/68/77 18/67/78 22/69/79 24/70/80
f 22/30/81 21/29/82 25/31/83 26/32/84
f 21/48/85 23/47/86 27/49/87 25/50/88
f 23/12/89 24/11/90 28/13/91 27/14/92
f 24/70/93 22/69/94 26/71/95 28/72/96
f 26/32/97 25/31/98 29/33/99 30/34/100
f 25/50/101 27/49/102 31/51/103 29/52/104
f 27/14/105 28/13/106 32/15/107 31/16/108
f 28/72/109 26/71/110 30/73/111 32/74/112
f 30/34/113 29/33/114 33/35/115 34/36/116
f 29/52/117 31/51/118 35/53/119 33/54/120
f 31/16/121 32/15/122 36/17/123 35/18/124
f 32/74/125 30/73/126 34/75/127 36/76/128
f 34/81/129 33/82/130 37/83/131 38/84/132
f 33/102/133 35/103/134 39/104/135 37/105/136
f 35/103/137 36/106/138 40/107/139 39/104/140
f 36/87/141 34/81/142 38/84/143 40/88/144
f 38/84/145 37/83/146 41/85/147 42/86/148
f 37/105/149 39/104/150 43/108/151 41/109/152
f 39/104/153 40/107/154 44/110/155 43/108/156
f 40/88/157 38/84/158 42/86/159 44/91/160
f 42/86/161 41/85/162 45/89/163 46/90/164
f 41/109/165 43/108/166 47/111/167 45/112/168
f 43/108/169 44/110/170 48/113/171 47/111/172
f 44/91/173 42/86/174 46/90/175 48/94/176
f 46/90/177 45/89/178 49/92/179 50/93/180
f 45/112/181 47/111/182 51/114/183 49/115/184
f 47/111/185 48/113/186 52/116/187 51/114/188
f 48/94/189 46/90/190 50/93/191 52/95/192
f 50/123/193 49/124/194 53/125/195 54/126/196
s 6
f 49/115/197 51/114/198 55/117/199 53/118/200
s off
f 51/127/201 52/128/202 56/129/203 55/130/204
s 7
f 52/95/205 50/93/206 54/96/207 56/97/208
s 5
f 54/96/209 53/100/210 57/101/22 58/98/21
s 6
f 53/118/200 55/117/199 59/119/211 57/120/212
s off
f 55/117/213 56/121/214 60/122/215 59/119/216
s 7
f 56/97/208 54/96/207 58/98/217 60/99/218
