# This file uses centimeters as units for non-parametric coordinates.

mtllib Level06_Tunnel_Shell.mtl
g default
v -1798.957550 -1272.639216 -12890.908808
v -1717.376926 -1272.639216 -12730.798989
v -1691.016450 -1272.639407 -12739.367282
v -1776.533415 -1272.639407 -12907.200050
v -1926.022423 -1272.639216 -13017.975764
v -1909.729646 -1272.639407 -13040.400118
v -2086.133119 -1272.639216 -13099.553866
v -2077.567896 -1272.639216 -13125.912918
v -2263.617383 -1272.639216 -13127.664985
v -2263.617164 -1272.639216 -13155.384124
v -2441.101867 -1272.639216 -13099.553866
v -2449.667090 -1272.639216 -13125.912041
v -2601.212563 -1272.639216 -13017.975764
v -2617.503367 -1272.639216 -13040.400118
v -2728.277326 -1272.639216 -12890.907931
v -2750.701461 -1272.639216 -12907.198297
v -2809.857840 -1272.639216 -12730.798989
v -2836.219742 -1272.639407 -12739.366405
v -2837.968520 -1272.639216 -12553.313190
v -2865.686125 -1272.639216 -12553.311436
v -2809.857840 -1272.639216 -12375.829145
v -2836.219303 -1272.639216 -12367.262607
v -2728.277326 -1272.639216 -12215.718449
v -2750.701461 -1272.639407 -12199.428961
v -2601.212563 -1272.639216 -12088.653248
v -2617.504463 -1272.639407 -12066.231524
v -2441.101867 -1272.639216 -12007.073391
v -2449.667528 -1272.639407 -11980.711709
v -2263.617383 -1272.639216 -11978.964903
v -2263.617164 -1272.639407 -11951.249272
v -2086.133338 -1272.639216 -12007.073391
v -2077.567896 -1272.639407 -11980.710832
v -1926.022423 -1272.639216 -12088.653248
v -1909.730304 -1272.639407 -12066.230647
v -1798.957770 -1272.639216 -12215.718449
v -1776.533415 -1272.639407 -12199.428961
v -1717.377475 -1272.639216 -12375.829145
v -1691.017108 -1272.639407 -12367.263484
v -1689.266356 -1272.639216 -12553.313190
v -1661.549299 -1272.639407 -12553.312313
v -1717.378680 -1689.090109 -12730.798989
v -1798.958866 -1689.090109 -12890.907931
v -1926.023519 -1689.090109 -13017.974010
v -2086.133338 -1689.090109 -13099.552989
v -2263.617383 -1689.090109 -13127.664985
v -2441.101867 -1689.090109 -13099.553866
v -2601.212563 -1689.090109 -13017.975764
v -2728.276888 -1689.090109 -12890.907931
v -2809.856963 -1689.090109 -12730.798989
v -2837.968082 -1689.090109 -12553.313190
v -2809.857402 -1689.090109 -12375.829145
v -2728.276230 -1689.090109 -12215.719326
v -2601.211466 -1689.090109 -12088.655001
v -2441.101429 -1689.090109 -12007.075145
v -2263.617383 -1689.090109 -11978.966657
v -2086.133557 -1689.090109 -12007.075145
v -1926.023300 -1689.090109 -12088.655001
v -1798.959085 -1689.090109 -12215.719326
v -1717.379228 -1689.090109 -12375.829145
v -1689.268329 -1689.090109 -12553.313190
vt 0.465300 0.072145
vt 0.386356 0.030495
vt 0.390581 0.017036
vt 0.473332 0.060697
vt 0.298845 0.016143
vt 0.298845 0.001992
vt 0.527951 0.137018
vt 0.539008 0.128699
vt 0.211335 0.030495
vt 0.207112 0.017037
vt 0.568174 0.218761
vt 0.581170 0.214388
vt 0.132391 0.072145
vt 0.124359 0.060697
vt 0.582034 0.309375
vt 0.595702 0.309375
vt 0.069740 0.137018
vt 0.058685 0.128700
vt 0.568174 0.399989
vt 0.581170 0.404362
vt 0.029517 0.218761
vt 0.016518 0.214388
vt 0.527951 0.481733
vt 0.539008 0.490050
vt 0.015657 0.309375
vt 0.001992 0.309375
vt 0.465299 0.546605
vt 0.473331 0.558053
vt 0.029517 0.399989
vt 0.016519 0.404362
vt 0.386356 0.588256
vt 0.390580 0.601715
vt 0.069740 0.481733
vt 0.058685 0.490050
vt 0.298845 0.602607
vt 0.298844 0.616759
vt 0.132391 0.546605
vt 0.124359 0.558053
vt 0.211335 0.588256
vt 0.207111 0.601714
vt 0.893888 0.309565
vt 0.893888 0.386254
vt 0.602464 0.386253
vt 0.602464 0.309565
vt 0.893888 0.447116
vt 0.602464 0.447115
vt 0.893888 0.224553
vt 0.602464 0.224553
vt 0.893888 0.139543
vt 0.602464 0.139543
vt 0.893888 0.062853
vt 0.602464 0.062854
vt 0.893888 0.001992
vt 0.602464 0.001993
vt 0.705547 0.620468
vt 0.705547 0.695816
vt 0.419220 0.695816
vt 0.419220 0.620469
vt 0.705547 0.779340
vt 0.419220 0.779340
vt 0.705547 0.862864
vt 0.419220 0.862864
vt 0.705547 0.938212
vt 0.419220 0.938212
vt 0.705547 0.998008
vt 0.419220 0.998008
vt 0.998008 0.450826
vt 0.998008 0.526173
vt 0.711682 0.526173
vt 0.711682 0.450826
vt 0.998008 0.609697
vt 0.711682 0.609697
vt 0.998008 0.693221
vt 0.711682 0.693221
vt 0.998008 0.768569
vt 0.711682 0.768568
vt 0.998008 0.828365
vt 0.711682 0.828365
vt 0.133928 0.930256
vt 0.133928 0.856795
vt 0.413085 0.856794
vt 0.413085 0.930255
vt 0.133928 0.775362
vt 0.413085 0.775362
vt 0.133928 0.693930
vt 0.413085 0.693930
vt 0.133928 0.620468
vt 0.413085 0.620469
vn 0.000006 1.000000 -0.000004
vn 0.000007 1.000000 -0.000002
vn 0.000007 1.000000 -0.000002
vn 0.000006 1.000000 -0.000004
vn 0.000003 1.000000 -0.000004
vn 0.000006 1.000000 -0.000004
vn 0.000006 1.000000 -0.000004
vn 0.000003 1.000000 -0.000004
vn 0.000001 1.000000 -0.000001
vn 0.000003 1.000000 -0.000004
vn 0.000003 1.000000 -0.000004
vn 0.000001 1.000000 -0.000001
vn 0.000000 1.000000 0.000000
vn 0.000001 1.000000 -0.000001
vn 0.000001 1.000000 -0.000001
vn 0.000000 1.000000 0.000000
vn 0.000000 1.000000 0.000000
vn 0.000000 1.000000 0.000000
vn 0.000000 1.000000 0.000000
vn 0.000000 1.000000 0.000000
vn 0.000000 1.000000 0.000000
vn 0.000000 1.000000 0.000000
vn 0.000000 1.000000 0.000000
vn 0.000000 1.000000 0.000000
vn -0.000002 1.000000 -0.000001
vn 0.000000 1.000000 0.000000
vn 0.000000 1.000000 0.000000
vn -0.000002 1.000000 -0.000001
vn -0.000003 1.000000 -0.000001
vn -0.000002 1.000000 -0.000001
vn -0.000002 1.000000 -0.000001
vn -0.000003 1.000000 -0.000001
vn -0.000002 1.000000 -0.000000
vn -0.000003 1.000000 -0.000001
vn -0.000003 1.000000 -0.000001
vn -0.000002 1.000000 -0.000000
vn -0.000001 1.000000 0.000001
vn -0.000002 1.000000 -0.000000
vn -0.000002 1.000000 -0.000000
vn -0.000001 1.000000 0.000001
vn -0.000004 1.000000 0.000003
vn -0.000001 1.000000 0.000001
vn -0.000001 1.000000 0.000001
vn -0.000004 1.000000 0.000003
vn -0.000004 1.000000 0.000006
vn -0.000004 1.000000 0.000003
vn -0.000004 1.000000 0.000003
vn -0.000004 1.000000 0.000006
vn -0.000002 1.000000 0.000007
vn -0.000004 1.000000 0.000006
vn -0.000004 1.000000 0.000006
vn -0.000002 1.000000 0.000007
vn -0.000000 1.000000 0.000007
vn -0.000002 1.000000 0.000007
vn -0.000002 1.000000 0.000007
vn -0.000000 1.000000 0.000007
vn 0.000002 1.000000 0.000007
vn -0.000000 1.000000 0.000007
vn -0.000000 1.000000 0.000007
vn 0.000002 1.000000 0.000007
vn 0.000004 1.000000 0.000006
vn 0.000002 1.000000 0.000007
vn 0.000002 1.000000 0.000007
vn 0.000004 1.000000 0.000006
vn 0.000006 1.000000 0.000004
vn 0.000004 1.000000 0.000006
vn 0.000004 1.000000 0.000006
vn 0.000006 1.000000 0.000004
vn 0.000007 1.000000 0.000002
vn 0.000006 1.000000 0.000004
vn 0.000006 1.000000 0.000004
vn 0.000007 1.000000 0.000002
vn 0.000007 1.000000 -0.000000
vn 0.000007 1.000000 0.000002
vn 0.000007 1.000000 0.000002
vn 0.000007 1.000000 0.000000
vn 0.000007 1.000000 -0.000002
vn 0.000007 1.000000 -0.000000
vn 0.000007 1.000000 0.000000
vn 0.000007 1.000000 -0.000002
vn -0.951057 0.000004 0.309016
vn -0.809017 0.000004 0.587784
vn -0.809017 0.000004 0.587785
vn -0.951057 0.000004 0.309016
vn -0.809017 0.000004 0.587784
vn -0.587785 0.000004 0.809017
vn -0.587786 0.000004 0.809017
vn -0.809017 0.000004 0.587785
vn -0.587785 0.000004 0.809017
vn -0.309014 0.000002 0.951057
vn -0.309014 0.000002 0.951057
vn -0.587786 0.000004 0.809017
vn -0.309014 0.000002 0.951057
vn -0.000001 0.000001 1.000000
vn -0.000001 0.000001 1.000000
vn -0.309014 0.000002 0.951057
vn -0.000001 0.000001 1.000000
vn 0.309012 0.000000 0.951058
vn 0.309012 0.000000 0.951058
vn -0.000001 0.000001 1.000000
vn 0.309012 0.000000 0.951058
vn 0.587787 0.000000 0.809016
vn 0.587787 0.000000 0.809016
vn 0.309012 0.000000 0.951058
vn 0.587787 0.000000 0.809016
vn 0.809019 0.000001 0.587783
vn 0.809019 0.000001 0.587783
vn 0.587787 0.000000 0.809016
vn 0.809019 0.000001 0.587783
vn 0.951056 0.000001 0.309017
vn 0.951056 0.000001 0.309017
vn 0.809019 0.000001 0.587783
vn 0.951056 0.000001 0.309017
vn 1.000000 0.000001 0.000001
vn 1.000000 0.000001 0.000001
vn 0.951056 0.000001 0.309017
vn 1.000000 0.000001 0.000001
vn 0.951056 0.000002 -0.309018
vn 0.951056 0.000002 -0.309018
vn 1.000000 0.000001 0.000001
vn 0.951056 0.000002 -0.309018
vn 0.809016 0.000003 -0.587786
vn 0.809016 0.000003 -0.587786
vn 0.951056 0.000002 -0.309018
vn 0.809016 0.000003 -0.587786
vn 0.587785 0.000004 -0.809017
vn 0.587785 0.000004 -0.809017
vn 0.809016 0.000003 -0.587786
vn 0.587785 0.000004 -0.809017
vn 0.309010 0.000004 -0.951059
vn 0.309010 0.000004 -0.951059
vn 0.587785 0.000004 -0.809017
vn 0.309010 0.000004 -0.951059
vn 0.000000 0.000004 -1.000000
vn 0.000000 0.000004 -1.000000
vn 0.309010 0.000004 -0.951059
vn 0.000000 0.000004 -1.000000
vn -0.309010 0.000004 -0.951059
vn -0.309010 0.000004 -0.951059
vn 0.000000 0.000004 -1.000000
vn -0.309010 0.000004 -0.951059
vn -0.587785 0.000004 -0.809017
vn -0.587785 0.000004 -0.809017
vn -0.309010 0.000004 -0.951059
vn -0.587785 0.000004 -0.809017
vn -0.809017 0.000004 -0.587784
vn -0.809017 0.000004 -0.587784
vn -0.587785 0.000004 -0.809017
vn -0.809017 0.000004 -0.587784
vn -0.951056 0.000004 -0.309017
vn -0.951056 0.000004 -0.309017
vn -0.809017 0.000004 -0.587784
vn -0.951056 0.000004 -0.309017
vn -1.000000 0.000004 -0.000002
vn -1.000000 0.000004 -0.000002
vn -0.951056 0.000004 -0.309017
vn -1.000000 0.000004 -0.000002
vn -0.951057 0.000004 0.309016
vn -0.951057 0.000004 0.309016
vn -1.000000 0.000004 -0.000002
s off
g polySurface784 polySurface779 pCylinder83
usemtl polySurface784SG
f 1/1/1 2/2/2 3/3/3 4/4/4
f 5/7/5 1/1/6 4/4/7 6/8/8
f 7/11/9 5/7/10 6/8/11 8/12/12
f 9/15/13 7/11/14 8/12/15 10/16/16
f 11/19/17 9/15/18 10/16/19 12/20/20
f 13/23/21 11/19/22 12/20/23 14/24/24
f 15/27/25 13/23/26 14/24/27 16/28/28
f 17/31/29 15/27/30 16/28/31 18/32/32
f 19/35/33 17/31/34 18/32/35 20/36/36
f 21/39/37 19/35/38 20/36/39 22/40/40
f 23/37/41 21/39/42 22/40/43 24/38/44
f 25/33/45 23/37/46 24/38/47 26/34/48
f 27/29/49 25/33/50 26/34/51 28/30/52
f 29/25/53 27/29/54 28/30/55 30/26/56
f 31/21/57 29/25/58 30/26/59 32/22/60
f 33/17/61 31/21/62 32/22/63 34/18/64
f 35/13/65 33/17/66 34/18/67 36/14/68
f 37/9/69 35/13/70 36/14/71 38/10/72
f 39/5/73 37/9/74 38/10/75 40/6/76
f 2/2/77 39/5/78 40/6/79 3/3/80
f 2/41/81 1/42/82 42/43/83 41/44/84
f 1/42/85 5/45/86 43/46/87 42/43/88
f 5/55/89 7/56/90 44/57/91 43/58/92
f 7/56/93 9/59/94 45/60/95 44/57/96
f 9/59/97 11/61/98 46/62/99 45/60/100
f 11/61/101 13/63/102 47/64/103 46/62/104
f 13/63/105 15/65/106 48/66/107 47/64/108
f 15/67/109 17/68/110 49/69/111 48/70/112
f 17/68/113 19/71/114 50/72/115 49/69/116
f 19/71/117 21/73/118 51/74/119 50/72/120
f 21/73/121 23/75/122 52/76/123 51/74/124
f 23/75/125 25/77/126 53/78/127 52/76/128
f 25/79/129 27/80/130 54/81/131 53/82/132
f 27/80/133 29/83/134 55/84/135 54/81/136
f 29/83/137 31/85/138 56/86/139 55/84/140
f 31/85/141 33/87/142 57/88/143 56/86/144
f 33/53/145 35/51/146 58/52/147 57/54/148
f 35/51/149 37/49/150 59/50/151 58/52/152
f 37/49/153 39/47/154 60/48/155 59/50/156
f 39/47/157 2/41/158 41/44/159 60/48/160
