# This file uses centimeters as units for non-parametric coordinates.

mtllib Level06_Tunnel_Mouth_Light_BR.mtl
g default
v -715.337261 -197.715133 -13041.167255
v -489.494551 -197.282773 -13040.289686
v -714.419404 -161.480407 -13029.876516
v -489.797433 -161.031958 -13029.011297
v -713.556219 -146.669188 -13077.462139
v -488.934465 -146.220716 -13076.600900
v -714.474174 -182.904042 -13088.759294
v -488.631453 -182.471480 -13087.878474
v -840.389497 -152.350392 -13091.471306
v -841.166220 -164.655940 -13043.170408
v -834.508008 -128.461916 -13033.841425
v -833.731183 -116.156492 -13082.139970
v -1148.363992 90.723759 -13090.845215
v -1149.140643 78.420097 -13042.544526
v -1142.482487 114.613793 -13033.216442
v -1141.705591 126.919494 -13081.514899
v -1465.058961 257.190883 -13090.483982
v -1464.878444 244.674035 -13042.233877
v -1444.877460 275.926679 -13034.199227
v -1445.057973 288.444859 -13082.449713
v -1662.441174 377.963431 -13087.461545
v -1662.984331 365.639705 -13039.161272
v -1652.995489 401.102407 -13029.999496
v -1652.451364 413.427394 -13078.296969
v -1864.914423 412.873680 -13085.189789
v -1853.840387 400.915347 -13038.079714
v -1860.484497 436.742740 -13027.423367
v -1871.559169 448.701777 -13074.530845
v -1879.269293 308.366760 -13024.281810
v -1869.661232 313.694662 -12987.799294
v -1898.639659 323.663237 -12975.694938
v -1911.325152 316.773963 -13014.956443
v -1856.446720 38.117220 -12896.088360
v -1878.563430 34.582509 -12865.269131
v -1906.663982 47.194744 -12876.968341
v -1884.322194 50.310354 -12912.195587
v -1888.217421 -160.275357 -12868.627294
v -1910.884040 -168.507264 -12839.129356
v -1939.375524 -175.167374 -12857.056845
v -1915.815424 -167.751709 -12890.816934
v -1833.375613 -314.307169 -12676.886254
v -1857.241347 -325.709683 -12651.906471
v -1871.900412 -337.290297 -12673.476834
v -1848.150688 -326.915898 -12706.312642
v -1819.057767 -368.893271 -12634.530157
v -1842.923820 -380.296238 -12609.548927
v -1841.302641 -408.878318 -12625.163446
v -1817.552915 -398.504195 -12657.999339
v -1628.689178 -271.306796 -12449.699815
v -1652.554761 -282.709863 -12424.720201
v -1668.311205 -309.747669 -12446.434779
v -1644.561481 -299.373269 -12479.270586
v -1574.090075 -698.267868 -12448.871533
v -1597.956501 -709.593494 -12423.857475
v -1613.714159 -711.258267 -12447.421842
v -1589.963740 -700.985247 -12480.288890
vt 0.009868 0.120708
vt 0.009268 0.001938
vt 0.029430 0.001938
vt 0.030018 0.120065
vt 0.046645 0.183211
vt 0.026848 0.186852
vt 0.171310 0.344838
vt 0.151513 0.348480
vt 0.254236 0.503655
vt 0.237206 0.514292
vt 0.319255 0.612890
vt 0.299869 0.618279
vt 0.338612 0.721926
vt 0.318737 0.718585
vt 0.289593 0.741623
vt 0.282506 0.726518
vt 0.165007 0.745222
vt 0.160338 0.730345
vt 0.055530 0.762514
vt 0.061615 0.747345
vt 0.001992 0.725418
vt 0.011205 0.717480
vt 0.157176 0.719016
vt 0.061039 0.735710
vt 0.688218 0.120065
vt 0.689511 0.001939
vt 0.709673 0.001939
vt 0.708379 0.120065
vt 0.713010 0.183269
vt 0.692876 0.183213
vt 0.739824 0.344895
vt 0.719691 0.344839
vt 0.757475 0.504212
vt 0.737338 0.503654
vt 0.769439 0.613067
vt 0.749302 0.612889
vt 0.770687 0.728205
vt 0.751139 0.721928
vt 0.652477 0.120062
vt 0.653063 0.001939
vt 0.673231 0.001939
vt 0.672631 0.120703
vt 0.657031 0.186906
vt 0.637232 0.183266
vt 0.532366 0.348532
vt 0.512568 0.344891
vt 0.446553 0.514851
vt 0.429523 0.504209
vt 0.383998 0.618454
vt 0.364611 0.613063
vt 0.365078 0.724861
vt 0.345202 0.728201
vt 0.408406 0.731939
vt 0.402534 0.748690
vt 0.525323 0.719017
vt 0.521564 0.733815
vt 0.621457 0.735705
vt 0.628633 0.750448
vt 0.669549 0.705160
vt 0.680526 0.713242
vt 0.517491 0.745218
vt 0.626966 0.762513
vt 0.840034 0.120708
vt 0.838742 0.001939
vt 0.858903 0.001939
vt 0.860198 0.120708
vt 0.856333 0.186854
vt 0.836196 0.186909
vt 0.829519 0.348479
vt 0.809384 0.348535
vt 0.811870 0.514293
vt 0.791735 0.514852
vt 0.799905 0.618280
vt 0.779769 0.618458
vt 0.797420 0.718586
vt 0.777869 0.724862
vt 0.029471 0.810279
vt 0.049633 0.810279
vt 0.049633 0.830441
vt 0.029471 0.830441
vt 0.022831 0.820214
vt 0.010515 0.831401
vt 0.001992 0.822612
vt 0.014168 0.808520
vt 0.212521 0.926746
vt 0.192970 0.928067
vt 0.162965 0.891836
vt 0.176344 0.883421
vt 0.082044 0.769669
vt 0.094523 0.766506
vt 0.238204 0.944182
vt 0.218654 0.942862
vt 0.257791 0.885530
vt 0.272036 0.895163
vt 0.329306 0.766506
vt 0.343440 0.770577
vt 0.361212 0.950977
vt 0.349575 0.938438
vt 0.379440 0.847625
vt 0.391756 0.858811
vt 0.387319 0.824810
vt 0.399636 0.835992
vt 0.489390 0.766502
vt 0.501707 0.777684
vt 0.507841 0.780593
vt 0.519904 0.766501
vt 0.557113 0.856400
vt 0.544938 0.870492
vt 0.573590 0.883444
vt 0.561414 0.897537
vt 0.666465 0.939334
vt 0.654289 0.953427
vt 0.014399 0.804528
vt 0.007565 0.795315
vt 0.034609 0.766505
vt 0.037216 0.783469
vt 0.075910 0.795315
vt 0.066168 0.806288
vt 0.043349 0.785229
vt 0.048866 0.766505
vt 0.719087 0.875416
vt 0.719747 0.858453
vt 0.812622 0.936180
vt 0.821158 0.953251
vt 0.840799 0.732193
vt 0.849322 0.736688
vt 0.833475 0.954991
vt 0.861639 0.738384
vt 0.868293 0.098499
vt 0.867773 0.079774
vt 0.969844 0.001939
vt 0.961167 0.020768
vt 0.998008 0.218546
vt 0.989345 0.224816
vt 0.672599 0.766502
vt 0.684774 0.766523
vt 0.712952 0.970570
vt 0.700776 0.970493
vn -0.003113 -0.297258 0.954792
vn -0.003113 -0.297258 0.954792
vn -0.003113 -0.297258 0.954792
vn -0.003113 -0.297258 0.954792
vn -0.003048 0.954833 0.297128
vn -0.003048 0.954833 0.297128
vn -0.003048 0.954833 0.297128
vn -0.003048 0.954833 0.297128
vn 0.003111 0.297325 -0.954771
vn 0.003111 0.297325 -0.954771
vn 0.003111 0.297325 -0.954771
vn 0.003111 0.297325 -0.954771
vn 0.002985 -0.954838 -0.297113
vn 0.002985 -0.954838 -0.297113
vn 0.002985 -0.954838 -0.297113
vn 0.002985 -0.954838 -0.297113
vn 0.999818 0.002475 0.018902
vn 0.999818 0.002475 0.018902
vn 0.999818 0.002475 0.018902
vn 0.999818 0.002475 0.018902
vn 0.306599 -0.946470 -0.100953
vn 0.306599 -0.946470 -0.100953
vn 0.306599 -0.946470 -0.100953
vn 0.306599 -0.946470 -0.100953
vn -0.231271 -0.935136 -0.268393
vn -0.231271 -0.935136 -0.268393
vn -0.515363 -0.826624 -0.226038
vn -0.526789 -0.820038 -0.223678
vn -0.094096 -0.263478 0.960065
vn -0.094096 -0.263478 0.960065
vn -0.153621 -0.226559 0.961807
vn -0.142956 -0.233290 0.961842
vn 0.237251 0.933716 0.268119
vn 0.237251 0.933715 0.268119
vn 0.531338 0.817332 0.222817
vn 0.519203 0.824404 0.225359
vn 0.094232 0.263569 -0.960027
vn 0.094232 0.263569 -0.960027
vn 0.143256 0.233205 -0.961818
vn 0.153524 0.226709 -0.961787
vn -0.539597 -0.814031 -0.214917
vn -0.532032 -0.818744 -0.215872
vn -0.132513 -0.210460 0.968580
vn -0.147018 -0.212969 0.965935
vn 0.535344 0.816697 0.215438
vn 0.542862 0.811972 0.214483
vn 0.146886 0.213039 -0.965939
vn 0.132314 0.210553 -0.968587
vn -0.453899 -0.862313 -0.224479
vn -0.453899 -0.862314 -0.224479
vn -0.110529 -0.206577 0.972167
vn -0.110529 -0.206577 0.972167
vn 0.457823 0.860352 0.224035
vn 0.457823 0.860352 0.224035
vn 0.110243 0.206707 -0.972172
vn 0.110243 0.206707 -0.972172
vn -0.511652 -0.831629 -0.215884
vn -0.511652 -0.831629 -0.215884
vn -0.511652 -0.831629 -0.215884
vn -0.511652 -0.831629 -0.215884
vn -0.105785 -0.203343 0.973376
vn -0.105785 -0.203343 0.973376
vn -0.105785 -0.203343 0.973376
vn -0.105785 -0.203343 0.973376
vn 0.506731 0.834445 0.216623
vn 0.506731 0.834445 0.216623
vn 0.506731 0.834445 0.216623
vn 0.506731 0.834445 0.216623
vn 0.106125 0.203214 -0.973366
vn 0.106125 0.203214 -0.973366
vn 0.106125 0.203214 -0.973366
vn 0.106125 0.203214 -0.973366
vn -0.173022 -0.958887 -0.224942
vn -0.173022 -0.958887 -0.224942
vn -0.173022 -0.958887 -0.224942
vn -0.173022 -0.958887 -0.224942
vn -0.038503 -0.265960 0.963215
vn -0.038503 -0.265960 0.963215
vn -0.038503 -0.265960 0.963215
vn -0.038503 -0.265960 0.963215
vn 0.162999 0.960290 0.226437
vn 0.162999 0.960290 0.226437
vn 0.162999 0.960290 0.226437
vn 0.162999 0.960290 0.226437
vn 0.030560 0.266441 -0.963367
vn 0.030560 0.266441 -0.963367
vn 0.030560 0.266441 -0.963367
vn 0.030560 0.266441 -0.963367
vn 0.923049 -0.291109 -0.251467
vn 0.923049 -0.291109 -0.251467
vn 0.923049 -0.291109 -0.251467
vn 0.923049 -0.291109 -0.251467
vn 0.681813 0.177664 0.709624
vn 0.681813 0.177664 0.709624
vn 0.681813 0.177664 0.709624
vn 0.681813 0.177664 0.709624
vn -0.877648 0.399459 0.264889
vn -0.877648 0.399459 0.264889
vn -0.877648 0.399459 0.264889
vn -0.877648 0.399459 0.264889
vn -0.639513 -0.227778 -0.734262
vn -0.639513 -0.227778 -0.734262
vn -0.639513 -0.227778 -0.734262
vn -0.639513 -0.227778 -0.734262
vn 0.978082 0.106453 0.178949
vn 0.978082 0.106453 0.178949
vn 0.978082 0.106453 0.178949
vn 0.978082 0.106453 0.178949
vn 0.149691 0.361877 0.920129
vn 0.149691 0.361877 0.920129
vn 0.149691 0.361877 0.920129
vn 0.149691 0.361877 0.920129
vn -0.988985 -0.080633 -0.124121
vn -0.988986 -0.080633 -0.124121
vn -0.988985 -0.080633 -0.124121
vn -0.988985 -0.080633 -0.124121
vn -0.032916 -0.397633 -0.916954
vn -0.032916 -0.397633 -0.916954
vn -0.032916 -0.397633 -0.916954
vn -0.032916 -0.397633 -0.916954
vn 0.806540 -0.050111 0.589051
vn 0.806540 -0.050111 0.589051
vn 0.806540 -0.050111 0.589051
vn 0.806540 -0.050111 0.589051
vn -0.444050 0.163236 0.881007
vn -0.444050 0.163236 0.881007
vn -0.444050 0.163236 0.881007
vn -0.444050 0.163236 0.881007
vn -0.835410 0.070686 -0.545063
vn -0.835410 0.070686 -0.545063
vn -0.835410 0.070686 -0.545063
vn -0.835410 0.070686 -0.545063
vn 0.548582 -0.179112 -0.816687
vn 0.548581 -0.179112 -0.816687
vn 0.548581 -0.179112 -0.816687
vn 0.548581 -0.179112 -0.816687
vn 0.313546 0.775877 0.547452
vn 0.313547 0.775877 0.547452
vn 0.313547 0.775877 0.547452
vn 0.313546 0.775877 0.547452
vn -0.704302 0.407702 0.581152
vn -0.704302 0.407702 0.581152
vn -0.704302 0.407702 0.581152
vn -0.704302 0.407702 0.581152
vn -0.423703 -0.753738 -0.502349
vn -0.423703 -0.753738 -0.502349
vn -0.423703 -0.753738 -0.502349
vn -0.423703 -0.753738 -0.502349
vn 0.789540 -0.320147 -0.523577
vn 0.789540 -0.320147 -0.523577
vn 0.789540 -0.320147 -0.523577
vn 0.789540 -0.320147 -0.523576
vn 0.402044 0.624808 0.669310
vn 0.402045 0.624808 0.669310
vn 0.402045 0.624808 0.669310
vn 0.402044 0.624808 0.669310
vn -0.922641 -0.054034 0.381857
vn -0.922641 -0.054034 0.381857
vn -0.922641 -0.054034 0.381857
vn -0.922641 -0.054034 0.381857
vn -0.531175 -0.618108 -0.579479
vn -0.531175 -0.618108 -0.579479
vn -0.531175 -0.618108 -0.579479
vn -0.531175 -0.618108 -0.579479
vn 0.941527 0.105127 -0.320117
vn 0.941527 0.105127 -0.320117
vn 0.941527 0.105127 -0.320117
vn 0.941527 0.105127 -0.320117
vn -0.444193 0.895798 -0.015460
vn -0.444193 0.895798 -0.015460
vn -0.444193 0.895798 -0.015460
vn -0.444193 0.895798 -0.015460
vn -0.553861 -0.362350 0.749626
vn -0.553861 -0.362350 0.749626
vn -0.713458 -0.199281 0.671763
vn -0.741247 -0.164187 0.650843
vn 0.457121 -0.887994 0.050074
vn 0.457121 -0.887994 0.050074
vn 0.457121 -0.887994 0.050074
vn 0.457121 -0.887994 0.050074
vn 0.417385 0.556599 -0.718323
vn 0.417385 0.556599 -0.718323
vn 0.417385 0.556599 -0.718323
vn 0.417385 0.556599 -0.718323
vn 0.699335 0.090841 0.708998
vn 0.699335 0.090841 0.708998
vn 0.699335 0.090841 0.708998
vn 0.699335 0.090841 0.708998
vn -0.784408 -0.103489 0.611551
vn -0.784408 -0.103489 0.611551
vn -0.789752 -0.105867 -0.604222
vn -0.789752 -0.105867 -0.604222
vn -0.789752 -0.105867 -0.604222
vn -0.789752 -0.105867 -0.604222
vn 0.856829 0.113036 -0.503057
vn 0.856829 0.113036 -0.503057
vn 0.856829 0.113036 -0.503057
vn 0.856829 0.113036 -0.503057
s off
g pCube1
usemtl initialShadingGroup
f 1/1/1 2/2/2 4/3/3 3/4/4
f 3/25/5 4/26/6 6/27/7 5/28/8
f 5/39/9 6/40/10 8/41/11 7/42/12
f 7/63/13 8/64/14 2/65/15 1/66/16
f 2/77/17 8/78/18 6/79/19 4/80/20
f 53/81/21 54/82/22 55/83/23 56/84/24
s 1
f 7/63/25 1/66/26 10/67/27 9/68/28
s 2
f 1/1/29 3/4/30 11/5/31 10/6/32
s 3
f 3/25/33 5/28/34 12/29/35 11/30/36
s 4
f 5/39/37 7/42/38 9/43/39 12/44/40
s 1
f 9/68/28 10/67/27 14/69/41 13/70/42
s 2
f 10/6/32 11/5/31 15/7/43 14/8/44
s 3
f 11/30/36 12/29/35 16/31/45 15/32/46
s 4
f 12/44/40 9/43/39 13/45/47 16/46/48
s 1
f 13/70/42 14/69/41 18/71/49 17/72/50
s 2
f 14/8/44 15/7/43 19/9/51 18/10/52
s 3
f 15/32/46 16/31/45 20/33/53 19/34/54
s 4
f 16/46/48 13/45/47 17/47/55 20/48/56
s off
f 17/72/57 18/71/58 22/73/59 21/74/60
f 18/10/61 19/9/62 23/11/63 22/12/64
f 19/34/65 20/33/66 24/35/67 23/36/68
f 20/48/69 17/47/70 21/49/71 24/50/72
f 21/74/73 22/73/74 26/75/75 25/76/76
f 22/12/77 23/11/78 27/13/79 26/14/80
f 23/36/81 24/35/82 28/37/83 27/38/84
f 24/50/85 21/49/86 25/51/87 28/52/88
f 25/85/89 26/86/90 30/87/91 29/88/92
f 26/14/93 27/13/94 31/15/95 30/16/96
f 27/91/97 28/92/98 32/93/99 31/94/100
f 28/52/101 25/51/102 29/53/103 32/54/104
f 29/88/105 30/87/106 34/89/107 33/90/108
f 30/16/109 31/15/110 35/17/111 34/18/112
f 31/94/113 32/93/114 36/95/115 35/96/116
f 32/54/117 29/53/118 33/55/119 36/56/120
f 33/23/121 34/18/122 38/20/123 37/24/124
f 34/18/125 35/17/126 39/19/127 38/20/128
f 35/61/129 36/56/130 40/58/131 39/62/132
f 36/56/133 33/55/134 37/57/135 40/58/136
f 37/97/137 38/98/138 42/99/139 41/100/140
f 38/20/141 39/19/142 43/21/143 42/22/144
f 39/105/145 40/106/146 44/107/147 43/108/148
f 40/58/149 37/57/150 41/59/151 44/60/152
f 41/100/153 42/99/154 46/101/155 45/102/156
f 42/113/157 43/114/158 47/115/159 46/116/160
f 43/108/161 44/107/162 48/109/163 47/110/164
f 44/117/165 41/118/166 45/119/167 48/120/168
f 45/102/169 46/101/170 50/103/171 49/104/172
s 5
f 46/121/173 47/122/174 51/123/175 50/124/176
s off
f 47/110/177 48/109/178 52/111/179 51/112/180
f 48/129/181 45/130/182 49/131/183 52/132/184
f 49/127/185 50/124/186 54/126/187 53/128/188
s 5
f 50/124/176 51/123/175 55/125/189 54/126/190
s off
f 51/135/191 52/136/192 56/137/193 55/138/194
f 52/132/195 49/131/196 53/133/197 56/134/198
