# This file uses centimeters as units for non-parametric coordinates.

mtllib Level07_FloorBarLights.mtl
g default
v -2899.022949 -343.509216 -3183.067871
v -2700.327148 -343.509216 -3183.067871
v -2899.022949 -252.835327 -3183.067871
v -2700.327148 -252.835327 -3183.067871
v -2899.022949 -252.835327 -4656.550781
v -2700.327148 -252.835327 -4656.550781
v -2899.022949 -343.509216 -4656.550781
v -2700.327148 -343.509216 -4656.550781
v -3097.059570 -343.509216 -3183.067871
v -3064.716309 -343.509216 -3183.067871
v -3097.059570 -252.835327 -3183.067871
v -3064.716309 -252.835327 -3183.067871
v -3097.059570 -252.835327 -4656.550781
v -3064.716309 -252.835327 -4656.550781
v -3097.059570 -343.509216 -4656.550781
v -3064.716309 -343.509216 -4656.550781
vt 0.829825 0.153995
vt 0.829825 0.001992
vt 0.910470 0.001992
vt 0.910470 0.153995
vt 0.209099 0.001992
vt 0.409098 0.001992
vt 0.409098 0.998008
vt 0.209099 0.998008
vt 0.917363 0.153995
vt 0.917363 0.001992
vt 0.998008 0.001992
vt 0.998008 0.153995
vt 0.416008 0.001992
vt 0.616007 0.001992
vt 0.616007 0.998008
vt 0.416008 0.998008
vt 0.622916 0.998008
vt 0.622916 0.001992
vt 0.822915 0.001992
vt 0.822915 0.998008
vt 0.001992 0.998008
vt 0.001992 0.001992
vt 0.201991 0.001992
vt 0.201991 0.998008
vt 0.830126 0.153995
vt 0.830126 0.001992
vt 0.910438 0.001992
vt 0.910438 0.153995
vt 0.416158 0.001992
vt 0.615331 0.001992
vt 0.615331 0.998008
vt 0.416158 0.998008
vt 0.917696 0.153995
vt 0.917696 0.001992
vt 0.998008 0.001992
vt 0.998008 0.153995
vt 0.623142 0.001992
vt 0.822315 0.001992
vt 0.822315 0.998007
vt 0.623142 0.998007
vt 0.209175 0.998008
vt 0.209175 0.001992
vt 0.408348 0.001992
vt 0.408348 0.998008
vt 0.001992 0.998008
vt 0.001992 0.001992
vt 0.201165 0.001992
vt 0.201165 0.998008
vn 0.000000 0.000000 1.000000
vn 0.000000 0.000000 1.000000
vn 0.000000 0.000000 1.000000
vn 0.000000 0.000000 1.000000
vn 0.000000 1.000000 0.000000
vn 0.000000 1.000000 0.000000
vn 0.000000 1.000000 0.000000
vn 0.000000 1.000000 0.000000
vn 0.000000 0.000000 -1.000000
vn 0.000000 0.000000 -1.000000
vn 0.000000 0.000000 -1.000000
vn 0.000000 0.000000 -1.000000
vn 0.000000 -1.000000 0.000000
vn 0.000000 -1.000000 0.000000
vn 0.000000 -1.000000 0.000000
vn 0.000000 -1.000000 0.000000
vn 1.000000 0.000000 0.000000
vn 1.000000 0.000000 0.000000
vn 1.000000 0.000000 0.000000
vn 1.000000 0.000000 0.000000
vn -1.000000 0.000000 0.000000
vn -1.000000 0.000000 0.000000
vn -1.000000 0.000000 0.000000
vn -1.000000 0.000000 0.000000
vn 0.000000 0.000000 1.000000
vn 0.000000 0.000000 1.000000
vn 0.000000 0.000000 1.000000
vn 0.000000 0.000000 1.000000
vn 0.000000 1.000000 0.000000
vn 0.000000 1.000000 0.000000
vn 0.000000 1.000000 0.000000
vn 0.000000 1.000000 0.000000
vn 0.000000 0.000000 -1.000000
vn 0.000000 0.000000 -1.000000
vn 0.000000 0.000000 -1.000000
vn 0.000000 0.000000 -1.000000
vn 0.000000 -1.000000 0.000000
vn 0.000000 -1.000000 0.000000
vn 0.000000 -1.000000 0.000000
vn 0.000000 -1.000000 0.000000
vn 1.000000 0.000000 0.000000
vn 1.000000 0.000000 0.000000
vn 1.000000 0.000000 0.000000
vn 1.000000 0.000000 0.000000
vn -1.000000 0.000000 0.000000
vn -1.000000 0.000000 0.000000
vn -1.000000 0.000000 0.000000
vn -1.000000 0.000000 0.000000
s off
g pCube140
usemtl pCube138SG
f 1/1/1 2/2/2 4/3/3 3/4/4
f 3/5/5 4/6/6 6/7/7 5/8/8
f 5/9/9 6/10/10 8/11/11 7/12/12
f 7/13/13 8/14/14 2/15/15 1/16/16
f 2/17/17 8/18/18 6/19/19 4/20/20
f 7/21/21 1/22/22 3/23/23 5/24/24
f 9/25/25 10/26/26 12/27/27 11/28/28
f 11/29/29 12/30/30 14/31/31 13/32/32
f 13/33/33 14/34/34 16/35/35 15/36/36
f 15/37/37 16/38/38 10/39/39 9/40/40
f 10/41/41 16/42/42 14/43/43 12/44/44
f 15/45/45 9/46/46 11/47/47 13/48/48
