# This file uses centimeters as units for non-parametric coordinates.

mtllib Level07_Base_Floors.mtl
g default
v -1621.125488 -6493.431152 -375.319244
v 2143.720459 -6493.431152 -375.319244
v -1621.125488 -261.074371 -375.319244
v 2143.720459 -261.074371 -375.319244
v -1621.125488 -261.074371 -7389.919922
v 2143.720459 -261.074371 -7389.919922
v -1621.125488 -6493.431152 -7389.919922
v 2143.720459 -6493.431152 -7389.919922
v -5094.192871 -308.673737 -4543.008301
v 1807.417236 -308.673737 -4543.008301
v -5094.192871 -249.255081 -4543.008301
v 1807.417236 -249.255081 -4543.008301
v -4369.471191 -265.108612 -6806.987793
v 1807.417236 -249.255081 -7314.230469
v -4369.471191 -292.820190 -6806.987793
v 1807.417236 -308.673737 -7314.230469
v -2192.742676 -249.255066 -7216.222168
v -2192.742676 -308.673737 -7216.222168
v -2192.742676 -308.673737 -4543.008301
v -2192.742676 -249.255066 -4543.008301
v -3229.374023 -249.255066 -7150.330078
v -3229.374023 -308.673737 -7150.330078
v -3229.374023 -308.673737 -4543.008301
v -3229.374023 -249.255066 -4543.008301
v -5094.192871 -249.255066 -6040.048828
v -5094.192871 -308.673737 -6040.048828
v -3229.374023 -308.673737 -6040.048828
v -2192.742676 -308.673737 -6040.048828
v 1807.417236 -308.673737 -6040.048828
v 1807.417236 -249.255066 -6040.048828
v -2192.742676 -249.255066 -6040.048828
v -3229.374023 -249.255066 -6040.048828
v -4844.812012 -265.108612 -6439.446777
v -4844.812012 -292.820190 -6439.446777
v -3229.374023 -308.673737 -6619.375488
v -2192.742676 -308.673737 -6619.375488
v 1807.417236 -308.673737 -6619.375488
v 1807.417236 -249.255081 -6619.375488
v -2192.742676 -249.255066 -6619.375488
v -3229.374023 -249.255066 -6619.375488
v -4591.298828 -265.108612 -6655.989258
v -4591.298828 -292.820190 -6655.989258
v -3229.374023 -308.673737 -6990.888672
v -2192.742676 -308.673737 -6990.888672
v 1807.417236 -308.673737 -6990.888672
v 1807.417236 -249.255066 -6990.888672
v -2192.742676 -249.255066 -6990.888672
v -3229.374023 -249.255066 -6990.888672
v -3997.480469 -265.108612 -6884.894531
v -3973.878662 -249.255066 -6619.375488
v -3973.878662 -249.255066 -6040.048828
v -3973.878662 -249.255066 -4543.008301
v -3973.878662 -308.673737 -4543.008301
v -3973.878662 -308.673737 -6040.048828
v -3997.480469 -292.820190 -6711.629395
v -3997.480469 -292.820190 -6884.894531
v -3997.480469 -292.820190 -6998.789063
v -3997.480469 -265.108612 -6998.789063
v -5010.677734 -308.673737 -1505.817139
v 1807.417236 -308.673737 -405.550232
v -5010.677734 -249.255081 -1505.817139
v 1807.417236 -249.255081 -405.550232
v -5094.192871 -249.255081 -3219.766846
v 1807.417236 -249.255081 -3219.766846
v -5094.192871 -308.673737 -3219.766846
v 1807.417236 -308.673737 -3219.766846
v -4609.742188 -249.255096 -1116.521240
v -4641.849121 -249.255096 -3219.767090
v -4641.849121 -308.673737 -3219.767090
v -4609.742188 -308.673737 -1116.521240
v -4017.030518 -249.255081 -782.870178
v -4000.165039 -249.255081 -3219.766846
v -4000.165039 -308.673737 -3219.766846
v -4017.030518 -308.673737 -782.870178
v -5094.701172 -249.255081 -1685.937622
v -5094.701172 -308.673737 -1685.937622
v -4641.849121 -308.673737 -1649.913818
v -4000.165039 -308.673737 -1649.913696
v 1807.417236 -308.673737 -1629.078125
v 1807.417236 -249.255081 -1629.078125
v -4000.165039 -249.255081 -1649.913696
v -4641.849121 -249.255096 -1649.913818
vt 0.344885 0.501819
vt 0.558502 0.501819
vt 0.558502 0.942675
vt 0.344885 0.942675
vt 0.723299 0.001992
vt 0.936917 0.001992
vt 0.936917 0.498182
vt 0.723299 0.498182
vt 0.564638 0.501819
vt 0.778255 0.501819
vt 0.778255 0.942675
vt 0.564638 0.942675
vt 0.784391 0.501818
vt 0.998008 0.501818
vt 0.998008 0.998008
vt 0.784391 0.998008
vt 0.001992 0.498182
vt 0.001992 0.001992
vt 0.355616 0.001992
vt 0.355616 0.498182
vt 0.362743 0.498182
vt 0.362743 0.001992
vt 0.716367 0.001992
vt 0.716367 0.498182
vt 0.954591 0.819492
vt 0.954591 0.714216
vt 0.964444 0.714216
vt 0.964444 0.819492
vt 0.018984 0.819503
vt 0.018984 0.714226
vt 0.267223 0.714226
vt 0.267223 0.819503
vt 0.004675 0.839734
vt 0.001992 0.728884
vt 0.012048 0.728884
vt 0.009365 0.839734
vt 0.698072 0.819502
vt 0.698072 0.714225
vt 0.946310 0.714225
vt 0.946310 0.819502
vt 0.971373 0.393856
vt 0.971373 0.182167
vt 0.981226 0.182167
vt 0.981226 0.393856
vt 0.988155 0.213679
vt 0.988155 0.001992
vt 0.998008 0.001992
vt 0.998008 0.213679
vt 0.001992 0.579281
vt 0.001992 0.001992
vt 0.012048 0.001992
vt 0.012048 0.579281
vt 0.946310 0.567639
vt 0.698072 0.567639
vt 0.698072 0.001992
vt 0.946310 0.001992
vt 0.964444 0.567632
vt 0.954591 0.567632
vt 0.954591 0.001992
vt 0.964444 0.001992
vt 0.267223 0.567639
vt 0.018984 0.567639
vt 0.018984 0.001992
vt 0.267223 0.001992
vt 0.009365 0.962018
vt 0.012048 0.998008
vt 0.001992 0.998008
vt 0.004675 0.962018
vt 0.586711 0.822840
vt 0.602008 0.714225
vt 0.602008 0.567639
vt 0.602008 0.001992
vt 0.971373 0.100248
vt 0.981226 0.100248
vt 0.363287 0.567639
vt 0.363287 0.001992
vt 0.363287 0.714226
vt 0.363287 0.819503
vt 0.009365 0.925432
vt 0.004675 0.925432
vt 0.557980 0.822840
vt 0.540404 0.714225
vt 0.540404 0.567639
vt 0.540404 0.001992
vt 0.971373 0.047714
vt 0.981226 0.047714
vt 0.424891 0.567639
vt 0.424891 0.001992
vt 0.424891 0.714226
vt 0.407315 0.822841
vt 0.009365 0.893419
vt 0.004675 0.893419
vt 0.539094 0.822840
vt 0.513965 0.714225
vt 0.503039 0.567639
vt 0.486788 0.001992
vt 0.971373 0.001992
vt 0.981226 0.001992
vt 0.462255 0.567639
vt 0.478507 0.001992
vt 0.451329 0.714226
vt 0.426201 0.822841
vt 0.333451 0.942658
vt 0.369358 0.906810
vt 0.267223 0.977922
vt 0.018984 0.977922
vt 0.954591 0.977909
vt 0.964444 0.977909
vt 0.698072 0.977921
vt 0.946310 0.977921
vt 0.631844 0.942657
vt 0.595937 0.906809
vt 0.570898 0.875441
vt 0.394396 0.875442
vt 0.987866 0.060628
vt 0.987866 0.001992
vt 0.998008 0.001992
vt 0.998008 0.060628
vt 0.181913 0.985883
vt 0.118253 0.928026
vt 0.205476 0.932659
vt 0.211367 0.998008
vt 0.937748 0.997930
vt 0.937748 0.932654
vt 0.947464 0.932654
vt 0.947464 0.997930
vt 0.720793 0.998008
vt 0.726684 0.932659
vt 0.813906 0.928026
vt 0.750247 0.985883
vt 0.971160 0.408095
vt 0.971160 0.231535
vt 0.980876 0.231535
vt 0.980876 0.408095
vt 0.987866 0.087758
vt 0.998008 0.087758
vt 0.063693 0.842494
vt 0.205476 0.840060
vt 0.937748 0.840056
vt 0.947464 0.840056
vt 0.726684 0.840060
vt 0.868467 0.842494
vt 0.964245 0.935192
vt 0.954454 0.935192
vt 0.954454 0.848998
vt 0.964245 0.848998
vt 0.001992 0.001992
vt 0.202069 0.001992
vt 0.937748 0.001992
vt 0.947464 0.001992
vt 0.730091 0.001992
vt 0.930168 0.001992
vt 0.954454 0.001992
vt 0.964245 0.001992
vt 0.987866 0.318786
vt 0.998008 0.318786
vt 0.469974 0.997935
vt 0.469974 0.932659
vt 0.469974 0.840060
vt 0.469974 0.001992
vt 0.971160 0.001992
vt 0.980876 0.001992
vt 0.462186 0.001992
vt 0.462186 0.840060
vt 0.462186 0.932659
vt 0.462186 0.997935
vn 0.000000 0.000000 1.000000
vn 0.000000 0.000000 1.000000
vn 0.000000 0.000000 1.000000
vn 0.000000 0.000000 1.000000
vn 0.000000 1.000000 0.000000
vn 0.000000 1.000000 0.000000
vn 0.000000 1.000000 0.000000
vn 0.000000 1.000000 0.000000
vn 0.000000 0.000000 -1.000000
vn 0.000000 0.000000 -1.000000
vn 0.000000 0.000000 -1.000000
vn 0.000000 0.000000 -1.000000
vn 0.000000 -1.000000 0.000000
vn 0.000000 -1.000000 0.000000
vn 0.000000 -1.000000 0.000000
vn 0.000000 -1.000000 0.000000
vn 1.000000 0.000000 0.000000
vn 1.000000 0.000000 0.000000
vn 1.000000 0.000000 0.000000
vn 1.000000 0.000000 0.000000
vn -1.000000 0.000000 0.000000
vn -1.000000 0.000000 0.000000
vn -1.000000 0.000000 0.000000
vn -1.000000 0.000000 0.000000
vn 0.000000 0.000000 1.000000
vn 0.000000 0.000000 1.000000
vn 0.000000 0.000000 1.000000
vn 0.000000 0.000000 1.000000
vn -0.000000 1.000000 0.000000
vn 0.000000 1.000000 0.000000
vn 0.000000 1.000000 0.000000
vn -0.001241 0.999996 -0.002401
vn -0.262038 0.000000 -0.965057
vn -0.109581 0.000000 -0.993978
vn -0.109581 0.000000 -0.993978
vn -0.262038 0.000000 -0.965057
vn -0.001802 -0.999982 -0.005638
vn -0.001228 -0.999998 -0.001578
vn 0.000000 -1.000000 0.000000
vn 0.000000 -1.000000 0.000000
vn 1.000000 0.000000 0.000000
vn 1.000000 0.000000 0.000000
vn 1.000000 0.000000 0.000000
vn 1.000000 0.000000 0.000000
vn -0.995006 0.000000 -0.099816
vn -1.000000 0.000000 0.000000
vn -1.000000 0.000000 0.000000
vn -0.995006 0.000000 -0.099816
vn -0.032524 0.000000 -0.999471
vn -0.024494 0.000000 -0.999700
vn -0.024494 0.000000 -0.999700
vn -0.032524 0.000000 -0.999471
vn 0.000000 -1.000000 0.000000
vn 0.000000 -1.000000 0.000000
vn 0.000000 -1.000000 0.000000
vn 0.000000 -1.000000 0.000000
vn 0.000000 0.000000 1.000000
vn 0.000000 0.000000 1.000000
vn 0.000000 0.000000 1.000000
vn 0.000000 0.000000 1.000000
vn 0.000000 1.000000 0.000000
vn 0.000000 1.000000 0.000000
vn 0.000000 1.000000 0.000000
vn 0.000000 1.000000 0.000000
vn -0.109581 0.000000 -0.993978
vn -0.032524 0.000000 -0.999471
vn -0.032524 0.000000 -0.999471
vn -0.109581 0.000000 -0.993978
vn 0.000000 -1.000000 0.000000
vn -0.001228 -0.999998 -0.001578
vn 0.000000 -1.000000 0.000000
vn 0.000000 -1.000000 0.000000
vn 0.000000 0.000000 1.000000
vn 0.000000 0.000000 1.000000
vn 0.000000 0.000000 1.000000
vn 0.000000 0.000000 1.000000
vn 0.000000 1.000000 0.000000
vn 0.000000 1.000000 0.000000
vn 0.000000 1.000000 0.000000
vn 0.000000 1.000000 0.000000
vn -0.795282 0.000000 -0.606240
vn -0.995006 0.000000 -0.099816
vn -0.995006 0.000000 -0.099816
vn -0.795282 0.000000 -0.606240
vn -0.008781 -0.999847 -0.015111
vn -0.005293 -0.999979 -0.003763
vn -0.001228 -0.999998 -0.001578
vn -0.001802 -0.999982 -0.005638
vn 0.000000 -1.000000 0.000000
vn -0.001228 -0.999998 -0.001578
vn -0.005293 -0.999979 -0.003763
vn 0.000000 -1.000000 0.000000
vn 0.000000 -1.000000 0.000000
vn 0.000000 -1.000000 0.000000
vn 0.000000 -1.000000 0.000000
vn 0.000000 -1.000000 0.000000
vn 1.000000 0.000000 0.000000
vn 1.000000 0.000000 0.000000
vn 1.000000 0.000000 0.000000
vn 1.000000 0.000000 0.000000
vn 0.000000 1.000000 0.000000
vn 0.000000 1.000000 0.000000
vn 0.000000 1.000000 0.000000
vn 0.000000 1.000000 0.000000
vn -0.001776 0.999992 -0.003558
vn 0.000000 1.000000 0.000000
vn 0.000000 1.000000 0.000000
vn 0.000000 1.000000 0.000000
vn -0.001241 0.999996 -0.002401
vn 0.000000 1.000000 0.000000
vn -0.001776 0.999992 -0.003558
vn -0.008612 0.999823 -0.016731
vn -0.611690 0.000000 -0.791098
vn -0.795282 0.000000 -0.606240
vn -0.795282 0.000000 -0.606240
vn -0.611690 0.000000 -0.791098
vn -0.014610 -0.999893 0.000000
vn -0.007078 -0.999975 0.000000
vn -0.005293 -0.999979 -0.003763
vn -0.008781 -0.999847 -0.015111
vn 0.000000 -1.000000 0.000000
vn -0.005293 -0.999979 -0.003763
vn -0.007078 -0.999975 0.000000
vn 0.000000 -1.000000 0.000000
vn 0.000000 -1.000000 0.000000
vn 0.000000 -1.000000 0.000000
vn 0.000000 -1.000000 0.000000
vn 0.000000 -1.000000 0.000000
vn 1.000000 0.000000 0.000000
vn 1.000000 0.000000 0.000000
vn 1.000000 0.000000 0.000000
vn 1.000000 0.000000 0.000000
vn 0.000000 1.000000 0.000000
vn 0.000000 1.000000 0.000000
vn 0.000000 1.000000 0.000000
vn 0.000000 1.000000 0.000000
vn -0.005487 0.999968 -0.005860
vn -0.001776 0.999992 -0.003558
vn 0.000000 1.000000 0.000000
vn 0.000000 1.000000 0.000000
vn -0.008612 0.999823 -0.016731
vn -0.001776 0.999992 -0.003558
vn -0.005487 0.999968 -0.005860
vn -0.015199 0.999636 -0.022280
vn -0.562707 0.000000 -0.826657
vn -0.611690 0.000000 -0.791098
vn -0.611690 0.000000 -0.791098
vn -0.562707 0.000000 -0.826657
vn -0.016643 -0.999862 0.000000
vn -0.006338 -0.999980 0.000000
vn -0.007078 -0.999975 0.000000
vn -0.014610 -0.999893 0.000000
vn 0.000000 -1.000000 0.000000
vn -0.007078 -0.999975 0.000000
vn -0.006338 -0.999980 0.000000
vn 0.000000 -1.000000 0.000000
vn 0.000000 -1.000000 0.000000
vn 0.000000 -1.000000 0.000000
vn 0.000000 -1.000000 0.000000
vn 0.000000 -1.000000 0.000000
vn 1.000000 0.000000 0.000000
vn 1.000000 0.000000 0.000000
vn 1.000000 0.000000 0.000000
vn 1.000000 0.000000 0.000000
vn 0.000000 1.000000 0.000000
vn 0.000000 1.000000 0.000000
vn 0.000000 1.000000 0.000000
vn 0.000000 1.000000 0.000000
vn -0.006338 0.999980 0.000000
vn -0.005487 0.999968 -0.005860
vn 0.000000 1.000000 0.000000
vn 0.000000 1.000000 0.000000
vn -0.016643 0.999862 -0.000000
vn -0.015199 0.999636 -0.022280
vn -0.005487 0.999968 -0.005860
vn -0.006338 0.999980 0.000000
vn -0.010516 0.999739 -0.020289
vn -0.008612 0.999823 -0.016731
vn -0.015199 0.999636 -0.022280
vn -0.022556 0.998824 -0.042907
vn -0.001493 0.999995 -0.002886
vn -0.001241 0.999996 -0.002401
vn -0.008612 0.999823 -0.016731
vn -0.010516 0.999739 -0.020289
vn -0.000000 1.000000 0.000000
vn -0.000000 1.000000 0.000000
vn -0.001241 0.999996 -0.002401
vn -0.001493 0.999995 -0.002886
vn 0.000000 0.000000 1.000000
vn 0.000000 0.000000 1.000000
vn 0.000000 0.000000 1.000000
vn 0.000000 0.000000 1.000000
vn -0.000693 -0.999987 -0.005012
vn -0.001802 -0.999982 -0.005638
vn 0.000000 -1.000000 0.000000
vn 0.000000 -1.000000 0.000000
vn -0.004076 -0.999558 -0.029465
vn -0.008781 -0.999847 -0.015111
vn -0.001802 -0.999982 -0.005638
vn -0.000693 -0.999987 -0.005012
vn 0.000000 -1.000000 0.000000
vn -0.014610 -0.999893 0.000000
vn -0.008781 -0.999847 -0.015111
vn -0.004076 -0.999558 -0.029465
vn 0.000000 -1.000000 0.000000
vn -0.016643 -0.999862 0.000000
vn -0.014610 -0.999893 0.000000
vn 0.000000 -1.000000 0.000000
vn -0.458277 0.000000 -0.888810
vn -0.262038 0.000000 -0.965057
vn -0.262038 0.000000 -0.965057
vn -0.458277 0.000000 -0.888810
vn -0.022556 0.998824 -0.042907
vn -0.015199 0.999636 -0.022280
vn -0.016643 0.999862 -0.000000
vn 0.000000 1.000000 -0.000000
vn -0.696616 0.000000 0.717444
vn -0.588328 0.000000 0.808622
vn -0.588328 0.000000 0.808622
vn -0.696616 0.000000 0.717444
vn 0.000000 1.000000 -0.000000
vn -0.000000 1.000000 0.000000
vn -0.000000 1.000000 -0.000000
vn 0.000000 1.000000 -0.000000
vn -0.000001 0.000000 -1.000000
vn -0.000000 0.000000 -1.000000
vn -0.000000 0.000000 -1.000000
vn -0.000001 0.000000 -1.000000
vn 0.000000 -1.000000 0.000000
vn 0.000000 -1.000000 -0.000000
vn 0.000000 -1.000000 -0.000000
vn 0.000000 -1.000000 -0.000000
vn 1.000000 0.000000 0.000000
vn 1.000000 0.000000 0.000000
vn 1.000000 0.000000 0.000000
vn 1.000000 0.000000 0.000000
vn -0.998815 0.000000 0.048669
vn -0.906246 0.000000 0.422750
vn -0.906246 0.000000 0.422750
vn -0.998815 0.000000 0.048669
vn -0.000000 1.000000 0.000000
vn -0.000000 1.000000 0.000000
vn -0.000000 1.000000 0.000000
vn -0.000000 1.000000 -0.000000
vn -0.000000 0.000000 -1.000000
vn -0.000000 0.000000 -1.000000
vn 0.000000 0.000000 -1.000000
vn 0.000000 0.000000 -1.000000
vn 0.000000 -1.000000 -0.000000
vn 0.000000 -1.000000 -0.000000
vn 0.000000 -1.000000 -0.000000
vn 0.000000 -1.000000 -0.000000
vn -0.588328 0.000000 0.808622
vn -0.588328 0.000000 0.808622
vn -0.110118 0.000000 0.993918
vn -0.110118 0.000000 0.993918
vn -0.000000 1.000000 0.000000
vn 0.000000 1.000000 0.000000
vn 0.000000 1.000000 0.000000
vn -0.000000 1.000000 0.000000
vn 0.000000 0.000000 -1.000000
vn 0.000000 0.000000 -1.000000
vn 0.000000 0.000000 -1.000000
vn 0.000000 0.000000 -1.000000
vn 0.000000 -1.000000 -0.000000
vn 0.000000 -1.000000 -0.000000
vn 0.000000 -1.000000 -0.000000
vn 0.000000 -1.000000 -0.000000
vn -0.110118 0.000000 0.993918
vn -0.110118 0.000000 0.993918
vn -0.064647 0.000000 0.997908
vn -0.064647 0.000000 0.997908
vn -1.000000 0.000000 -0.000331
vn -0.998815 0.000000 0.048669
vn -0.998815 0.000000 0.048669
vn -1.000000 0.000000 -0.000331
vn 0.000000 -1.000000 0.000000
vn 0.000000 -1.000000 0.000000
vn 0.000000 -1.000000 -0.000000
vn 0.000000 -1.000000 0.000000
vn 0.000000 -1.000000 -0.000000
vn 0.000000 -1.000000 -0.000000
vn 0.000000 -1.000000 0.000000
vn 0.000000 -1.000000 0.000000
vn 0.000000 -1.000000 -0.000000
vn 0.000000 -1.000000 -0.000000
vn 0.000000 -1.000000 0.000000
vn 0.000000 -1.000000 0.000000
vn 1.000000 0.000000 0.000000
vn 1.000000 0.000000 0.000000
vn 1.000000 0.000000 0.000000
vn 1.000000 0.000000 0.000000
vn -0.000000 1.000000 0.000000
vn 0.000000 1.000000 0.000000
vn 0.000000 1.000000 0.000000
vn -0.000000 1.000000 0.000000
vn -0.000000 1.000000 -0.000000
vn -0.000000 1.000000 0.000000
vn -0.000000 1.000000 0.000000
vn -0.000000 1.000000 -0.000000
vn 0.000000 1.000000 -0.000000
vn -0.000000 1.000000 -0.000000
vn -0.000000 1.000000 -0.000000
vn 0.000000 1.000000 -0.000000
s off
g polySurface809
usemtl polySurface809SG
f 1/1/1 2/2/2 4/3/3 3/4/4
f 3/5/5 4/6/6 6/7/7 5/8/8
f 5/9/9 6/10/10 8/11/11 7/12/12
f 7/13/13 8/14/14 2/15/15 1/16/16
f 2/17/17 8/18/18 6/19/19 4/20/20
f 7/21/21 1/22/22 3/23/23 5/24/24
f 53/25/25 23/26/26 24/27/27 52/28/28
f 52/29/29 24/30/30 32/31/31 51/32/32
f 58/33/33 21/34/34 22/35/35 57/36/36
f 54/37/37 27/38/38 23/39/39 53/40/40
f 10/41/41 29/42/42 30/43/43 12/44/44
f 26/45/45 9/46/46 11/47/47 25/48/48
f 17/49/49 14/50/50 16/51/51 18/52/52
f 19/53/53 28/54/54 29/55/55 10/56/56
f 20/57/57 19/58/58 10/59/59 12/60/60
f 31/61/61 20/62/62 12/63/63 30/64/64
f 21/34/65 17/49/66 18/52/67 22/35/68
f 23/39/69 27/38/70 28/54/71 19/53/72
f 24/27/73 23/26/74 19/58/75 20/57/76
f 32/31/77 24/30/78 20/62/79 31/61/80
f 34/65/81 26/66/82 25/67/83 33/68/84
f 55/69/85 35/70/86 27/38/87 54/37/88
f 28/54/89 27/38/90 35/70/91 36/71/92
f 29/55/93 28/54/94 36/71/95 37/72/96
f 30/43/97 29/42/98 37/73/99 38/74/100
f 39/75/101 31/61/102 30/64/103 38/76/104
f 40/77/105 32/31/106 31/61/107 39/75/108
f 51/32/109 32/31/110 40/77/111 50/78/112
f 42/79/113 34/65/114 33/68/115 41/80/116
f 56/81/117 43/82/118 35/70/119 55/69/120
f 36/71/121 35/70/122 43/82/123 44/83/124
f 37/72/125 36/71/126 44/83/127 45/84/128
f 38/74/129 37/73/130 45/85/131 46/86/132
f 47/87/133 39/75/134 38/76/135 46/88/136
f 48/89/137 40/77/138 39/75/139 47/87/140
f 50/78/141 40/77/142 48/89/143 49/90/144
f 15/91/145 42/79/146 41/80/147 13/92/148
f 57/93/149 22/94/150 43/82/151 56/81/152
f 44/83/153 43/82/154 22/94/155 18/95/156
f 45/84/157 44/83/158 18/95/159 16/96/160
f 46/86/161 45/85/162 16/97/163 14/98/164
f 17/99/165 47/87/166 46/88/167 14/100/168
f 21/101/169 48/89/170 47/87/171 17/99/172
f 58/102/173 49/90/174 48/89/175 21/101/176
f 33/103/177 50/78/178 49/90/179 41/104/180
f 25/105/181 51/32/182 50/78/183 33/103/184
f 11/106/185 52/29/186 51/32/187 25/105/188
f 9/107/189 53/25/190 52/28/191 11/108/192
f 26/109/193 54/37/194 53/40/195 9/110/196
f 34/111/197 55/69/198 54/37/199 26/109/200
f 42/112/201 56/81/202 55/69/203 34/111/204
f 15/113/205 57/93/206 56/81/207 42/112/208
f 13/92/209 58/33/210 57/36/211 15/91/212
f 41/104/213 49/90/214 58/102/215 13/114/216
f 59/115/217 70/116/218 67/117/219 61/118/220
f 61/119/221 67/120/222 82/121/223 75/122/224
f 63/123/225 68/124/226 69/125/227 65/126/228
f 76/127/229 77/128/230 70/129/231 59/130/232
f 60/131/233 79/132/234 80/133/235 62/134/236
f 76/135/237 59/115/238 61/118/239 75/136/240
f 67/120/241 71/137/242 81/138/243 82/121/244
f 69/125/245 68/124/246 72/139/247 73/140/248
f 70/129/249 77/128/250 78/141/251 74/142/252
f 67/143/253 70/144/254 74/145/255 71/146/256
f 71/137/257 62/147/258 80/148/259 81/138/260
f 73/140/261 72/139/262 64/149/263 66/150/264
f 74/142/265 78/141/266 79/151/267 60/152/268
f 71/146/269 74/145/270 60/153/271 62/154/272
f 65/155/273 76/135/274 75/136/275 63/156/276
f 65/157/277 69/158/278 77/128/279 76/127/280
f 78/141/281 77/128/282 69/158/283 73/159/284
f 79/151/285 78/141/286 73/159/287 66/160/288
f 80/133/289 79/132/290 66/161/291 64/162/292
f 81/138/293 80/148/294 64/163/295 72/164/296
f 82/121/297 81/138/298 72/164/299 68/165/300
f 75/122/301 82/121/302 68/165/303 63/166/304
