# This file uses centimeters as units for non-parametric coordinates.

g default
v -1371.480957 -273.664093 -3581.468506
v -912.006287 -273.664093 -3581.468506
v -912.006287 -273.664093 -4188.795410
v -1371.480957 -273.664093 -4188.795410
v -1371.480957 -126.629028 -3581.468506
v -912.006287 -126.629028 -3581.468506
v -912.006287 -126.629028 -4188.795410
v -1371.480957 -126.629028 -4188.795410
v 1052.233643 -273.664093 -3581.468994
v 1511.708496 -273.664093 -3581.468994
v 1511.708496 -273.664093 -4188.795898
v 1052.233643 -273.664093 -4188.795898
v 1052.233643 -126.629028 -3581.468994
v 1511.708496 -126.629028 -3581.468994
v 1511.708496 -126.629028 -4188.795898
v 1052.233643 -126.629028 -4188.795898
v -4348.989258 -273.664093 -3581.468994
v -3889.514648 -273.664093 -3581.468994
v -3889.514648 -273.664093 -4188.795898
v -4348.989258 -273.664093 -4188.795898
v -4348.989258 -126.629028 -3581.468994
v -3889.514648 -126.629028 -3581.468994
v -3889.514648 -126.629028 -4188.795898
v -4348.989258 -126.629028 -4188.795898
vt 0.457242 0.012325
vt 0.543576 0.012325
vt 0.543576 0.987675
vt 0.457242 0.987675
vt 0.590307 0.005734
vt 0.590307 0.994265
vt 0.410511 0.005734
vt 0.410511 0.994265
vt 0.781414 0.012325
vt 0.891689 0.012325
vt 0.891689 0.987675
vt 0.781414 0.987675
vt 0.926449 0.005734
vt 0.926449 0.994265
vt 0.746654 0.005734
vt 0.746654 0.994265
vt 0.085302 0.012500
vt 0.235276 0.012500
vt 0.235276 0.987499
vt 0.085302 0.987499
vt 0.250187 0.005734
vt 0.250187 0.994265
vt 0.070391 0.005734
vt 0.070391 0.994265
vn 0.000000 0.000000 1.000000
vn 0.000000 0.000000 1.000000
vn 0.000000 0.000000 1.000000
vn 0.000000 0.000000 1.000000
vn 1.000000 0.000000 0.000000
vn 1.000000 0.000000 0.000000
vn 1.000000 0.000000 0.000000
vn 1.000000 0.000000 0.000000
vn 0.000000 0.000000 -1.000000
vn 0.000000 0.000000 -1.000000
vn 0.000000 0.000000 -1.000000
vn 0.000000 0.000000 -1.000000
vn -1.000000 0.000000 0.000000
vn -1.000000 0.000000 0.000000
vn -1.000000 0.000000 0.000000
vn -1.000000 0.000000 0.000000
vn 0.000000 0.000000 1.000000
vn 0.000000 0.000000 1.000000
vn 0.000000 0.000000 1.000000
vn 0.000000 0.000000 1.000000
vn 1.000000 0.000000 0.000000
vn 1.000000 0.000000 0.000000
vn 1.000000 0.000000 0.000000
vn 1.000000 0.000000 0.000000
vn 0.000000 0.000000 -1.000000
vn 0.000000 0.000000 -1.000000
vn 0.000000 0.000000 -1.000000
vn 0.000000 0.000000 -1.000000
vn -1.000000 0.000000 0.000000
vn -1.000000 0.000000 0.000000
vn -1.000000 0.000000 0.000000
vn -1.000000 0.000000 0.000000
vn 0.000000 0.000000 1.000000
vn 0.000000 0.000000 1.000000
vn 0.000000 0.000000 1.000000
vn 0.000000 0.000000 1.000000
vn 1.000000 0.000000 0.000000
vn 1.000000 0.000000 0.000000
vn 1.000000 0.000000 0.000000
vn 1.000000 0.000000 0.000000
vn 0.000000 0.000000 -1.000000
vn 0.000000 0.000000 -1.000000
vn 0.000000 0.000000 -1.000000
vn 0.000000 0.000000 -1.000000
vn -1.000000 0.000000 0.000000
vn -1.000000 0.000000 0.000000
vn -1.000000 0.000000 0.000000
vn -1.000000 0.000000 0.000000
s off
g Level07_Hololight09:polySurface621
f 1/1/1 2/2/2 6/3/3 5/4/4
f 2/2/5 3/5/6 7/6/7 6/3/8
f 3/5/9 4/7/10 8/8/11 7/6/12
f 4/7/13 1/1/14 5/4/15 8/8/16
f 9/9/17 10/10/18 14/11/19 13/12/20
f 10/10/21 11/13/22 15/14/23 14/11/24
f 11/13/25 12/15/26 16/16/27 15/14/28
f 12/15/29 9/9/30 13/12/31 16/16/32
f 17/17/33 18/18/34 22/19/35 21/20/36
f 18/18/37 19/21/38 23/22/39 22/19/40
f 19/21/41 20/23/42 24/24/43 23/22/44
f 20/23/45 17/17/46 21/20/47 24/24/48
