# This file uses centimeters as units for non-parametric coordinates.

g default
v -7181.708496 5.350487 -2875.430176
v -5093.925293 5.350487 -2875.430176
v -5093.925293 5.350487 -2256.450195
v -7181.708496 5.350487 -2256.450195
v -9489.526367 322.798157 -2256.450195
v -9489.526367 322.798157 -2875.430176
v -11942.083008 1306.900757 -2256.450195
v -12137.453125 1331.726440 -2875.430176
v -15298.580078 2696.836670 -2256.450195
v -15298.580078 2934.226563 -2875.430176
v -17813.185547 5364.036621 -2256.450195
v -17765.117188 5336.005859 -2875.430176
v -19437.736328 8903.219727 -2256.450195
v -19437.736328 8903.219727 -2875.430176
v -7181.708496 5.350487 -5460.301758
v -5093.925293 5.350487 -5460.301758
v -5093.925293 5.350487 -4841.321777
v -7181.708496 5.350487 -4841.321777
v -9489.526367 322.798157 -4841.321777
v -9489.526367 322.798157 -5460.301758
v -12235.759766 1140.569458 -4841.321777
v -12235.759766 1140.569458 -5460.301758
v -15240.134766 2619.166748 -4841.321777
v -15240.134766 2619.166748 -5460.301758
v -17791.812500 5290.380859 -4841.321777
v -17791.812500 5290.380859 -5460.301758
v -19435.003906 8898.681641 -4841.321777
v -19435.003906 8898.681641 -5460.301758
vt 0.634713 0.000847
vt 0.574696 0.000847
vt 0.574696 0.988900
vt 0.634713 0.988900
vt 0.701055 0.988900
vt 0.701055 0.000847
vt 0.771558 0.988901
vt 0.777174 0.000847
vt 0.868045 0.988901
vt 0.868045 0.000847
vt 0.940332 0.988901
vt 0.938950 0.000847
vt 0.987032 0.988901
vt 0.987032 0.000847
vt 0.373077 0.991122
vt 0.428706 0.991122
vt 0.428706 0.005318
vt 0.373077 0.005318
vt 0.311586 0.005318
vt 0.311586 0.991122
vt 0.238413 0.005318
vt 0.238413 0.991122
vt 0.158363 0.005318
vt 0.158363 0.991121
vt 0.090374 0.005318
vt 0.090374 0.991121
vt 0.046591 0.005318
vt 0.046591 0.991121
vn -0.039918 -0.999203 0.000000
vn 0.000000 -1.000000 0.000000
vn 0.000000 -1.000000 0.000000
vn -0.039918 -0.999203 0.000000
vn -0.039918 -0.999203 0.000000
vn -0.039918 -0.999203 0.000000
vn -0.200702 -0.979652 0.000000
vn -0.200702 -0.979652 0.000000
vn -0.200702 -0.979652 0.000000
vn -0.200702 -0.979652 0.000000
vn -0.508267 -0.861200 0.000000
vn -0.508267 -0.861200 0.000000
vn -0.508267 -0.861200 0.000000
vn -0.508267 -0.861200 0.000000
vn -0.769601 -0.638525 0.000000
vn -0.769601 -0.638525 0.000000
vn -0.769601 -0.638525 0.000000
vn -0.769601 -0.638525 0.000000
vn -0.925910 -0.377744 0.000000
vn -0.925910 -0.377744 0.000000
vn -0.925910 -0.377744 0.000000
vn -0.925910 -0.377744 0.000000
vn -0.983577 -0.180489 0.000000
vn -0.983577 -0.180489 0.000000
vn -0.039918 -0.999203 0.000000
vn 0.000000 -1.000000 0.000000
vn 0.000000 -1.000000 0.000000
vn -0.039918 -0.999203 0.000000
vn -0.039918 -0.999203 0.000000
vn -0.039918 -0.999203 0.000000
vn -0.200702 -0.979652 0.000000
vn -0.200702 -0.979652 0.000000
vn -0.200702 -0.979652 0.000000
vn -0.200702 -0.979652 0.000000
vn -0.508267 -0.861200 0.000000
vn -0.508267 -0.861200 0.000000
vn -0.508267 -0.861200 0.000000
vn -0.508267 -0.861200 0.000000
vn -0.769601 -0.638525 0.000000
vn -0.769601 -0.638525 0.000000
vn -0.769601 -0.638525 0.000000
vn -0.769601 -0.638525 0.000000
vn -0.925910 -0.377744 0.000000
vn -0.925910 -0.377744 0.000000
vn -0.925910 -0.377744 0.000000
vn -0.925910 -0.377744 0.000000
vn -0.983577 -0.180489 0.000000
vn -0.983577 -0.180489 0.000000
s off
g Level07_Hololight04:polySurface604
f 1/1/1 2/2/2 3/3/3 4/4/4
f 1/1/5 4/4/6 5/5/7 6/6/8
f 6/6/9 5/5/10 7/7/11 8/8/12
f 8/8/13 7/7/14 9/9/15 10/10/16
f 10/10/17 9/9/18 11/11/19 12/12/20
f 12/12/21 11/11/22 13/13/23 14/14/24
f 15/15/25 16/16/26 17/17/27 18/18/28
f 15/15/29 18/18/30 19/19/31 20/20/32
f 20/20/33 19/19/34 21/21/35 22/22/36
f 22/22/37 21/21/38 23/23/39 24/24/40
f 24/24/41 23/23/42 25/25/43 26/26/44
f 26/26/45 25/25/46 27/27/47 28/28/48
