# This file uses centimeters as units for non-parametric coordinates.

mtllib Level07_Water.mtl
g default
v -147.830538 247.145136 -5436.982378
v 774.620058 247.145136 -5436.982378
v -147.830538 247.145136 -6461.083701
v 774.620058 247.145136 -6461.083701
vt 0.000000 0.000000
vt 1.000000 0.000000
vt 0.000000 1.000000
vt 1.000000 1.000000
vn 0.000000 1.000000 0.000000
vn 0.000000 1.000000 0.000000
vn 0.000000 1.000000 0.000000
vn 0.000000 1.000000 0.000000
s off
g pPlane7
usemtl pPlane7SG
f 1/1/1 2/2/2 4/4/3 3/3/4
